<?xml version="1.0" encoding="utf-8"?>
<!-- Generator: Adobe Illustrator 19.0.0, SVG Export Plug-In . SVG Version: 6.00 Build 0)  -->
<svg version="1.1" xmlns="http://www.w3.org/2000/svg" xmlns:xlink="http://www.w3.org/1999/xlink" x="0px" y="0px"
	 viewBox="0 0 1600 1200" style="enable-background:new 0 0 1600 1200;" xml:space="preserve">
<style type="text/css">
	.st0{fill:#E8E8E8;}
	.st1{fill:#161616;}
	.st2{fill:#F87774;}
	.st3{fill:#BC5B5B;}
	.st4{opacity:0.38;fill:#6C6D6D;}
	.st5{opacity:0.26;fill:#6C6D6D;}
	.st6{fill:#EC615B;}
	.st7{fill:#842B08;}
	.st8{opacity:0.41;fill:#6C6D6D;}
	.st9{opacity:0.39;fill:#6C6D6D;}
	.st10{opacity:0.48;fill:#6C6D6D;}
	.st11{fill:#FFFFFF;}
	.st12{opacity:0.15;fill:#6C6D6D;}
	.st13{opacity:0.29;fill:#6C6D6D;}
	.st14{opacity:0.33;fill:#6C6D6D;}
	.st15{opacity:0.31;fill:#6C6D6D;}
	.st16{fill:#5222D0;}
	.st17{fill:#F8F263;}
	.st18{fill:#161616;stroke:#161616;stroke-miterlimit:10;}
	.st19{opacity:0.19;fill:#444647;}
	.st20{opacity:0.53;fill:#125689;}
	.st21{opacity:0.15;fill:#252626;}
</style>
<g id="background">
	<g>
		<g>
			<path class="st0" d="M107.8,504.9c52-25.3,106.1-46.1,161.7-62c14-4,28.3-7.8,42.9-9.3c15.1-1.5,30.1,0.1,45,2.8
				c28.7,5.2,57,12.8,84.9,21.3c31.7,9.7,62.9,20.8,94,31.9c1.8,0.6,2.6-2.2,0.8-2.9c-56.8-20.2-114-40.5-173.3-52.1
				c-13.8-2.7-27.9-4.9-42-4.5c-14.3,0.4-28.4,3.3-42.1,6.9c-28.1,7.4-55.9,16.6-83.2,26.7c-30.7,11.4-60.7,24.3-90.1,38.6
				C104.6,503.1,106.1,505.7,107.8,504.9L107.8,504.9z"/>
		</g>
	</g>
	<g>
		<g>
			<path class="st0" d="M390,442.1c40.4-10.9,81.7-18.2,123.1-24.4c20.4-3,40.8-5.8,61.3-8.6c21-2.8,42.1-5.4,63.4-5.6
				c76.1-0.6,148.5,26.6,221.3,44.8c40.4,10.1,81.7,17.6,123.5,16.5c1.9,0,1.9-3,0-3c-76.8,2-149.8-24.9-223.2-43.6
				c-35.9-9.1-72.4-16.5-109.5-17.7c-40.6-1.2-81.2,6.1-121.3,11.8c-46.9,6.7-93.6,14.4-139.4,26.8
				C387.4,439.8,388.2,442.7,390,442.1L390,442.1z"/>
		</g>
	</g>
	<g>
		<g>
			<path class="st0" d="M858.5,488.9c40.5,2.6,81.3,0.5,121.3-6.6c39.9-7,79.4-22.3,120.5-19.3c1.9,0.1,1.9-2.9,0-3
				c-40.1-2.9-78.6,11.5-117.5,18.7c-41,7.6-82.8,9.9-124.3,7.2C856.6,485.8,856.6,488.8,858.5,488.9L858.5,488.9z"/>
		</g>
	</g>
	<g>
		<g>
			<path class="st0" d="M271.6,448.7c-8.7,11.9-5.5,28.2,3.1,39.2c10.3,13.2,27.4,18.8,42.7,24c9,3.1,18.1,6.2,26.2,11.1
				c4,2.4,7.7,5.1,11,8.4c2.3,2.4,4.5,4.9,4,8.6c-0.4,2.9-3.7,5.6-5.8,7.4c-7.8,6.9-15.7,13.6-23.6,20.4
				c-5.6,4.8-12.4,10.2-13.1,18.1c-1.2,13.8,15.6,19.8,26.3,22.4c20.6,5.1,41.5,8.9,62.5,11.9c41.6,5.9,83.6,8.5,125.6,10.5
				c42.9,2,85.9,3.4,128.8,7.1c10.4,0.9,20.9,1.9,31.3,3.2c7.2,0.9,20.9,3.7,19.5,13.6c-1.2,8.2-13,13.3-18.9,18
				c-7.4,5.8-14.3,12.4-20.5,19.5c-5.9,6.8-11.2,14.1-15.8,21.9c-3.4,5.8-6.9,13.1-5,20c1.8,6.3,7.8,8.7,13.7,9.3
				c10.1,1,20.6,0.3,30.7,0c42.4-1.4,84.5-7.5,126.7-10.7c21.2-1.6,42.5-2.4,63.8-1.5c19.7,0.9,40.6,2.4,59.4,8.5
				c7.6,2.4,15.6,6.1,20.9,12.3c6.5,7.6,6.1,17.4,0.8,25.6c-5.1,7.9-13.1,13.9-20.3,19.9c-8.5,7-17.2,13.8-26.1,20.3
				c-8.3,6-16.7,11.8-25.3,17.3c-1.6,1-0.1,3.6,1.5,2.6c17.3-11.2,33.9-23.3,49.8-36.3c11.6-9.5,29.8-22.1,27.3-39.5
				c-2-13.5-15.5-20.9-27.2-24.8c-18.1-6-38.3-7.6-57.1-8.6c-42.8-2.3-85.5,2.7-128,7c-21.1,2.1-42.2,4.1-63.4,4.9
				c-10.4,0.4-21,0.8-31.4,0.2c-5.1-0.3-10.8-1.4-12.8-6.8c-1.8-5,0.6-10.9,2.9-15.4c8.9-16.9,22.4-31.8,37.3-43.5
				c8-6.3,29.4-18,15.8-30.2c-4.5-4-11-5.6-16.9-6.4c-10.6-1.4-21.3-2.4-31.9-3.3c-21.2-1.9-42.5-3.1-63.8-4.2
				c-43.2-2.2-86.5-3.4-129.7-6.8c-42.3-3.3-85.5-8-126.6-19.3c-7.1-2-16.4-5.3-19.9-12.5c-4.9-10.2,6.6-18.3,13.3-24.1
				c7.8-6.8,16.4-13.2,23.7-20.6c4.8-4.9,6.1-10.4,1.7-16c-10.7-13.3-28.9-18.5-44.4-23.8c-17.2-5.9-36.9-13.8-43.3-32.6
				c-2.9-8.5-2.4-17.6,3-25C275.3,448.6,272.7,447.1,271.6,448.7L271.6,448.7z"/>
		</g>
	</g>
	<g>
		<g>
			<path class="st0" d="M327.4,433.1c-8.7,11.9-5.5,28.2,3.1,39.2c10.3,13.2,27.4,18.8,42.7,24c9,3.1,18.1,6.2,26.2,11.1
				c4,2.4,7.7,5.1,11,8.4c2.3,2.4,4.5,4.9,4,8.6c-0.4,2.9-3.7,5.6-5.8,7.4c-7.8,6.9-15.7,13.6-23.6,20.4
				c-5.6,4.8-12.4,10.2-13.1,18.1c-1.2,13.8,15.6,19.8,26.3,22.4c20.6,5.1,41.5,8.9,62.5,11.9c41.6,5.9,83.6,8.5,125.6,10.5
				c42.9,2,85.9,3.4,128.8,7.1c10.4,0.9,20.9,1.9,31.3,3.2c7.2,0.9,20.9,3.7,19.5,13.6c-1.2,8.2-13,13.3-18.9,18
				c-7.4,5.8-14.3,12.4-20.5,19.5c-5.9,6.8-11.2,14.1-15.8,21.9c-3.4,5.8-6.9,13.1-5,20c1.8,6.3,7.8,8.7,13.7,9.3
				c10.1,1,20.6,0.3,30.7,0c42.4-1.4,84.5-7.5,126.7-10.7c21.2-1.6,42.5-2.4,63.8-1.5c19.7,0.9,40.6,2.4,59.4,8.5
				c7.6,2.4,15.6,6.1,20.9,12.3c6.5,7.6,6.1,17.4,0.8,25.6c-5.1,7.9-13.1,13.9-20.3,19.9c-8.5,7-17.2,13.8-26.1,20.3
				c-8.3,6-16.7,11.8-25.3,17.3c-1.6,1-0.1,3.6,1.5,2.6c17.3-11.2,33.9-23.3,49.8-36.3c11.6-9.5,29.8-22.1,27.3-39.5
				c-2-13.5-15.5-20.9-27.2-24.8c-18.1-6-38.3-7.6-57.1-8.6c-42.8-2.3-85.5,2.7-128,7c-21.1,2.1-42.2,4.1-63.4,4.9
				c-10.4,0.4-21,0.8-31.4,0.2c-5.1-0.3-10.8-1.4-12.8-6.8c-1.8-5,0.6-10.9,2.9-15.4c8.9-16.9,22.4-31.8,37.3-43.5
				c8-6.3,29.4-18,15.8-30.2c-4.5-4-11-5.6-16.9-6.4c-10.6-1.4-21.3-2.4-31.9-3.3c-21.2-1.9-42.5-3.1-63.8-4.2
				c-43.2-2.2-86.5-3.4-129.7-6.8c-42.3-3.3-85.5-8-126.6-19.3c-7.1-2-16.4-5.3-19.9-12.5c-4.9-10.2,6.6-18.3,13.3-24.1
				c7.8-6.8,16.4-13.2,23.7-20.6c4.8-4.9,6.1-10.4,1.7-16c-10.7-13.3-28.9-18.5-44.4-23.8c-17.2-5.9-36.9-13.8-43.3-32.6
				c-2.9-8.5-2.4-17.6,3-25C331.2,433.1,328.6,431.6,327.4,433.1L327.4,433.1z"/>
		</g>
	</g>
	<g>
		<g>
			<path class="st0" d="M155.1,891.5c68.1-21.2,140.9-34.1,211.6-19.3c19.4,4.1,38.2,10.2,56.2,18.5c1.7,0.8,3.3-1.8,1.5-2.6
				c-65.1-30.1-139-30.2-208.2-15.8c-20.9,4.3-41.6,10-62,16.3C152.5,889.2,153.3,892.1,155.1,891.5L155.1,891.5z"/>
		</g>
	</g>
	<g>
		<g>
			<path class="st0" d="M681.2,563.8c15.9,2.1,30.9-6.2,46.7-6.7c17.1-0.6,33.9,4.3,50.1,9.1c1.9,0.5,2.6-2.3,0.8-2.9
				c-15.9-4.7-32.3-9.5-49-9.2c-16.4,0.2-32.1,8.9-48.5,6.8C679.3,560.5,679.3,563.5,681.2,563.8L681.2,563.8z"/>
		</g>
	</g>
	<g>
		<g>
			<path class="st0" d="M767,556c24.7-8.2,51.2-8.5,76-0.7c1.8,0.6,2.6-2.3,0.8-2.9c-25.3-8-52.4-7.7-77.6,0.7
				C764.4,553.7,765.2,556.6,767,556L767,556z"/>
		</g>
	</g>
	<g>
		<g>
			<path class="st0" d="M331.1,743.6c5.1,0.7,9.8,0.3,14.6-1.3c0.8-0.3,1.2-1,1-1.8c-0.8-4.5-1.6-9-2.4-13.5
				c-0.7,0.6-1.5,1.1-2.2,1.7c2.6,1.8,5.8,0.9,7.7-1.6c3.4-4.4-0.9-9.4,0.2-14.1c2.4-10.2,15.3,2.2,18.4,5.4
				c4.6,4.7,8.3,10.1,11.2,16c0.9,1.7,3.4,0.2,2.6-1.5c-4.8-9.7-13.1-21.4-23.6-25.8c-3.3-1.4-7.4-1.8-10,1.1
				c-1.3,1.4-1.8,3.3-1.8,5.2c0,1.1,0.1,2.1,0.3,3.2c0.1,0.8,0.3,1.5,0.5,2.3c1.3,3.3,0,5.7-4.1,7.1c-1.2-0.8-2.4,0.5-2.2,1.7
				c0.8,4.5,1.6,9,2.4,13.5c0.3-0.6,0.7-1.2,1-1.8c-4.3,1.5-8.5,2-13,1.3C330,740.5,329.1,743.4,331.1,743.6L331.1,743.6z"/>
		</g>
	</g>
	<g>
		<g>
			<path class="st0" d="M930.7,629.8c1.1-2.6,2.1-5.2,3.3-7.7c1.6-3.5,5-4.8,8.6-3.5c4.2,1.5,7.7,3.2,12.2,1.7
				c4.1-1.4,7.3-4.7,10.2-7.7c2.1-2.1,4.3-4.3,7-5.5c3.6-1.6,11.2-0.6,9.6,5.4c-0.5,1.9,2.4,2.7,2.9,0.8c1.3-5-2.6-9.2-7.5-10
				c-6-1-10.8,3.9-14.7,7.8c-4.2,4.2-8.6,8.3-15,6.3c-2.7-0.9-5.3-2.6-8.2-2.7c-7.1-0.3-8.8,8.6-11,13.7
				C927.4,630.1,929.9,631.6,930.7,629.8L930.7,629.8z"/>
		</g>
	</g>
	<g>
		<g>
			<path class="st0" d="M1286.4,482.3c66.1,12.4,132.5,23.3,199.1,32.5c18.7,2.6,37.3,5,56,7.4c1.9,0.2,1.9-2.8,0-3
				c-66.3-8.3-132.3-18.2-198.1-29.6c-18.7-3.3-37.5-6.7-56.2-10.2C1285.3,479.1,1284.5,481.9,1286.4,482.3L1286.4,482.3z"/>
		</g>
	</g>
	<g>
		<g>
			<path class="st0" d="M783.6,927c24.9,12.3,51.9,2.1,77.5-1.8c15.1-2.3,30-0.8,45,1.1c15.3,1.9,30.7,3.8,46,5.8
				c1.9,0.2,1.9-2.8,0-3c-14.4-1.8-28.8-3.6-43.1-5.4c-14.2-1.8-28.5-3.7-42.8-2.1c-26.7,2.9-55.2,15.7-81.1,2.9
				C783.4,923.6,781.8,926.2,783.6,927L783.6,927z"/>
		</g>
	</g>
	<g>
		<g>
			<path class="st0" d="M486.3,842.6c10.1,10.1,14.4,24.2,9.8,37.9c-1.2,3.7,4.6,5.2,5.8,1.6c5.2-15.7,0.2-32.3-11.4-43.7
				C487.8,835.6,483.6,839.8,486.3,842.6L486.3,842.6z"/>
		</g>
	</g>
	<g>
		<g>
			<path class="st0" d="M496.4,883.5c3.5,8.6,11.5,14,20.4,15.6c1.9,0.3,2.7-2.6,0.8-2.9c-7.8-1.4-15.2-5.9-18.3-13.5
				C498.6,880.9,495.7,881.7,496.4,883.5L496.4,883.5z"/>
		</g>
	</g>
	<g>
		<g>
			<path class="st0" d="M517.1,896.2c-6.1,0.1-15-0.8-20.6,2.3c-4.5,2.6-6.1,8.4-6.6,13.2c-1.3,11.6,7.8,20.1,19.3,18
				c1.9-0.3,1.1-3.2-0.8-2.9c-10.3,1.9-17.1-6.6-15.3-16.4c0.9-4.7,2.6-9.2,7.7-10.3c5.2-1.1,11-0.9,16.3-1
				C519,899.2,519,896.2,517.1,896.2L517.1,896.2z"/>
		</g>
	</g>
	<g>
		<g>
			<path class="st0" d="M507.6,927.2c-6.1,0.5-14.3,3.7-13,11.1c1.1,6.5,6.2,13.1,9.8,18.4c3.1,4.5,6.7,8.5,10.6,12.2
				c13.4,12.6,29.2,21.6,43.9,32.4c14,10.4,25.9,23.3,35.9,37.6c1.1,1.6,3.7,0.1,2.6-1.5c-11.9-16.9-26.4-32.2-43.9-43.4
				c-15.6-10-33.1-21.1-44.5-35.9c-2.5-3.2-4.6-6.7-6.7-10.2c-1.8-3-4.3-6.4-4.8-9.9c-0.8-5.4,5.7-7.4,10.1-7.7
				C509.5,930,509.6,927,507.6,927.2L507.6,927.2z"/>
		</g>
	</g>
	<g>
		<g>
			<path class="st0" d="M488.1,839.9c31.1,12,61.6,25.2,85,49.7c21.6,22.7,35.5,51.5,42.3,82c2.1,9.6,3.5,19.3,4.4,29
				c0.5,4.9,0.8,9.9,1,14.8c0.1,2.2,0.1,4.3,0.2,6.5c0,0.5-0.1,10-0.8,9.5c-1.6-1.1-3.1,1.5-1.5,2.6c5.5,3.7,5.4-7,5.4-9.3
				c-0.1-9.9-0.6-19.8-1.8-29.6c-2.2-19.2-6.5-38.2-13.8-56.1c-12.4-30.3-33.5-56.8-61.1-74.6c-18.1-11.7-38.4-19.6-58.4-27.3
				C487.1,836.3,486.3,839.2,488.1,839.9L488.1,839.9z"/>
		</g>
	</g>
	<g>
		<g>
			<path class="st0" d="M497.4,850.5c43.7,38.1,79.4,85.8,100.9,139.8c5.8,14.6,10.5,29.6,14.1,44.9c0.4,1.9,3.3,1.1,2.9-0.8
				c-13.2-55.5-41.2-106.8-78.9-149.5c-11.5-13-23.8-25.2-36.9-36.5C498.1,847.1,496,849.3,497.4,850.5L497.4,850.5z"/>
		</g>
	</g>
	<g>
		<g>
			<path class="st0" d="M499,882c11.3,2.2,22.2,5.5,32.8,9.9c1.8,0.7,2.6-2.2,0.8-2.9c-10.6-4.4-21.6-7.7-32.8-9.9
				C497.9,878.7,497.1,881.6,499,882L499,882z"/>
		</g>
	</g>
	<g>
		<g>
			<path class="st0" d="M542.4,891.3c2.8-7.1,6.8-13.5,11.8-19.3c1.3-1.4-0.8-3.6-2.1-2.1c-5.4,6.1-9.6,13-12.6,20.6
				C538.9,892.3,541.8,893.1,542.4,891.3L542.4,891.3z"/>
		</g>
	</g>
	<g>
		<g>
			<path class="st0" d="M602.6,835.5c15.7,36,32.9,78.2,11.9,115.8c-0.9,1.7,1.6,3.2,2.6,1.5c21.6-38.7,4.3-81.8-11.9-118.8
				C604.4,832.3,601.8,833.8,602.6,835.5L602.6,835.5z"/>
		</g>
	</g>
	<g>
		<g>
			<path class="st0" d="M605.3,832.9c9.1,3.4,25.1,9.2,22.8,21.8c-0.3,1.9,2.5,2.7,2.9,0.8c2.7-14.6-14-21.3-24.8-25.5
				C604.3,829.4,603.5,832.3,605.3,832.9L605.3,832.9z"/>
		</g>
	</g>
	<g>
		<g>
			<path class="st0" d="M630.4,856.1c5.1-4.3,11.7,0.3,14.5,5c2.7,4.5,2.9,9.8,0.8,14.6c-0.8,1.8,1.8,3.3,2.6,1.5
				c3-6.8,2.2-14.5-2.7-20.3c-4.3-5.1-11.7-7.5-17.3-2.9C626.8,855.2,629,857.3,630.4,856.1L630.4,856.1z"/>
		</g>
	</g>
	<g>
		<g>
			<path class="st0" d="M645.6,879.7c8.3-0.9,12.8,7.2,16.3,13.5c3.8,6.9,7.2,14,10,21.4c5.4,14.3,8.6,29.4,9.4,44.6
				c1.4,27-4.9,55.1-26.4,73.2c-1.5,1.3,0.7,3.4,2.1,2.1c23.4-19.8,29.4-51.3,26.9-80.5c-1.5-16.5-5.7-32.7-12.3-47.9
				c-3.3-7.6-7-15.7-12.1-22.3c-3.5-4.4-8.1-7.7-13.9-7C643.7,876.9,643.7,879.9,645.6,879.7L645.6,879.7z"/>
		</g>
	</g>
	<g>
		<g>
			<path class="st0" d="M608,837.3c20.5,28.6,38.1,60.4,44.5,95.4c3.1,17,3.4,34.7,0.1,51.7c-1.6,8.1-3.9,16.2-7,23.8
				c-1.6,4-3.5,8-5.6,11.8c-2,3.6-4.7,10.6-9,11.7c-1.9,0.5-1.1,3.4,0.8,2.9c5.1-1.3,7.6-7.4,10-11.6c3.4-6,6.2-12.2,8.5-18.7
				c4.7-13.1,7.2-27,7.6-40.9c0.9-29-7.4-57.3-20.1-83.2c-7.7-15.7-17-30.4-27.2-44.6C609.4,834.2,606.8,835.7,608,837.3L608,837.3z
				"/>
		</g>
	</g>
	<g>
		<g>
			<path class="st0" d="M679.2,927.9c0.5-1.7,1-3.5,1.5-5.2c0.3-1.1,0.8-4.3,1.5-5.2c2.3-3,9.7-0.9,12.9-0.5
				c1.4,0.1,1.9-1.7,1.1-2.6c-3.3-3.4-7.1-8.1-5.3-13.1c1.7-4.8,9.4-7,12.4-2c0.8-0.6,1.6-1.2,2.4-1.8c-2.2-2.7-4.6-6.2-4.3-9.9
				c0.4-4.7,5.1-7.7,9.6-7.1c1.3,0.2,2.3-1,1.7-2.2c-4.7-9.6,3.6-20.2,6.7-29.1c3.2-9.1,4.4-18.7,4-28.3c-0.1-1.9-3.1-1.9-3,0
				c0.6,12.4-2,24.2-7.1,35.4c-3.5,7.5-7.1,15.4-3.2,23.5c0.6-0.7,1.1-1.5,1.7-2.2c-5.1-0.7-10.6,1.5-12.7,6.6
				c-2.3,5.6,0.9,11.2,4.4,15.4c1.1,1.3,3.2-0.4,2.4-1.8c-3.2-5.4-11.3-5.5-15.5-1.2c-6.2,6.4-1.2,14.8,3.8,19.9
				c0.4-0.9,0.7-1.7,1.1-2.6c-3.6-0.4-11.2-2.8-14.3,0c-3,2.7-3.6,9.6-4.6,13.2C675.8,929,678.7,929.8,679.2,927.9L679.2,927.9z"/>
		</g>
	</g>
	<g>
		<g>
			<path class="st0" d="M720.9,824c7.1,14.9,10.4,31,13.6,47.1c3.3,17.2,6.7,34.5,6.8,52.1c0,27.8-10,54.5-26.8,76.4
				c-10.1,13.2-22.4,24.5-36.1,33.7c-1.6,1.1-0.1,3.7,1.5,2.6c23.8-16,43.5-38.2,54.7-64.8c5.3-12.5,8.6-25.9,9.5-39.5
				c1.2-17.7-1.7-35.4-5-52.8c-3.6-19.2-7.1-38.5-15.5-56.3C722.6,820.7,720,822.2,720.9,824L720.9,824z"/>
		</g>
	</g>
	<g>
		<g>
			<path class="st0" d="M723.8,836c2.5,35.4-1.5,70.9-11.5,104.9c-5.1,17.3-11.8,34.2-19.9,50.4c-7.6,15.1-16,34-30.8,43.3
				c-1.6,1-0.1,3.6,1.5,2.6c11-7,17.6-18.3,23.9-29.4c7.1-12.5,13.3-25.4,18.6-38.7c10.8-26.8,17.7-55.1,20.5-83.9
				c1.6-16.3,1.8-32.8,0.6-49.2C726.6,834.1,723.6,834.1,723.8,836L723.8,836z"/>
		</g>
	</g>
	<g>
		<g>
			<path class="st0" d="M1175,1004.4c-2.1-28.8,4.3-57.6,18.7-82.7c-0.7,0.2-1.4,0.4-2.1,0.5c1.9,0.9,3.7,1.9,5.6,2.8
				c1.2,0.6,2.4-0.4,2.2-1.7c-0.5-2.5-0.3-4.6,0.5-7.1c-0.6,0.3-1.2,0.7-1.8,1c1.8,0.5,3.5,1,5.3,1.5c1.1,0.3,2.1-0.8,1.8-1.8
				c-1.4-5.9,4.3-10.2,8.3-13.5c3.8-3.2,7.5-6.5,10.9-10.2c6.5-7,12-14.8,16.5-23.3c-0.9,0-1.7,0-2.6,0c10.2,23.4,8.4,51.2-4.2,73.4
				c-6.7,11.8-16.5,20.1-26.4,29c-10.2,9.1-18.1,19.6-22.8,32.5c-0.7,1.8,2.2,2.6,2.9,0.8c5.7-15.6,16.4-26.2,28.6-36.9
				c9.9-8.7,18.2-18.3,23.7-30.4c10-22,10.6-47.6,0.9-69.9c-0.5-1-2.1-0.9-2.6,0c-5.7,10.7-13,20.3-21.9,28.5
				c-6,5.5-16.3,11.2-14.1,20.8c0.6-0.6,1.2-1.2,1.8-1.8c-1.8-0.5-3.5-1-5.3-1.5c-0.8-0.2-1.6,0.3-1.8,1c-0.9,3-1.1,5.6-0.5,8.6
				c0.7-0.6,1.5-1.1,2.2-1.7c-1.9-0.9-3.7-1.9-5.6-2.8c-0.7-0.4-1.6-0.2-2.1,0.5c-14.6,25.5-21.3,54.9-19.1,84.2
				C1172.1,1006.3,1175.1,1006.3,1175,1004.4L1175,1004.4z"/>
		</g>
	</g>
	<g>
		<g>
			<path class="st0" d="M1248.9,906.8c6.3-6.3,11.9-13.1,16.9-20.5c-0.8,0.1-1.6,0.2-2.4,0.3c10.2,11.8,14.5,28,11.8,43.4
				c-0.6,3.3-1.5,6.6-2.7,9.8c-0.8,2.1-1.7,4.4-3,6.2c-1.3,2-2.3,2.3-4.5,3.1c-1.5,0.5-2.9,0.4-3.7,2.1c-0.3,0.6,0,0.9,0,1.5
				c0.8,1.7,1.3,3.4,1.5,5.3c0.1,1.1,0.1,2.1-0.1,3.2c0.5-0.5,1-1,1.5-1.5c-6.7,0.3-6.1,6.9-8.7,11.4c-3.6,6.2-12.5,7.9-18.6,10.6
				c-13.7,6.1-26,15.1-36.1,26.2c-1.3,1.4,0.8,3.6,2.1,2.1c9.6-10.5,21-19.1,34-25.1c5.3-2.4,11.2-3.9,16.1-7.2
				c1.7-1.1,3.2-2.4,4.4-4.1c2-2.8,2.7-10.9,6.8-11.1c0.9,0,1.4-0.7,1.5-1.5c0.1-1.7,0.1-3.4-0.2-5.1c-0.5-2.5-1.7-3.1,0.8-4.1
				c2.7-1.1,3.7-1.1,5.3-3.8c3.9-6.4,6.2-13.9,7-21.3c1.6-15.3-3.1-30.7-13.1-42.3c-0.7-0.8-1.9-0.4-2.4,0.3
				c-4.9,7.2-10.3,13.8-16.4,19.9C1245.5,906.1,1247.6,908.2,1248.9,906.8L1248.9,906.8z"/>
		</g>
	</g>
	<g>
		<g>
			<path class="st0" d="M1232.2,897.2c-1,9.1-7.8,18-12.6,25.6c-4.9,7.6-10.1,14.9-15.2,22.3c-9.9,14.4-19.4,29-25.7,45.4
				c-0.7,1.8,2.2,2.6,2.9,0.8c6.8-17.7,17.5-33.3,28.2-48.8c5.1-7.4,10.2-14.8,15-22.4c4.3-7,9.4-14.5,10.3-22.9
				C1235.5,895.3,1232.5,895.3,1232.2,897.2L1232.2,897.2z"/>
		</g>
	</g>
	<g>
		<g>
			<path class="st0" d="M1208.6,905.4c-0.7,7.1,0.3,14.1,3.1,20.7c0.7,1.8,3.6,1,2.9-0.8c-2.6-6.4-3.6-13-2.9-19.9
				C1211.8,903.5,1208.8,903.5,1208.6,905.4L1208.6,905.4z"/>
		</g>
	</g>
	<g>
		<g>
			<path class="st0" d="M1204.5,950.6c6.3,1,12.3,0.2,18.2-2.4c1.8-0.8,0.2-3.4-1.5-2.6c-5,2.2-10.4,3-15.8,2.1
				C1203.5,947.5,1202.6,950.3,1204.5,950.6L1204.5,950.6z"/>
		</g>
	</g>
	<g>
		<g>
			<path class="st1" d="M871.6,1035.4c71.9,0,143.9,0,215.8,0s143.9,0,215.8,0c40.6,0,81.3,0,121.9,0c5.8,0,5.8-9,0-9
				c-71.9,0-143.9,0-215.8,0s-143.9,0-215.8,0c-40.6,0-81.3,0-121.9,0C865.8,1026.4,865.8,1035.4,871.6,1035.4L871.6,1035.4z"/>
		</g>
	</g>
	<g>
		<g>
			<path class="st1" d="M1245.4,1018.6c47,0,94.1,0,141.1,0c5.8,0,5.8-9,0-9c-47,0-94.1,0-141.1,0
				C1239.6,1009.6,1239.6,1018.6,1245.4,1018.6L1245.4,1018.6z"/>
		</g>
	</g>
	<g>
		<g>
			<path class="st1" d="M811.3,1034.2c12.5,0,24.9,0,37.4,0c5.8,0,5.8-9,0-9c-12.5,0-24.9,0-37.4,0
				C805.5,1025.2,805.5,1034.2,811.3,1034.2L811.3,1034.2z"/>
		</g>
	</g>
	<g>
		<g>
			<path class="st1" d="M763.1,1035.4c5.2,0,10.5,0,15.7,0c5.8,0,5.8-9,0-9c-5.2,0-10.5,0-15.7,0
				C757.3,1026.4,757.3,1035.4,763.1,1035.4L763.1,1035.4z"/>
		</g>
	</g>
	<g>
		<g>
			<path class="st1" d="M1408.2,1016.1c12.5,0,24.9,0,37.4,0c5.8,0,5.8-9,0-9c-12.5,0-24.9,0-37.4,0
				C1402.4,1007.1,1402.4,1016.1,1408.2,1016.1L1408.2,1016.1z"/>
		</g>
	</g>
	<g>
		<g>
			<path class="st1" d="M1467.3,1014.9c5.6,0,11.3,0,16.9,0c5.8,0,5.8-9,0-9c-5.6,0-11.3,0-16.9,0
				C1461.5,1005.9,1461.5,1014.9,1467.3,1014.9L1467.3,1014.9z"/>
		</g>
	</g>
	<g>
		<g>
			<path class="st1" d="M359.1,1044.3c71.4,0,142.8,0,214.2,0c5.8,0,5.8-9,0-9c-71.4,0-142.8,0-214.2,0
				C353.3,1035.3,353.3,1044.3,359.1,1044.3L359.1,1044.3z"/>
		</g>
	</g>
	<g>
		<g>
			<path class="st1" d="M292.6,1018.5c24,0,48,0,72,0c5.8,0,5.8-9,0-9c-24,0-48,0-72,0C286.8,1009.5,286.8,1018.5,292.6,1018.5
				L292.6,1018.5z"/>
		</g>
	</g>
	<g>
		<g>
			<path class="st1" d="M394.2,1024c8,0,16,0,24,0c5.8,0,5.8-9,0-9c-8,0-16,0-24,0C388.4,1015,388.4,1024,394.2,1024L394.2,1024z"/>
		</g>
	</g>
	<g>
		<g>
			<path class="st1" d="M576,358c4.4-8.4,9.5-16.3,15.5-23.7c3.6-4.5-2.7-10.9-6.4-6.4c-6.5,8-12.1,16.4-16.9,25.5
				C565.5,358.5,573.3,363.1,576,358L576,358z"/>
		</g>
	</g>
	<g>
		<g>
			<path class="st1" d="M618.6,296.3c2.7-6.8,6.9-12.6,12.1-17.6c4.2-4-2.1-10.3-6.4-6.4c-6.5,6-11.2,13.3-14.5,21.5
				C607.8,299.3,616.5,301.6,618.6,296.3L618.6,296.3z"/>
		</g>
	</g>
	<g>
		<g>
			<path class="st1" d="M657,239.5c6-7.1,12-14.2,18-21.3c3.7-4.4-2.6-10.8-6.4-6.4c-6,7.1-12,14.2-18,21.3
				C647,237.6,653.3,244,657,239.5L657,239.5z"/>
		</g>
	</g>
	<g>
		<g>
			<path class="st1" d="M709.3,174c8.3-7,16.5-14,24.8-20.9c4.4-3.7-2-10.1-6.4-6.4c-8.3,7-16.5,14-24.8,20.9
				C698.5,171.4,704.9,177.7,709.3,174L709.3,174z"/>
		</g>
	</g>
	<g>
		<g>
			<path class="st1" d="M784,124.1c6.1-2.2,12.2-3.1,18.6-2.6c5.8,0.4,5.8-8.6,0-9c-7.2-0.5-14.2,0.5-21,2.9
				C776.2,117.3,778.5,126,784,124.1L784,124.1z"/>
		</g>
	</g>
	<g>
		<g>
			<path class="st1" d="M851,124.1c4.4,2.1,7.9,5.6,9.5,10.3c1.9,5.5,10.6,3.1,8.7-2.4c-2.3-6.8-7.1-12.6-13.6-15.7
				c-2.2-1-4.9-0.6-6.2,1.6C848.2,119.9,848.8,123.1,851,124.1L851,124.1z"/>
		</g>
	</g>
	<path class="st2" d="M529.8,284.5c-2.7-7-8.8-22.8-16.5-22.6c-10.7,0.2-21.5,30.4-21.8,56.6c-0.3,27.7,11.3,52.3,18.3,67
		c3.3,7,6.4,12.6,8.7,16.5C532.1,371.3,545.6,325.6,529.8,284.5z M520,308.8c-3.3,3-8.1,4-11.5,0.8c-0.8-0.7-1.4-1.6-1.9-2.6
		c-3-4.2-2.8-10.4,1.4-14.1c3.1-2.7,7-2.7,10-0.8c1.5,0.8,2.8,1.9,3.6,3.4c0.5,0.9,0.8,1.9,1,2.9C523.6,302,522.9,306.1,520,308.8z"
		/>
	<g>
		<g>
			<path class="st3" d="M521.7,264.7c15.7,15.4,18.2,40.3,18,61.2c-0.3,23.5-5.9,46.8-16.2,67.9c-0.8,1.7,1.7,3.2,2.6,1.5
				c10.8-22.1,16.6-46.5,16.6-71.2c0-21.2-3-45.9-18.9-61.6C522.5,261.2,520.3,263.3,521.7,264.7L521.7,264.7z"/>
		</g>
	</g>
	<g>
		<g>
			<path class="st3" d="M510.1,293c-4.3,5.9-2.5,13.9,3.8,17.5c1.7,1,3.2-1.6,1.5-2.6c-5-2.8-6.1-8.7-2.7-13.3
				C513.8,293,511.2,291.5,510.1,293L510.1,293z"/>
		</g>
	</g>
</g>
<g id="legs">
	<g id="Layer_18">
		<path class="st1" d="M1059.1,946.5c-1.9,6.9,2.1,9.6-0.5,17.5c-1.1,3.2-3.4,7.9-15.9,17.5c-11.1,8.5-21.2,13.9-24.2,15.4
			c-16.1,8.4-22.5,9-26.2,16.4c-0.5,1-4.2,8.5-1,13.4c4.4,6.7,17.8,1.6,45.8-0.5c24.5-1.8,26.5,1.1,45.2-1.5
			c16.9-2.4,30.2-6.9,38.6-10.3c0.7-18.9-2.2-32.8-5.1-42.2c-4.3-13.8-8.2-16.8-11.8-33.4c-1.4-6.5-1.5-9.2-4.1-11.3
			C1090.6,920.1,1063.4,930.9,1059.1,946.5z"/>
		<path class="st4" d="M1069.3,947.1c1.6,2.4,13.6,20.5,6.5,34.3c-4.3,8.3-14,12-28.2,17.3c-11.4,4.3-12.9,2.9-21,6.5
			c-15.1,6.8-28.4,20.2-26.2,24.5c2,4,15.5-3,46.3-4.1c13.5-0.5,15.3,0.6,25.8,0c11.4-0.7,28-3.1,48.2-11.3
			c0.7-10.7-0.3-19.6-1.3-25.8c-1.2-7-2.8-16.2-7.4-25.8c-1-2.1-3-5.9-4.7-11.6c-1.3-4.4-2-8.1-2.4-10.5
			C1093,942.7,1081.1,944.9,1069.3,947.1z"/>
		<path class="st5" d="M1070.8,946.2c8.3,2.2,17.9,4,28.6,4.6c2.5,0.1,5,0.2,7.4,0.2c-0.8-3.5-1.7-7-2.5-10.5
			C1093.2,942.4,1082,944.3,1070.8,946.2z"/>
	</g>
	<path class="st6" d="M1204.8,587c-2.7,18.7-15.8,27.9-41.8,62.7c-24.9,33.3-41.7,62.9-52.1,82.8c-8.1,18.4-16.5,43-20.5,72.8
		c-8,60.4,6.9,109.4,17.1,135.3c-17.8,3-35.6,6.1-53.4,9.1c-14.4-34.4-29.3-82.9-29.5-141.5c-0.2-62,15.8-108.9,45.3-188.9
		c13.4-36.4,33-85,60.9-141C1198,529.2,1208.1,564.3,1204.8,587z"/>
	<g id="Layer_19">
		<path class="st1" d="M1310.6,930.5c-1.9,6.9,2.1,9.6-0.5,17.5c-1.1,3.2-3.4,7.9-15.9,17.5c-11.1,8.5-21.2,13.9-24.2,15.4
			c-16.1,8.4-22.5,9-26.2,16.4c-0.5,1-4.2,8.5-1,13.4c4.4,6.7,17.8,1.6,45.8-0.5c24.5-1.8,26.5,1.1,45.2-1.5
			c16.9-2.4,30.2-6.9,38.6-10.3c0.7-18.9-2.2-32.8-5.1-42.2c-4.3-13.8-8.2-16.8-11.8-33.4c-1.4-6.5-1.5-9.2-4.1-11.3
			C1342.1,904.1,1314.9,914.9,1310.6,930.5z"/>
		<path class="st4" d="M1314.1,931.6c1.7,2,13.2,16.1,8.7,27.9c-3.3,8.6-14.2,13.5-26.9,19.3c-11.1,5.1-12.7,3.8-20.5,8
			c-6.9,3.7-27.6,20.9-24.4,26.3c1,1.8,3.8,0.9,21.2-0.9c11.2-1.1,19.4-2,29.2-2.2c10-0.2,10.4,0.5,19.1,0c10.6-0.6,18.6-2,20.9-2.5
			c7.9-1.5,18.6-4.2,30.8-9.5c0.9-20.8-1.8-32.7-4.3-39.7c-5.4-15-6.5-17.2-6.5-17.2c-2.2-4.7-4-7.7-4.9-12.9
			c-0.3-2-0.5-3.9-1.2-7.4c-0.7-3.3-1.5-5.9-2.2-7.7c-1.5,2.7-6.3,10.9-16.6,15.7C1326.4,933.6,1317.1,932.2,1314.1,931.6z"/>
		<path class="st4" d="M1318.9,931.9c1.4,1.2,13.8,11.3,28,7.3c4.8-1.4,8.4-4,10.6-6c-1.5-6.6-3.1-13.1-4.6-19.7
			C1341.6,919.6,1330.2,925.8,1318.9,931.9z"/>
	</g>
	<g id="Layer_9">
		<path class="st6" d="M1237.2,502.1c5.6,7.1,13.3,17.7,21.2,31.3c24.3,41.6,30.4,77.2,38,116.2c9.7,49.8,22.1,98.9,32.4,148.6
			c10.1,48.8,18.8,88.7,24.6,115.1c-0.9,1.7-10.1,17.3-27.9,19c-9.5,0.9-16.9-2.7-20.1-4.5c-26.6-47.5-43.2-88.3-53.6-117.3
			c-27.4-76.2-33.6-132.1-80.4-205.6c-8-12.6-15.2-22.6-20.1-29c-18.2-23.7-15-57.6,6.7-77.1
			C1180.3,478.5,1215.8,479.7,1237.2,502.1z"/>
		<g>
			<g>
				<path class="st7" d="M1199.5,535.2c4.2,22.5,14.3,48.8,40.2,52.2c1.9,0.2,1.9-2.8,0-3c-24.4-3.2-33.4-29.2-37.3-50
					C1202.1,532.5,1199.2,533.3,1199.5,535.2L1199.5,535.2z"/>
			</g>
		</g>
		<g>
			<g>
				<path class="st7" d="M1241,552.8c32.9,86.9,58.7,176.4,77.1,267.5c5.2,26,9.9,52.2,13.9,78.4c0.3,1.9,3.2,1.1,2.9-0.8
					c-14.1-91.8-35.6-182.5-64.5-270.8c-8.2-25.2-17.1-50.3-26.5-75.1C1243.2,550.2,1240.3,551,1241,552.8L1241,552.8z"/>
			</g>
		</g>
		<g>
			<g>
				<path class="st7" d="M1161.8,590.9c10.8,17.3,21.5,34.6,32.3,51.9c1,1.6,3.6,0.1,2.6-1.5c-10.8-17.3-21.5-34.6-32.3-51.9
					C1163.3,587.8,1160.7,589.3,1161.8,590.9L1161.8,590.9z"/>
			</g>
		</g>
	</g>
	<path class="st8" d="M1182.7,521.1c17.7,20.4,42.3,52.7,62.7,97c11.1,24.1,19.9,56.2,37.5,120.2c19.1,69.6,28.3,113.8,31,127.4
		c5.4,26.7,9.3,49.4,12.1,66.3c2.8-0.3,6.2-1.1,9.8-2.7c10.1-4.5,15.3-12.6,17.3-16.2c-1.1-5.5-2.8-13.6-4.9-23.5
		c-3.9-18.5-6.5-30.6-9.4-43.9c-2.6-11.9-6.2-28.9-10.6-49.8c-2.3-11.4-4.4-20.6-5.8-26.9c-2.7-11.8-4.4-17.9-7-30.4
		c-1.6-7.5-2.3-11.5-3.3-16.5c-3.9-20-5.7-24.3-10-43.7c-5.3-24.2-9.5-49.8-13.7-67.8c-0.8-3.5-1.5-6.2-1.9-7.6
		c-1.3-5.1-3.2-11.8-5.9-19.5c-8.2-24.1-17.1-40-26.5-56.4c-14.1-24.7-18.4-26.8-20.5-27.7C1213.5,491.2,1186.9,516.9,1182.7,521.1z
		"/>
	<path class="st9" d="M1162.2,589.3c-37.6,45.2-60.1,87.5-73.5,117.4c-20.5,45.6-54.5,121.5-35.6,209.3c3,13.7,6.6,24.8,9.2,31.9
		c15-2.5,30.1-5,45.1-7.5c-4.3-10.4-9.4-24.7-13.3-42.2c-3-13.6-10.6-52.3-2.7-100.6c3.5-21.7,9-37.6,10.9-43.2
		c6-17.1,12.6-29.5,17.7-39c2.6-5,9-16.6,22.5-36.6c9.7-14.4,23.1-33.1,40.5-54.3C1176,612.7,1169.1,601,1162.2,589.3z"/>
	<path class="st10" d="M1171,604.8c-13.9,17.8-29.5,40.9-43.3,69.3c-20.1,41.3-29.5,79.4-34.1,107.8c3.2-13.1,8.5-31.3,18-51.7
		c8.5-18.3,16.7-30.8,27.6-47.3c10.3-15.5,24.7-35.7,43.7-58.5C1179,617.8,1175,611.3,1171,604.8z"/>
	<path class="st10" d="M1286.8,605.6c10.8,57.9,21,117.5,30.5,178.7c7.5,48.7,14.3,96.5,20.4,143.5c1.8-0.8,3.9-2,6-3.6
		c5.2-3.9,8.1-8.6,9.6-11.6C1331.2,810.2,1309,707.9,1286.8,605.6z"/>
</g>
<g id="hand_r">
	<path class="st11" d="M922.5,190.7c-0.7,0.4-5.4,2.8-5.9,7.3c-0.5,3.9,2.4,6.9,4.1,8.7c9,9.3,26.7,7,30.6,6.4c3,0.9,7.6,2.5,12.8,5
		c15.6,7.5,25.1,17.6,28.8,21.5c11.3,11.7,27.8,23,60.8,45.7c10,6.9,24.9,16.7,43.9,27.4c3.5,0,9.3-0.4,15.5-3.2
		c2.4-1.1,18.3-8.3,19.6-23.8c1.1-12.2-7.7-21-9.1-22.4c-15.6-6.2-28.5-11.8-37.9-16c-60.1-26.7-96.4-49.2-104.6-54.4
		c-6-3.8-10.9-7-14.2-9.1c-2.3-4-7.8-12.3-18.3-17.8c-2-1-17-8.6-33.8-3.2c-3.1,1-5.6,2.2-7.3,3.2c-8.8-1.1-19.5-1.9-20.1,0.5
		c-0.4,1.6,3.8,3.9,9.6,7.3C903.1,177.5,911.9,183,922.5,190.7z"/>
	<g>
		<g>
			<path class="st1" d="M951.8,211.9c-7.3,0.8-14.7,0.4-21.8-1.7c-3.3-1-6.9-2.2-9.3-4.7c-5.1-5.2-1-10.4,3.6-13.6
				c1.6-1.1,0.1-3.7-1.5-2.6c-3.3,2.3-6.8,4.8-7.5,9c-0.7,4,1.4,7.8,4.5,10.3c8.2,6.8,22,7.4,32,6.3
				C953.7,214.7,953.7,211.7,951.8,211.9L951.8,211.9z"/>
		</g>
	</g>
	<g>
		<g>
			<path class="st1" d="M921.5,188.8c-5.6-3.9-11.2-7.7-16.9-11.3c-2.6-1.7-5.2-3.3-7.8-4.9c-1.6-1-3.2-1.9-4.8-2.9
				c-1-0.6-4.5-1.9-4.7-2.8c-0.2,0.6-0.5,1.1-0.7,1.7c4.7-3.5,14.7-1.1,19.7,0.1c5.7,1.4,12.2,3.1,17.2,6.3c1.6,1,3.1-1.6,1.5-2.6
				c-6.1-3.9-14.4-6-21.4-7.4c-5.2-1-13.9-2.4-18.5,1c-0.5,0.4-0.9,1-0.7,1.7c0.6,2,2.9,2.7,4.5,3.7c3.5,2,6.9,4.1,10.3,6.2
				c7.1,4.4,14,9,20.8,13.8C921.6,192.5,923.1,189.9,921.5,188.8L921.5,188.8z"/>
		</g>
	</g>
	<g>
		<g>
			<path class="st1" d="M908,168.1c10-6.4,22.7-7.9,33.8-3.1c10.3,4.4,17.7,13.2,24.5,21.8c1.2,1.5,3.3-0.6,2.1-2.1
				c-7.6-9.5-16-19.2-27.8-23.4c-11.3-4-24-2.2-34,4.3C904.9,166.5,906.4,169.1,908,168.1L908,168.1z"/>
		</g>
	</g>
	<g>
		<g>
			<path class="st1" d="M966.7,186.3c49.8,30.2,101.7,56.7,155.4,79.3c1.8,0.7,2.6-2.2,0.8-2.9c-53.4-22.5-105.1-48.9-154.7-79
				C966.5,182.8,965,185.3,966.7,186.3L966.7,186.3z"/>
		</g>
	</g>
	<g>
		<g>
			<path class="st1" d="M950.1,213.8c14.4,3.6,25.5,13.5,36.6,22.8c11.4,9.5,22.9,18.9,34.7,28c24,18.5,49.2,35.6,76.1,49.7
				c1.7,0.9,3.2-1.7,1.5-2.6c-27.6-14.5-53.4-32.1-78.1-51.2c-12.3-9.5-24.2-19.4-36.1-29.3c-10.2-8.5-20.8-17-33.9-20.2
				C949,210.4,948.2,213.3,950.1,213.8L950.1,213.8z"/>
		</g>
	</g>
	<g>
		<g>
			<path class="st1" d="M1121.2,265.9c12.2,5.1,11.8,20.3,5.2,29.8c-5.7,8.2-18.9,18.5-29.4,14.7c-1.8-0.7-2.6,2.2-0.8,2.9
				c12.7,4.6,28.6-8.2,34.4-18.7c6.2-11.2,4-26.2-8.7-31.5C1120.2,262.2,1119.4,265.1,1121.2,265.9L1121.2,265.9z"/>
		</g>
	</g>
</g>
<g id="torso">
	<path class="st11" d="M1134.1,262.6c-2.4,0.5-5.9,1.6-9.6,3.8c-6.6,4.1-10,9.7-12.5,14.4c-11.3,21.2-14.4,37.4-14.4,37.4
		c-4.2,22-1.7,39.8,0,51.3c3,20.3,6.2,18.9,9.6,41.2c1.5,9.8,3.4,26.2,2.4,46.5c-0.7,14-2.5,25.9-4.3,35c2.3,2.6,5.8,6.3,10.6,10.1
		c25,19.7,55.2,18.2,64.8,17.7c27.3-1.4,47.3-12.7,57.1-19.2c1-1.4,1.9-2.9,2.9-4.3c-1.7-4.3-4-11.1-5.8-19.7
		c-4.1-20.1-1.8-34.1,0-58c0.8-11,1.8-27.2,1.9-47.5c-2.4,0-4.8,0-7.2,0c-1.8,0.1-18.1,0.4-28.3-12.5c-8.8-11.1-6.7-24.1-6.2-26.9
		c2.5-15.7,15.7-28.8,33.6-34.1c-7.5-4-15.6-8.8-24-14.4c-9.4-6.3-17.7-12.6-24.9-18.7c-8.1,2-14.7,3.9-19.2,5.3
		c-9.5,2.9-13.1,4.4-17.3,2.9C1138.1,271.2,1135.4,266.1,1134.1,262.6z"/>
	<g>
		<g>
			<path class="st1" d="M1135.6,262.4c-10.1-0.5-17.7,6.7-23,14.6c-6.9,10.2-11.6,22.2-14.8,34c-7,26.2-3.9,51.8,2.1,77.8
				c3.2,13.6,6.6,27.2,8,41.2c1.4,15,0.6,30.2-1.5,45.1c-0.7,5.3-3,11.6-2.5,16.9c0.5,4.7,5.4,7.7,8.9,10.3
				c9.7,7.2,20.8,12.3,32.5,15.4c28.1,7.4,57.6,2.3,83.8-9.2c1.8-0.8,0.2-3.4-1.5-2.6c-22.9,10-48.6,15.2-73.5,10.7
				c-11.1-2-21.9-5.8-31.6-11.5c-4.3-2.5-9.5-5.5-12.9-9.2c-4.7-5.2-0.9-15.7,0-22.2c3.2-24.2,1.9-47.5-3.5-71.3
				c-5.4-24.2-11.8-47.9-8.9-72.9c1.6-13.7,5.5-27.1,11.5-39.5c5.1-10.6,13.1-25.3,26.8-24.6
				C1137.6,265.5,1137.6,262.5,1135.6,262.4L1135.6,262.4z"/>
		</g>
	</g>
	<g>
		<g>
			<path class="st1" d="M1204,285.4c7.8,4.1,15.5,8.5,23.2,13c1.7,1,3.2-1.6,1.5-2.6c-7.6-4.5-15.3-8.8-23.2-13
				C1203.8,281.9,1202.3,284.5,1204,285.4L1204,285.4z"/>
		</g>
	</g>
	<g>
		<g>
			<path class="st1" d="M1229.4,295.8c-13.7,5.9-24.3,13.1-31.2,26.7c-5.4,10.8-9.5,25,0.4,34.6c1.4,1.3,3.5-0.8,2.1-2.1
				c-10.2-9.8-3.5-25.2,2.5-35.4c6.3-10.7,16.6-16.4,27.7-21.2C1232.7,297.6,1231.1,295,1229.4,295.8L1229.4,295.8z"/>
		</g>
	</g>
	<g>
		<g>
			<path class="st1" d="M1234.9,373.8c2.4,21.4-2.2,42.4-3.5,63.7c-1.2,20.3,1.3,40.6,7.2,60c0.6,1.8,3.5,1.1,2.9-0.8
				c-6-19.8-8.4-40.4-7-61.1c1.4-20.6,5.6-41.1,3.3-61.8C1237.7,371.9,1234.7,371.9,1234.9,373.8L1234.9,373.8z"/>
		</g>
	</g>
	<g>
		<g>
			<path class="st1" d="M1238.8,496.7c-3,3.9-6.7,7.1-11,9.5c-1.7,0.9-0.2,3.5,1.5,2.6c4.8-2.7,8.8-6.3,12.1-10.6
				C1242.6,496.6,1239.9,495.1,1238.8,496.7L1238.8,496.7z"/>
		</g>
	</g>
	<g>
		<g>
			<path class="st1" d="M1197.9,356.6c9.6,11.3,23.6,17.5,38.4,17.1c1.9,0,1.9-3,0-3c-14.1,0.3-27.2-5.6-36.3-16.3
				C1198.7,353,1196.6,355.1,1197.9,356.6L1197.9,356.6z"/>
		</g>
	</g>
	<path class="st12" d="M1153.4,290.1c18.7,37.2,26.3,70,29.7,92.1c4,26.1,3.8,46.9,3.6,58.8c-0.6,32.2-5.1,59-9.5,78.5
		c3.6-0.2,7.1-0.4,10.7-0.6c7,0,19.3-1.1,32.7-7.7c8.6-4.3,14.9-9.6,19-13.7c-4-14.4-5.4-26.1-5.9-33.9c-1.4-19.9,1.6-30.8,3-59.4
		c0.7-14,0.7-25.2,0.6-32.1c-5.6-0.1-14.9-1.1-24.4-6.5c-5.4-3.1-14.3-8.3-17.2-18.4c-1.8-6.3-0.5-11.7,0.6-16
		c0.6-2.4,4.9-18.6,20.8-27.3c5.6-3.1,10.8-4.3,14.3-4.8c-19.6-10.1-39.2-20.2-58.8-30.3c-1.8,3.1-4.1,6.5-7.1,10.1
		C1161.2,283.7,1157,287.4,1153.4,290.1z"/>
	<path class="st13" d="M1205.3,361.6c3.8,20.8,6.9,49.4,3.8,83c-2.7,29.7-9.4,54.4-15.9,72.9c6.4-0.3,16-1.6,26.8-6
		c9.7-4,16.9-9.3,21.5-13.2c-2.1-5.6-4.7-13.6-6.4-23.4c-0.7-4.2-1.9-11.9-1.9-24.9c-0.1-21.6,2.9-28,3.8-49.5
		c0.3-6.2,0.4-15.9-0.4-27.9c-3.3,0.4-9.1,0.6-15.9-1.5C1212.8,368.6,1207.7,364.1,1205.3,361.6z"/>
</g>
<g id="hand_l">
	<path class="st11" d="M1233.2,298.3c-9.7,0.4-16.7,6.3-21.1,9.8c-3.5,2.9-13.4,11.1-15.9,25.3c-0.7,4-2.2,12.5,2.3,20.6
		c6.9,12.2,22.8,15.1,27.1,15.9c6.4,1.2,7.1-0.1,10.3,1.4c3.6,1.6,9.9,6.3,13.6,32.3c1.9,13.3,4.4,32.2-1.4,57.1
		c-5.1,22-9.3,28.5-13.6,31.8c-4.7,3.7-12.5,7.3-13.1,7.5c-7.9,3.6-9.6,2.8-16.9,6.1c-5.6,2.5-12.1,5.3-17.3,11.7
		c-4.8,5.8-6.7,12.2-7.5,16.4c7.5-1.1,15-2.2,22.5-3.3c1.2,2.1,2.9,5.3,4.7,9.4c3.8,8.7,5.2,15.6,5.6,17.3c1.6,7,7.2,18.2,24.3,36.5
		c-2-12.5-4.1-25-6.1-37.4c2,4.7,5.1,10.4,9.8,16.4c7,8.9,14.7,14.5,20.1,17.8c-0.9-12.5-1.9-25-2.8-37.4c5,7,10,14,15,21.1
		c-0.8-6.5-2.3-14.2-5.1-22.5c-5.4-16-13.4-27.8-19.7-35.6c2.9-2.2,6.9-5.4,11.2-9.8c6.3-6.4,11.2-13.1,15.9-21.1
		c10.4-17.5,18.5-31.1,22.9-51c1.4-6.4,7.4-35.8-4.2-70.7c-3.1-9.4-12.1-32.8-33.2-52C1246.6,299,1238,298.1,1233.2,298.3z"/>
	<g>
		<g>
			<path class="st1" d="M1231.9,297.1c17.7,7,33.4,18.5,44.4,34.1c10.3,14.7,15.5,31.7,19.7,49c9.1,37.2-1.6,74.2-22.8,105.2
				c-7.2,10.5-15.4,20.3-24.3,29.4c-1.3,1.4,0.8,3.5,2.1,2.1c20-20.6,37.1-44.8,45.7-72.5c6.2-19.8,7.4-40.8,3-61.1
				c-3.8-17.4-9-35-18.6-50.1c-11.5-18.1-28.7-31.1-48.5-39C1230.9,293.5,1230.1,296.4,1231.9,297.1L1231.9,297.1z"/>
		</g>
	</g>
	<g>
		<g>
			<path class="st1" d="M1225.7,370.9c20.8-0.2,22.5,33.3,23,47.8c0.5,16.1,0.2,32.7-4.2,48.2c-2.2,7.7-5.4,15.1-10.2,21.6
				c-2.6,3.6-5.8,7.4-9.7,9.7c-3.3,2-6.9,2.5-10.7,3.3c-12.2,2.6-23.1,9.5-29.8,20.1c-1.6,2.6-7.4,9.9-4.8,13.3
				c0.8,1.1,2,1.1,3.3,1.1c3.9-0.2,7.9-1.6,11.7-2.4c1.9-0.4,1.1-3.3-0.8-2.9c-3.1,0.7-7.1,2.3-10.3,2.2c-1.9-0.1-1.6,0.3-0.9-1.7
				c0.7-2.2,2.1-4.3,3.3-6.3c4.5-7.6,10.5-13.3,18.6-17c4.7-2.2,9.4-3.1,14.4-4.3c7.3-1.7,12.6-6.2,17.2-12.1
				c8.7-11.2,12.8-25.2,14.7-39.1c2.1-15.9,2.2-32.6,0.2-48.5c-1.8-14-6.8-36.3-24.9-36.1C1223.8,368,1223.8,371,1225.7,370.9
				L1225.7,370.9z"/>
		</g>
	</g>
	<g>
		<g>
			<path class="st1" d="M1192.4,533.7c1.6-0.3,3.4-0.8,5.1-0.9c2.1-0.7,4.2-0.2,6.1,1.5c0.2,0.6,0.3,1.1,0.5,1.7c1.5,3,2,7,3,10.2
				c2,6.2,4.4,12.3,7.1,18.2c5.4,11.7,12.5,22.6,21.8,31.6c1.2,1.1,2.7,0,2.5-1.5c-1.8-11.6-3.6-23.2-5.4-34.8
				c-0.3-1.9-3.2-1.1-2.9,0.8c1.8,11.6,3.6,23.2,5.4,34.8c0.8-0.5,1.7-1,2.5-1.5c-11.7-11.2-19.6-25.4-25.3-40.4
				c-1.4-3.8-2.7-7.6-3.9-11.4c-1-3.2-1.4-7.1-2.9-10c-2.7-5.1-9.9-2-14.3-1.2C1189.7,531.1,1190.5,534,1192.4,533.7L1192.4,533.7z"
				/>
		</g>
	</g>
	<g>
		<g>
			<path class="st1" d="M1247.5,517.4c7.7,8.6,12.4,18.4,16.6,29c4.4,11.1,8.5,22.3,9.5,34.2c1-0.1,2-0.3,2.9-0.4
				c-4.4-10.7-10.6-20.3-18.5-28.7c-1.3-1.4-3.4,0.7-2.1,2.1c7.5,8,13.5,17.2,17.7,27.4c0.6,1.4,3.1,1.5,2.9-0.4
				c-1.1-12.9-5.5-24.8-10.3-36.7c-4.2-10.5-9.2-20.1-16.7-28.6C1248.4,513.8,1246.2,515.9,1247.5,517.4L1247.5,517.4z"/>
		</g>
	</g>
	<g>
		<g>
			<path class="st1" d="M1228.7,558.3c8.3,13.6,19.1,25.2,32,34.6c1,0.7,2.2-0.3,2.3-1.3c0.3-12.7-1.5-25.2-4.6-37.4
				c-0.5-1.9-3.4-1.1-2.9,0.8c3,12,4.8,24.2,4.5,36.6c0.8-0.4,1.5-0.9,2.3-1.3c-12.5-9-22.9-20.4-30.9-33.5
				C1230.3,555.2,1227.7,556.7,1228.7,558.3L1228.7,558.3z"/>
		</g>
	</g>
	<g>
		<g>
			<path class="st1" d="M1239.8,550.9c7.5,11.8,13.8,24.2,18.7,37.2c0.7,1.8,3.6,1,2.9-0.8c-5-13.3-11.3-26-19-38
				C1241.3,547.8,1238.7,549.3,1239.8,550.9L1239.8,550.9z"/>
		</g>
	</g>
	<path class="st14" d="M1211,309.5c10.6,4.6,40.1,19.1,57.9,52.5c19.8,37.4,17.6,86.5-1.6,111.5c-7.9,10.2-21.1,24.9-26.3,30.1
		c-9.4,9.5-13.1,11.9-16.9,13.6c-8.6,4-12.9,2.4-24.5,7.2c-9.9,4.1-15.7,8.9-15.4,9.3c0.2,0.5,7.3-2.9,14.2-2.7c0,0,5.2,0.1,6.7,2.5
		c0.1,0.1,0.2,0.3,0.2,0.3c0.3,0.6,0.3,1.4,1.3,5.3c0.7,2.9,1.5,5.3,1.9,6.8c2.4,7.5,6,16.6,11.7,26.5c5.7,10,11.9,17.8,17.2,23.6
		c-1.6-11.7-3.1-23.4-4.7-35.2c3.7,6,8.9,13.1,16.2,20.2c4.5,4.4,8.9,8,12.9,10.8c-1.2-13-2.5-26-3.7-39.1
		c3.7,4.7,7.5,10.2,11.2,16.4c2.2,3.6,4,7.1,5.7,10.4c-1.2-10-4-23.1-10.4-37.4c-3.5-7.9-7.5-14.5-11.2-20c-0.4-2.7-0.8-5.3-1.1-8
		c4.2-4.2,9.7-10.3,15.7-18c7-9,20.3-26.3,27.7-49.4c13.9-43.1-0.7-81.6-4.6-91.4c-4.2-10.6-10.4-25.7-25.4-39.7
		c-12.1-11.3-24.7-17-32.8-19.9c-3.4,1.1-7.8,2.9-12.5,6C1216.2,304.4,1213.2,307.2,1211,309.5z"/>
	<path class="st15" d="M1273.8,484.6c-1.5-1.3-18.8,16.5-24.9,22.9c-13.8,14.6-15.1,18.6-15.7,20.8c-2.6,9.7,1,18.1,7,31.6
		c5.1,11.5,15.9,31.7,20,30.2c1.9-0.7,3.6-6.3-3.4-38.4c12.5,23.1,16.4,27.6,17.6,27c2.3-1-3.3-21.2-11.3-38.6
		c-4.5-9.8-9.2-17.5-12.6-22.7C1271,491.6,1274.6,485.3,1273.8,484.6z"/>
</g>
<g id="head">
	<path class="st11" d="M1082.7,160.7c-1,2.5-0.6,2.8-3,10.5c-1,3.2-1.9,5.9-2.6,7.7c0.1,10-1.5,17.8-3.1,23.2
		c-1.5,5.1-3.9,11.2-2.3,12.2c1.6,1,5.1-4.4,9-3.5c2.6,0.6,3.9,3.8,5.2,7.1c0,0,4.1,9.9,8.4,18.1c2.7,5.2,7.3,13.9,16.4,17.1
		c6,2.1,12,1,15.5,0.5c4.7-0.8,8.4-2.3,10.8-3.5c-3.8,6.1-3.7,13.4,0,18.1c4.5,5.5,12.5,4.8,14.4,4.6c5-0.5,8.7-2.8,10.4-4
		c-1.8-4.4-3.8-11.1-3.9-19.3c-0.1-17.2,8.6-29.3,12-33.5c1.9-0.4,5.8-1.4,9.3-4.6c0.8-0.7,7.4-6.9,6.2-15.8
		c-0.6-4.7-3.7-12.2-10.4-13.5c-4.9-0.9-8.9,1.9-10,2.7c-0.9-2.2-1.8-4.4-2.7-6.6c-5.6-0.1-12.7-1-20.4-3.9
		c-22.6-8.4-33.4-27.6-36.6-33.9c-2.2,0.8-5.4,2.2-8.9,4.6C1093.3,147,1086,152,1082.7,160.7z"/>
	<g>
		<g>
			<path class="st1" d="M1078.8,165.4c-2,16.6-5.3,33-9.6,49.2c-0.3,1.1,0.7,2.1,1.8,1.8c4.5-1.2,8.9-2.4,13.4-3.5
				c-0.6-0.3-1.2-0.7-1.8-1c2.2,10.1,6.4,19.5,12.3,28c2.5,3.6,5.3,7,8.3,10.2c2.6,2.8,4.6,5.7,8.5,5.9c17.6,0.9,34.2-7,45.7-20.1
				c1.3-1.4-0.8-3.6-2.1-2.1c-10.7,12.2-25.7,19.7-42.1,19.3c-6.6-0.2-13.2-11-16.5-15.9c-5.3-7.9-9-16.7-11.1-26.1
				c-0.2-0.8-1.1-1.2-1.8-1c-4.5,1.2-8.9,2.4-13.4,3.5c0.6,0.6,1.2,1.2,1.8,1.8c4.4-16.4,7.7-33.1,9.7-50
				C1082,163.5,1079,163.5,1078.8,165.4L1078.8,165.4z"/>
		</g>
	</g>
	<g>
		<g>
			<path class="st1" d="M1092.8,169c-0.1,6,0.8,11.8,2.7,17.4c0.6,1.6,2.8,1.3,2.9-0.4c0.6-6.3-0.1-12.4-2.1-18.4
				c-0.5-1.7-2.8-1.3-2.9,0.4c-0.3,3.1-0.1,6.2,0.5,9.2c0.4,1.9,3.2,1.1,2.9-0.8c-0.5-2.8-0.6-5.6-0.4-8.4c-1,0.1-2,0.3-2.9,0.4
				c1.9,5.8,2.5,11.6,2,17.6c1-0.1,2-0.3,2.9-0.4c-1.9-5.4-2.8-10.9-2.6-16.6C1095.8,167.1,1092.8,167.1,1092.8,169L1092.8,169z"/>
		</g>
	</g>
	<g>
		<g>
			<path class="st1" d="M1070.8,181.7c0.1,0.1,0.1,0.1,0.2,0.2c-0.1-0.5-0.3-1-0.4-1.5c0.1-0.1,0.2-0.3,0.3-0.4c0.5,0,1,0,1.5,0
				c-1-0.6-0.9-3.9-0.9-4.7c0.1-1.7,0.4-3.2,1-4.8c-1,0-1.9,0-2.9,0c1,4.5,1.2,8.9,0.4,13.5c1,0,1.9,0,2.9,0
				c-1.6-4.2-1.9-8.5-0.8-12.8c0.5-1.9-2.4-2.7-2.9-0.8c-1.2,4.9-0.9,9.7,0.8,14.4c0.5,1.2,2.6,1.6,2.9,0c0.8-5.1,0.7-10-0.4-15.1
				c-0.4-1.6-2.4-1.3-2.9,0c-1.3,3.5-1.8,7.8-0.2,11.3c0.8,1.8,3.4,2.5,4,0.1c0.1-0.5,0-1.1-0.4-1.5c-0.1-0.1-0.1-0.1-0.2-0.2
				C1071.5,178.3,1069.3,180.4,1070.8,181.7L1070.8,181.7z"/>
		</g>
	</g>
	<g>
		<g>
			<path class="st1" d="M1088.6,226.1c3.1,0.7,6.4,1.1,9.4-0.4c2.9-1.4,5.6-4,8.1-6c1.5-1.2-0.6-3.3-2.1-2.1
				c-2.2,1.7-4.3,3.7-6.7,5.1c-2.4,1.4-5.2,1.1-7.8,0.5C1087.5,222.8,1086.7,225.7,1088.6,226.1L1088.6,226.1z"/>
		</g>
	</g>
	<g>
		<g>
			<path class="st1" d="M1102.9,195.9c-0.1,0-0.2,0-0.3,0c-0.3-0.1-0.5-0.1-0.8-0.2c-0.1-0.1-0.2-0.1-0.2-0.2
				c-0.1-0.2-0.3-0.4-0.4-0.7c0,0.1,0,0.1,0-0.1c-0.1-0.4,0.1-0.8,0.6-1.2c0.3-0.1,0.5-0.1,0.8-0.2c0.1,0,0.2,0,0.3,0
				c-0.7-0.3-1.7,0.3-1.8,1c-0.2,0.9,0.3,1.5,1,1.8c1.1,0.5,2.1-0.6,2.1-1.7c0-1.1-1-2.1-2.1-1.7c-0.8,0.3-1.3,1-1,1.8
				C1101.3,195.6,1102.2,196.2,1102.9,195.9L1102.9,195.9z"/>
		</g>
	</g>
	<g>
		<g>
			<path class="st1" d="M1110.7,188.3c1.9,0,1.9-3,0-3C1108.8,185.3,1108.8,188.3,1110.7,188.3L1110.7,188.3z"/>
		</g>
	</g>
	<g>
		<g>
			<path class="st1" d="M1110.9,196.7c0.2,0.2,0.4,0.4,0.6,0.6c0.6,0.6,1.5,0.6,2.1,0c0.6-0.6,0.6-1.5,0-2.1
				c-0.2-0.2-0.4-0.4-0.6-0.6c-0.6-0.6-1.5-0.6-2.1,0C1110.4,195.1,1110.4,196.1,1110.9,196.7L1110.9,196.7z"/>
		</g>
	</g>
	<g>
		<g>
			<path class="st1" d="M1082.1,164.8c4.6-11.9,14.4-20.9,26.5-24.6c1.8-0.6,1.1-3.5-0.8-2.9c-13.2,4.1-23.6,13.8-28.6,26.7
				C1078.5,165.8,1081.4,166.6,1082.1,164.8L1082.1,164.8z"/>
		</g>
	</g>
	<g>
		<g>
			<path class="st1" d="M1105.7,139.2c7.6,26.5,33.6,40.7,60,40.4c1.9,0,1.9-3,0-3c-25,0.2-49.9-13-57.1-38.2
				C1108,136.6,1105.1,137.4,1105.7,139.2L1105.7,139.2z"/>
		</g>
	</g>
	<g>
		<g>
			<path class="st1" d="M1134.8,253.5c0.6,11.5-0.4,22.9-3.1,34.2c-0.1,0.6,0.1,1.4,0.7,1.7c12.5,6.6,28,1.8,34.5-10.8
				c0.9-1.7-1.7-3.2-2.6-1.5c-5.7,11.1-19.3,15.6-30.4,9.7c0.2,0.6,0.5,1.1,0.7,1.7c2.7-11.5,3.8-23.2,3.2-34.9
				C1137.7,251.6,1134.7,251.6,1134.8,253.5L1134.8,253.5z"/>
		</g>
	</g>
	<path class="st16" d="M1106.3,141.5c-3.4,1.4-8,3.6-12.5,7.5c-8.5,7.3-12,16-13.4,20.4c-2.9-0.7-7.6-2.3-11-6.5
		c-7-8.7-4.2-23.5,3-31.4c6.7-7.4,12.3-3,24.9-12c8-5.7,7.7-8.9,16.6-14.7c4.3-2.8,10.3-6.8,18.4-8.2c12.2-2.1,22.4,2.8,37.3,9.9
		c8.7,4.2,6.8,4.2,18.9,10.5c20.3,10.5,23.1,9.1,31.6,15.8c8.8,6.9,13.7,14.7,17.9,21.4c5.9,9.5,6,12.8,12.3,26.5
		c9.6,20.6,12.5,19.6,18.4,33.9c5,12.1,10,24,7.5,38.4c-3.7,21.2-21.1,33.2-24.4,35.4c-22.1,14.6-46.5,8.3-55.3,6
		c-10.4-2.7-24.7-6.4-33.4-18.9c-11.1-16-8.8-40.5,5-61.8c2,0.2,5.5,0.3,9-1.5c7.9-4.1,11.9-15.8,7.5-23.9c-0.5-0.9-4.4-7.9-12-8
		c-7.5-0.1-11.8,6.6-12,7c-7.9-1.8-26.6-7.3-41.4-24.4C1112.6,155.3,1108.7,147.5,1106.3,141.5z"/>
	<circle class="st17" cx="1168.1" cy="215.7" r="5.7"/>
	<path class="st18" d="M1135.2,250.7c0,1.2,0.1,2.4,0.2,3.6c0.1,1.3,0.3,2.6,0.4,3.8c3.6-1.2,9-3.6,13.6-8.7c5-5.7,7.3-13,6.4-13.6
		c-0.8-0.5-3.2,3.6-8.9,8.1C1142.4,247.4,1138.1,249.4,1135.2,250.7z"/>
	<path class="st19" d="M1172.5,108.1c8,9,19.3,22.7,30.5,41c12.7,20.6,22.3,36.3,25.9,58.6c2.2,13.9,7.6,47.8-13.9,67.5
		c-12.4,11.3-28.2,13-36.1,13.2c4.1,1.9,10.1,4.3,17.6,6.1c10.4,2.5,26.5,6.3,43.8-0.2c3.4-1.3,25.9-10.2,33.6-33.1
		c5.1-15.2,1.2-29.2-0.4-34.8c-2.8-9.9-7.8-18.4-10.4-22.9c-4.4-7.4-9-13.4-13.1-22.5c-2.5-5.4-4.1-9.8-4.1-9.8
		c-2.1-5.5-1.8-5.8-3.2-8.7c-1.5-3.3-2.5-4.2-6.8-11c-4.1-6.5-3.2-5.6-4.7-7.7c-5.7-7.9-12-11.9-13.5-12.8c-1.1-0.7-3.2-1.7-7.5-3.8
		c-6.5-3.1-11.4-5.3-12.4-5.7C1192.9,119.6,1185.1,115.7,1172.5,108.1z"/>
	<path class="st20" d="M1106,140.4c11.3,14.1,22.3,23.9,30.6,30.4c13.9,10.9,21.9,13.8,28.7,11.7c2.1-0.6,3.7-1.6,4.7-2.3
		c-2.3,0.9-5.3,2.4-8,5.3c-0.5,0.6-1,1.2-1.4,1.8c-2.2-0.5-5.3-1.3-9-2.6c-21.1-7.6-32.8-22.3-34.9-25
		C1113.5,155.6,1109.3,149.2,1106,140.4z"/>
	<path class="st21" d="M1258.3,197c1.2,6.9,2.4,16.7,1.9,28.3c-0.3,6.4-0.9,21-5.7,32.7c-10.7,26-41.5,35.7-49.3,37.9
		c3.1,0.6,33.8,6.1,54.5-13.9c11.8-11.4,15.3-26.1,15.5-27c1.9-8.2,1.2-14.8,0.8-18.5C1274,217.8,1264.2,204,1258.3,197z"/>
</g>
</svg>
