<?xml version="1.0" encoding="utf-8"?>
<!-- Generator: Adobe Illustrator 23.0.3, SVG Export Plug-In . SVG Version: 6.00 Build 0)  -->
<svg version="1.1" xmlns="http://www.w3.org/2000/svg" xmlns:xlink="http://www.w3.org/1999/xlink" x="0px" y="0px"
	 viewBox="0 0 1600 1200" style="enable-background:new 0 0 1600 1200;" xml:space="preserve">
<style type="text/css">
	.st0{fill:#E8E8E8;}
	.st1{fill:#EC615B;}
	.st2{fill:#5222D0;}
	.st3{fill:#161616;}
	.st4{fill:#FFFFFF;}
	.st5{opacity:0.16;fill:#8C8C8C;}
	.st6{opacity:0.14;fill:#8C8C8C;}
	.st7{opacity:0.13;fill:#8C8C8C;}
	.st8{opacity:0.27;fill:#8C8C8C;}
	.st9{fill:#232323;}
	.st10{fill:#C9C9C9;}
	.st11{opacity:0.15;fill:#707070;}
	.st12{opacity:0.1;fill:#707070;}
	.st13{opacity:0.14;fill:#707070;}
</style>
<g id="background">
	<g>
		<g>
			<path class="st0" d="M105.5,418.7c-1.4-6.6,7.3-7,11.1-5.1c3.2,1.6,5.8,4.4,8.6,6.6c4.2,3.4,8.8,5.6,14.2,4.5c0.5-0.1,1-0.6,1-1
				c1.6-11.4,15.7-16.6,24.4-9.3c5.1,4.2,11.7,12.3,18.8,6.8c3.2-2.5,4.1-6.8,7-9.4c6.6-5.9,14,2.2,18.9,6.3
				c5.2,4.3,14.3,8.4,19.5,1.9c1.2-1.5-0.9-3.6-2.1-2.1c-9.7,12.4-24.7-19.7-37.5-9c-2.2,1.9-3.4,4.5-5,6.9c-3.5,5.2-7.8,4.8-12.3,1
				c-4.5-3.8-8.2-8.3-14.5-9c-5.1-0.5-10.3,1.3-14.2,4.5c-2,1.7-3.6,3.7-4.6,6c-1.2,2.6-0.2,4-4.1,3.5c-2.9-0.3-5.8-2.6-8-4.4
				c-4.6-3.7-9.7-9.2-16.3-8.1c-4.9,0.8-8.8,5-7.7,10.1C103.1,421.3,106,420.5,105.5,418.7L105.5,418.7z"/>
		</g>
	</g>
	<g>
		<g>
			<path class="st0" d="M208.9,399.7c1.2-3.8,2.7-8.4,5.9-11.1c4.5-3.7,9.6-1.2,13.3,2.2c4.6,4.1,7.9,9.4,13.9,11.6
				c5.2,2,10,0.4,12.7-4.5c1.7-3.1,2-7.5,5.3-9.4c4.3-2.6,9.7,1.1,12.7,4c3.5,3.5,6.4,9.4,12.3,8.6c4.5-0.6,6.5-5.2,8.6-8.6
				c2.2-3.7,4.8-7,9.7-5.4c3.8,1.2,6.6,4.4,10.1,6.2c4.3,2.3,9.8,3.3,13.4-0.8c1.3-1.5-0.9-3.6-2.1-2.1c-6,6.9-15.6-5.4-22-6.6
				c-5.1-0.9-8.6,2.2-11.1,6.2c-1.5,2.5-2.8,6.3-5.6,7.7c-4.3,2.2-7.7-3.6-10.1-6.2c-3.5-3.8-9.2-7.7-14.7-6.6
				c-6.7,1.4-6.3,8.1-9.7,12.7c-7,9.4-17.4-5.7-22.3-9.8c-4-3.3-9.1-5.4-14.1-2.9c-5.2,2.6-7.4,8.8-9.1,14
				C205.4,400.7,208.3,401.5,208.9,399.7L208.9,399.7z"/>
		</g>
	</g>
	<g>
		<g>
			<path class="st0" d="M554.9,355.2c0-5.4,6.4-6.9,10.6-5.7c3.6,1,6.6,3.4,9.8,5.3c4.5,2.6,10.2,4.9,15.3,2.7
				c5.9-2.6,6.1-12.7,13.7-11.5c6.9,1.1,11.2,8.4,17.3,11.2c3.8,1.8,8.3,2.3,11.7-0.7c2.2-2,2.7-5,4.3-7.3c3.2-4.8,8.4-3.1,12.5-0.5
				c6.5,4,17.9,14.9,24.5,4.9c1.1-1.6-1.5-3.1-2.6-1.5c-4.9,7.2-14.8-2.2-19.1-5.2c-4.1-2.8-9.9-5.6-14.6-2.8
				c-5.8,3.5-4.9,14.2-14.2,10.9c-6.8-2.4-10.7-9.3-17.6-11.5c-4.8-1.5-9,0-11.6,4.2c-2.3,3.6-3.5,7.6-8.6,7.7
				c-4.3,0.1-8-2.2-11.5-4.3c-4.7-2.9-9.9-6.1-15.6-4.5c-4.1,1.2-7.2,4.3-7.3,8.7C551.9,357.2,554.9,357.2,554.9,355.2L554.9,355.2z
				"/>
		</g>
	</g>
	<g>
		<g>
			<path class="st0" d="M652.8,331c-1.1-7.1,8.6-5.2,11.5-3.6c2.5,1.3,4.7,3.1,7.1,4.4c3.5,1.8,7.9,2.9,11.7,1.2
				c3.9-1.8,3.9-5.4,5.8-8.7c4.4-7.9,12.5,0.4,16.9,3.6c4.7,3.4,13.5,6.6,16.8-0.2c1.5-3.1,0.8-7.3,5.5-7.7c3.1-0.3,6,1.3,8.4,3
				c4.1,2.8,7.5,5.8,12.7,6c1.9,0.1,1.9-2.9,0-3c-7.5-0.3-19.2-15.7-26.9-6.4c-1.8,2.2-1.3,5.1-3,7.3c-2.6,3.3-7.2,1.5-10.4-0.5
				c-4.5-2.8-8-7.1-13.5-8.2c-4.1-0.8-7.4,1-9.2,4.7c-1.7,3.5-2.2,7.9-7.3,7.9c-4,0-7.3-2.4-10.4-4.5c-4.1-2.6-8.7-5-13.6-2.9
				c-3.6,1.5-5.5,4.5-5,8.3C650.2,333.7,653.1,332.9,652.8,331L652.8,331z"/>
		</g>
	</g>
	<g>
		<g>
			<path class="st0" d="M1275.3,211.3c2.5-1.9,5.3-3.9,8.5-4.7c5.5-1.3,6.6,3.3,9.5,6.5c1.9,2.1,4.4,3,7.1,2.3c4-1.1,7-4.6,10.5-6.6
				c7.3-4,10.9,3,15.7,7.2c2.8,2.4,7,4.6,10.7,3.1c4.7-1.9,4.1-7.7,7.7-10.7c5.2-4.3,12.9-0.5,17.9,2.2c5.2,2.8,10.3,5.6,16.4,4.9
				c1.9-0.2,1.9-3.2,0-3c-11.7,1.4-20.5-12-32.6-8.3c-4.1,1.3-5.8,4.3-7.4,8.1c-4.8,11.1-13.2-2.1-17.9-5.5
				c-3.3-2.4-6.9-2.9-10.6-1.2c-3.9,1.7-7.9,7-12.2,7.1c-3.6,0-4.5-4.2-6.5-6.4c-1.3-1.4-2.8-2.3-4.7-2.7c-4.9-0.9-10,2.4-13.7,5.2
				C1272.3,209.8,1273.8,212.4,1275.3,211.3L1275.3,211.3z"/>
		</g>
	</g>
	<g>
		<g>
			<path class="st0" d="M1368.9,235.6c-0.3-4.9,5.5-4.3,8.1-2.8c1.7,1,3.1,2.5,4.6,3.7c1.9,1.6,3.8,3.1,6.2,3.9
				c3.9,1.3,7.3,0.2,9.7-3c3-3.9,4.9-7.8,10.8-5.1c3.1,1.5,5.3,4,7.7,6.3c3.3,3.3,7.8,7.1,12.8,6.6c5.1-0.5,6.8-6.1,11.5-7.2
				c4.5-1.1,9.4,1.5,13.4,3.2c6.4,2.8,13.9,6.4,20.1,1.2c1.5-1.2-0.6-3.3-2.1-2.1c-7.3,6-19-4.1-26.8-5.3c-3.4-0.5-6.6,0-9.4,2.1
				c-4,3.1-6.2,7-12.1,3.7c-3.4-1.9-5.6-4.9-8.5-7.4c-3.3-2.9-8-6.1-12.7-4.8c-6.6,1.7-6.9,12.8-15.3,8.3c-4.8-2.6-8.3-8.9-14.6-8.2
				c-3.7,0.4-6.8,3.1-6.5,7C1366,237.5,1369,237.5,1368.9,235.6L1368.9,235.6z"/>
		</g>
	</g>
	<g>
		<g>
			<path class="st0" d="M122.3,673c0.3-6.1,8-5.2,11.6-3.4c2.7,1.3,5,3.2,7.7,4.5c3.6,1.7,8.2,2.8,11.9,0.8
				c4.7-2.6,4.8-9.2,10.3-10.7c3.5-1,7.3,0.3,9.4,3.2c1.2,1.6,1.6,3.5,3.4,4.6c3.1,1.9,6.6,0.1,8.8-2.2c2.4-2.6,3.7-6.3,7.7-7
				c3.5-0.6,7.5,4,9.6,6.2c4.3,4.4,13.3,10,17.8,2.7c1-1.6-1.6-3.2-2.6-1.5c-4.3,7-13.2-3.8-16.3-6.5c-3.2-2.7-7.3-5.1-11.5-3.3
				c-1.7,0.7-2.9,2-4,3.4c-1,1.2-2,3.4-3.3,4.3c-5.1,3.7-5.4,0-7-2.3c-2.1-3-5.3-4.8-9-5c-3.6-0.2-7.1,1.2-9.4,4.1
				c-2.6,3.3-3.4,8-8.7,8c-3.9,0-7.3-2.4-10.5-4.3c-3.9-2.3-8.1-4.5-12.7-3.1c-3.6,1.1-6.1,3.7-6.3,7.5
				C119.2,674.9,122.2,674.9,122.3,673L122.3,673z"/>
		</g>
	</g>
	<g>
		<g>
			<path class="st0" d="M186.7,646.3c-0.7-4.3,4.4-5.3,7.2-4.5c1.8,0.5,3.4,1.6,4.9,2.6c2.5,1.8,4.8,3.8,7.7,5
				c3.9,1.6,7.8,1.4,11-1.5c3.9-3.5,6.9-9.9,12.4-4.6c2.8,2.6,4.6,6.2,7.8,8.4c7.5,5.3,11.2-2.7,15-7.7c6.7-8.8,18,3.3,26.8-1.2
				c1.7-0.9,0.2-3.5-1.5-2.6c-8.8,4.5-18.9-8.4-26.9,1c-3.2,3.8-5.8,12.4-12.1,7.6c-3.4-2.6-5.1-6.7-8.6-9.2c-2.8-2-6-2.3-9-0.4
				c-2.2,1.5-3.3,3.8-5.1,5.6c-4.1,3.9-8.7,2.2-12.8-0.8c-4.1-2.9-8.6-6.8-13.9-5.3c-3.9,1.1-6.2,4.3-5.6,8.2
				C184.2,649,187,648.2,186.7,646.3L186.7,646.3z"/>
		</g>
	</g>
	<g>
		<g>
			<path class="st0" d="M479.2,488c1.5-3.7,4-9.2,9.1-8.2c2.3,0.4,4.3,2.4,5.9,3.9c2.8,2.6,5.4,5.8,9.2,7.1
				c10.9,3.7,13.6-13.7,23.7-10.8c4.7,1.4,8.4,5.4,13.4,5.8c4,0.4,7-1.8,9.5-4.7c1.5-1.7,2.7-3.9,4.4-5.4c4.3-3.6,7.1,0.7,10.2,3.4
				c4.4,3.9,9.8,5.9,15.6,6.4c1.9,0.2,1.9-2.8,0-3c-5-0.4-9.6-2.2-13.4-5.5c-2.1-1.8-3.7-4.3-6.3-5.4c-4.1-1.8-7.4,0.8-9.9,3.9
				c-1.7,2-3.2,4.7-5.5,6.2c-3.5,2.3-7,0.5-10.2-1.3c-4.1-2.2-8.6-5.1-13.4-3.4c-4.8,1.6-6.9,6.5-10.7,9.4c-6.1,4.7-11-1.8-15.2-5.7
				c-2.8-2.5-6.1-4.8-10.1-4c-5,1-7.4,6.1-9.1,10.4C475.5,489,478.4,489.8,479.2,488L479.2,488z"/>
		</g>
	</g>
	<g>
		<g>
			<path class="st0" d="M559.9,464.5c2.3-5.5,8.3-8.4,13.9-5.9c4,1.7,7.1,5.1,10.8,7.3c6.2,3.8,11.2,1.7,15-4
				c1.7-2.6,3.1-4.9,6.3-5.8c3.2-0.9,6.4,0,9.4,1.3c4.3,1.9,8.1,4.8,12.8,5.7c8,1.6,20.1-5.1,26.2,1.7c1.3,1.4,3.4-0.7,2.1-2.1
				c-6.6-7.3-16.9-1.9-25.2-2.3c-9.6-0.4-19.9-12.9-29.7-5.8c-3.9,2.9-5.3,10.4-10.9,10.4c-4.9,0-9.4-5.6-13.2-8
				c-7.3-4.4-16.7-2.3-20.2,5.9C556.5,464.8,559.1,466.3,559.9,464.5L559.9,464.5z"/>
		</g>
	</g>
	<circle class="st1" cx="409.6" cy="318" r="7.5"/>
	<circle class="st1" cx="637" cy="538.5" r="14.2"/>
	<circle class="st1" cx="1234" cy="208.3" r="9.8"/>
	<circle class="st1" cx="1514.1" cy="672.9" r="8.8"/>
	<circle class="st2" cx="359.8" cy="311" r="7.5"/>
	<circle class="st2" cx="576.6" cy="523.6" r="5.8"/>
	<circle class="st2" cx="783" cy="208.3" r="9.8"/>
	<ellipse class="st2" cx="1258.6" cy="173.4" rx="5.9" ry="6"/>
</g>
<g id="Layer_15">
	<g>
		<g>
			<path class="st1" d="M161.6,35.8c1,19.2,2.8,38.4,5.5,57.5c1.4,9.6,3,19.2,4.8,28.8c1.2,6.1,1.2,15.3,7.3,18.8
				c0.7,0.4,1.6,0.1,2.1-0.5c12.3-18.5,24.6-37.1,36.9-55.6c1.1-1.6-1.5-3.1-2.6-1.5c-12.3,18.5-24.6,37.1-36.9,55.6
				c0.7-0.2,1.4-0.4,2.1-0.5c-3.9-2.3-4.2-8.3-5-12.2c-0.8-3.8-1.5-7.7-2.2-11.5c-1.6-8.9-3-17.8-4.2-26.7
				c-2.3-17.3-3.9-34.7-4.8-52.1C164.5,33.9,161.5,33.9,161.6,35.8L161.6,35.8z"/>
		</g>
	</g>
	<g>
		<g>
			<path class="st1" d="M214.6,84.8c2.7,16.9,6,33.8,10,50.4c2,8.2,4.1,16.3,6.4,24.4c2,7.2,4.3,14.2,8.4,20.5c0.6,0.9,2,1.1,2.6,0
				c11.5-22,23.6-43.7,36.2-65.1c1-1.7-1.6-3.2-2.6-1.5c-12.6,21.4-24.7,43.1-36.2,65.1c0.9,0,1.7,0,2.6,0
				c-4.5-6.9-6.7-14.7-8.9-22.6c-2.2-7.8-4.2-15.6-6.1-23.5c-3.8-16-7-32.2-9.5-48.5C217.2,82.1,214.3,83,214.6,84.8L214.6,84.8z"/>
		</g>
	</g>
	<g>
		<g>
			<path class="st1" d="M271.8,112.9c5.2,16.3,10.4,32.5,15.6,48.8c4.1,13,7.2,27.5,16.5,37.9c0.6,0.7,2,0.6,2.4-0.3
				c9.3-21.6,18.7-43.2,28-64.8c0.8-1.8-1.8-3.3-2.6-1.5c-9.3,21.6-18.7,43.2-28,64.8c0.8-0.1,1.6-0.2,2.4-0.3
				c-9.7-10.9-12.6-26.9-16.9-40.4c-4.8-15-9.6-30-14.4-45.1C274.1,110.2,271.2,111,271.8,112.9L271.8,112.9z"/>
		</g>
	</g>
	<g>
		<g>
			<path class="st1" d="M331.5,134.5c8.6,30.1,20.9,59.1,36.5,86.3c0.7,1.2,2.3,0.8,2.7-0.4c8.7-25.7,19.3-50.6,31.7-74.7
				c0.9-1.7-1.7-3.2-2.6-1.5c-12.5,24.3-23.2,49.5-32,75.4c0.9-0.1,1.8-0.2,2.7-0.4c-15.5-27-27.7-55.6-36.2-85.5
				C333.9,131.8,331,132.6,331.5,134.5L331.5,134.5z"/>
		</g>
	</g>
	<g>
		<g>
			<path class="st1" d="M400.9,146.3c11.9,28.2,25.6,56.1,47.8,77.8c0.8,0.7,2.3,0.5,2.5-0.7c4.7-23.5,10.9-46.6,18.5-69.3
				c0.6-1.8-2.3-2.6-2.9-0.8c-7.7,22.7-13.9,45.8-18.5,69.3c0.8-0.2,1.7-0.4,2.5-0.7c-22-21.5-35.5-49.2-47.3-77.2
				C402.7,143,400.1,144.5,400.9,146.3L400.9,146.3z"/>
		</g>
	</g>
	<g>
		<g>
			<path class="st1" d="M468,155c8.2,13.6,16.8,26.9,25.9,40c4.5,6.4,9,12.8,13.8,19c3.2,4.2,6.5,7.9,11.8,9.5
				c1,0.3,1.8-0.5,1.9-1.4c2.5-23.6,8.6-46.6,17.8-68.5c0.7-1.8-2.2-2.6-2.9-0.8c-9.3,22.1-15.4,45.4-17.9,69.3
				c0.6-0.5,1.3-1,1.9-1.4c-6.7-2-10.5-8.9-14.4-14.2c-4.2-5.8-8.4-11.7-12.5-17.6c-7.9-11.5-15.5-23.3-22.7-35.3
				C469.6,151.8,467,153.3,468,155L468,155z"/>
		</g>
	</g>
	<g>
		<g>
			<path class="st1" d="M537.1,153.4c16.6,24,34.5,47,53.8,68.9c0.9,1,2.5,0.1,2.6-1.1c1.9-26.3,6.2-52.3,12.8-77.8
				c0.5-1.9-2.4-2.7-2.9-0.8c-6.7,25.8-11,52-12.9,78.6c0.9-0.4,1.7-0.7,2.6-1.1c-19.1-21.7-36.9-44.5-53.4-68.3
				C538.6,150.3,536,151.8,537.1,153.4L537.1,153.4z"/>
		</g>
	</g>
	<g>
		<g>
			<path class="st1" d="M603.9,143.9c15.4,22.8,32.2,44.6,50.3,65.3c0.7,0.9,2.2,0.4,2.5-0.7c6.9-27.1,13.8-54.3,20.7-81.4
				c0.5-1.9-2.4-2.7-2.9-0.8c-6.9,27.1-13.8,54.3-20.7,81.4c0.8-0.2,1.7-0.4,2.5-0.7c-17.9-20.5-34.6-42.1-49.8-64.7
				C605.4,140.8,602.8,142.3,603.9,143.9L603.9,143.9z"/>
		</g>
	</g>
	<g>
		<g>
			<path class="st1" d="M675.4,127.4c10,9.2,20.1,18.4,30.1,27.7c4.8,4.4,9.5,8.8,14.3,13.2c2,1.9,5.5,6.1,8.7,4.2
				c3.1-1.8,2.9-8.6,3.5-11.6c1.3-6.7,2.6-13.5,3.9-20.2c2.6-13.5,5.2-27,7.9-40.5c0.4-1.9-2.5-2.7-2.9-0.8
				c-2.2,11.2-4.4,22.5-6.6,33.7c-1.1,5.5-2.1,10.9-3.2,16.4c-0.6,2.9-1.1,5.8-1.7,8.7c-0.5,2.7-0.6,6.2-1.7,8.7
				c-0.6,1.5-0.6,2.9-3,2c-0.9-0.3-2.1-2-2.9-2.6c-2.1-2-4.3-4-6.4-5.9c-4.1-3.7-8.1-7.5-12.2-11.2c-8.6-7.9-17.2-15.8-25.8-23.7
				C676.2,124,674,126.1,675.4,127.4L675.4,127.4z"/>
		</g>
	</g>
	<g>
		<g>
			<path class="st1" d="M741.2,96.6c8.7,9.3,17.4,18.6,26.1,27.8c4.2,4.5,8.5,9,12.7,13.6c3,3.2,5.7,6.8,10.3,7.5
				c0.7,0.1,1.7-0.2,1.8-1c4.5-28.2,9-56.4,13.4-84.5c0.3-1.9-2.6-2.7-2.9-0.8c-4.5,28.2-9,56.4-13.4,84.5c0.6-0.3,1.2-0.7,1.8-1
				c-5-0.8-9-6.7-12.3-10.3c-4-4.3-8-8.6-12.1-12.8c-7.8-8.3-15.6-16.7-23.5-25C742,93,739.9,95.1,741.2,96.6L741.2,96.6z"/>
		</g>
	</g>
	<g>
		<g>
			<path class="st1" d="M803.2,54.8c11.9,18.4,23.1,41.7,43.3,52.3c1.1,0.6,2.1-0.2,2.3-1.3c3.8-32.2,6.5-64.5,8-97
				c0.1-1.9-2.9-1.9-3,0c-1.5,32.4-4.2,64.7-8,97c0.8-0.4,1.5-0.9,2.3-1.3c-9.7-5.1-16.9-13.2-23.1-22.1
				c-6.6-9.5-12.7-19.4-19.1-29.2C804.7,51.7,802.1,53.2,803.2,54.8L803.2,54.8z"/>
		</g>
	</g>
	<g>
		<g>
			<path class="st1" d="M853.5,7c8.3,5.8,16.2,12.2,23.5,19.2c6.3,6.1,11.8,13.3,19.8,17.3c1.1,0.5,2.1-0.1,2.3-1.3
				c1.3-13.2,2.6-26.4,3.8-39.7c0.2-1.9-2.8-1.9-3,0c-1.3,13.2-2.6,26.4-3.8,39.7c0.8-0.4,1.5-0.9,2.3-1.3
				c-8.7-4.3-14.7-12.8-21.7-19.2c-6.8-6.3-14-12-21.5-17.3C853.4,3.3,851.9,5.9,853.5,7L853.5,7z"/>
		</g>
	</g>
	<g>
		<g>
			<path class="st2" d="M903.5-0.1c-0.1,15.6,0.8,31.2,2.9,46.7c0.9,7.2,2.1,14.5,3.5,21.6c0.8,4,1.2,8.5,5.9,9.1
				c0.5,0.1,1-0.3,1.3-0.7c9.3-13.9,19.1-27.6,29.2-41c1.2-1.5-1.4-3-2.6-1.5c-6.2,8.2-12.3,16.6-18.3,25c-2.7,3.9-5.3,9.5-8.8,12.7
				c-0.3,1.5-1.1,2-2.4,1.4c-0.5-1.3-0.9-2.6-1.1-3.9c-0.5-2.2-0.9-4.5-1.3-6.7c-3.7-20.7-5.5-41.7-5.3-62.7
				C906.6-2.1,903.6-2.1,903.5-0.1L903.5-0.1z"/>
		</g>
	</g>
	<g>
		<g>
			<path class="st2" d="M944.1,32.3c0.8,11.7,2,23.4,3.6,35.1c0.9,6.1,1.7,12.2,3.1,18.2c0.8,3.6,2,9.3,4.9,11.8
				c5.6,4.8,12.8-4.8,15.7-8.6c7.5-10,14.7-20.2,21.7-30.6c1.1-1.6-1.5-3.1-2.6-1.5c-5.4,8-10.9,15.8-16.6,23.6
				c-2.7,3.6-5.2,7.6-8.3,10.9c-1.1,1.2-2.6,3-4.2,3.5c-5.2,1.5-5.9-3.1-6.9-6.6c-2.6-8.6-3.5-18-4.7-26.9
				c-1.2-9.6-2.2-19.2-2.8-28.9C947,30.4,944,30.3,944.1,32.3L944.1,32.3z"/>
		</g>
	</g>
	<g>
		<g>
			<path class="st2" d="M991.9,51.2c0.7,24.2,5.3,48,13.4,70.8c0.4,1.2,2,1.5,2.7,0.4c11.1-17.2,21.6-34.7,31.6-52.6
				c0.9-1.7-1.6-3.2-2.6-1.5c-10,17.8-20.5,35.4-31.6,52.6c0.9,0.1,1.8,0.2,2.7,0.4c-8-22.6-12.6-46.1-13.3-70
				C994.9,49.3,991.9,49.3,991.9,51.2L991.9,51.2z"/>
		</g>
	</g>
	<g>
		<g>
			<path class="st2" d="M1036.4,67.7c4.2,13.7,8.7,27.3,13.5,40.8c2.3,6.5,4.5,13.2,7.3,19.5c1.5,3.3,3.4,5.9,7.1,6.6
				c0.6,0.1,1.4-0.1,1.7-0.7c9.4-19.3,19.6-38.2,30.4-56.7c1-1.7-1.6-3.2-2.6-1.5c-10.8,18.5-21,37.4-30.4,56.7
				c0.6-0.2,1.1-0.5,1.7-0.7c-5.5-1-7.3-10.3-9-14.8c-2.1-5.5-4-11-6-16.5c-3.9-11.1-7.5-22.2-10.9-33.4
				C1038.8,65,1035.9,65.8,1036.4,67.7L1036.4,67.7z"/>
		</g>
	</g>
	<g>
		<g>
			<path class="st2" d="M1105.5,81c14,18.2,16.1,43.6,34.6,58.6c0.7,0.6,1.8,0.6,2.4-0.3c4.6-8.3,7.2-17.6,10.3-26.5
				c3.5-10,6.9-20,10.4-30c0.6-1.8-2.3-2.6-2.9-0.8c-3.3,9.4-6.5,18.7-9.8,28.1c-3.2,9.3-5.9,19-10.7,27.6c0.8-0.1,1.6-0.2,2.4-0.3
				c-18.2-14.8-20.3-40-34.1-58C1106.9,77.9,1104.3,79.4,1105.5,81L1105.5,81z"/>
		</g>
	</g>
	<g>
		<g>
			<path class="st2" d="M1166.1,80.9c6.2,11,12.8,21.9,19.8,32.4c3.4,5.2,6.9,10.3,10.5,15.4c2.2,3.1,4.4,5.9,8.3,6.8
				c0.8,0.2,1.6-0.2,1.8-1c5.5-17.9,11.7-35.6,18.7-53c0.7-1.8-2.2-2.6-2.9-0.8c-7,17.4-13.2,35.1-18.7,53c0.6-0.3,1.2-0.7,1.8-1
				c-5.1-1.1-8.1-7.5-10.8-11.5c-3.2-4.6-6.3-9.2-9.3-13.9c-5.9-9.1-11.4-18.4-16.7-27.8C1167.7,77.7,1165.1,79.2,1166.1,80.9
				L1166.1,80.9z"/>
		</g>
	</g>
	<g>
		<g>
			<path class="st2" d="M1223,79c5.7,10.4,11.9,20.4,18.5,30.2c3.3,4.9,6.8,9.8,10.4,14.5c1.6,2.1,3.5,5.5,6.7,4.5
				c3.3-1,4.5-5.9,5.7-8.6c2.1-4.9,4.1-9.9,5.9-14.9c4-11.2,7-22.7,9.1-34.4c0.3-1.9-2.5-2.7-2.9-0.8c-1.6,9-3.7,17.9-6.5,26.6
				c-1.5,4.7-3.1,9.3-4.8,13.8c-0.8,2.2-1.7,4.3-2.6,6.5c-0.6,1.4-1.7,5.9-3,6.7c-4.4,2.9-9.1-6.6-11.1-9.4
				c-2.9-4.1-5.7-8.2-8.4-12.4c-5.1-7.8-9.9-15.8-14.4-24C1224.6,75.8,1222.1,77.3,1223,79L1223,79z"/>
		</g>
	</g>
	<g>
		<g>
			<path class="st2" d="M1277.7,71.7c9.3,15.1,19,29.9,29.1,44.5c0.5,0.7,1.3,1,2.1,0.5c6.8-4.2,7.3-15.5,9.1-22.5
				c2.9-11.5,5.8-23,8.8-34.5c0.5-1.9-2.4-2.7-2.9-0.8c-2.4,9.6-4.9,19.1-7.3,28.7c-1.1,4.5-2.3,8.9-3.4,13.4
				c-1.1,4.4-1.6,10.5-5.8,13.1c0.7,0.2,1.4,0.4,2.1,0.5c-10.1-14.6-19.8-29.4-29.1-44.5C1279.3,68.6,1276.7,70.1,1277.7,71.7
				L1277.7,71.7z"/>
		</g>
	</g>
	<g>
		<g>
			<path class="st2" d="M1324.7,61.2c6.4,9.2,12.9,18.4,19.4,27.5c2.5,3.5,4.9,8.3,8.2,11.2c1.8,1.6,3.8,2,5.9,0.8
				c2.7-1.5,3.6-4.7,4.5-7.5c1.6-5.2,3-10.4,4.4-15.6c2.9-10.7,5.6-21.5,8-32.3c0.4-1.9-2.5-2.7-2.9-0.8c-3.6,16-7.3,32.2-12.4,47.9
				c-0.8,2.6-1.4,6.8-6.1,4.5c-1.3-0.6-2.6-3.6-3.5-4.8c-2.7-3.8-5.4-7.5-8.1-11.3c-5-7-9.9-14-14.8-21.1
				C1326.2,58.1,1323.6,59.6,1324.7,61.2L1324.7,61.2z"/>
		</g>
	</g>
	<g>
		<g>
			<path class="st2" d="M1373.4,45c7.6,8.5,14.9,17.3,22.9,25.4c3.2,3.2,6.8,5.8,10.8,7.8c2.7,1.4,7.2,4.5,10.4,4
				c3.1-0.5,3.5-4.3,4-6.7c1.2-5.7,2.3-11.4,3.1-17.2c1.7-11.3,2.7-22.7,3-34.2c0.1-1.9-2.9-1.9-3,0c-0.3,9-0.9,18.1-2,27
				c-0.6,5-1.4,10-2.3,14.9c-0.5,2.5-1,5.1-1.5,7.6c-0.7,3.2-0.7,5.3-4.9,4.3c-7.7-1.8-14.3-8.4-19.4-14c-6.3-7.1-12.7-14.1-19-21.2
				C1374.2,41.4,1372.1,43.5,1373.4,45L1373.4,45z"/>
		</g>
	</g>
	<g>
		<g>
			<path class="st2" d="M1427.1,21.7c7,9,14.5,17.5,22.7,25.5c4,3.9,8,7.9,12.4,11.3c2.3,1.8,4.8,3.1,7.4,1.2
				c2.8-2.1,3.1-6.7,3.8-9.7c1.3-6,2.4-12.1,3.3-18.2c1.9-12.3,3-24.7,3.6-37.2c0.1-1.9-2.9-1.9-3,0c-0.4,9.7-1.2,19.4-2.4,29.1
				c-0.7,5.7-1.6,11.3-2.6,16.9c-0.7,4.1-0.9,10.3-2.9,13.9c-3.3,6-10.4-2.7-13-5.1c-3.2-3-6.4-6.1-9.5-9.2
				c-6.3-6.5-12.2-13.3-17.7-20.5C1428,18.1,1425.9,20.2,1427.1,21.7L1427.1,21.7z"/>
		</g>
	</g>
	<g>
		<g>
			<path class="st2" d="M1478.9-5.4c7.3,9.4,14.3,19.2,22.2,28.2c3.1,3.6,6.6,6.9,10.6,9.6c2.2,1.4,6,4.3,8.6,2.2
				c2.9-2.5,3.2-9.7,3.9-13.1c1.3-6.4,2.5-12.8,3.7-19.2c2.2-11.5,5.6-23.5,3.3-35.2c-0.4-1.9-3.3-1.1-2.9,0.8
				c2.1,10.9-1,22-3.1,32.7c-1,5.1-2,10.2-3,15.3c-0.5,2.5-1,5.1-1.6,7.6c-0.4,1.8-0.5,5.1-1.6,6.6c-3.9,5.8-17.1-10.8-19.8-14.2
				c-6.2-7.7-12.2-15.6-18.2-23.4C1479.8-9.1,1477.7-6.9,1478.9-5.4L1478.9-5.4z"/>
		</g>
	</g>
	<g>
		<g>
			<path class="st3" d="M140.1,5.9c25,42.4,64.8,73.5,108.3,95.4c47.8,24.1,100.3,38.1,153,46.1c60.8,9.2,123,10.4,183.9,1.3
				c55.9-8.3,110.5-25.6,160.2-52.9c45.2-24.8,86.2-57.8,117.8-98.8c3.8-4.9,7.4-9.9,10.8-14.9c1.1-1.6-1.5-3.1-2.6-1.5
				C811.2,68.7,710.3,122,607.4,142c-59.7,11.6-121.2,12.7-181.6,5.8c-54.2-6.3-108.5-18.5-158.5-40.7
				C217.5,84.9,170.8,52,142.7,4.4C141.7,2.8,139.1,4.3,140.1,5.9L140.1,5.9z"/>
		</g>
	</g>
	<g>
		<g>
			<path class="st3" d="M851.9-58.3c47.1,75.7,134,118.1,219.5,133c52.1,9.1,105.5,9,158.1,3.3c52.5-5.6,105.7-15.3,154.9-35
				c26.8-10.7,52.5-24.2,77.4-38.7c12.6-7.4,25.1-15,37.5-22.7c3.4-2.1,8-4.2,8.6-8.8c0.3-2.6-0.9-4.1-3.5-4.2c-1.9,0-1.9,3,0,3
				c2.3,0-2.2,4.7-1.9,4.5c-0.9,0.7-2.2,1.3-3.1,1.9c-2.6,1.6-5.2,3.2-7.8,4.8c-5.2,3.2-10.4,6.4-15.6,9.5
				c-10.4,6.3-21,12.5-31.6,18.4c-21.6,12-43.7,22.9-66.8,31.7c-46.9,17.9-97.3,27-147.1,32.4c-93.3,10.2-191.9,2.6-275.6-43.2
				c-40.1-22-76-52.4-100.3-91.5C853.5-61.4,850.9-59.9,851.9-58.3L851.9-58.3z"/>
		</g>
	</g>
</g>
<g id="Layer_13">
	<path class="st4" d="M275.7,697.6c10.4,3.9,20.7,7.7,31.1,11.6c0,82.5,0,165.1,0,247.6c95.2,27.3,171.9,20.7,215.3,13.4
		c43-7.3,232.6-39.4,285.5-182.9c21.7-58.8,12.5-114.8,4.5-146.1c-19.3-8.3-38.7-16.5-58-24.8c-46.7-11.1-93.5-22.1-140.2-33.2
		c-17.2,5.5-44.5,14.2-78.4,24.5c-76,23.1-78,21.9-114.9,34.6c-31.3,10.8-61.1,22.4-109.3,41.3C296.5,689.4,284.3,694.2,275.7,697.6
		z"/>
	<g>
		<g>
			<path class="st3" d="M305.3,709.3c0,67,0,134,0,201c0,19.2,0,38.5,0,57.7c0,1.9,3,1.9,3,0c0-67,0-134,0-201c0-19.2,0-38.5,0-57.7
				C308.3,707.3,305.3,707.3,305.3,709.3L305.3,709.3z"/>
		</g>
	</g>
	<g>
		<g>
			<path class="st3" d="M275.3,699.1c79.4,29.1,158.9,58.2,238.3,87.3c22.5,8.2,45,16.5,67.5,24.7c1.8,0.7,2.6-2.2,0.8-2.9
				c-79.4-29.1-158.9-58.2-238.3-87.3c-22.5-8.2-45-16.5-67.5-24.7C274.3,695.5,273.5,698.4,275.3,699.1L275.3,699.1z"/>
		</g>
	</g>
	<g>
		<g>
			<path class="st3" d="M279.2,697.3c21.1-4.3,40.1-15.8,60-23.6c21-8.2,42.5-14.8,63.9-21.6c45-14.4,90-28.8,135-43.2
				c25.3-8.1,50.7-16.2,76-24.3c1.8-0.6,1-3.5-0.8-2.9c-45,14.4-90,28.8-135,43.2c-44,14.1-88.7,26.9-132.1,42.9
				c-11.2,4.1-22.1,8.7-32.9,13.7c-11.3,5.2-22.7,10.3-35,12.8C276.6,694.8,277.4,697.7,279.2,697.3L279.2,697.3z"/>
		</g>
	</g>
	<g>
		<g>
			<path class="st3" d="M614.5,584.6c65.4,16.7,131.1,32,197,45.9c19,4,38,7.9,57,11.7c1.9,0.4,2.7-2.5,0.8-2.9
				c-66.2-13.1-132-27.6-197.6-43.5c-18.9-4.6-37.7-9.3-56.5-14C613.4,581.2,612.6,584.1,614.5,584.6L614.5,584.6z"/>
		</g>
	</g>
</g>
<g id="mug">
	<path class="st4" d="M408.4,574.8c-4.2,0.4-9,1.1-14.3,2.6c-8.5,2.3-15.3,5.7-20.3,8.7c0.1,4.7,0.2,9.4,0.3,14.2
		c0.5,34.8,0.5,69.2,0,103.2c4.1,4.2,11.6,10.8,22.9,15.3c11.2,4.5,20.6,4.6,26.9,4.6c9,0.1,20.3,0.1,32.2-6.5
		c8.1-4.6,13.3-10.4,16.1-14.2c-0.3-11.8-0.6-23.6-0.9-35.5c2.3-0.2,7.2-1.1,11.9-4.6c4.9-3.6,6.9-8.2,8.1-11
		c3.1-7.1,2.7-13.5,2.4-17.2c-0.3-4.4-0.7-9.6-4.3-14.9c-1.6-2.5-4.6-7-10.5-8.6c-7.4-2-13.6,2.3-14.6,3c0.9-2.9,4.8-15.9-2.3-25.4
		c-2.5-3.4-6.1-5.8-13.5-8.5C440.5,577,426.9,573.5,408.4,574.8z"/>
	<g>
		<g>
			<path class="st3" d="M372.6,587.8c0,38.6,0,77.1,0,115.7c0,1.9,3,1.9,3,0c0-38.6,0-77.1,0-115.7
				C375.6,585.8,372.6,585.8,372.6,587.8L372.6,587.8z"/>
		</g>
	</g>
	<g>
		<g>
			<path class="st3" d="M373.8,705.1c11.5,11.3,26.2,17.9,42.2,19.3c8.4,0.7,17.8,1.4,26-1.5c7.5-2.7,13.3-8.5,18.8-14.1
				c1.4-1.4-0.8-3.5-2.1-2.1c-5.5,5.6-11.4,11.6-19.2,13.9c-7.4,2.2-15.9,1.5-23.5,0.9c-15.2-1.3-29.2-7.7-40.1-18.4
				C374.5,701.6,372.4,703.7,373.8,705.1L373.8,705.1z"/>
		</g>
	</g>
	<g>
		<g>
			<path class="st3" d="M404.7,482.5c-8,4.9-11.2,15.7-7.1,24.3c3.6,7.5,13.2,9.5,7.7,19.6c-3,5.5-8.4,10-8.5,16.8
				c-0.1,4.9,3.2,7.8,7.4,9.5c4,1.6,9.2,2.2,9.7,7.7c0.4,4.1-2.6,7.7-4.9,10.8c-3.1,4.2-6.2,9.3-4.2,14.7c0.9,2.5,2.4,3.2,4.4,4.7
				c5.6,4.3,2.1,9.7-1.6,14.1c-1.2,1.5,0.9,3.6,2.1,2.1c3.3-3.9,7-8.7,5.2-14.1c-0.6-1.7-1.5-2.8-2.8-3.9c-2.6-2.2-4.7-2.5-4.8-6.5
				c0-2.4,1-4.5,2.2-6.5c3-4.9,7.7-9.2,7.4-15.4c-0.2-4.9-3.6-7.5-7.8-9.1c-3.5-1.3-8.1-2.1-9.2-6.3c-1.2-4.7,2.8-9.5,5.3-13
				c3.1-4.3,6.6-9.8,4.3-15.3c-2.2-5.3-8.2-7.5-10-13.3c-2.1-6.8,0.7-14.6,6.7-18.3C407.9,484,406.4,481.4,404.7,482.5L404.7,482.5z
				"/>
		</g>
	</g>
	<g>
		<g>
			<path class="st3" d="M436.8,541.9c-5.8-0.5-9.2,7.4-10.9,11.8c-1.9,4.7-2.3,10.4,1.1,14.6c1.9,2.4,7.9,3.8,8.7,6.4
				c1.4,4.4-3.7,8.6-5.5,11.9c-1.2,2.3-2,4.9-1.4,7.5c0.9,4,7.8,8.2,4.6,12.5c-1.2,1.5,1.4,3,2.6,1.5c3.6-4.7-0.9-8.4-3.1-12.4
				c-4.2-7.4,6.1-12.4,6-19.6c0-1.7-0.5-3.5-1.6-4.9c-1.9-2.2-5.1-2.1-7.2-4c-3-2.7-3-7.3-1.9-10.9c1-3.2,4.5-11.8,8.7-11.4
				C438.7,545.1,438.7,542.1,436.8,541.9L436.8,541.9z"/>
		</g>
	</g>
	<g>
		<g>
			<path class="st3" d="M374.6,587.4c9.7-6.6,20.8-9.9,32.5-9.4c1.9,0.1,1.9-2.9,0-3c-12.2-0.4-24,2.9-34.1,9.8
				C371.5,585.9,373,588.5,374.6,587.4L374.6,587.4z"/>
		</g>
	</g>
	<g>
		<g>
			<path class="st3" d="M377.8,590.1c4.6,13.3,19.2,19.4,32.1,21.2c14.7,2,29.8-1.5,42.1-9.7c1.6-1.1,0.1-3.7-1.5-2.6
				c-11,7.3-24,10.7-37.1,9.7c-12.5-1-28.3-6.3-32.7-19.3C380.1,587.5,377.2,588.3,377.8,590.1L377.8,590.1z"/>
		</g>
	</g>
	<g>
		<g>
			<path class="st3" d="M437.6,581.3c3.9-0.4,7.7-0.5,11.5,0.2c5,0.9,10,2.1,11.5,7.6c2.1,7.8,1.8,17.1,2,25.1c0.1,1.9,3.1,1.9,3,0
				c-0.2-5.8-0.5-11.6-1.1-17.4c-0.4-4-0.3-9.1-2.6-12.5c-4.5-6.7-17.4-6.7-24.4-5.9C435.7,578.5,435.7,581.5,437.6,581.3
				L437.6,581.3z"/>
		</g>
	</g>
	<g>
		<g>
			<path class="st3" d="M465.8,614.7c5.2-4.6,13.1-3.8,18.2,0.5c5.3,4.4,7.5,11.6,8.1,18.3c1.3,13.9-4.9,30.8-20.8,32.1
				c-1.9,0.2-1.9,3.2,0,3c19-1.5,26.1-22,23.4-38.5c-1.2-7.7-4.9-15.7-12.1-19.4c-6.2-3.2-13.6-2.8-18.9,1.9
				C462.2,613.9,464.3,616,465.8,614.7L465.8,614.7z"/>
		</g>
	</g>
	<g>
		<g>
			<path class="st3" d="M470.3,667.4c-1.3,6.6-1.4,13-1.1,19.7c0.1,4,0.1,8.2-2,11.7c-1.9,3.3-5.2,5.6-8.2,7.7
				c-1.6,1.1-0.1,3.7,1.5,2.6c5.5-3.9,10.4-8.1,11.4-15.1c0.5-3.4,0.2-6.8,0.1-10.2c-0.2-5.3,0.1-10.4,1.2-15.6
				C473.6,666.3,470.7,665.5,470.3,667.4L470.3,667.4z"/>
		</g>
	</g>
	<g>
		<g>
			<path class="st3" d="M466.1,619.5c0.1,6.9,0.2,13.8,0.2,20.7c0,4.3-0.9,10.3,1.3,14.2c4.6,8.4,14.2,1.6,16.9-4.4
				c3.5-7.6,3.7-17.2-0.1-24.7c-3.1-6.1-11-12.8-17.6-7.5c-1.5,1.2,0.6,3.3,2.1,2.1c7-5.5,13.7,7.4,14.8,12.2
				c1.2,5.5,0.5,11.6-1.9,16.7c-2.2,4.7-9.8,10.7-12.1,1.7c-0.8-3.2-0.3-7.1-0.3-10.4c-0.1-6.9-0.2-13.8-0.2-20.7
				C469.1,617.5,466.1,617.5,466.1,619.5L466.1,619.5z"/>
		</g>
	</g>
	<g>
		<g>
			<path class="st3" d="M374.1,704.2c16.8,17.7,41.9,25.7,65.7,20.2c10.9-2.5,24.2-8,31.6-16.8c3.7-4.4,1.9-11,1.6-16.3
				c-0.5-8-0.9-15.9-1.4-23.9c-0.1-1.9-3.1-1.9-3,0c0.4,6.4,0.8,12.8,1.1,19.1c0.4,6.5,2.6,15.4-2.1,20.5
				c-7.3,7.9-20,12.7-30.3,14.8c-22.4,4.6-45.6-3.3-61.2-19.8C374.9,700.7,372.8,702.8,374.1,704.2L374.1,704.2z"/>
		</g>
	</g>
	<g>
		<g>
			<path class="st3" d="M451.4,717.8c8.1-3.5,14.6-9.4,18.8-17.1c-0.9-0.1-1.8-0.2-2.7-0.4c0.9,2.5-2.7,6-4.3,7.5
				c-1.8,1.8-3.9,3.2-6.2,4.4c0.5,0.9,1,1.7,1.5,2.6c5.6-3.1,9.9-7.8,12.5-13.8c0.8-1.7-1.7-3.3-2.6-1.5c-3.3,6.7-7.9,12.5-13.8,17
				c-1.5,1.2,0,3.8,1.5,2.6c6.4-4.8,11.4-10.8,14.9-18c-0.9-0.5-1.7-1-2.6-1.5c-2.4,5.5-6.2,9.8-11.4,12.7c-1.7,0.9-0.2,3.5,1.5,2.6
				c4.4-2.3,14.1-9.3,11.8-15.3c-0.4-1.1-2.1-1.6-2.7-0.4c-4,7.3-10.1,12.8-17.7,16C448.1,715.9,449.6,718.5,451.4,717.8
				L451.4,717.8z"/>
		</g>
	</g>
</g>
<g id="cookies">
	<g>
		<g>
			<path class="st3" d="M543.4,705.5c-1.3-10.3,4.4-19.6,14-23.4c12.1-4.7,20.9,3.6,20.2,15.8c-0.6,9.2-6.3,18.4-15.7,20.5
				c-10,2.3-20.4-5.7-18.1-16.4c0.4-1.9-2.5-2.7-2.9-0.8c-2.5,11.4,7,21.4,18.5,20.6c11.8-0.8,19.9-11.2,21.1-22.4
				c1.3-12.1-6.2-23.9-19.5-21.4c-12.9,2.5-22.2,14.3-20.6,27.5C540.6,707.4,543.7,707.4,543.4,705.5L543.4,705.5z"/>
		</g>
	</g>
	<g>
		<g>
			<path class="st3" d="M554.3,679.6c-2.3-1.2,2-8.7,2.7-9.8c1.5-2.4,3.5-4.6,5.6-6.4c4.8-4,11.2-4.8,16.9-2
				c11.3,5.5,10.1,21.2-0.3,26.8c-1.7,0.9-0.2,3.5,1.5,2.6c14.1-7.6,12.7-28.8-3.1-33.3c-7.9-2.3-15,1-20.2,6.9
				c-2.6,3-10.8,14.6-4.6,17.8C554.5,683.1,556,680.5,554.3,679.6L554.3,679.6z"/>
		</g>
	</g>
	<g>
		<g>
			<path class="st3" d="M579.2,702.3c11.1,9.1,27.1,1.6,30.6-11.5c3.2-11.8-6.5-24.3-19.2-21c-1.9,0.5-1.1,3.4,0.8,2.9
				c10.5-2.8,18,7.7,15.5,17.3c-2.9,10.7-16.2,17.8-25.6,10.1C579.8,699,577.7,701.1,579.2,702.3L579.2,702.3z"/>
		</g>
	</g>
	<g>
		<g>
			<path class="st3" d="M583.8,660.3c4.5-9,15.8-12.3,23.8-5.6c7.7,6.3,6.9,17.6-0.4,23.9c-1.5,1.3,0.7,3.4,2.1,2.1
				c8.9-7.7,9.1-21.8-0.6-29c-9.4-6.9-22.3-3.1-27.5,7.1C580.3,660.6,582.9,662.1,583.8,660.3L583.8,660.3z"/>
		</g>
	</g>
	<g>
		<g>
			<path class="st3" d="M600.1,702.5c7.2,14.4,26.4,5.1,31.7-6c6.1-12.8-1.3-29-16.2-29.7c-1.9-0.1-1.9,2.9,0,3
				c12.4,0.6,18.4,14.1,13.8,24.7c-4,9.3-20.4,19.1-26.7,6.5C601.8,699.2,599.2,700.8,600.1,702.5L600.1,702.5z"/>
		</g>
	</g>
	<g>
		<g>
			<path class="st3" d="M541.1,699.3c-5.6,3.9-13.6,11.4-10.6,19c2.9,7.4,12.6,9.7,19.6,10.6c22.4,2.9,43.4-7.2,62.7-17.2
				c1.7-0.9,0.2-3.5-1.5-2.6c-14.9,7.8-30.5,15.5-47.5,17c-7.9,0.7-17,0.5-24.2-3.1c-3.8-1.9-7.6-5.1-6.5-9.8
				c1.1-4.7,5.9-8.8,9.6-11.4C544.2,700.8,542.7,698.2,541.1,699.3L541.1,699.3z"/>
		</g>
	</g>
	<g>
		<g>
			<path class="st3" d="M549.5,703.8c1.3,0.9,3.1,0.5,4.2-0.6c1.2-1.3,1-3.3-0.3-4.5c-1.4-1.2-3.5-1.1-4.6,0.5
				c-0.9,1.3-0.8,3.2,0.3,4.3c0.9,0.9,2.6,0.3,2.6-1.1c0-0.5,0-0.9-0.1-1.4c0-0.8-0.7-1.5-1.5-1.5c-0.8,0-1.5,0.7-1.5,1.5
				c0,0.5,0,0.9,0.1,1.4c0.9-0.4,1.7-0.7,2.6-1.1c-0.1-0.1-0.1-0.1,0,0c-0.1-0.1-0.1-0.2,0-0.1c0,0.1,0,0.1,0-0.1c0,0.2,0,0.2,0,0
				c0,0,0-0.1,0-0.1c0,0.2,0,0.2,0,0c0-0.1,0.1-0.2,0-0.1c0,0.1,0,0.1,0-0.1c0.1-0.1,0.1-0.2,0,0c0,0,0.1-0.1,0.1-0.1
				c-0.1,0.1-0.1,0.1,0,0c0,0-0.1,0.1-0.1,0.1c-0.1,0-0.1,0,0.1,0c-0.2,0-0.1,0,0,0c-0.2-0.2,0.2,0.2,0,0c0.3,0.2-0.1-0.1,0.2,0.2
				c0.2,0.3,0,0,0,0c0,0.2,0,0.2,0,0c0,0.1-0.1,0.2,0,0.1c0-0.1,0-0.1-0.1,0.1c0.1-0.1,0.1-0.1,0,0c0,0,0.1,0,0.1-0.1
				c-0.1,0-0.2,0.1-0.2,0.1c0.3-0.1-0.1,0-0.2,0c0.2,0,0.2,0,0,0c0,0,0.1,0,0.1,0c-0.2-0.1-0.2,0,0,0c-0.1,0-0.2-0.1-0.2-0.1
				c-0.7-0.5-1.7-0.1-2.1,0.5C548.6,702.5,548.9,703.4,549.5,703.8L549.5,703.8z"/>
		</g>
	</g>
	<g>
		<g>
			<path class="st3" d="M559.2,689.7C559.1,689.5,559.2,689.6,559.2,689.7c0,0,0,0.1,0,0.1C559.3,689.8,559.3,689.7,559.2,689.7
				c0,0.1,0,0.1,0,0.2C559.3,689.8,559.3,689.8,559.2,689.7c0,0.1,0,0.1,0,0.1C559.3,689.7,559.3,689.7,559.2,689.7
				C559.2,689.9,559.3,689.6,559.2,689.7C559.2,689.8,559.2,689.8,559.2,689.7C559.4,689.7,559.4,689.7,559.2,689.7
				C559.2,689.7,559.2,689.7,559.2,689.7C559.4,689.7,559.4,689.7,559.2,689.7C559.2,689.7,558.9,689.6,559.2,689.7
				c-0.4-0.4-0.8-0.9-1.1-1.4c0.1,0.4,0.1,0.9,0.1,1.4c0-0.3-0.1,0.5,0,0.2c0,0.1-0.1,0.2-0.2,0.3c0,0,0-0.1,0.1-0.1
				c0.1-0.1,0.1-0.1,0,0c0.2-0.1,0.2-0.1,0,0c0.2,0,0.2,0,0,0c0.2,0,0.2,0,0,0c-0.2-0.1-0.2,0,0,0c-0.1-0.1-0.1-0.1,0,0
				c0.1,0.1,0.1,0.2,0.2,0.3c0,0.2,0,0.2,0,0.1c0.1-0.8-0.7-1.5-1.5-1.5c-0.9,0-1.4,0.7-1.5,1.5c-0.1,1.9,2,2.9,3.6,2.4
				c1.9-0.6,2.3-2.8,2.1-4.6c-0.1-0.7-0.4-1.3-1.1-1.4c-2.4-0.7-4.6,2.2-3.4,4.4C557.6,692.9,560.2,691.4,559.2,689.7L559.2,689.7z"
				/>
		</g>
	</g>
	<g>
		<g>
			<path class="st3" d="M562.8,707.5C562.7,707.5,562.7,707.5,562.8,707.5c-0.1,0-0.1,0,0.1,0.1c0.1,0.2,0.1,0.2,0,0
				c-0.1-0.1-0.1-0.1,0,0.1c0-0.4,0,0.3,0,0c0-0.2,0-0.1,0,0.1c0-0.2,0-0.1,0,0.1c0.1-0.1,0.1-0.1,0,0.1c-0.1,0.1-0.2,0.1-0.3,0.2
				c-0.1,0-0.1,0-0.2,0c0.2,0,0.2,0,0,0c0.2,0.1,0.2,0,0,0c0.1,0.1,0.1,0.1,0,0c0.1,0.1,0.1,0.1,0,0c0.1,0.1,0.1,0.1,0,0
				c0-0.1-0.1-0.1,0-0.2c0-0.2,0-0.2,0,0c0,0.1,0,0.1,0,0.2c0.1-0.2,0.1-0.2,0-0.1c0.1-0.2,0.2-0.2,0.1-0.1c-0.1,0.1,0,0,0.1-0.1
				c-0.1,0.1-0.1,0.1,0.1,0c-0.1,0-0.1,0-0.2,0.1c-0.2,0-0.1,0,0.1,0c-0.1,0-0.1,0-0.2,0c-0.3,0,0.3,0.1,0,0c-0.2-0.1-0.1,0,0.1,0
				c-0.1-0.1-0.1-0.1,0.1,0.1c-0.1-0.1-0.1-0.1,0.1,0.1c-0.1-0.1-0.1-0.1,0,0.1c-0.3-0.8-1-1.3-1.8-1c-0.7,0.2-1.3,1.1-1,1.8
				c0.5,1.5,2.2,2.2,3.7,1.7c1.7-0.6,2.4-2.5,1.5-4.1c-1-1.7-3.6-1.9-4.6-0.1c-0.9,1.5,0,3.7,1.7,4.1c0.8,0.2,1.6-0.2,1.8-1
				C564.1,708.6,563.6,707.7,562.8,707.5L562.8,707.5z"/>
		</g>
	</g>
	<g>
		<g>
			<path class="st3" d="M567.5,693.2c-0.2-0.2-0.1-0.3-0.1-0.5c-0.1,0.2-0.3,0.4-0.4,0.7c0.1-0.1,0.1,0,0,0c-0.1,0-0.2,0.1-0.3,0.1
				c0.2-0.1,0,0.1,0,0c0,0.1,0.2,0.1,0,0c0.1,0,0.2,0.1,0,0c0.1,0.1,0.1,0.1,0.2,0.2c-0.1-0.1,0-0.1,0,0c0,0,0-0.1-0.1-0.1
				c0-0.2,0-0.2,0-0.1c0,0-0.1,0.1-0.1,0.1c0,0.1-0.1,0.1-0.1,0.1c-0.3,0.2-0.5,0.2-0.9,0.2c-0.8,0-1.5,0.7-1.5,1.5
				c0,0.8,0.7,1.5,1.5,1.5c1.4,0.1,2.8-0.6,3.6-1.8c0.8-1.2,0.6-2.8-0.4-3.8c-1-0.9-2.6-1.2-3.7-0.4c-1.4,1.1-1,3.3,0.1,4.4
				C566.7,696.7,568.8,694.6,567.5,693.2L567.5,693.2z"/>
		</g>
	</g>
	<g>
		<g>
			<path class="st3" d="M568.1,672.9c1.9,0,1.9-3,0-3C566.1,669.9,566.1,672.9,568.1,672.9L568.1,672.9z"/>
		</g>
	</g>
	<g>
		<g>
			<path class="st3" d="M566.3,668.6C566.4,668.7,566.4,668.8,566.3,668.6c0,0,0,0,0,0.1C566.4,668.7,566.4,668.6,566.3,668.6
				C566.4,668.8,566.4,668.8,566.3,668.6c0-0.1,0,0,0,0.1C566.4,668.7,566.4,668.7,566.3,668.6C566.3,668.8,566.3,668.8,566.3,668.6
				C566.4,668.6,566.4,668.6,566.3,668.6c0,0.1-0.1,0.1-0.1,0.2c0.1-0.1,0.2-0.1,0.1,0c-0.1,0-0.1,0,0.1,0c0,0-0.1,0-0.1,0
				c0.2,0,0.2,0,0.1,0c-0.1,0-0.1,0,0.1,0c0,0-0.1,0-0.1,0c0.1,0.1,0.1,0.1,0,0c-0.1-0.2-0.3-0.4-0.4-0.7c0.1,0.3,0.2,0.6,0.2,0.8
				c0,0,0,0,0-0.1c0,0.2,0,0.2,0,0.1c0,0,0.3-0.3,0.2-0.2C566.3,668.7,566.5,668.6,566.3,668.6C566.5,668.6,566.5,668.6,566.3,668.6
				c0,0.1,0,0.1,0.1,0c0.1,0,0.1,0,0,0c0.1,0,0.1,0,0.2,0c0.3,0.1,0.5,0.3,0.6,0.6c-0.2-0.8-1.1-1.3-1.8-1c-0.8,0.2-1.3,1.1-1,1.8
				c0.4,1.5,2.2,2,3.5,1.2c0.7-0.5,1.1-1.3,1.2-2.1c0-0.8-0.2-1.9-0.7-2.5c-1.1-1.1-3.1-1.1-4.1,0c-1.1,1.1-1.1,3,0,4.1
				c0.6,0.6,1.6,0.6,2.1,0C566.9,670.2,566.9,669.2,566.3,668.6L566.3,668.6z"/>
		</g>
	</g>
	<g>
		<g>
			<path class="st3" d="M579.6,672.6c-0.1-0.3,0,0.4-0.1,0.6c-0.2,0.3-0.7,0.3-1,0.2c-0.2-0.4-0.5-0.9-0.7-1.3c0,0.4-0.1-0.2,0,0.1
				c0,0,0,0.1,0,0.1c0.1-0.1,0.1-0.1,0,0c0,0.1-0.2,0.2,0,0.1c0,0-0.3,0.3-0.1,0.1c-0.1,0.1-0.2,0.1-0.3,0.2c-0.1,0-0.1,0,0,0
				c0,0-0.1,0-0.1,0c-0.2,0-0.2,0-0.1,0c0.1,0,0.1,0-0.1,0c0,0,0.1,0,0.1,0c-0.1,0-0.2,0-0.3-0.1c-0.8-0.2-1.6,0.3-1.8,1
				c-0.2,0.8,0.3,1.6,1,1.8c2.2,0.7,4.7-1.2,4.6-3.5c0-0.5-0.3-1.1-0.7-1.3c-0.9-0.4-1.9-0.4-2.6,0.3c-0.6,0.6-1,1.5-0.6,2.3
				c0.3,0.7,1,1.3,1.8,1C579.3,674.3,579.9,673.4,579.6,672.6L579.6,672.6z"/>
		</g>
	</g>
	<g>
		<g>
			<path class="st3" d="M590.3,692.8C590.3,692.8,590.2,692.8,590.3,692.8c0.1,0.1,0.3,0.2,0.6,0.3c-0.1,0.6-0.2,1.1-0.3,1.7
				c-0.3,0.1-0.5,0.1-0.8,0.2c-0.2,0-0.4-0.1-0.6-0.3c-0.1-0.2-0.3-0.4-0.4-0.7c0-0.1,0-0.1,0-0.2c0,0.2,0,0.2,0.1-0.1
				c0.1-0.2,0.1-0.4,0.5-0.5c0.5-0.1,1.1,0.3,0.9,0.8c0.2-0.8-0.3-1.7-1-1.8c-0.8-0.2-1.6,0.2-1.8,1c-0.3,1.2,0.4,2.6,1.7,2.9
				c1.4,0.3,2.7-0.8,2.7-2.2c0-1.4-1.5-2.5-2.8-1.8c-0.6,0.3-0.9,1-0.9,1.7c0.1,0.9,0.6,1.4,1.4,1.7c0.7,0.3,1.7-0.3,1.8-1
				C591.5,693.8,591.1,693.1,590.3,692.8L590.3,692.8z"/>
		</g>
	</g>
	<g>
		<g>
			<path class="st3" d="M595.7,660c-0.4-0.5-0.7-1-1.1-1.6c-0.3,0.7-0.6,1.5-0.9,2.2c0.1,0,0.2-0.1,0.3-0.1c-0.2,0-0.1,0,0,0
				c-0.2,0-0.1,0,0,0c-0.1-0.1-0.1,0,0,0c-0.2-0.2-0.4-0.4-0.5-0.5c0.1,0.2,0.1,0.1,0-0.1c-0.1-0.1-0.1-0.3,0-0.4c0,0.2,0,0,0.1-0.1
				c0.1-0.1,0.1-0.1,0,0c-0.1,0.1-0.1,0.1,0.1-0.1c0.2-0.1,0.3-0.1,0.5-0.1c-0.8-0.2-1.7,0.2-1.8,1c-0.2,0.8,0.2,1.6,1,1.8
				c1.5,0.4,3.1-0.8,3.1-2.4c0-0.9-0.5-1.6-1.3-2c-0.7-0.3-1.5-0.3-2.3-0.1c-0.8,0.3-1.5,1.3-0.9,2.2c0.4,0.5,0.7,1,1.1,1.6
				c0.5,0.7,1.3,1,2.1,0.5C595.8,661.7,596.1,660.7,595.7,660L595.7,660z"/>
		</g>
	</g>
	<g>
		<g>
			<path class="st3" d="M605.9,664.5C606,664.3,605.9,664.3,605.9,664.5C606,664.3,606,664.3,605.9,664.5
				C605.8,664.5,605.8,664.5,605.9,664.5C605.8,664.5,605.8,664.5,605.9,664.5c-0.6-0.5-1.2-1-1.9-1.5c0,0.1,0,0.2,0,0.3
				c0-0.2,0-0.2,0,0c-0.1,0.2-0.1,0.2,0,0c0,0.1-0.1,0.2-0.1,0.2c0.1-0.1,0.1-0.1,0,0c0.1-0.1,0.1-0.1,0,0c-0.2,0.1-0.2,0.1,0,0
				c-0.2,0-0.2,0,0,0c-0.8,0.1-1.5,0.6-1.5,1.5c0,0.8,0.7,1.6,1.5,1.5c1.8-0.2,3.4-1.7,3.2-3.5c-0.1-1-0.9-1.7-1.9-1.4
				c-1,0.2-1.9,1.1-2.1,2.1c-0.2,0.8,0.2,1.7,1,1.8C604.8,665.7,605.7,665.3,605.9,664.5L605.9,664.5z"/>
		</g>
	</g>
	<g>
		<g>
			<path class="st3" d="M595.7,681.1c-0.2,0.2,0.1-0.1,0.2-0.1c-0.2,0.2,0.2-0.1,0.2-0.1c0.1,0,0.1,0,0,0c0.1,0,0.1,0,0.2-0.1
				c0.1,0,0.1,0,0.2,0c-0.2,0-0.1,0,0,0c-0.4-0.8-0.9-1.5-1.3-2.3c-0.1,0.1-0.1,0.3-0.2,0.4c0.1-0.2-0.2,0.2-0.2,0.2
				c-0.1,0.1-0.1,0.1-0.2,0.2c0.1-0.1,0.1-0.1,0,0c-0.2,0.1-0.3,0.2-0.5,0.3c-0.7,0.3-0.9,1.4-0.5,2.1c0.4,0.8,1.3,0.9,2.1,0.5
				c0.9-0.4,1.7-1.2,2.2-2.1c0.5-1-0.1-2.3-1.3-2.3c-1.4,0-2.6,0.7-3.4,1.8c-0.5,0.6-0.1,1.7,0.5,2.1
				C594.4,682.1,595.2,681.8,595.7,681.1L595.7,681.1z"/>
		</g>
	</g>
	<g>
		<g>
			<path class="st3" d="M611.3,696.2c0.5-0.4,1-0.7,1.5-1.1c-0.7-0.2-1.4-0.4-2.1-0.5c0-0.1-0.1-0.2,0-0.1c0,0.1,0,0.1,0-0.1
				c-0.1,0.3,0-0.1,0,0c0,0.1,0,0.1,0,0c0-0.1,0-0.1,0,0.1c0,0,0.1-0.1,0.1-0.1c-0.1,0.1-0.1,0.1,0,0c0.6,0.1,1.2,0.2,1.8,0.2
				c0.1,0.1,0-0.1-0.1-0.1c0-0.1,0-0.1,0,0c0,0.1,0,0,0-0.1c0,0.2,0,0,0-0.1c0-0.4-0.1,0.2,0-0.2c0.2-0.8-0.2-1.7-1-1.8
				c-0.8-0.2-1.6,0.2-1.8,1c-0.3,1.3,0,2.5,0.8,3.4c0.4,0.5,1.3,0.6,1.8,0.2c1.3-0.9,1.8-2.6,1-4c-0.4-0.7-1.4-1-2.1-0.5
				c-0.5,0.4-1,0.7-1.5,1.1c-0.7,0.5-1,1.3-0.5,2.1C609.7,696.3,610.7,696.6,611.3,696.2L611.3,696.2z"/>
		</g>
	</g>
	<g>
		<g>
			<path class="st3" d="M615.4,660.9c5.6-9.4,18.9-10.9,25.6-1.9c6.8,9,1.6,21.3-9,24.1c-1.9,0.5-1.1,3.4,0.8,2.9
				c12.6-3.3,18.7-18.1,10.6-28.8c-8-10.7-23.9-9-30.6,2.2C611.8,661,614.4,662.5,615.4,660.9L615.4,660.9z"/>
		</g>
	</g>
	<g>
		<g>
			<path class="st3" d="M626,661.6c-0.2-0.2,0,0.1-0.1-0.2c-0.1-0.2,0,0-0.1-0.1c0,0-0.1-0.4-0.1-0.1c0-0.2,0-0.3,0-0.5
				c-0.5,0.5-1,1-1.5,1.5c0.4,0-0.3,0,0,0c-0.1,0-0.1,0-0.2-0.1c0.1,0.1,0.1,0.1,0,0c-0.1-0.1-0.1-0.1,0,0c0,0,0,0.1,0.1,0.1
				c-0.2-0.2-0.1-0.1,0,0.1c-0.1-0.1-0.1-0.2,0,0c0.1,0.2,0,0.1,0,0c-0.1,0.4,0.1-0.3,0,0c-0.1,0.2,0-0.1,0.1-0.1
				c0,0,0.3-0.3,0.1-0.1c0,0,0.1,0,0.1-0.1c-0.1,0-0.1,0,0,0c0.2,0.1-0.1,0-0.1,0c0.3,0,0.1,0-0.1,0c0.3,0.1,0,0.1,0,0
				c-0.1-0.1-0.1,0,0.1,0.1c0,0-0.1-0.1-0.1-0.1c-0.2-0.3,0.2,0.2,0-0.1c0,0,0,0.1,0.1,0.1c0-0.2,0-0.1,0,0.1
				c-0.1-0.8-0.6-1.5-1.5-1.5c-0.7,0-1.6,0.7-1.5,1.5c0.1,1.3,0.9,2.3,2.1,2.7c1,0.4,2.4,0.2,3.1-0.7c1.6-1.8,0.2-5-2.3-5
				c-0.8,0-1.5,0.7-1.5,1.5c-0.1,1.2,0.4,2.2,1.1,3.1c0.5,0.6,1.6,0.5,2.1,0C626.6,663.1,626.5,662.2,626,661.6L626,661.6z"/>
		</g>
	</g>
	<g>
		<g>
			<path class="st3" d="M634,669.3c0,0,0.1-0.4,0-0.2c0,0.1,0,0.1,0,0c0.1-0.1,0-0.1,0,0c0,0,0.1-0.1,0.1-0.1c0,0-0.1,0-0.1,0.1
				c0.1-0.1,0.2-0.1,0.1,0c-0.1,0-0.1,0,0.1,0c-0.6-0.2-1.1-0.5-1.7-0.7c-0.1-0.2-0.1-0.2,0,0c0-0.2,0-0.2,0-0.1c0-0.2,0-0.2,0-0.1
				c0.1-0.2,0.1-0.2,0,0c0.1-0.1,0.1-0.1,0,0c-0.1,0.1-0.1,0.1,0,0c0.2-0.1,0.2-0.1,0,0c0.2,0,0.2,0,0.1,0c-0.8,0-1.5,0.7-1.5,1.5
				c0,0.8,0.7,1.5,1.5,1.5c2.2,0.1,3.5-2.4,2.5-4.2c-0.3-0.6-1.1-0.9-1.7-0.7c-1.1,0.3-2,1.2-2.3,2.4c-0.1,0.8,0.2,1.7,1,1.8
				C632.9,670.6,633.8,670.2,634,669.3L634,669.3z"/>
		</g>
	</g>
	<g>
		<g>
			<path class="st3" d="M619.5,683.2c0,0,0.1-0.4,0.1-0.2c-0.1,0.1,0.1-0.2,0.1-0.2c0,0,0.1-0.1,0.1-0.1c-0.1,0.1-0.1,0.1,0,0
				c0.1-0.1,0.2-0.2,0.3-0.3c-0.1,0.1,0,0,0,0c0,0,0.3-0.2,0.2-0.1c-0.2,0.1,0.2-0.1,0.2-0.1c0.3-0.1-0.2,0,0.2,0
				c-0.5-0.4-1-0.7-1.4-1.1c0-0.1,0-0.2,0-0.2c-0.1,0.2,0,0.2,0,0c0,0.1-0.1,0.2-0.1,0.2c0.1-0.1,0.1-0.1,0,0c-0.1,0.1-0.1,0.1,0,0
				c-0.2,0.1-0.2,0.1,0,0c-0.2,0-0.2,0.1,0,0c-0.2,0-0.2,0,0,0c-0.8-0.1-1.6,0.2-1.8,1c-0.2,0.7,0.2,1.7,1,1.8
				c1.1,0.2,2.1-0.1,2.9-0.9c0.8-0.8,1.1-1.8,0.9-2.9c-0.1-0.6-0.9-1.1-1.4-1.1c-1.9,0.1-3.5,1.4-4.1,3.2c-0.2,0.8,0.3,1.6,1,1.8
				C618.5,684.5,619.3,684,619.5,683.2L619.5,683.2z"/>
		</g>
	</g>
	<g>
		<g>
			<path class="st3" d="M620.4,697.6c0.6-0.7,1.2-1.4,1.8-2.1c-0.7,0-1.4,0-2.1,0c-0.1-0.1-0.1-0.2-0.1-0.3c0,0.2,0.1,0.1,0-0.1
				c0,0,0,0.1,0,0.1c0,0.2,0,0.2,0-0.1c-0.2,0.3,0.1-0.3,0,0.1c0.1-0.1,0.1-0.2,0,0c0.2-0.1,0.2-0.1,0,0c-0.7,0.4-0.9,1.4-0.5,2.1
				c0.4,0.7,1.3,0.9,2.1,0.5c1.6-0.9,1.8-3.1,0.7-4.4c-0.5-0.6-1.6-0.6-2.1,0c-0.6,0.7-1.2,1.4-1.8,2.1c-0.5,0.6-0.6,1.5,0,2.1
				C618.8,698.2,619.8,698.2,620.4,697.6L620.4,697.6z"/>
		</g>
	</g>
	<g>
		<g>
			<path class="st3" d="M530.7,715.9c-2,5.3-0.3,10.9,3.6,15c4.7,4.9,11.7,6.1,18.2,6.4c14.1,0.6,28.6-1.7,42.1-5.8
				c27.6-8.4,52.4-25.1,70.1-47.9c1.2-1.5-0.9-3.6-2.1-2.1c-15.5,19.9-36.4,35.2-60,44.2c-11.5,4.3-23.6,7.2-35.9,8.3
				c-6.7,0.6-13.9,1.1-20.5-0.2c-7.8-1.6-15.9-8.1-12.6-16.9C534.3,714.9,531.4,714.2,530.7,715.9L530.7,715.9z"/>
		</g>
	</g>
	<g>
		<g>
			<path class="st3" d="M610.3,712.8c10.2-6.3,20.4-12.7,29.9-20.1c8.1-6.3,18.3-13.8,21.5-24.1c0.6-1.8-2.3-2.6-2.9-0.8
				c-3.3,10.4-14.9,18.4-23.3,24.7c-8.6,6.4-17.7,12-26.7,17.7C607.1,711.2,608.6,713.8,610.3,712.8L610.3,712.8z"/>
		</g>
	</g>
	<g>
		<g>
			<path class="st3" d="M659.7,668.9c2.5,4.6,3.1,9.7,1.6,14.8c-0.5,1.9,2.4,2.7,2.9,0.8c1.6-5.8,1-11.8-1.9-17.1
				C661.3,665.7,658.8,667.2,659.7,668.9L659.7,668.9z"/>
		</g>
	</g>
	<g>
		<g>
			<path class="st3" d="M644.2,664.9c5.3-0.4,10.2,0.8,14.7,3.6c1.6,1,3.1-1.6,1.5-2.6c-4.9-3.1-10.4-4.4-16.2-4
				C642.3,662.1,642.3,665.1,644.2,664.9L644.2,664.9z"/>
		</g>
	</g>
</g>
<g id="pillows">
	<path class="st4" d="M773.9,394.4c0.6,6.6,1.5,16.9,2.6,29.5c3.5,42.7,2.8,57,5.4,75.3c2.8,19.5,7.2,44.5,14.6,73.4
		c4.3,2.7,10.9,6.3,19.3,8.8c15.7,4.6,29,2.8,37.2,1.6c42.3-6.1,63.5-9.2,72-11.3c23.3-5.7,53.7-14.2,89-26.9
		c-2.4,10.6-4.8,21.2-7.1,31.8c7.1,1.8,14.3,3.5,21.6,5.2c32.3,7.2,63.1,11.6,91.9,14c-1.9,13.2-3.8,26.3-5.7,39.5
		c12,4.3,28.1,9.5,47.2,14c17.3,4.1,50.4,10.8,93.3,11.8c26.9,0.6,66.9,1.2,115.8-12.6c12.9-3.7,23.4-7.5,30.8-10.4
		c2.8-13.4,5.7-26.8,8.5-40.1c22.5-6.3,37.2-6.9,46.7-6c3.1,0.3,10.2,1.2,15-3.1c4.8-4.3,4.7-11.7,4.7-14.3
		c-0.6-64.8,5.7-130-0.9-194.5c-1.7-16.5-4.3-42.6-7.1-75.1c-6.9-2.3-16.6-5.3-28.3-8.2c-9.6-2.4-27.6-6.5-62.5-10.5
		c-19.2-2.2-48.4-5.4-87.4-5.6c-55.6-0.3-54.7,6-72.1,3.2c-3.4-0.5-13.7-2.4-23.7,2.7c-7.3,3.7-9.8,6.8-10.6,8.8
		c-1.5,3.4-1.3,6.7-1,8.6c-20.6-1.2-43.9-1.4-69.4,0.2c-23.8,1.6-45.5,4.5-64.7,8c-5.7,19.8-11.4,39.5-17.1,59.3
		c-3-15.4-5.9-30.8-8.9-46.2c-18.2,0.1-42.8,0.9-71.9,4.4c-24.4,2.9-50.6,6-80.5,15.3C846.8,352.3,812,366.2,773.9,394.4z"/>
	<g>
		<g>
			<path class="st3" d="M798,572.2c-7.8-29.5-13.4-59.5-16.6-89.8c-1.6-15.2-2.7-30.5-3.1-45.8c-0.2-7-0.3-14-0.3-21
				c0-7.8-1.2-17.6,4.2-24.1c3.9-4.7,9.5-8.2,14.5-11.6c5.8-4,11.8-7.7,18-11.1c11.3-6.2,23.2-11.4,35.4-15.7
				c24.5-8.7,50-14.2,75.6-18.2c14.9-2.4,29.9-4.3,44.9-6c17.3-2,34.7-3.5,52.1-1.9c1.9,0.2,1.9-2.8,0-3
				c-29.7-2.6-60.2,2.5-89.5,6.8c-27.3,4-54.6,9.4-80.8,18.4c-24.2,8.3-48.1,19.9-68,36.2c-4.4,3.6-7.7,7.6-8.8,13.4
				c-1.3,7.3-0.7,15.2-0.7,22.6c0.1,15.9,0.8,31.9,2.1,47.8c3,35.1,9,69.9,18,103.9C795.6,574.9,798.5,574.1,798,572.2L798,572.2z"
				/>
		</g>
	</g>
	<g>
		<g>
			<path class="st3" d="M796.2,572c10.1,9.6,23.7,12.8,37.3,13.3c16.7,0.5,33.7-2.1,50.2-4.5c36.8-5.4,73.2-14.2,108.4-26.3
				c19.3-6.6,38.3-14.3,56.9-22.8c1.8-0.8,0.2-3.4-1.5-2.6c-32,14.7-65.3,26.7-99.4,35.6c-33.3,8.7-67.9,15.4-102.4,17.4
				c-16.5,1-34.7-0.2-47.3-12.2C796.9,568.6,794.8,570.7,796.2,572L796.2,572z"/>
		</g>
	</g>
	<g>
		<g>
			<path class="st3" d="M1022.2,326.3c14.6,66.8,23.7,134.8,27.1,203.1c0.1,1.9,3.1,1.9,3,0c-3.5-68.6-12.6-136.8-27.2-203.9
				C1024.7,323.6,1021.8,324.4,1022.2,326.3L1022.2,326.3z"/>
		</g>
	</g>
	<g>
		<g>
			<path class="st3" d="M1035.7,367.8c2.9-11.1,5.8-22.2,8.7-33.3c1.4-5.4,2.8-10.8,4.2-16.2c0.8-3.1,0.9-4.4,4.1-5.3
				c2.9-0.9,6.2-1.1,9.2-1.6c22-3.6,44.3-5.7,66.7-6.3c43.9-1.1,87.9,3.7,130.5,14.2c22.6,5.6,47.3,11.6,65.8,26.4
				c1.5,1.2,3.6-0.9,2.1-2.1c-13.1-10.4-28.7-16.3-44.6-21c-18.5-5.6-37.4-10-56.5-13.3c-37.7-6.6-76.1-8.7-114.2-6.5
				c-21.3,1.3-42.6,4-63.5,8c-0.5,0.1-0.9,0.6-1,1c-4.8,18.4-9.7,36.7-14.5,55.1C1032.3,368.9,1035.2,369.7,1035.7,367.8
				L1035.7,367.8z"/>
		</g>
	</g>
	<g>
		<g>
			<path class="st3" d="M1009.7,547.6c-1.4,9.6-2.8,19.1-4.2,28.7c-0.1,0.8,0.2,1.6,1,1.8c74.4,19.1,152.1,24.6,228.5,15.8
				c21.4-2.4,42.6-6,63.6-10.6c1.9-0.4,1.1-3.3-0.8-2.9c-74.6,16.3-152.1,19-227.7,7.6c-21.1-3.2-42.1-7.5-62.7-12.8
				c0.3,0.6,0.7,1.2,1,1.8c1.4-9.6,2.8-19.1,4.2-28.7C1012.9,546.5,1010,545.7,1009.7,547.6L1009.7,547.6z"/>
		</g>
	</g>
	<g>
		<g>
			<path class="st3" d="M1325.6,344.1c-0.4,80.2-2.8,161.9-28.4,238.7c-0.6,1.8,2.3,2.6,2.9,0.8c19.9-59.6,25.9-122.5,27.7-185
				c0.5-18.2,0.7-36.3,0.8-54.5C1328.6,342.2,1325.6,342.2,1325.6,344.1L1325.6,344.1z"/>
		</g>
	</g>
	<g>
		<g>
			<path class="st3" d="M1118.9,595.8c-1.2,13.1-3.1,26.2-5.7,39.1c-0.2,0.8,0.2,1.6,1,1.8c72,25.7,150.3,32.4,225.6,19.7
				c21.6-3.7,43-9,63.8-15.8c1.8-0.6,1-3.5-0.8-2.9c-72.7,23.8-151.3,28.3-226.2,13.2c-20.9-4.2-41.5-10-61.6-17.2
				c0.3,0.6,0.7,1.2,1,1.8c2.7-13.2,4.6-26.5,5.8-39.9C1122.1,593.9,1119.1,593.9,1118.9,595.8L1118.9,595.8z"/>
		</g>
	</g>
	<g>
		<g>
			<path class="st3" d="M1327.4,382.1c31.4-3.3,63.1-1.4,93.9,5.7c-0.4-0.5-0.7-1-1.1-1.4c1.8,84.2-4.8,168.5-19.9,251.4
				c-0.3,1.9,2.5,2.7,2.9,0.8c11.7-64.5,18.5-129.8,20-195.3c0.4-19,0.4-37.9,0-56.9c0-0.6-0.5-1.3-1.1-1.4c-31-7.2-63-9.1-94.7-5.8
				C1325.5,379.3,1325.5,382.3,1327.4,382.1L1327.4,382.1z"/>
		</g>
	</g>
	<g>
		<g>
			<path class="st3" d="M1184,303.5c-2.4-5.3,1.2-10.8,5.8-13.4c4.3-2.4,9.5-2.8,14.2-3.3c10.5-1,20.9-1.9,31.4-2.7
				c20.5-1.4,41.1-2,61.7-1.7c41.4,0.6,82.7,4.6,123.3,12.1c10.1,1.9,20.2,3.9,30.2,6.2c4.3,1,8.8,1.7,12.9,3.1
				c6.9,2.4,6.3,11.1,7,17.2c2.3,20.7,3.2,41.5,3.5,62.4c0.7,41.9,0.5,83.8,0.6,125.7c0,11.9,0.1,23.9,0.1,35.8
				c0,11.2,0.9,22.7,0,33.9c-0.2,2.3-0.6,4.8-1.8,6.8c-2.2,3.6-6.7,3.9-10.5,4.4c-5.5,0.7-11,1.4-16.5,2.1c-12,1.5-24,3.1-35.9,4.6
				c-1.9,0.2-1.9,3.2,0,3c11.7-1.5,23.3-3,35-4.5c5.8-0.7,11.7-1.5,17.5-2.2c3.5-0.5,7.3-0.7,10.3-2.8c6.4-4.6,5.1-14.5,5.1-21.3
				c0-11.9-0.1-23.9-0.1-35.8c-0.2-46.9-0.1-93.8-0.6-140.7c-0.3-23.4-1-46.9-3.6-70.2c-0.8-7.2-0.2-17.3-8-20.6
				c-4.4-1.9-9.5-2.5-14.2-3.6c-6-1.4-11.9-2.6-17.9-3.8c-44.6-9-90-13.8-135.5-14.5c-25.8-0.4-51.7,0.7-77.4,2.9
				c-10,0.9-22.5,0.2-31.8,4.8c-6.6,3.3-10.7,10.8-7.6,17.9C1182.2,306.7,1184.8,305.2,1184,303.5L1184,303.5z"/>
		</g>
	</g>
	<g>
		<g>
			<path class="st3" d="M1136.5,481.8c16.9-25.2,40.4-45.3,68-58.1c1.7-0.8,0.2-3.4-1.5-2.6c-28,13-51.9,33.5-69,59.1
				C1132.8,481.9,1135.4,483.4,1136.5,481.8L1136.5,481.8z"/>
		</g>
	</g>
	<g>
		<g>
			<path class="st3" d="M847.6,407.9c13.4-3.9,26.2,10.3,33.9,19.5c8.2,9.8,14.8,20.8,21.2,31.8c1,1.7,3.6,0.2,2.6-1.5
				c-7.5-12.6-15-25.3-25-36.1c-8.2-8.9-20.4-20.3-33.5-16.5C845,405.5,845.7,408.4,847.6,407.9L847.6,407.9z"/>
		</g>
	</g>
	<path class="st5" d="M1326.1,344.8c-3.1,15.9-8.2,38.6-16.2,65.3c-4.1,13.5-17.1,56.8-31.8,84.4c-10.1,19-40.8,67.8-126.1,102
		c22,0.4,46.7-0.3,73.6-3c26.8-2.7,51.1-6.8,72.5-11.5c4.2-11.9,9.3-28.3,13.9-48.1c4.3-18.7,7.6-38.5,10.4-68.8
		C1325,436,1327.4,395.2,1326.1,344.8z"/>
	<path class="st6" d="M1404.3,382.9c0.4,9.8,0.6,23.7-0.2,40.3c-0.3,6.7-2.5,49.8-11,80c-20.2,72.7-88.5,115.1-92.1,117.3
		c-65.6,39.7-130.9,29.8-147.3,26.8c17.7,4.5,40.9,9.3,68.4,11.9c47,4.5,83,0.4,94.3-1c22.7-2.9,52.1-8.5,85.2-20.1
		c2.8-13.4,5.7-26.8,8.5-40.1c6.6-1.8,13.7-3.4,21.2-4.8c14.7-2.7,28.4-4,40.5-4.4c1.5-9.6,3.5-24.1,4.8-41.9
		c2.3-31.6,0.3-45.5-0.5-80c-1.5-67.2,4.8-75.8-1.5-114c-3.7-22.5-9.3-40.3-13.3-51.4c0.7,2,10.9,32.4-9.1,58
		C1434.7,382.4,1407.6,382.9,1404.3,382.9z"/>
</g>
<g id="blanket">
	<path class="st4" d="M0,1114.2c36.7-32,65-59.2,84.1-78.2c27.3-27,34.3-35.8,52.9-47.9c33.9-22.2,66.4-29.4,90.7-34.5
		c20.8-4.4,50.8-8.7,87.3-6.9c9.6-4.9,25.5-13.6,43.6-26.6c38.6-28,51.1-50.1,90.8-84.4c21-18.2,33.2-28.5,53.1-39.9
		c19-11,39.1-18.7,78.4-33.7c20.2-7.7,37.2-13.9,49.2-18.1c1.5-3.6,3.8-8.5,7.3-14c12.9-20.6,29.9-30.7,33.5-32.8
		c18.1-10.4,35.1-12.2,43.9-12.5c4.4-3.6,11.2-8.8,20.4-13.7c9.9-5.3,33.3-16.3,78.8-15.8c6.1,0.1,14.5,0.3,59.8,7
		c65.1,9.5,69.6,12.1,92.4,12.7c10.5,0.3,29.4-1.4,67.1-4.8c64.3-5.8,66.6-7.9,85.8-6.8c7.5,0.5,38.4,2.7,75.1,16
		c7.1,2.6,10.1,4,67.8,31.4c27.1,12.9,40.7,19.3,45,20.9c39.2,14.9,69.9,18,78.4,18.7c18.8,1.6,15.5-0.7,39.9,0.6
		c17.4,1,43.8,2.6,76.2,11.9c13.4,3.8,31.8,9.2,53.9,21.4c19.9,11,34.7,23.2,44.8,32.6c0,127.8,0,255.6,0,383.4
		c-533.3,0-1066.7,0-1600,0C0,1171.4,0,1142.8,0,1114.2z"/>
	<path class="st6" d="M504.1,956.3c-4.1,10.1-8,24.5-4.1,39.8c7.7,29.6,41.8,49.3,109.8,67.1c55,14.4,143.2,30.4,263.1,23.7
		c8.5-4.4,17.8-3.9,23.9,1.1c3.2,2.6,7.5,8.2,6,13c-1.7,5.7-10.4,7.3-23.7,9.8c-42.2,8.1-39.1,7.9-41.3,8.1
		c-70.7,5.6-129.1,2.3-129.1,2.3c-48.9-2.8-85.7-5-134.3-14.4c-7.7-1.5-33.7-10.5-85.8-28.4c-16.9-5.8-31.2-11-37.2-24.4
		c-5.9-13.1-0.5-27.2,4.2-39.1C467.1,986.1,488.1,967.3,504.1,956.3z"/>
	<path class="st7" d="M659.7,862.3c1.2,4.9,3.7,12.9,8.6,22c9.1,16.8,29.4,42.2,82.5,58.9c99.3,31.3,257.6,14.5,400.8,23.6
		c52.6,3.3,94.7,9.6,119.8,13.8c-52.8-5.6-98.9-3.3-137.7,2.2c-33.1,4.7-40,8.9-79.2,14.7c-52,7.8-136.5,8.5-136.5,8.5
		c-95.3,0.2-131.2-1.2-174.4-6.2c-22.8-2.7-56.1-7.4-83.3-32.1c-8-7.2-21.4-19.8-25.1-39.8C628.8,893.4,656.2,865.7,659.7,862.3z"/>
	<path class="st8" d="M630,743.9c2.1-5.2,5.7-13,11.9-21.2c4.5-5.9,20.8-26.1,49-33.5c12.9-3.3,22.5-2.5,39-1.2
		c22.4,1.8,40.4,6.7,52.2,10.6c-19.5-0.4-34.8,2.2-45.5,4.9c-22.7,5.6-33.5,13.5-63.9,25.6C655,736.2,640.1,741,630,743.9z"/>
	<g>
		<g>
			<path class="st3" d="M128.1,997.5c43.3-39.8,104.8-44.9,160.6-47.8c30.9-1.6,61.9-3,92.3-9.4c28.3-6,55.8-15.8,81.6-29
				c7.5-3.8,26.4-10.9,23-22.6c-2.7-9.5-16.3-7.7-23.4-5.5c-1.8,0.6-1.1,3.5,0.8,2.9c4.5-1.4,9.7-2.4,14.3-1.1
				c9.7,2.7,4.5,11.7-1.2,15.5c-10.6,7.1-22.9,12.4-34.6,17.5c-25.2,10.9-51.9,18.5-79,22.7c-55.2,8.6-112.1,3-166.4,17.9
				c-25.8,7-50.4,18.6-70.1,36.8C124.5,996.7,126.7,998.8,128.1,997.5L128.1,997.5z"/>
		</g>
	</g>
	<g>
		<g>
			<path class="st3" d="M315.7,947.9c45.6-20.9,80-58.4,115.3-92.9c18.2-17.8,37-35.1,58.2-49.3c25.2-16.9,53.7-27.6,81.9-38.4
				c34.3-13.1,68.8-25.6,103.6-37.4c1.8-0.6,1-3.5-0.8-2.9c-31.3,10.7-62.5,21.8-93.5,33.5c-28.2,10.7-57.3,20.8-83.3,36.5
				c-43.2,26.1-76,65.3-112.8,99c-21.1,19.4-44,37.1-70.2,49.2C312.5,946.1,314,948.7,315.7,947.9L315.7,947.9z"/>
		</g>
	</g>
	<g>
		<g>
			<path class="st3" d="M633.9,740.5c9-22.1,27.7-39.8,50.3-47.6c28.1-9.7,57.9-1.5,85.8,4.7c29.5,6.6,59.1,13.2,88.6,19.7
				c28.1,6.3,56.2,12.8,84.7,16.7c31.5,4.2,63.5,4.9,94.6-2.4c1.9-0.4,1.1-3.3-0.8-2.9c-60.5,14.1-122.4-2-181.5-15.2
				c-30.2-6.7-60.4-13.4-90.5-20.2c-27.1-6-56-12.8-83-2.9c-23.1,8.4-41.8,26.5-51,49.2C630.2,741.5,633.1,742.3,633.9,740.5
				L633.9,740.5z"/>
		</g>
	</g>
	<g>
		<g>
			<path class="st3" d="M715.7,685.7c34.1-28.8,81.6-32.2,124.2-27.3c25.9,3,51.4,8.7,77.1,12.9c24.7,4,49.4,5.9,74.4,4.3
				c51.2-3.2,102.6-16.8,153.9-8.6c41.4,6.6,78.9,26.4,116,44.8c40.5,20.1,82.9,40,129.2,39.8c1.9,0,1.9-3,0-3
				c-86.7,0.4-154.2-66.6-236.8-83.1c-49.6-9.9-99.5,1.5-149,6.1c-26.6,2.4-52.8,1.9-79.3-2c-25.9-3.8-51.5-9.6-77.4-13.2
				c-45.9-6.2-97.3-4.2-134.3,27.1C712.1,684.8,714.3,686.9,715.7,685.7L715.7,685.7z"/>
		</g>
	</g>
	<g>
		<g>
			<path class="st3" d="M658.4,861.5c-14.1,19.3-26.5,43.4-23.3,68.1c2.9,22.6,19.6,38.8,38.8,49.2c23.1,12.5,49.7,19.3,75.4,23.7
				c27.2,4.6,54.7,6.2,82.2,6.5c28.9,0.3,57.8-0.7,86.6-1.4c31.1-0.8,62.3-0.7,93.4-2.9c29.5-2.1,58.2-8.5,87.1-14.2
				c30.5-6,61.3-10,92.3-11.9c30.3-1.8,61.7-2.5,91,6.4c7.1,2.2,14,4.9,20.6,8.4c6.3,3.3,13.9,7.4,16.5,14.5
				c3.5,9.5-8.9,12.8-15.4,15.7c-7.8,3.6-15.5,7.1-23.3,10.7c-1.8,0.8-0.2,3.4,1.5,2.6c6.9-3.2,13.8-6.3,20.7-9.5
				c5.4-2.5,12.2-4.4,16.6-8.4c7.4-6.8,1.7-16.4-4.6-21.7c-9.2-7.6-22-12.3-33.4-15.6c-12.1-3.5-24.6-5.4-37.1-6.4
				c-28.6-2.1-57.6,0-86,3.1c-29.9,3.3-59.3,9.1-88.8,15c-30.3,6-60.4,9-91.2,9.8c-31.1,0.8-62.2,1.5-93.2,2.3
				c-57.4,1.4-116.1,2.2-171.7-14.3c-25.5-7.6-55.4-18.8-69-43.5c-15.5-28.2-0.2-61,17-84.5C662.2,861.5,659.6,860,658.4,861.5
				L658.4,861.5z"/>
		</g>
	</g>
	<g>
		<g>
			<path class="st3" d="M503.3,955c-15.9,11.5-29.5,25.8-39.9,42.5c-5.2,8.4-9.7,17.3-13.1,26.6c-3.4,9.1-6,19.3-1.3,28.4
				c4,7.8,11.7,12.9,19.1,17c9.5,5.3,19.3,10,29.3,14.4c19.9,8.6,40.4,15.4,61.4,20.7c42.6,10.8,86.6,15.4,130.5,17.4
				c22.5,1,45,1.3,67.5,1.3c23,0,46.1,0,69-1.7c24.3-1.9,49.9-5.6,72.3-15.8c5.8-2.6,13.7-9.8,6.4-15.6c-8.4-6.8-21.9-7.2-31.8-4.7
				c-1.9,0.5-1.1,3.4,0.8,2.9c5.3-1.3,10.8-1.7,16.2-0.8c4.3,0.7,19.6,4.8,12.9,11.9c-3.5,3.6-9.2,5.1-13.8,6.8
				c-5.1,1.8-10.2,3.4-15.4,4.8c-20.2,5.3-41.1,7.5-62,8.5c-39.7,1.8-79.7,1.4-119.4-0.3c-39.6-1.7-79.3-5.5-118-14
				c-19-4.2-37.9-9.5-56.2-16.3c-18.2-6.7-36.9-14.4-53.2-25c-11.1-7.1-17.1-16.8-13.9-30.3c2.4-10.2,7.2-20,12.3-29.1
				c10.5-18.5,24.9-34.5,42.1-46.9C506.4,956.5,504.9,953.9,503.3,955L503.3,955z"/>
		</g>
	</g>
	<g>
		<g>
			<path class="st3" d="M994.9,1074c49.6-11.6,100.2-23.5,151.5-20.8c20.8,1.1,48.3,2.6,57.8,24.6c3.6,8.3,6.2,16.6,13.9,22.2
				c6.9,5,15.5,7,23.8,7.9c11.9,1.3,24,0.5,36,0.4c15-0.2,29.9-0.4,44.9-0.6c1.9,0,1.9-3,0-3c-13.3,0.2-26.6,0.4-39.9,0.5
				c-11.7,0.2-23.5,0.8-35.3,0.1c-9.4-0.5-19.6-2-27.4-7.6c-9.4-6.7-10.3-18-16.2-27.1c-10.6-16.4-33.1-18.6-50.8-20
				c-24.5-1.9-49.1-0.3-73.4,3.1c-28.9,4-57.3,10.7-85.6,17.3C992.3,1071.6,993.1,1074.4,994.9,1074L994.9,1074z"/>
		</g>
	</g>
	<g>
		<g>
			<path class="st3" d="M713.3,787.5c34.2,13.3,63.5,35.7,93.2,56.6c30.4,21.4,61.7,40.1,98.2,49c22.3,5.4,45.2,8.1,68,10.7
				c1.9,0.2,1.9-2.8,0-3c-40.4-4.6-80.5-10.1-116.9-29.2c-31.8-16.6-59.7-39.6-89.6-59.3c-16.5-10.8-33.6-20.6-52-27.7
				C712.3,784,711.5,786.9,713.3,787.5L713.3,787.5z"/>
		</g>
	</g>
	<g>
		<g>
			<path class="st3" d="M1389.4,753.4c56.8-5.1,114.3,6,165,32c1.7,0.9,3.2-1.7,1.5-2.6c-51.2-26.2-109.3-37.5-166.5-32.4
				C1387.5,750.6,1387.5,753.6,1389.4,753.4L1389.4,753.4z"/>
		</g>
	</g>
</g>
<g id="cat">
	<path class="st9" d="M1042.4,807.4c1.1,1,2.3,1.9,3.8,2.8c8.2,4.9,17,4.1,21.3,3.4c-3,2.7-6.6,6.6-9.8,11.8
		c-5.7,9.2-7.3,18.1-7.9,23.4c-10.4,1.7-18.6,4.6-24.1,6.9c-15.1,6.4-21.7,13.6-24.5,17.1c-5.2,6.5-5.3,10.1-4.9,12.2
		c0.8,4.1,4.2,6.6,5.7,7.7c6.3,4.5,13.7,4.2,23.2,3.4c23.4-2,26-4,39.8-4.1c8.8-0.1,17.7,0.6,20.4,0.8c14,1.1,13.9,2.3,20.2,2
		c8.8-0.4,9.7-2.6,26.7-6.5c10.5-2.4,15.9-3.6,21-3c5.3,0.7,8.2,2.3,21.2,9c12,6.2,18,9.3,21.1,10.8c9.8,4.7,20.5,9.9,34.2,11.8
		c18.7,2.7,33.8-2,40.2-4.1c3.4-1.1,17.3-5.9,31.9-17.7c4.6-3.7,8.2-7.3,10.7-10c0.4-5.2,0.6-16.6-5.5-29
		c-5.8-11.6-14.1-17.9-17.8-20.5c-2.7-2-18.3-13-39.2-12.1c-13,0.5-13.5,5.1-33.4,7c-9.3,0.9-17,0.6-22.7,0.5
		c-11.2-0.4-20.7-1.6-27.7-2.7c2.1-0.4,6.4-1.5,10.5-4.9c3-2.5,4.6-5.3,5.5-7c-7.2-2.4-12.1-5.5-15.3-7.8c-6.4-4.7-8.4-8.3-13.4-9.3
		c-5.3-1-10.3,1.7-13.6,4.1c-3.9-2-9.8-4.4-17.4-5.4c-10.1-1.4-18.3,0.3-23.1,1.7c-3-3-9.1-8.2-17.2-8.5c-4.6-0.1-8.1,1.4-12.3,3.3
		C1062.4,797.5,1053.1,801.9,1042.4,807.4z"/>
	<g>
		<g>
			<path class="st10" d="M1070.8,822.3c-1.3,4.8-0.6,11.3,5,12.9c6,1.8,9.9-4.1,12.2-8.6c0.9-1.7-1.7-3.2-2.6-1.5
				c-1.5,3-3.6,7.3-7.5,7.3c-4.9,0-5.1-5.8-4.2-9.3C1074.2,821.3,1071.3,820.5,1070.8,822.3L1070.8,822.3z"/>
		</g>
	</g>
	<g>
		<g>
			<path class="st10" d="M1115.2,822.9c-1.1,5.7,0.4,14.1,7.6,14.3c6,0.2,11.2-4.6,12.3-10.3c0.4-1.9-2.5-2.7-2.9-0.8
				c-0.7,3.7-3.2,6.8-6.9,7.8c-6.4,1.7-8.1-5.4-7.1-10.2C1118.5,821.8,1115.6,821,1115.2,822.9L1115.2,822.9z"/>
		</g>
	</g>
	<g>
		<g>
			<path class="st10" d="M1099,828.8c-0.1-0.2-0.1-0.4,0.1-0.5c-0.1,0.1,0.2,0,0.1,0c0.1,0.1,0.2,0.1,0.3,0.2c0,0.1,0,0.3-0.2,0.4
				c-0.3,0.1-0.5-0.3-0.7-0.6c-0.9-1.7-3.5-0.2-2.6,1.5c0.9,1.7,2.8,2.6,4.6,1.7c1.7-0.8,2.4-3,1.4-4.6c-0.9-1.5-3-2.1-4.6-1.1
				c-1.5,1-1.9,3-1.1,4.6C1097.4,832,1100,830.5,1099,828.8L1099,828.8z"/>
		</g>
	</g>
	<g>
		<g>
			<path class="st10" d="M1098.2,828.3c-1.3,3.8-2.3,7.7-3,11.7c-0.3,1.9,2.6,2.7,2.9,0.8c0.7-4,1.7-7.9,3-11.7
				C1101.8,827.2,1098.9,826.5,1098.2,828.3L1098.2,828.3z"/>
		</g>
	</g>
	<g>
		<g>
			<path class="st10" d="M1095.9,839.6c-2.4,0.6-4.6,1.8-6.3,3.6c-1.3,1.4,0.8,3.5,2.1,2.1c1.4-1.4,3-2.4,5-2.8
				C1098.6,842.1,1097.8,839.2,1095.9,839.6L1095.9,839.6z"/>
		</g>
	</g>
	<g>
		<g>
			<path class="st10" d="M1096.2,842.4c1.6,1,2.9,2.3,3.7,4.1c0.8,1.7,3.4,0.2,2.6-1.5c-1-2.2-2.7-3.9-4.8-5.1
				C1096,838.9,1094.5,841.5,1096.2,842.4L1096.2,842.4z"/>
		</g>
	</g>
	<g>
		<g>
			<path class="st3" d="M1051.3,848.7c1.6-15.2,9.6-29,21.9-37.9c1.5-1.1,0.1-3.7-1.5-2.6c-13.3,9.7-21.7,24.2-23.4,40.5
				C1048.1,850.6,1051.1,850.6,1051.3,848.7L1051.3,848.7z"/>
		</g>
	</g>
	<g>
		<g>
			<path class="st3" d="M1063.6,813.5c-8.3,0.1-13.9-2.5-20.4-7.4c-0.3,0.9-0.5,1.9-0.8,2.8c18.1-0.7,37-30.1,53.6-9.1
				c1.2,1.5,3.3-0.6,2.1-2.1c-6.2-7.9-16.4-10.3-25.7-6.6c-10.3,4.2-18.3,14.3-30.1,14.7c-1.6,0.1-1.9,1.9-0.8,2.8
				c7.1,5.3,13,8,21.9,7.9C1065.5,816.5,1065.5,813.5,1063.6,813.5L1063.6,813.5z"/>
		</g>
	</g>
	<g>
		<g>
			<path class="st3" d="M1098.3,801.2c12.6-4.5,26.1-3.5,37.9,2.9c1.7,0.9,3.2-1.7,1.5-2.6c-12.4-6.8-26.8-8-40.2-3.2
				C1095.7,799,1096.5,801.9,1098.3,801.2L1098.3,801.2z"/>
		</g>
	</g>
	<g>
		<g>
			<path class="st3" d="M1138.7,804.5c4.9-2.6,10.5-4.6,16.1-3c4.3,1.2,7.4,4.5,10.5,7.5c4.7,4.6,9.8,9.1,16.8,8.6
				c-0.4-0.8-0.9-1.5-1.3-2.3c-3.5,7.7-10.8,8.9-17.7,12.2c-1.7,0.8-0.2,3.4,1.5,2.6c7.5-3.6,15.1-5,18.8-13.2
				c0.4-0.9-0.1-2.3-1.3-2.3c-10.3,0.7-15-10.5-23.2-14.7c-7.1-3.6-15-1.6-21.7,2C1135.5,802.8,1137,805.4,1138.7,804.5
				L1138.7,804.5z"/>
		</g>
	</g>
	<g>
		<g>
			<path class="st3" d="M1156.6,822.3c5.4,4.3,8.6,10.4,9.1,17.3c0.1,1.9,3.1,1.9,3,0c-0.5-7.7-4-14.6-10-19.4
				C1157.2,818.9,1155.1,821,1156.6,822.3L1156.6,822.3z"/>
		</g>
	</g>
	<g>
		<g>
			<path class="st3" d="M1000,890.2c-11.2-13.5,17.1-29.7,26.9-33.4c12.9-4.9,26.9-5.7,40.2-2.2c1.9,0.5,2.7-2.4,0.8-2.9
				c-16.4-4.4-34-2.4-49.1,5.4c-10.7,5.6-32.5,21.3-20.9,35.2C999.1,893.8,1001.2,891.6,1000,890.2L1000,890.2z"/>
		</g>
	</g>
	<g>
		<g>
			<path class="st3" d="M1015.8,892.4c-6.2-2,0.9-11.2,2.7-13.2c2.1-2.5,4.6-4.7,7.2-6.7c4.8-3.6,10.1-6.5,15.5-9
				c12.6-5.9,26.6-9.4,40.2-5.1c1.8,0.6,2.6-2.3,0.8-2.9c-17.6-5.6-36.1,1.1-51.4,10c-6.8,4-13.3,8.9-17.6,15.7
				c-2.9,4.6-5.1,11.9,1.7,14.2C1016.8,895.9,1017.6,893,1015.8,892.4L1015.8,892.4z"/>
		</g>
	</g>
	<g>
		<g>
			<path class="st3" d="M1014.3,896c11.3,2,22.7,2.3,34,0.5c6.4-1,12.7-2.8,19.1-3.4c7-0.7,13.8,0.4,20.7,1.7
				c11,2,20.8,1.7,31.6-1.3c11.2-3.1,22.1-7.5,33.9-6.1c1.9,0.2,1.9-2.8,0-3c-10.6-1.2-20.7,2-30.8,5.1c-5.4,1.6-10.8,3.2-16.5,3.7
				c-6.5,0.7-12.9-0.5-19.4-1.6c-5.3-1-10.6-1.9-16.1-1.7c-5.5,0.2-11,1.3-16.4,2.4c-13.2,2.7-26.2,3.3-39.6,0.9
				C1013.2,892.7,1012.4,895.6,1014.3,896L1014.3,896z"/>
		</g>
	</g>
	<g>
		<g>
			<path class="st3" d="M1167.5,829c14,5.4,28.5,6,43.2,3.1c15.8-3,31.2-8.7,47.5-6.9c29.4,3.2,56.3,28.7,52.7,59.8
				c-0.2,1.9,2.8,1.9,3,0c3.3-28.7-18.8-53.7-45.5-60.9c-15.5-4.2-30.7-1.4-46,2.3c-18.5,4.4-35.9,6.6-54.2-0.3
				C1166.5,825.4,1165.7,828.3,1167.5,829L1167.5,829z"/>
		</g>
	</g>
	<g>
		<g>
			<path class="st3" d="M1152.8,886.6c14.9,3.8,27.1,13.1,40.4,20.3c13.1,7,27.6,11.1,42.5,11.9c28.9,1.4,57.1-10.6,76.7-31.8
				c1.3-1.4-0.8-3.5-2.1-2.1c-19.9,21.6-48.7,33.2-78.1,30.7c-15.5-1.3-29.8-6.6-43.2-14.4c-11.4-6.7-22.4-14.1-35.4-17.4
				C1151.7,883.2,1150.9,886.1,1152.8,886.6L1152.8,886.6z"/>
		</g>
	</g>
	<g>
		<g>
			<path class="st3" d="M1196.8,905.7c3.6-6.9,14.1-6.2,20.7-6.8c4-0.4,8.3-0.4,12.3-1.2c1.4-0.3,2.8-0.6,3.4-2
				c0.9-1.9-0.1-5.5,0.1-7.5c0.3-3.5,1.5-7,3.3-10c3.6-6.2,9.4-10.6,16.4-12.1c1.9-0.4,1.1-3.3-0.8-2.9c-12.2,2.7-21.6,13.8-22,26.4
				c0,1.3,0.8,4.2-0.2,5.2c-1,1-7,0.7-8.5,0.9c-4.4,0.4-8.8,0.8-13.2,1.3c-5.6,0.7-11.3,2.1-14.1,7.4
				C1193.3,905.9,1195.9,907.4,1196.8,905.7L1196.8,905.7z"/>
		</g>
	</g>
	<g>
		<g>
			<path class="st3" d="M1067.5,854c4.1,0.5,8.2,1.5,12.1,3c1.8,0.7,2.6-2.2,0.8-2.9c-4.2-1.5-8.5-2.5-12.9-3.1
				C1065.5,850.8,1065.6,853.8,1067.5,854L1067.5,854z"/>
		</g>
	</g>
</g>
<g id="hand_right">
	<path class="st4" d="M914,383.7c-3.8,2.9-9.2,7.5-14.1,14.3c-8.8,12-11.2,23.9-12.3,28.8c-4.6,21.4-12.5,41.9-17.9,63.1
		c-13.9,54.6-19.6,69.5-21.9,75.3c-6.2,15.9-12.4,28.7-16.9,37.2c3.5,5.7,8.7,12.7,16.1,19.5c11.8,10.9,23.9,16.6,31.9,19.5
		c2.6-4.9,6-11.6,9.9-19.8c6.2-13.2,17.5-37.7,25.7-69.7c10.1-39.4,10.8-71.5,10.8-83C925.3,435,920,406,914,383.7z"/>
	<path class="st11" d="M924,439.9c-1.5,5.2-3.8,13.2-6.4,22.9c-11.7,43.6-15.1,67.9-20.5,90.6c-4.7,20.1-13.3,48.7-30.2,82.7
		c4,1.8,8,3.6,12,5.4c2.3-5.1,5.8-13,9.9-22.8c12.4-29.8,21.9-52.8,28.5-83.4c3.4-15.8,5.1-29.2,6.1-38.8
		C925.5,474,925.1,454.6,924,439.9z"/>
	<g>
		<g>
			<path class="st3" d="M913.2,382.4c-10.3,6.2-16.4,16.5-21,27.4c-5.9,14-10.3,28.7-14.4,43.3c-8.4,29.5-14.9,59.5-23.9,88.8
				c-5.3,17.3-11.5,34.4-19.3,50.7c-0.8,1.7,1.8,3.3,2.6,1.5c16.4-34.3,25.5-71.3,34.9-108c4.8-18.6,9.6-37.3,15.7-55.5
				c5.4-16.4,11.2-36.1,26.9-45.6C916.4,384,914.9,381.4,913.2,382.4L913.2,382.4z"/>
		</g>
	</g>
	<g>
		<g>
			<path class="st3" d="M923.8,469c-2.2,59.9-18,118.8-46.2,171.7c-0.9,1.7,1.7,3.2,2.6,1.5c28.4-53.4,44.4-112.8,46.6-173.2
				C926.9,467.1,923.9,467.1,923.8,469L923.8,469z"/>
		</g>
	</g>
</g>
<g id="torso">
	<path class="st1" d="M917.4,377.7c29.4-39.7,76.3-59.7,119.9-50.8c38.7,7.9,61.2,35.5,67.8,44.4c3.5,20.3,7.2,51.2,4.9,88.9
		c-1.3,21.9-3,20.1-7.1,63.5c-4.7,50.6-4.4,75.6-3.5,93.2c0.7,14.4,1.9,26.2,2.8,33.9c-15,7.9-36.5,16.8-63.5,21.2
		c-49.8,8-90.2-4.3-110.1-12c-4.7-36-9.4-72-14.1-108c-14.9-38.3-15.4-66.6-12.8-85.8c0.4-2.9,0.8-5.3,6.5-37
		C908.5,427.3,912.8,403.2,917.4,377.7z"/>
</g>
<g id="book">
	<path class="st4" d="M728.6,461.8c-0.2,4.5-0.4,11.9-0.1,21.1c0.2,10,1.4,41,11.9,85.1c2.4,10.1,4.6,18.1,8.4,31
		c8.3,28.3,19.7,66.7,38.8,120.9c9.4,26.6,21.6,59.6,36.7,97.2c2.1,0.7,6.2,1.9,11.3,1.1c6.5-1,10.7-4.4,12.4-5.8
		c8.2,0.2,19.9,0,33.8-2c35.9-5.2,61.8-18.8,83.4-30.5c13.4-7.2,30.9-17.8,50.1-32.8c-0.8-5.8-1.6-11.5-2.5-17.3
		c-3-7.5-7.6-19-13.2-33c-29.3-73.1-34.3-84.7-41.4-103.8c-8.2-22-19.4-54-30.4-94.6c-5,3.9-12.1,9.1-21.1,14.5
		c-9.6,5.7-28,16.5-53.4,22.2c-13.2,2.9-23.8,3.5-43.7,4.6c-9.9,0.5-18.2,0.7-24.1,0.7c-1.3-5.1-3.7-12.8-9-20.9
		c-5-7.7-7.9-8.6-15.1-18.2c-6.3-8.4-9.9-15.5-13-21.6c-3.3-6.5-7.1-14.8-10.4-24.7c-0.9,2.6-1.8,5.2-2.7,7.7
		C732.9,462.3,730.8,462.1,728.6,461.8z"/>
	<g>
		<g>
			<path class="st3" d="M756,571.6c19.4,64.5,41.8,128.1,67.2,190.4c7.1,17.3,14.4,34.6,21.9,51.7c0.8,1.8,3.4,0.2,2.6-1.5
				c-26.8-61.3-50.8-123.8-71.7-187.3c-5.9-18-11.6-36-17-54.1C758.3,569,755.4,569.7,756,571.6L756,571.6z"/>
		</g>
	</g>
	<g>
		<g>
			<path class="st3" d="M757.8,571.6c28.6-2.7,56.1-11.9,83.5-20.1c28.6-8.6,57.1-17.1,85.7-25.7c1.8-0.6,1.1-3.4-0.8-2.9
				c-27.9,8.4-55.9,16.7-83.8,25.1c-27.8,8.3-55.6,17.8-84.6,20.6C755.9,568.7,755.9,571.7,757.8,571.6L757.8,571.6z"/>
		</g>
	</g>
	<g>
		<g>
			<path class="st3" d="M928.3,525.6c21.4,76.6,50.1,151.1,85.7,222.3c0.9,1.7,3.5,0.2,2.6-1.5c-35.4-70.9-64-145.2-85.4-221.6
				C930.7,522.9,927.8,523.7,928.3,525.6L928.3,525.6z"/>
		</g>
	</g>
	<g>
		<g>
			<path class="st3" d="M848,813.9c31.8,3.7,63.5-10,92.4-21.5c27.2-10.8,53.7-24,75.6-43.8c1.4-1.3-0.7-3.4-2.1-2.1
				c-21.9,19.8-48.6,32.9-75.8,43.7c-28.2,11.1-59,24.4-90,20.8C846.1,810.6,846.1,813.6,848,813.9L848,813.9z"/>
		</g>
	</g>
	<g>
		<g>
			<path class="st3" d="M755.7,568.4c-2.6,2.4-6.2,3.5-9.7,2.5c-2-0.5-5.5-2.7-3.3-5c1-1.1,3.1-1.6,4.5-1.9c1.9-0.4,1.1-3.3-0.8-2.9
				c-4.9,1.1-11,5.8-5.4,10.6c4.9,4.1,12.4,3,16.8-1.2C759.2,569.2,757.1,567,755.7,568.4L755.7,568.4z"/>
		</g>
	</g>
	<g>
		<g>
			<path class="st3" d="M738,568.7c19.9,65.3,39.8,130.8,63.6,194.8c6.7,18.1,13.8,36.1,21.2,53.9c0.7,1.8,3.6,1,2.9-0.8
				c-26.3-63.1-47.7-128-67.9-193.3c-5.7-18.5-11.4-37-17-55.5C740.4,566.1,737.5,566.9,738,568.7L738,568.7z"/>
		</g>
	</g>
	<g>
		<g>
			<path class="st3" d="M824,817.7c7.2,3.7,15.6,2.6,21.6-2.9c1.4-1.3-0.7-3.4-2.1-2.1c-4.9,4.6-12,5.6-17.9,2.5
				C823.8,814.3,822.3,816.8,824,817.7L824,817.7z"/>
		</g>
	</g>
	<g>
		<g>
			<path class="st3" d="M741.6,566.2c-7.5-33.8-11.6-68.3-12.4-102.9c0-1.9-3-1.9-3,0c0.8,34.9,5,69.6,12.5,103.7
				C739.2,568.9,742,568.1,741.6,566.2L741.6,566.2z"/>
		</g>
	</g>
	<g>
		<g>
			<path class="st3" d="M727.9,463.1c2,1.2,4.2,1.8,6.6,1.7c1.9-0.1,1.9-3.1,0-3c-1.8,0.1-3.5-0.3-5.1-1.3
				C727.8,459.5,726.3,462.1,727.9,463.1L727.9,463.1z"/>
		</g>
	</g>
	<g>
		<g>
			<path class="st3" d="M734.3,458.9c1.2,34.3,5.4,68.5,12.7,102.1c0.4,1.9,3.3,1.1,2.9-0.8c-7.2-33.3-11.4-67.2-12.6-101.3
				C737.2,456.9,734.2,456.9,734.3,458.9L734.3,458.9z"/>
		</g>
	</g>
	<g>
		<g>
			<path class="st3" d="M736.4,458.5c6.8,14.6,13.6,29.3,23.2,42.2c4.5,6.1,10,11.5,14.3,17.7c4.9,7,8.5,14.7,10.8,22.9
				c0.5,1.9,3.4,1.1,2.9-0.8c-2.1-7.3-5.1-14.3-9.2-20.8c-4.1-6.5-9.5-12-14.3-18c-10.7-13.5-18-29.3-25.2-44.8
				C738.2,455.3,735.6,456.8,736.4,458.5L736.4,458.5z"/>
		</g>
	</g>
	<g>
		<g>
			<path class="st3" d="M756.6,568.4c10.5-13.5,21.5-25.5,39.8-26c16-0.4,31.4-0.5,47.2-3.5c31.1-6,60.4-19.6,85.2-39.3
				c1.5-1.2-0.6-3.3-2.1-2.1c-26.2,20.8-57.6,34.5-90.6,39.7c-8.5,1.3-17.1,2.1-25.7,2.3c-7.7,0.2-15.6-0.7-23.2,0.9
				c-14.3,3-24.1,15-32.7,26C753.3,567.7,755.4,569.9,756.6,568.4L756.6,568.4z"/>
		</g>
	</g>
	<g>
		<g>
			<path class="st3" d="M926.9,499.2c-0.5,8.6-0.1,17.1,1,25.7c0.3,1.9,3.2,1.1,2.9-0.8c-1.1-8.3-1.4-16.6-0.9-24.9
				C930,497.3,927,497.3,926.9,499.2L926.9,499.2z"/>
		</g>
	</g>
	<g>
		<g>
			<path class="st3" d="M748,560.7c0.3,4.4,3.7,7.9,8.1,8.4c1.9,0.2,1.9-2.8,0-3c-2.7-0.3-5-2.7-5.1-5.4
				C750.9,558.7,747.9,558.7,748,560.7L748,560.7z"/>
		</g>
	</g>
	<g>
		<g>
			<path class="st3" d="M758,569.3c24.1-21.8,59.2-18.6,89-24.6c28.8-5.9,56.2-18,80.1-35.1c1.6-1.1,0.1-3.7-1.5-2.6
				c-25.1,18-54,30.4-84.5,35.7c-29.1,5.1-61.9,3.3-85.2,24.4C754.4,568.5,756.6,570.6,758,569.3L758,569.3z"/>
		</g>
	</g>
	<g>
		<g>
			<path class="st3" d="M795.1,600.8c2.1,7.2,4.3,14.5,6.7,21.6c1.1,3.4,2.1,6.9,3.5,10.2c0.5,1.3,0.9,2.5,2.1,3.3
				c3.6,2.4,11.7,0,15.7-0.5c5.9-0.8,11.8-1.8,17.6-3c25.2-5.5,49.2-15.8,70.5-30.1c1.6-1.1,0.1-3.7-1.5-2.6
				c-19,12.7-40,22.3-62.2,28c-11.1,2.9-22.5,4.8-34,5.7c-4.2,0.3-5.4-1.7-6.7-5.3c-1.1-3.1-2.1-6.2-3.1-9.3
				c-2-6.2-3.9-12.5-5.7-18.8C797.5,598.2,794.6,598.9,795.1,600.8L795.1,600.8z"/>
		</g>
	</g>
	<g>
		<g>
			<path class="st3" d="M798.2,601.3c33.5-11.3,66.7-23.2,99.8-35.6c-0.6-0.3-1.2-0.7-1.8-1c4.6,11.8,9.2,23.7,13.9,35.5
				c0.7,1.8,3.6,1,2.9-0.8c-4.6-11.8-9.2-23.7-13.9-35.5c-0.3-0.7-1-1.4-1.8-1c-33.1,12.4-66.3,24.3-99.8,35.6
				C795.6,599,796.4,601.9,798.2,601.3L798.2,601.3z"/>
		</g>
	</g>
	<g>
		<g>
			<path class="st3" d="M926.9,500.6c18.6,64.8,41.4,128.3,68.4,190.1c7.8,17.8,18,35.8,18.5,55.7c0,1.9,3,1.9,3,0
				c-0.4-15.7-6.8-30-13.1-44.1c-7.2-16.2-14.2-32.5-20.9-48.9c-13-31.9-24.8-64.2-35.6-96.9c-6.2-18.8-12-37.7-17.4-56.7
				C929.2,498,926.3,498.7,926.9,500.6L926.9,500.6z"/>
		</g>
	</g>
</g>
<g id="hand_left">
	<path class="st4" d="M1088.4,356.9c-1.6,5.5-3.9,13.9-5.8,24.1c-4.7,25.5-4.1,45.5-3.7,57.7c1.1,31.9,2.9,79,6.1,137.1
		c-2.3,6.6-6.5,16.3-14.1,26.1c-7,9.1-13.7,14.3-24.9,22.8c-14.4,11-35.9,27.6-40.1,30.7c-3.5-3.6-10.4-10.6-20.3-20.6
		c-7.2-7.3-12-12-18.1-11.5c-0.4,0-5.3,0.5-6.4,3.3c-1.2,3,2.7,6.2,6.1,12.7c2.6,5,3.7,9.7,4.2,13c-10.7,8.6-20.3,13.7-27.2,16.7
		c-12.3,5.4-24.1,8.4-24.1,8.4c-9.5,2.4-13.4,2.4-19.7,5.6c-7.1,3.6-11.8,8.7-14.7,12.5c4.4,0.5,9.7,0.7,15.6,0.3
		c8.7-0.6,15.9-2.5,21.3-4.4c-6.6,3.5-13.7,7.7-20.9,12.6c-3.3,2.2-6.3,4.5-9.2,6.7c1.6,2.3,4.5,5.7,9,8c6.2,3.1,12,2.4,20.4,1.2
		c5.4-0.7,13.2-2.3,22.2-5.8c-5.4,3.1-11.5,7.2-17.7,12.4c-3.2,2.7-6,5.4-8.5,8c4.6,0.2,11.7,0.2,20.3-0.9
		c12-1.5,35.2-4.3,54.6-21.3c3.6-3.2,8.7-8.2,13.7-15.7c6.2-1,14.2-2.5,23.4-5c9.3-2.5,24.5-7.1,42.3-15.6
		c18.2-8.7,37.3-17.9,55.4-36.9c11.7-12.3,19-24.4,23.2-32.4c0.1-8.4,0.2-20.7-0.5-35.5c-1.5-35.6-5.9-63-9.6-86.2
		c-2.8-17.3-1.8-8.4-8.8-46.8c-0.4-2.3-4.3-23.8-12.6-49.2c-2.3-7.2-5.1-14.8-12.1-21.7C1100.7,361.1,1093.2,358.3,1088.4,356.9z"/>
	<path class="st12" d="M1095.3,359.1c3.7,8.4,8.7,20.4,13.2,35.2c2.5,8.1,11.8,39.3,14.5,90.7c2.4,45.4,3.6,68.1-5.8,95.1
		c-2.4,6.9-11.6,32.1-34.1,57.3c-33.5,37.6-76.4,53-82.7,55.2c-21.7,7.5-44.5,10.8-70.5,31.6c-5.3,4.2-9.3,8-11.9,10.6
		c4.4,0.4,9.4,0.5,14.7,0.1c17.4-1.2,30-7,38-10.8c16-7.5,27.9-17.2,36.2-25.4c10.1-2.4,23.9-6.1,39.9-12
		c12.1-4.4,27.8-10.3,46.4-21.1c22-12.8,42.3-25,53.5-48.8c3-6.4,4.6-12,5.5-15.8c-0.9-25.5-3.1-60.2-8.4-97.2
		c-2.6-18.5-5.7-35.2-7-42.1c-2.4-12.9-4.7-22.9-9.2-42.9c-5.3-23.7-6.6-27.8-9.3-33C1111.6,372.8,1102.1,364.2,1095.3,359.1z"/>
	<g>
		<g>
			<path class="st3" d="M1089.5,358.6c15.7,4.6,24.5,19.1,29.4,33.7c5.3,15.7,8.6,32.2,12.1,48.4c7.3,34,12.6,68.5,15.8,103.1
				c1.8,19.3,3,38.7,3.6,58.1c0.1,1.9,3.1,1.9,3,0c-1.1-36.3-4.3-72.6-9.7-108.5c-2.7-17.9-6-35.7-9.8-53.4
				c-3.7-17.2-7.1-35.1-13.2-51.7c-5.4-14.4-14.9-28-30.3-32.5C1088.4,355.2,1087.6,358.1,1089.5,358.6L1089.5,358.6z"/>
		</g>
	</g>
	<g>
		<g>
			<path class="st3" d="M1087,356.5c-10.7,34.1-9.9,70.7-9.4,106.1c0.5,37.8,2.6,75.6,6,113.2c0.2,1.9,3.2,1.9,3,0
				c-3.4-37-5.4-74.1-6-111.2c-0.5-35.7-1.6-72.8,9.2-107.3C1090.5,355.4,1087.6,354.7,1087,356.5L1087,356.5z"/>
		</g>
	</g>
	<g>
		<g>
			<path class="st3" d="M1084.8,574.2c-12.6,37.4-49.7,56.9-78.6,80.1c-1.5,1.2,0.6,3.3,2.1,2.1c29.5-23.6,66.6-43.4,79.4-81.4
				C1088.3,573.2,1085.4,572.4,1084.8,574.2L1084.8,574.2z"/>
		</g>
	</g>
	<g>
		<g>
			<path class="st3" d="M1007.2,654.4c-7.1-7.2-14.1-14.7-21.4-21.7c-5.1-4.8-11.1-9.9-18.3-10.8c-4.5-0.6-8.2,1.8-7.7,6.7
				c0.4,3.6,3.1,6.4,4.9,9.4c2.8,4.5,4.8,9.3,5.4,14.5c0.2,1.9,3.2,1.9,3,0c-0.6-5.3-2.3-10.1-4.9-14.6c-1-1.8-5.6-6.8-5.3-8.9
				c1.5-1.3,3-2.7,4.5-4c0.8,0.1,1.5,0.3,2.2,0.6c1.8,0.6,3.6,1.4,5.2,2.3c5.5,3.2,9.9,8,14.3,12.5c5.3,5.4,10.7,10.8,16,16.3
				C1006.4,657.9,1008.6,655.7,1007.2,654.4L1007.2,654.4z"/>
		</g>
	</g>
	<g>
		<g>
			<path class="st3" d="M970.9,651.6c-15.2,9.9-30.6,19.6-48.4,23.9c-14,3.4-30,5.8-38,19.4c-0.4,0.8-0.1,1.6,0.5,2.1
				c3.3,2.5,7.2,1.9,11.1,1.3c5.8-0.8,11.6-1.8,17.3-3c11.8-2.5,23.3-5.7,34.7-9.7c1.8-0.6,1-3.5-0.8-2.9
				c-9.6,3.4-19.4,6.2-29.3,8.5c-4.8,1.1-9.6,2.1-14.5,2.9c-4.9,0.8-12.7,3.5-17,0.3c0.2,0.7,0.4,1.4,0.5,2.1
				c8.8-15.1,28.3-15.2,43.2-19.9c15.3-4.9,28.8-13.6,42.1-22.3C974.1,653.1,972.6,650.5,970.9,651.6L970.9,651.6z"/>
		</g>
	</g>
	<g>
		<g>
			<path class="st3" d="M893.7,712c10-7.9,21-14.3,32.8-19c1.8-0.7,1-3.6-0.8-2.9c-12.3,5-23.7,11.6-34.1,19.8
				C890.1,711.1,892.2,713.2,893.7,712L893.7,712z"/>
		</g>
	</g>
	<g>
		<g>
			<path class="st3" d="M892.2,713.8c7.9,3.2,16.6,0.2,24.4-1.8c9.7-2.5,19.2-5.3,28.7-8.5c1.8-0.6,1-3.5-0.8-2.9
				c-8.3,2.7-16.6,5.3-25.1,7.5c-8.2,2.2-18.2,6.1-26.4,2.7C891.2,710.2,890.5,713.1,892.2,713.8L892.2,713.8z"/>
		</g>
	</g>
	<g>
		<g>
			<path class="st3" d="M895,715.5c12.4,14.1,34.8,4.2,49.6,0.2c1.9-0.5,1.1-3.4-0.8-2.9c-13.7,3.7-35.3,13.5-46.7,0.5
				C895.8,711.9,893.7,714.1,895,715.5L895,715.5z"/>
		</g>
	</g>
	<g>
		<g>
			<path class="st3" d="M942.8,714.7c-9.8,4.7-18.4,11.1-25.8,19c-0.7,0.7-0.5,2.3,0.7,2.5c17.7,2.7,36.6-4.3,53-10.5
				c14.6-5.5,28.4-13.3,37.6-26.2c1.1-1.6-1.5-3.1-2.6-1.5c-9,12.7-23,20.1-37.3,25.4c-15.4,5.7-33.3,12.4-49.9,10
				c0.2,0.8,0.4,1.7,0.7,2.5c7.3-7.7,15.7-13.9,25.2-18.5C946,716.5,944.5,713.9,942.8,714.7L942.8,714.7z"/>
		</g>
	</g>
	<g>
		<g>
			<path class="st3" d="M1007.1,698.3c31.2-5.1,61.3-16.3,88.2-32.9c12.9-7.9,25.2-17.1,36.2-27.4c10.5-9.9,19.8-21.9,22.2-36.5
				c0.3-1.9-2.6-2.7-2.9-0.8c-2.5,15.3-12.6,27.3-23.8,37.4c-11.1,10-23.3,18.9-36.1,26.6c-26,15.5-54.7,25.9-84.6,30.8
				C1004.4,695.7,1005.2,698.6,1007.1,698.3L1007.1,698.3z"/>
		</g>
	</g>
</g>
<g id="head">
	<path class="st4" d="M869,233.1c-0.5,5.7,0.4,15.2,1.1,21.4c1,9.3,2.7,25.3,9.2,43.4c4.4,12.2,10,27.8,24,42.6
		c15.5,16.3,33.5,23.6,44.9,27c4.7-0.4,11.3-1.5,18.6-4.5c7.9-3.2,13.8-7.3,17.6-10.5c7.9,8.5,15.7,17,23.6,25.4
		c4.9-3.2,8.8-6.2,11.6-8.6c3-2.5,5.5-4.7,8.4-8.2c2.6-3.1,4.1-5.6,7-10.5c4.9-8.2,5.9-11.9,6.3-14.3c0.3-1.7,0.4-2.9,0.5-3.7
		c3.6-27.2,8.8-46.7,9.6-49.7c5.5-22.7-10.5-90-62.1-108.4C936.5,155.8,872.1,201,869,233.1z"/>
	<path class="st13" d="M944.6,213.8c-4.4,12.4,20.9,22.3,33.3,51.5c14,33.1,2.4,69.9-10.3,96.7c5.6-2.5,12.6-6.4,19.5-12.6
		c15-13.4,20.8-29.4,23-37.3c8.8,11.8,17.6,23.5,26.3,35.3c4.8-6.6,11.3-17.1,15.9-31.2c2.9-8.8,10-31,3.6-57.6
		c-2-8.3-7.9-30.8-28-45.3C998,191.6,950.1,198.2,944.6,213.8z"/>
	<path class="st2" d="M868.5,242c4.2-6.8,10.5-15.3,19.6-23.9c7.9-7.4,15.6-12.6,21.9-16.2c2.9,2.7,7.2,6.6,12.4,11.5
		c36.8,34.4,45.8,47,57.7,45.3c4.3-0.6,10.7-3.2,17.5-13.9c0.9-1.8,3.5-6.4,8.5-8.2c8.1-2.8,17.1,3.3,20.9,10
		c4.1,7.1,2.2,14.6,1.3,18.5c-0.7,2.8-2.3,9.1-8.1,14.1c-2.7,2.3-5.4,3.5-7.2,4.2c1.1,5.2,3.2,12.3,7.1,20.2
		c1.9,3.7,9.4,18.2,25.8,31c11.2,8.8,33.6,26.3,53,20c24.2-7.9,35.6-50.5,25.3-82.5c-11-34.2-44.1-47.9-49.6-50.1
		c-6.1-12.2-15.9-28.9-31-46.3c-15.8-18.2-27.5-31.7-46.3-39.1c-38-15-76.9,5.8-89.2,12.4c-16.3,8.7-50.9,27.2-57.7,63.9
		c-5.7,30.3,10.5,57.3,12.9,61.1c4.8,7.8,10.1,13.6,14.1,17.4C874.3,274.9,871.4,258.4,868.5,242z"/>
	<path class="st2" d="M885.3,312.9c-0.2,9.1,0.2,21.9,2.5,37.1c3.9,25.7,6.4,40.8,18.8,50.8c14.7,11.8,34.3,8.9,40.7,7.9
		c15.1-2.3,41.9-12,44.7-32.3c1.4-10.6-4.3-19.7-7.5-24c-9.4,5.3-18.8,10.5-28.2,15.8c-7.3-0.4-16.6-1.8-26.5-6.1
		C899.8,349.2,888.1,320.4,885.3,312.9z"/>
	<g>
		<g>
			<path class="st3" d="M867.6,244.7c2.8,29.1,8.4,59.3,24.8,84.1c13.8,20.9,35.2,37.5,60.5,41c1.9,0.3,2.7-2.6,0.8-2.9
				c-25-3.5-46.1-20-59.5-40.9c-15.5-24.2-21-53.2-23.6-81.3C870.4,242.8,867.4,242.8,867.6,244.7L867.6,244.7z"/>
		</g>
	</g>
	<g>
		<g>
			<path class="st3" d="M955.4,369c37.1-11.5,61.6-47,59.1-85.7c-0.1-1.9-3.1-1.9-3,0c2.4,37.5-21.1,71.7-56.9,82.8
				C952.8,366.7,953.6,369.6,955.4,369L955.4,369z"/>
		</g>
	</g>
	<g>
		<g>
			<path class="st3" d="M999.1,245.1c2.5-6.3,9.6-9.2,16-7.4c6.1,1.7,10.6,7.3,12,13.2c3,11.8-2.6,25.4-13.6,30.8
				c-1.7,0.9-0.2,3.4,1.5,2.6c13.9-6.9,20.7-27,12.3-40.5c-7.2-11.7-25.4-13.7-31.2,0.4C995.4,246.1,998.3,246.9,999.1,245.1
				L999.1,245.1z"/>
		</g>
	</g>
	<g>
		<g>
			<path class="st3" d="M1012,281.8c6.3,18.4,15.3,35.7,26.9,51.3c1.1,1.5,3.7,0,2.6-1.5c-11.5-15.4-20.4-32.4-26.6-50.6
				C1014.3,279.2,1011.4,279.9,1012,281.8L1012,281.8z"/>
		</g>
	</g>
	<g>
		<g>
			<path class="st3" d="M983.4,353.5c7.5,8.9,15.3,17.3,23.6,25.4c0.5,0.5,1.2,0.6,1.8,0.2c16.4-10,28.5-25.7,33.9-44.2
				c0.5-1.9-2.4-2.7-2.9-0.8c-5.2,17.7-16.7,32.8-32.5,42.4c0.6,0.1,1.2,0.2,1.8,0.2c-8.3-8.1-16.1-16.6-23.6-25.4
				C984.3,349.9,982.2,352.1,983.4,353.5L983.4,353.5z"/>
		</g>
	</g>
	<g>
		<g>
			<path class="st3" d="M903.6,275.1c5.3,23.2,13.6,45.6,24.5,66.7c0.6,1.1,2.6,0.9,2.7-0.4c1.2-8.6,2.4-17.3,3.7-25.9
				c0.3-1.9-2.6-2.7-2.9-0.8c-1.2,8.6-2.4,17.3-3.7,25.9c0.9-0.1,1.8-0.2,2.7-0.4c-10.8-20.9-18.9-43.1-24.2-66
				C906.1,272.4,903.2,273.2,903.6,275.1L903.6,275.1z"/>
		</g>
	</g>
	<g>
		<g>
			<path class="st3" d="M937.6,346.2c10.9,3.6,18.7-5.9,21.9-15.1c0.6-1.8-2.3-2.6-2.9-0.8c-2.7,7.7-9,16-18.2,13
				C936.6,342.7,935.8,345.6,937.6,346.2L937.6,346.2z"/>
		</g>
	</g>
	<g>
		<g>
			<path class="st3" d="M877.5,264c0.7-8.7,12.4-9.6,14.8-1.4c0.5,1.9,3.4,1.1,2.9-0.8c-1.4-4.9-6-8.6-11.3-8.1
				c-5.3,0.6-9,5.2-9.4,10.2C874.4,265.9,877.4,265.9,877.5,264L877.5,264z"/>
		</g>
	</g>
	<g>
		<g>
			<path class="st3" d="M919.3,257.5c1.5-12.1,17.7-12.5,20.5-1c0.5,1.9,3.3,1.1,2.9-0.8c-3.6-15.1-24.6-13.4-26.4,1.8
				C916,259.4,919.1,259.4,919.3,257.5L919.3,257.5z"/>
		</g>
	</g>
	<ellipse transform="matrix(0.9482 -0.3177 0.3177 0.9482 -48.1236 299.834)" class="st3" cx="895.3" cy="297.5" rx="3.7" ry="9"/>
	<ellipse transform="matrix(0.9482 -0.3177 0.3177 0.9482 -43.1836 312.9423)" class="st3" cx="938" cy="288.9" rx="3.7" ry="9"/>
	<g>
		<g>
			<path class="st3" d="M955.2,307.9c1.9,0,1.9-3,0-3C953.3,304.9,953.3,307.9,955.2,307.9L955.2,307.9z"/>
		</g>
	</g>
	<g>
		<g>
			<path class="st3" d="M967.4,296.1c1.9,0,1.9-3,0-3C965.5,293.1,965.5,296.1,967.4,296.1L967.4,296.1z"/>
		</g>
	</g>
	<g>
		<g>
			<path class="st3" d="M966.2,312c1.9,0,1.9-3,0-3C964.2,309,964.2,312,966.2,312L966.2,312z"/>
		</g>
	</g>
</g>
</svg>
