<?xml version="1.0" encoding="utf-8"?>
<!-- Generator: Adobe Illustrator 19.0.0, SVG Export Plug-In . SVG Version: 6.00 Build 0)  -->
<svg version="1.1" xmlns="http://www.w3.org/2000/svg" xmlns:xlink="http://www.w3.org/1999/xlink" x="0px" y="0px"
	 viewBox="0 0 1600 1200" style="enable-background:new 0 0 1600 1200;" xml:space="preserve">
<style type="text/css">
	.st0{fill:#E8E8E8;}
	.st1{fill:#161616;}
	.st2{fill:none;stroke:#E8E8E8;stroke-width:2;stroke-miterlimit:10;}
	.st3{opacity:0.17;fill:#666666;}
	.st4{fill:#161616;stroke:#161616;stroke-width:2;stroke-miterlimit:10;}
	.st5{fill:#FFFFFF;stroke:#161616;stroke-width:2;stroke-miterlimit:10;}
	.st6{opacity:0.15;fill:#666666;}
	.st7{opacity:0.12;fill:#666666;}
	.st8{opacity:0.18;fill:#666666;}
	.st9{fill:#EC615B;}
	.st10{opacity:0.22;fill:#666666;}
	.st11{opacity:0.3;fill:#666666;}
	.st12{opacity:0.19;fill:#666666;}
	.st13{opacity:0.16;fill:#666666;}
	.st14{opacity:0.28;fill:#666666;}
	.st15{opacity:0.26;fill:#666666;}
	.st16{opacity:0.56;fill:#EC615B;}
	.st17{opacity:0.33;fill:#EC615B;}
	.st18{opacity:0.33;}
	.st19{fill:#666666;}
	.st20{fill:#5222D0;}
	.st21{opacity:9.000000e-002;fill:#666666;}
	.st22{opacity:0.23;fill:#666666;}
	.st23{fill:#161616;stroke:#161616;stroke-miterlimit:10;}
	.st24{opacity:0.21;fill:#666666;}
	.st25{opacity:0.4;fill:#666666;}
</style>
<g id="background">
	<g>
		<g>
			<path class="st0" d="M1202.3,944c5.2,25.1,10.4,50.1,15.5,75.2c0.4,1.9,3.3,1.1,2.9-0.8c-5.2-25.1-10.4-50.1-15.5-75.2
				C1204.8,941.3,1201.9,942.1,1202.3,944L1202.3,944z"/>
		</g>
	</g>
	<g>
		<g>
			<path class="st0" d="M1219,1021.3c24.7,13,54.2,13.8,79.6,2.2c1.8-0.8,0.2-3.4-1.5-2.6c-24.3,11.1-52.9,10.2-76.6-2.2
				C1218.8,1017.8,1217.3,1020.4,1219,1021.3L1219,1021.3z"/>
		</g>
	</g>
	<g>
		<g>
			<path class="st0" d="M1300.4,1021.8c7.6-26.1,14.4-52.4,20.5-79c0.4-1.9-2.5-2.7-2.9-0.8c-6.1,26.5-12.9,52.8-20.5,79
				C1297,1022.8,1299.9,1023.6,1300.4,1021.8L1300.4,1021.8z"/>
		</g>
	</g>
	<g>
		<g>
			<path class="st0" d="M1203.5,943.6c36.9,15,79,14.8,115.7-0.5c1.8-0.7,1-3.6-0.8-2.9c-36.3,15.2-77.7,15.4-114.1,0.5
				C1202.6,939.9,1201.8,942.8,1203.5,943.6L1203.5,943.6z"/>
		</g>
	</g>
	<g>
		<g>
			<path class="st0" d="M1194.7,929.5c-0.4,2.3-0.9,4.7-1.1,7.1c-0.1,1.2-0.2,2.3,0.7,3.2c1.1,1.1,3.2,1.6,4.6,2.1
				c2.3,0.8,4.6,1.3,6.9,1.6c1.9,0.3,2.7-2.6,0.8-2.9c-3-0.4-5.8-1.1-8.6-2.2c-1.9-0.8-1.5-1.3-1.2-3.2c0.3-1.6,0.5-3.2,0.8-4.9
				C1197.8,928.5,1195,927.6,1194.7,929.5L1194.7,929.5z"/>
		</g>
	</g>
	<g>
		<g>
			<path class="st0" d="M1195,930.8c18.8,10.2,42.1,9.7,62.9,10.4c22.4,0.8,45.1-0.3,66-8.9c-0.6-0.3-1.2-0.7-1.8-1
				c1,3,1.2,5.8,0.8,8.9c0.4-0.5,0.7-1,1.1-1.4c-2.3,0.8-4.6,1.6-7,2.3c-1.8,0.6-1,3.5,0.8,2.9c2.3-0.8,4.6-1.6,7-2.3
				c0.7-0.2,1-0.7,1.1-1.4c0.4-3.4,0.1-6.4-0.9-9.7c-0.2-0.7-1.1-1.4-1.8-1c-20.1,8.3-41.9,9.5-63.4,8.8c-20.7-0.6-44.5,0-63.2-10.1
				C1194.8,927.3,1193.3,929.9,1195,930.8L1195,930.8z"/>
		</g>
	</g>
	<g>
		<g>
			<path class="st0" d="M1215,1000.3c6.1,10.8,13.9,20.3,23.4,28.4c1.5,1.2,3.6-0.9,2.1-2.1c-9.2-7.9-16.9-17.2-22.9-27.7
				C1216.6,997.1,1214,998.6,1215,1000.3L1215,1000.3z"/>
		</g>
	</g>
	<g>
		<g>
			<path class="st0" d="M1209.2,973.8c6.7,11.2,14,21.9,22,32.1c4.1,5.2,8.3,10.2,12.6,15.2c2.6,2.9,6.3,9.1,10.3,9.6
				c0.5,0.1,1.1-0.3,1.3-0.7c0.4-0.7,0.5-1.2,0.2-2c-0.2-0.6-0.7-1.1-1.4-1.1c-0.1,0-0.2,0-0.3,0c-1.9,0-1.9,3,0,3
				c0.1,0,0.2,0,0.3,0c-0.5-0.4-1-0.7-1.4-1.1c1.3-0.6,1.5-1.3,0.5-1.9c-0.4-0.4-0.8-0.9-1.2-1.3c-1-1.1-2-2.2-3.1-3.3
				c-2-2.2-4-4.4-6-6.7c-4-4.7-7.9-9.4-11.6-14.3c-7.1-9.3-13.6-19-19.6-29C1210.8,970.6,1208.2,972.1,1209.2,973.8L1209.2,973.8z"
				/>
		</g>
	</g>
	<g>
		<g>
			<path class="st0" d="M1205.2,951.2c18.4,27.9,39.7,53.7,63.8,76.8c1.4,1.3,3.5-0.8,2.1-2.1c-23.9-23-45.1-48.6-63.3-76.2
				C1206.7,948.1,1204.1,949.6,1205.2,951.2L1205.2,951.2z"/>
		</g>
	</g>
	<g>
		<g>
			<path class="st0" d="M1228.5,951.8c16.9,26.8,36.4,51.8,58.3,74.7c1.3,1.4,3.5-0.7,2.1-2.1c-21.7-22.7-41.1-47.5-57.8-74.1
				C1230.1,948.7,1227.5,950.2,1228.5,951.8L1228.5,951.8z"/>
		</g>
	</g>
	<g>
		<g>
			<path class="st0" d="M1256.1,954.1c13.5,18,27.6,35.5,42.5,52.3c1.3,1.5,3.4-0.7,2.1-2.1c-14.7-16.7-28.7-33.9-42-51.7
				C1257.6,951.1,1255,952.6,1256.1,954.1L1256.1,954.1z"/>
		</g>
	</g>
	<g>
		<g>
			<path class="st0" d="M1279.7,953c7.7,11.7,16.5,22.6,26.2,32.7c1.3,1.4,3.5-0.7,2.1-2.1c-9.6-9.9-18.1-20.6-25.7-32.1
				C1281.2,949.9,1278.6,951.4,1279.7,953L1279.7,953z"/>
		</g>
	</g>
	<g>
		<g>
			<path class="st0" d="M1299.3,949.7c4,5.7,8.4,11.2,13.1,16.3c1.3,1.4,3.4-0.7,2.1-2.1c-4.6-4.9-8.8-10.2-12.6-15.7
				C1300.8,946.6,1298.2,948.1,1299.3,949.7L1299.3,949.7z"/>
		</g>
	</g>
	<g>
		<g>
			<path class="st0" d="M1235.9,934.5c-17.1-10.5-32.2-23.7-44.8-39.2c0,0.7,0,1.4,0,2.1c1.8-2,3.8-3.5,6.2-4.8
				c0.8-0.4,1-1.8,0.3-2.4c-8.4-6.7-11.3-17.1-13.9-27.1c-0.3,0.6-0.7,1.2-1,1.8c4.5-1.7,4-6.1,2-9.8c-4.1-7.7-4.1-16.8-5.1-25.4
				c-1.9-17.4-3.5-34.8-4.8-52.3c-0.8,0.4-1.5,0.9-2.3,1.3c13.3,7.8,23.9,19,33.3,31.1c9.8,12.5,18.3,26,25.5,40.2
				c14.3,28.1,23.1,58.8,25.9,90.2c0.2,1.9,3.2,1.9,3,0c-2.9-31.9-11.8-63.1-26.3-91.7c-7.2-14.1-15.7-27.6-25.4-40.1
				c-9.7-12.5-20.7-24.1-34.4-32.2c-0.9-0.5-2.3,0.1-2.3,1.3c1.1,14.5,2.4,29.1,3.9,43.6c0.7,7.1,1.5,14.2,2.3,21.3
				c0.3,2.7,0.5,5.6,1.2,8.2c0.6,2.2,5.6,10.3,2.6,11.4c-0.8,0.3-1.3,1-1,1.8c2.7,10.5,5.8,21.5,14.6,28.5c0.1-0.8,0.2-1.6,0.3-2.4
				c-2.7,1.4-4.8,3-6.9,5.3c-0.6,0.6-0.5,1.5,0,2.1c12.8,15.8,28.1,29.1,45.4,39.7C1236.1,938.1,1237.6,935.5,1235.9,934.5
				L1235.9,934.5z"/>
		</g>
	</g>
	<g>
		<g>
			<path class="st0" d="M1196.8,930.7c7.5-1.1,15-1.8,22.5-2.2c1.9-0.1,1.9-3.1,0-3c-7.8,0.4-15.6,1.2-23.3,2.3
				C1194.1,928.1,1194.9,931,1196.8,930.7L1196.8,930.7z"/>
		</g>
	</g>
	<g>
		<g>
			<path class="st0" d="M1252.9,894.5c0.4-32.8,14.9-62.9,29.1-91.8c-0.7,0.2-1.4,0.4-2.1,0.5c1.9,1.1,3.8,2.3,5.7,3.4
				c1,0.6,2.3-0.2,2.3-1.3c0-11.2,11.8-19.8,19-27.2c8.1-8.3,16.3-16.7,24.4-25c-0.9-0.4-1.7-0.7-2.6-1.1
				c1.9,17.1,3.7,34.2,4.4,51.4c0.3,8.4,0.4,16.8,0,25.2c-0.3,6.7,1,24.3-9,24.3c-1.4,0-1.8,1.6-1.1,2.6c6.4,8,0.6,17.6-4.6,24.3
				c-4.4,5.8-8.9,11.4-13.1,17.4c-9.1,12.9-17.2,26.4-24.4,40.4c-0.9,1.7,1.7,3.2,2.6,1.5c8.6-16.7,18.5-32.7,29.7-47.7
				c7.7-10.2,22.6-24.8,11.9-38c-0.4,0.9-0.7,1.7-1.1,2.6c6.4,0,9.7-5.5,10.7-11.3c1.7-9.6,1.6-19.8,1.6-29.6
				c-0.1-21.1-2.4-42.1-4.7-63c-0.1-1.2-1.6-2.1-2.6-1.1c-9.5,9.8-19.1,19.5-28.6,29.3c-6.8,7-15.6,14.4-15.7,25
				c0.8-0.4,1.5-0.9,2.3-1.3c-1.9-1.1-3.8-2.3-5.7-3.4c-0.7-0.4-1.7-0.2-2.1,0.5c-14.5,29.4-29.1,59.9-29.5,93.3
				C1249.9,896.4,1252.9,896.4,1252.9,894.5L1252.9,894.5z"/>
		</g>
	</g>
	<g>
		<g>
			<path class="st0" d="M1320.3,780c-27,46.5-45.6,97.6-54.9,150.6c-0.3,1.9,2.6,2.7,2.9,0.8c9.2-52.7,27.7-103.5,54.6-149.8
				C1323.9,779.8,1321.3,778.3,1320.3,780L1320.3,780z"/>
		</g>
	</g>
	<g>
		<g>
			<path class="st0" d="M1190.7,816.4c22.4,38.2,41.2,78.5,56.1,120.2c0.6,1.8,3.5,1,2.9-0.8c-15-42-33.9-82.5-56.4-120.9
				C1192.3,813.3,1189.7,814.8,1190.7,816.4L1190.7,816.4z"/>
		</g>
	</g>
	<g>
		<g>
			<path class="st0" d="M1183.2,849.3c10.9,2.6,22.1,5.4,30.2,13.5c1.4,1.4,3.5-0.8,2.1-2.1c-8.5-8.5-20.1-11.6-31.5-14.3
				C1182.1,846,1181.3,848.9,1183.2,849.3L1183.2,849.3z"/>
		</g>
	</g>
	<g>
		<g>
			<path class="st0" d="M1204.9,836.7c0.6-8.3,2.7-16.3,6.2-23.9c0.8-1.7-1.8-3.3-2.6-1.5c-3.7,8.1-6,16.5-6.6,25.4
				C1201.8,838.6,1204.8,838.6,1204.9,836.7L1204.9,836.7z"/>
		</g>
	</g>
	<g>
		<g>
			<path class="st0" d="M1277.1,807.7c7.5,10.9,9.2,23.8,9.6,36.7c0.1,1.9,3.1,1.9,3,0c-0.5-13.4-2.3-26.9-10.1-38.2
				C1278.6,804.6,1276,806.1,1277.1,807.7L1277.1,807.7z"/>
		</g>
	</g>
	<g>
		<g>
			<path class="st0" d="M1302.9,822.1c4.5-5.1,9.1-10.2,14.7-14.1c4.5-3.1,9.6-5,13.7-8.8c1.4-1.3-0.7-3.4-2.1-2.1
				c-4.4,4.2-10.4,6.2-15.2,9.9c-4.9,3.8-9,8.4-13.1,13C1299.5,821.4,1301.6,823.5,1302.9,822.1L1302.9,822.1z"/>
		</g>
	</g>
	<g>
		<g>
			<path class="st0" d="M1288.6,927.1c10.7-0.6,21.1,1.3,30.8,5.8c1.7,0.8,3.3-1.8,1.5-2.6c-10.2-4.7-21.1-6.8-32.4-6.2
				C1286.6,924.2,1286.6,927.2,1288.6,927.1L1288.6,927.1z"/>
		</g>
	</g>
	<g>
		<g>
			<path class="st0" d="M1286,937.7c1.7-3.2,3.3-6.4,5-9.7c-0.9-0.4-1.8-0.8-2.7-1.2c-1,2.9-2,5.7-3,8.6c-0.6,1.7,1.8,2.5,2.7,1.2
				c2-2.9,4.1-5.7,6.1-8.6c-0.9-0.4-1.8-0.8-2.7-1.2c-1,3-2,6-3,9c-0.6,1.6,1.9,2.6,2.7,1.2c1.7-2.8,3.3-5.5,5-8.3
				c-0.9-0.3-1.9-0.5-2.8-0.8c0.1,2.4-0.2,4.5-0.8,6.8c-0.5,1.7,1.8,2.5,2.7,1.2c1.3-1.8,2.6-3.6,4-5.4c-0.9-0.4-1.8-0.8-2.7-1.2
				c-0.7,2.3-1.3,4.6-2,6.9c-0.3,1.2,0.8,2.1,1.8,1.8c1.7-0.4,2.7-0.9,3.7-2.3c0.7-0.9,0.4-2.6-1.1-2.6c-3.9,0.2-7.6,0.8-11.3,2.2
				c-1.5,0.5-1.4,3,0.4,2.9c6.6-0.2,12.8-1.9,19.1-3.7c1.9-0.6,1.1-3.2-0.8-2.9c-4.5,0.6-8.9,0.7-13.4,0.2c0.1,1,0.3,2,0.4,2.9
				c2.3-0.8,12.1-4,14-1.3c0.3-0.7,0.6-1.5,0.9-2.2c-4.9,0.9-9.3-0.2-13.4-3.1c-0.3,0.9-0.5,1.9-0.8,2.8c1-0.1,10.3-0.9,9.7,1.3
				c0.6-0.3,1.2-0.7,1.8-1c-3.8-0.7-7.3-1.8-10.9-3.1c-0.1,1-0.3,2-0.4,2.9c2.8,0.2,5,0.8,7.6,1.9c0.1-0.9,0.2-1.8,0.4-2.7
				c-2.6,0.4-4.7,0-7.1-0.9c-0.3,1-0.5,1.9-0.8,2.9c4.2,1.2,8.2,1.5,12.5,1.1c1.6-0.2,2.2-2.5,0.4-2.9c-1.2-0.2-2.4-0.6-3.5-1.2
				c-0.4,0.9-0.8,1.8-1.2,2.7c2.3,0.7,4.4,1.1,6.8,1c1.9,0,1.9-3,0-3c-3.4,0-6.2-0.7-9.2-2.3c-0.1,0.9-0.2,1.8-0.4,2.7
				c4.7-0.9,8.8,0.1,12.7,2.8c0.3-0.9,0.5-1.9,0.8-2.8c-6.7-0.4-13.4-1-20-1.9c0,1,0,1.9,0,2.9c6.9-1.5,13.5-1.3,20.3,0.5
				c0.1-1,0.3-2,0.4-2.9c-8.2,0.7-16.2,0-24.2-2c0,1,0,1.9,0,2.9c6.9-2.7,14.1-2.7,20.4,1.4c0.3-0.9,0.5-1.9,0.8-2.8
				c-4.7,0.3-9.1-0.1-13.7-1.1c-0.1,1-0.3,2-0.4,2.9c3.7,0.4,7.5,0.8,11.2,1.1c1.9,0.2,1.9-2.8,0-3c-3.7-0.4-7.5-0.8-11.2-1.1
				c-1.7-0.2-2,2.6-0.4,2.9c4.8,1.1,9.6,1.6,14.5,1.3c1.5-0.1,2-2,0.8-2.8c-6.9-4.5-15.2-4.7-22.7-1.7c-1.3,0.5-1.6,2.5,0,2.9
				c8.2,2.1,16.5,2.8,25,2.1c1.6-0.1,2.1-2.5,0.4-2.9c-7.3-1.9-14.5-2.1-21.9-0.5c-1.4,0.3-1.5,2.7,0,2.9c6.9,1,13.8,1.7,20.8,2
				c1.6,0.1,1.9-2,0.8-2.8c-4.6-3.2-9.6-4.1-15-3.1c-1.3,0.2-1.5,2.2-0.4,2.7c3.4,1.8,6.8,2.7,10.7,2.7c0-1,0-2,0-3
				c-2.1,0-4-0.3-6-0.9c-1.6-0.5-2.7,2-1.2,2.7c1.4,0.7,2.7,1.1,4.2,1.5c0.1-1,0.3-2,0.4-2.9c-4,0.4-7.8,0.1-11.7-1
				c-1.9-0.5-2.6,2.2-0.8,2.9c3,1.1,5.5,1.3,8.7,0.9c1.2-0.2,1.5-2.2,0.4-2.7c-3-1.3-5.8-2.1-9.1-2.3c-1.8-0.2-1.9,2.4-0.4,2.9
				c3.6,1.4,7.2,2.4,10.9,3.1c0.8,0.2,1.6-0.2,1.8-1c1.7-6.7-9-5.4-12.6-5.1c-1.5,0.1-2,1.9-0.8,2.8c4.8,3.3,10,4.4,15.7,3.4
				c0.9-0.2,1.4-1.5,0.9-2.2c-3.3-4.7-13-1.5-17.3-0.1c-1.7,0.6-1.3,2.8,0.4,2.9c4.8,0.5,9.4,0.4,14.2-0.3c-0.3-1-0.5-1.9-0.8-2.9
				c-6,1.8-12,3.4-18.3,3.6c0.1,1,0.3,2,0.4,2.9c3.5-1.2,6.8-1.9,10.5-2.1c-0.4-0.9-0.7-1.7-1.1-2.6c-0.8,0.5-1.6,1-2.4,1.5
				c0.6,0.6,1.2,1.2,1.8,1.8c0.7-2.3,1.3-4.6,2-6.9c0.5-1.7-1.8-2.5-2.7-1.2c-1.3,1.8-2.6,3.6-4,5.4c0.9,0.4,1.8,0.8,2.7,1.2
				c0.7-2.6,1-4.9,0.9-7.6c0-1.5-2-2.1-2.8-0.8c-1.7,2.8-3.3,5.5-5,8.3c0.9,0.4,1.8,0.8,2.7,1.2c1-3,2-6,3-9
				c0.6-1.7-1.8-2.5-2.7-1.2c-2,2.9-4.1,5.7-6.1,8.6c0.9,0.4,1.8,0.8,2.7,1.2c1-2.9,2-5.7,3-8.6c0.6-1.6-2-2.7-2.7-1.2
				c-1.7,3.2-3.3,6.4-5,9.7C1282.5,937.9,1285.1,939.4,1286,937.7L1286,937.7z"/>
		</g>
	</g>
	<g>
		<g>
			<path class="st0" d="M1206.4,930.8c-1.5-1.1-2.7-1.4-4.4-1.6c-1.9-0.2-1.9,2.7,0,3c7.6,1,15.1,2,22.7,3c0-1,0-2,0-3
				c-6.3-0.6-12.6-1.1-18.9-1.7c0,1,0,2,0,3c6.4,0,12.6,1,18.7,2.9c0.1-1,0.3-2,0.4-2.9c-5.9,0.1-11.3-1.3-16.4-4.3
				c-0.1,0.9-0.2,1.8-0.4,2.7c6.6-1.2,12.8,0.1,18.3,3.9c0.3-0.9,0.5-1.9,0.8-2.8c-6.4,0.3-12.2-1.4-17.3-5.3
				c-0.3,0.9-0.5,1.9-0.8,2.8c6,0.5,11.6,1.9,17,4.5c0.4-0.9,0.8-1.8,1.2-2.7c-0.9-0.3-1.9-0.7-2.8-1c0,1,0,1.9,0,2.9
				c0.4-0.1,0.7-0.1,1.1-0.2c1.5,0.2,2.4-1.3,1.5-2.5c-2.5-3.2-6.8-2.3-9.7-4.8c-0.5,0.8-1,1.7-1.5,2.5c5.9,0.9,10.7,3.6,14.5,8.3
				c0.4-0.9,0.7-1.7,1.1-2.6c-2.2-0.2-3.9-0.6-6-1.3c-1.7-0.5-2.6,1.9-1.2,2.7c2.3,1.4,4.4,2.3,7.1,2.7c1.9,0.3,2.7-2.3,0.8-2.9
				c-2.1-0.6-4-1.5-5.9-2.6c-0.5,0.9-1,1.7-1.5,2.6c2.4,1.1,4.7,1.8,7.3,2.2c1.9,0.3,2.7-2.6,0.8-2.9c-2.4-0.3-4.3-0.8-6.6-1.9
				c-1.7-0.8-3.2,1.6-1.5,2.6c2.1,1.2,4.2,2.1,6.6,2.9c0.3-1,0.5-1.9,0.8-2.9c-2.3-0.4-4.3-1.1-6.4-2.4c-0.4,0.9-0.8,1.8-1.2,2.7
				c2.3,0.7,4.4,1.2,6.8,1.4c1.4,0.1,1.8-1.7,1.1-2.6c-4.1-5-9.4-8.1-15.8-9c-1.3-0.2-2.7,1.4-1.5,2.5c2.8,2.4,7.5,1.9,9.7,4.8
				c0.5-0.8,1-1.7,1.5-2.5c-1.2-0.2-1.5-0.2-2.7,0.2c-1.4,0.5-1.4,2.4,0,2.9c0.9,0.3,1.9,0.7,2.8,1c1.6,0.6,2.7-2,1.2-2.7
				c-5.9-2.8-12-4.4-18.5-4.9c-1.6-0.1-1.8,2-0.8,2.8c5.6,4.1,11.9,6,18.9,5.7c1.5-0.1,2-2,0.8-2.8c-6.2-4.2-13.3-5.5-20.7-4.2
				c-1.3,0.2-1.4,2.1-0.4,2.7c5.5,3.3,11.5,4.8,17.9,4.8c1.7,0,2-2.4,0.4-2.9c-6.4-2-12.8-3-19.5-3c-2,0-1.9,2.8,0,3
				c6.3,0.6,12.6,1.1,18.9,1.7c2,0.2,1.9-2.8,0-3c-7.6-1-15.1-2-22.7-3c0,1,0,2,0,3c1,0.4,1.9,0.8,2.9,1.2
				C1206.4,934.5,1207.9,931.9,1206.4,930.8L1206.4,930.8z"/>
		</g>
	</g>
	<g>
		<g>
			<path class="st0" d="M1082.6,529.6c0,8.3,0,16.6,0,24.9c0,1.9,3,1.9,3,0c0-8.3,0-16.6,0-24.9
				C1085.6,527.7,1082.6,527.7,1082.6,529.6L1082.6,529.6z"/>
		</g>
	</g>
	<g>
		<g>
			<path class="st0" d="M1085.4,558.6c80.8,0,161.6,0,242.4,0c1.9,0,1.9-3,0-3c-80.8,0-161.6,0-242.4,0
				C1083.4,555.6,1083.4,558.6,1085.4,558.6L1085.4,558.6z"/>
		</g>
	</g>
	<g>
		<g>
			<path class="st0" d="M1084.7,530.4c81,0,162,0,243.1,0c1.9,0,1.9-3,0-3c-81,0-162,0-243.1,0
				C1082.8,527.4,1082.8,530.4,1084.7,530.4L1084.7,530.4z"/>
		</g>
	</g>
	<g>
		<g>
			<path class="st0" d="M1326.9,530.9c0,8.1,0,16.2,0,24.2c0,1.9,3,1.9,3,0c0-8.1,0-16.2,0-24.2C1329.9,529,1326.9,529,1326.9,530.9
				L1326.9,530.9z"/>
		</g>
	</g>
	<g>
		<g>
			<path class="st0" d="M1107.4,559c3.1,6.9,6.1,13.8,9.2,20.7c2.4,5.3,4.7,4.7,10.4,5c5.3,0.2,7.4,0.9,8.9-4.3
				c2.2-7.6,4.3-15.2,6.4-22.8c0.5-1.9-2.4-2.7-2.9-0.8c-1.4,5.1-2.8,10.1-4.3,15.2c-0.6,2.2-0.9,5.6-2.1,7.6c0.1,2-1,2.8-3.1,2.2
				c-1.3-0.1-2.6-0.1-4-0.2c-3.6-0.2-4.8-0.2-6.8-3.5c-1.3-2.1-2.1-4.7-3.1-6.9c-2-4.6-4.1-9.2-6.1-13.8
				C1109.2,555.8,1106.6,557.3,1107.4,559L1107.4,559z"/>
		</g>
	</g>
	<g>
		<g>
			<path class="st0" d="M1252.9,559.4c2.2,3.5,3.8,7.2,4.7,11.2c0.7,3.2,0.7,6.5,2.9,9.1c4.1,4.8,10.9,3.8,16.3,2.7
				c0.5-0.1,0.9-0.6,1-1c2-7.7,4-15.4,6-23.1c0.5-1.9-2.4-2.7-2.9-0.8c-1.3,5.1-2.7,10.3-4,15.4c-0.3,1.3-0.7,4.6-1.5,5.8
				c-1.6,2.3-6.1,2.1-8.5,1.5c-6.1-1.5-5.5-7.1-6.8-11.8c-1-3.7-2.6-7.1-4.6-10.4C1254.4,556.2,1251.8,557.7,1252.9,559.4
				L1252.9,559.4z"/>
		</g>
	</g>
	<g>
		<g>
			<path class="st0" d="M1101.2,527.6c0-38.6,0-77.3,0-115.9c0-1.9-3-1.9-3,0c0,38.6,0,77.3,0,115.9
				C1098.2,529.5,1101.2,529.5,1101.2,527.6L1101.2,527.6z"/>
		</g>
	</g>
	<g>
		<g>
			<path class="st0" d="M1100.5,412.2c5.9-2.4,11.9-2.4,17.8-0.2c1.8,0.7,2.6-2.2,0.8-2.9c-6.3-2.4-13.1-2.4-19.4,0.2
				C1098,410,1098.7,412.9,1100.5,412.2L1100.5,412.2z"/>
		</g>
	</g>
	<g>
		<g>
			<path class="st0" d="M1118,412.6c0,37.9,0,75.7,0,113.6c0,1.9,3,1.9,3,0c0-37.9,0-75.7,0-113.6C1121,410.7,1118,410.7,1118,412.6
				L1118,412.6z"/>
		</g>
	</g>
	<g>
		<g>
			<path class="st0" d="M1120.9,424.2c9-5.9,20.3-6.1,29.5-0.4c1.7,1,3.2-1.6,1.5-2.6c-10.1-6.2-22.7-6-32.5,0.4
				C1117.7,422.7,1119.2,425.3,1120.9,424.2L1120.9,424.2z"/>
		</g>
	</g>
	<g>
		<g>
			<path class="st0" d="M1149.4,423.2c0,33.9,0,67.7,0,101.6c0,1.9,3,1.9,3,0c0-33.9,0-67.7,0-101.6
				C1152.4,421.3,1149.4,421.3,1149.4,423.2L1149.4,423.2z"/>
		</g>
	</g>
	<g>
		<g>
			<path class="st0" d="M1103.1,423.7c0.3,2.8,0.6,5.5,0.9,8.3c0.2,1.9,3.2,1.9,3,0c-0.3-2.8-0.6-5.5-0.9-8.3
				C1105.9,421.8,1102.9,421.8,1103.1,423.7L1103.1,423.7z"/>
		</g>
	</g>
	<g>
		<g>
			<path class="st0" d="M1106.2,432.6c2,0,4,0,6,0c1.9,0,1.9-3,0-3c-2,0-4,0-6,0C1104.2,429.6,1104.2,432.6,1106.2,432.6
				L1106.2,432.6z"/>
		</g>
	</g>
	<g>
		<g>
			<path class="st0" d="M1104.4,425.2c1.3,0.1,2.6,0.2,3.9,0.3c0.8,0.1,2.7-0.2,3,0.7c0.1,0.5-0.5,1.6-0.5,2.2c0,0.8,0.3,1.4,0.9,2
				c1.4,1.3,3.6-0.8,2.1-2.1c0,0,0.5-2.2,0.5-2.6c-0.1-1-0.6-1.8-1.5-2.4c-1-0.6-2.1-0.6-3.2-0.7c-1.7-0.1-3.4-0.2-5.1-0.3
				C1102.4,422.1,1102.4,425.1,1104.4,425.2L1104.4,425.2z"/>
		</g>
	</g>
	<g>
		<g>
			<path class="st0" d="M1125.5,430.2c-0.2,5.2-0.1,10.5,0.2,15.7c0.1,1.9,3.1,1.9,3,0c-0.4-5.2-0.5-10.5-0.2-15.7
				C1128.6,428.2,1125.6,428.2,1125.5,430.2L1125.5,430.2z"/>
		</g>
	</g>
	<g>
		<g>
			<path class="st0" d="M1126.5,430.9c6.3,0.3,12.6,0.6,18.9,0.9c-0.5-0.5-1-1-1.5-1.5c0,4.6,0,9.2,0,13.8c0,1.9,3,1.9,3,0
				c0-4.6,0-9.2,0-13.8c0-0.8-0.7-1.5-1.5-1.5c-6.3-0.3-12.6-0.6-18.9-0.9C1124.5,427.8,1124.5,430.8,1126.5,430.9L1126.5,430.9z"/>
		</g>
	</g>
	<g>
		<g>
			<path class="st0" d="M1126.9,448.9c5.2-0.2,10.5-0.4,15.7-0.6c1.9-0.1,1.9-3.1,0-3c-5.2,0.2-10.5,0.4-15.7,0.6
				C1125,445.9,1125,448.9,1126.9,448.9L1126.9,448.9z"/>
		</g>
	</g>
	<g>
		<g>
			<path class="st0" d="M1167.7,527.6c0-4.9,0-9.8,0-14.8c0-1.9-3-1.9-3,0c0,4.9,0,9.8,0,14.8
				C1164.7,529.5,1167.7,529.5,1167.7,527.6L1167.7,527.6z"/>
		</g>
	</g>
	<g>
		<g>
			<path class="st0" d="M1165.7,512.9c30.2,0,60.3,0,90.5,0c1.9,0,1.9-3,0-3c-30.2,0-60.3,0-90.5,0
				C1163.8,509.9,1163.8,512.9,1165.7,512.9L1165.7,512.9z"/>
		</g>
	</g>
	<g>
		<g>
			<path class="st0" d="M1254.7,512.3c0,5.4,0,10.8,0,16.2c0,1.9,3,1.9,3,0c0-5.4,0-10.8,0-16.2
				C1257.7,510.4,1254.7,510.4,1254.7,512.3L1254.7,512.3z"/>
		</g>
	</g>
	<g>
		<g>
			<path class="st0" d="M1191.2,510.5c0-3.7,0-7.4,0-11.1c0-1.9-3-1.9-3,0c0,3.7,0,7.4,0,11.1
				C1188.2,512.4,1191.2,512.4,1191.2,510.5L1191.2,510.5z"/>
		</g>
	</g>
	<g>
		<g>
			<path class="st0" d="M1190.2,500.5c28.9,0,57.9,0,86.8,0c1.9,0,1.9-3,0-3c-28.9,0-57.9,0-86.8,0
				C1188.2,497.5,1188.2,500.5,1190.2,500.5L1190.2,500.5z"/>
		</g>
	</g>
	<g>
		<g>
			<path class="st0" d="M1256.7,514.3c6,0,12,0,18,0c1.9,0,1.9-3,0-3c-6,0-12,0-18,0C1254.7,511.3,1254.7,514.3,1256.7,514.3
				L1256.7,514.3z"/>
		</g>
	</g>
	<g>
		<g>
			<path class="st0" d="M1276.5,498.6c-0.7,4.7-1.1,9.5-1.1,14.2c0,1.9,3,1.9,3,0c0-4.5,0.3-9,1-13.4
				C1279.7,497.5,1276.8,496.7,1276.5,498.6L1276.5,498.6z"/>
		</g>
	</g>
	<g>
		<g>
			<path class="st0" d="M1211.2,444.4c0.6,18.3,3.1,36.4,7.5,54.2c0.5,1.9,3.4,1.1,2.9-0.8c-4.3-17.5-6.8-35.4-7.4-53.4
				C1214.1,442.4,1211.1,442.4,1211.2,444.4L1211.2,444.4z"/>
		</g>
	</g>
	<g>
		<g>
			<path class="st0" d="M1213.4,445.5c6.3-2.5,12.8-3.1,19.5-3.7c6.9-0.7,12.3,0.6,18.8,2.8c1.8,0.6,2.6-2.3,0.8-2.9
				c-6.9-2.3-12.2-3.6-19.6-2.9c-7,0.7-13.7,1.2-20.3,3.8C1210.8,443.3,1211.6,446.2,1213.4,445.5L1213.4,445.5z"/>
		</g>
	</g>
	<g>
		<g>
			<path class="st0" d="M1250.7,444c0.7,17.9-1.8,35.6-7.3,52.6c-0.6,1.8,2.3,2.6,2.9,0.8c5.6-17.3,8.1-35.3,7.4-53.4
				C1253.6,442.1,1250.6,442.1,1250.7,444L1250.7,444z"/>
		</g>
	</g>
	<g>
		<g>
			<path class="st0" d="M1219.7,441c-1.2-2.7-2.1-5.6-2.7-8.5c-0.3-1.6-0.6-3.2-0.7-4.9c-0.1-2.1-0.5-2.6,1.6-3.1
				c1.6-0.4,1.4-0.6,2.2,0.5c0.7,0.9,0.7,3.1,0.9,4.2c0.7,3.4,1.1,6.9,1.4,10.4c0.2,1.9,3.2,1.9,3,0c-0.4-5.2-0.8-11.2-2.6-16.1
				c-1.2-3.1-3.5-2.5-6.3-1.8c-4,1-3.6,3.4-3.2,7.2c0.5,4.7,1.8,9.2,3.7,13.6C1217.9,444.3,1220.5,442.8,1219.7,441L1219.7,441z"/>
		</g>
	</g>
	<g>
		<g>
			<path class="st0" d="M1238.7,439c1.4-6.1,2.9-12.2,4.7-18.2c0.9-3,1.8-6,2.8-9c1.1-3.5,2.7-5.7,6.4-4.2c3.1,1.3,4.5,0.5,3.4,4.4
				c-0.8,2.8-2.2,5.6-3.2,8.4c-2.5,6.5-5,13-7.5,19.5c-0.7,1.8,2.2,2.6,2.9,0.8c3.6-9.3,7.2-18.6,10.8-27.9c0.6-1.6,2.4-4.3,1.1-6
				c-0.5-0.7-1.1-0.6-1.8-0.9c-2.1-0.8-4.5-1.3-6.7-2.1c-5.7-2-6.8,2.5-8.3,7.2c-2.9,9-5.4,18-7.5,27.2
				C1235.4,440.1,1238.3,440.9,1238.7,439L1238.7,439z"/>
		</g>
	</g>
	<g>
		<g>
			<path class="st0" d="M1243.2,436.7c1.2,0.2,2.4,0.3,3.6,0.5c0.8,0.1,1.5-0.8,1.5-1.5c0-0.9-0.7-1.4-1.5-1.5
				c-1.2-0.2-2.4-0.3-3.6-0.5c-0.8-0.1-1.5,0.8-1.5,1.5C1241.7,436.1,1242.4,436.6,1243.2,436.7L1243.2,436.7z"/>
		</g>
	</g>
	<g>
		<g>
			<path class="st0" d="M1245.3,427.9c1.2,0.3,2.4,0.7,3.7,1c1.9,0.5,2.7-2.4,0.8-2.9c-1.2-0.3-2.4-0.7-3.7-1
				C1244.3,424.5,1243.5,427.4,1245.3,427.9L1245.3,427.9z"/>
		</g>
	</g>
	<g>
		<g>
			<path class="st0" d="M1248.6,419.8c1.3,0.4,2.7,0.8,4,1.2c1.8,0.6,2.6-2.3,0.8-2.9c-1.3-0.4-2.7-0.8-4-1.2
				C1247.6,416.3,1246.8,419.2,1248.6,419.8L1248.6,419.8z"/>
		</g>
	</g>
	<g>
		<g>
			<path class="st0" d="M1250.9,411.8c1.1,0.5,2.1,0.9,3.2,1.4c0.7,0.3,1.6,0.2,2.1-0.5c0.4-0.6,0.2-1.7-0.5-2.1
				c-1.1-0.5-2.1-0.9-3.2-1.4c-0.7-0.3-1.6-0.2-2.1,0.5C1250,410.4,1250.1,411.5,1250.9,411.8L1250.9,411.8z"/>
		</g>
	</g>
	<g>
		<g>
			<path class="st0" d="M1166.8,112.4c0,78.5,0,156.9,0,235.4c0,1.9,3,1.9,3,0c0-78.5,0-156.9,0-235.4
				C1169.8,110.4,1166.8,110.4,1166.8,112.4L1166.8,112.4z"/>
		</g>
	</g>
	<g>
		<g>
			<path class="st0" d="M1167.6,347.7c0,0.7,0,1.4,0,2.2c0,1.9,3,1.9,3,0c0-7,0-14,0-21c0-1.9-3-1.9-3,0c0,7,0,14,0,21c1,0,2,0,3,0
				c0-0.7,0-1.4,0-2.2C1170.6,345.8,1167.6,345.8,1167.6,347.7L1167.6,347.7z"/>
		</g>
	</g>
	<g>
		<g>
			<path class="st0" d="M1169.1,350.8c61.5,0,122.9,0,184.4,0c1.9,0,1.9-3,0-3c-61.5,0-122.9,0-184.4,0
				C1167.2,347.8,1167.2,350.8,1169.1,350.8L1169.1,350.8z"/>
		</g>
	</g>
	<g>
		<g>
			<path class="st0" d="M1354.2,350.1c0-78.7,0-157.4,0-236.2c0-1.9-3-1.9-3,0c0,78.7,0,157.4,0,236.2
				C1351.2,352,1354.2,352,1354.2,350.1L1354.2,350.1z"/>
		</g>
	</g>
	<g>
		<g>
			<path class="st0" d="M1168.3,113.9c61.5,0,122.9,0,184.4,0c1.9,0,1.9-3,0-3c-61.5,0-122.9,0-184.4,0
				C1166.4,110.9,1166.4,113.9,1168.3,113.9L1168.3,113.9z"/>
		</g>
	</g>
	<g>
		<g>
			<path class="st0" d="M1176,119.8c0,72.8,0,145.6,0,218.4c0,1.9,3,1.9,3,0c0-72.8,0-145.6,0-218.4
				C1179,117.9,1176,117.9,1176,119.8L1176,119.8z"/>
		</g>
	</g>
	<g>
		<g>
			<path class="st0" d="M1176.7,338.3c0,0.7,0,1.3,0,2c0,1.9,3,1.9,3,0c0-6.5,0-13,0-19.5c0-1.9-3-1.9-3,0c0,6.5,0,13,0,19.5
				c1,0,2,0,3,0c0-0.7,0-1.3,0-2C1179.7,336.3,1176.7,336.3,1176.7,338.3L1176.7,338.3z"/>
		</g>
	</g>
	<g>
		<g>
			<path class="st0" d="M1178.2,341.2c54.8,0,109.6,0,164.4,0c1.9,0,1.9-3,0-3c-54.8,0-109.6,0-164.4,0
				C1176.3,338.2,1176.3,341.2,1178.2,341.2L1178.2,341.2z"/>
		</g>
	</g>
	<g>
		<g>
			<path class="st0" d="M1343.4,340.4c0-73,0-146.1,0-219.1c0-1.9-3-1.9-3,0c0,73,0,146.1,0,219.1
				C1340.4,342.4,1343.4,342.4,1343.4,340.4L1343.4,340.4z"/>
		</g>
	</g>
	<g>
		<g>
			<path class="st0" d="M1177.5,121.3c54.8,0,109.6,0,164.4,0c1.9,0,1.9-3,0-3c-54.8,0-109.6,0-164.4,0
				C1175.6,118.3,1175.6,121.3,1177.5,121.3L1177.5,121.3z"/>
		</g>
	</g>
	<g>
		<g>
			<path class="st0" d="M1179.8,192.9c52.7,0,105.4,0,158.1,0c1.9,0,1.9-3,0-3c-52.7,0-105.4,0-158.1,0
				C1177.9,189.9,1177.9,192.9,1179.8,192.9L1179.8,192.9z"/>
		</g>
	</g>
	<g>
		<g>
			<path class="st0" d="M1178.9,199.8c52.8,0,105.7,0,158.5,0c1.9,0,1.9-3,0-3c-52.8,0-105.7,0-158.5,0
				C1177,196.8,1177,199.8,1178.9,199.8L1178.9,199.8z"/>
		</g>
	</g>
	<g>
		<g>
			<path class="st0" d="M1199.5,188.6c-1.3-14.2-1.3-28.5,0-42.8c0.2-1.9-2.8-1.9-3,0c-1.3,14.2-1.3,28.5,0,42.8
				C1196.7,190.5,1199.7,190.5,1199.5,188.6L1199.5,188.6z"/>
		</g>
	</g>
	<g>
		<g>
			<path class="st0" d="M1197.5,156.2c3.2-1,6.5-1.1,9.8-0.5c1.9,0.4,2.7-2.5,0.8-2.9c-3.8-0.8-7.7-0.7-11.4,0.5
				C1194.8,153.8,1195.6,156.7,1197.5,156.2L1197.5,156.2z"/>
		</g>
	</g>
	<g>
		<g>
			<path class="st0" d="M1211.4,182.2c-1-5.2-1.9-10.5-2.1-15.9c-0.1-2.4-0.1-4.8,0.1-7.2c0.2-2.1,0.4-7.7,1.8-9.3
				c2.8-3.1,3.2,4.1,3.4,6c0.3,2.5,0.4,5.1,0.5,7.7c0.1,2.6,0,5.1-0.1,7.7c-0.1,1.4-0.6,12.4-4.1,10.1c-1.6-1.1-3.1,1.5-1.5,2.6
				c6.8,4.6,8.1-6.8,8.4-10.8c0.4-5.4,0.4-10.9-0.1-16.3c-0.3-3.2-0.1-8.3-2.2-10.9c-4.7-5.8-7.7,4.5-8.3,7.5
				c-2,9.8-0.6,19.9,1.3,29.6C1208.9,184.9,1211.8,184.1,1211.4,182.2L1211.4,182.2z"/>
		</g>
	</g>
	<g>
		<g>
			<path class="st0" d="M1218.1,156c2.1-0.9,4.3-0.9,6.4-0.3c1.9,0.6,2.6-2.3,0.8-2.9c-3-0.9-5.9-0.6-8.7,0.6
				C1214.8,154.2,1216.3,156.8,1218.1,156L1218.1,156z"/>
		</g>
	</g>
	<g>
		<g>
			<path class="st0" d="M1223.9,148.1c0.3,6.4,0.5,12.8,0.8,19.2c0.2,4.3-0.7,10.3,0.9,14.3c0.9,2.3,3.1,3.5,5.5,2.5
				c3.4-1.3,3.9-6,4.5-9c1-5.2,1.3-10.6,1-15.9c-0.2-4.2-0.4-9.5-2.4-13.3c-3.7-7.2-10.2-2.3-10.4,4c-0.1,1.9,2.9,1.9,3,0
				c0.1-0.8,0.1-1.5,0.2-2.3c1.6,0.3,3.3,0.5,4.9,0.8c0.6,0.6,0.7,3.1,0.9,4c0.5,2.9,0.8,5.8,0.8,8.7c0.1,2.7,0,5.5-0.3,8.2
				c-0.2,1.9-0.3,7.8-1.7,9.3c0,1-0.7,1.2-1.9,0.4c-1.4,0.4-2,0-1.7-1.2c-0.4-0.8-0.1-2.9-0.2-3.8c-0.1-2.9-0.2-5.8-0.4-8.6
				c-0.2-5.8-0.5-11.5-0.7-17.3C1226.8,146.2,1223.8,146.2,1223.9,148.1L1223.9,148.1z"/>
		</g>
	</g>
	<g>
		<g>
			<path class="st0" d="M1235.5,154.6c2.5-0.7,5-0.4,7.3,0.9c1.7,0.9,3.2-1.7,1.5-2.6c-3-1.6-6.3-2-9.6-1.2
				C1232.9,152.2,1233.6,155.1,1235.5,154.6L1235.5,154.6z"/>
		</g>
	</g>
	<g>
		<g>
			<path class="st0" d="M1242.7,147.2c0.2,6.6,0.4,13.2,0.6,19.8c0.2,5-0.4,10.8,1,15.7c0.6,1.9,2.3,5.5,4.8,5
				c3.1-0.6,4-7.2,4.5-9.4c2.2-10.3,0.9-21.2-1.4-31.4c-1.8-8.1-9-6-10,1.3c-0.3,1.9,2.6,2.7,2.9,0.8c-0.3-1.5,0.5-2.1,2.1-1.8
				c1.4-0.9,2.1-0.7,2.1,0.5c0.7,0.9,0.6,3.1,0.8,4.2c0.6,3.3,1.1,6.6,1.3,9.9c0.5,6.4,0.2,12.8-1.7,18.9c-0.5,1.5-0.6,4-2.7,1.2
				c-0.8-1-0.5-3.2-0.6-4.3c-0.2-3.2-0.2-6.4-0.3-9.6c-0.2-6.9-0.4-13.8-0.7-20.8C1245.6,145.3,1242.6,145.3,1242.7,147.2
				L1242.7,147.2z"/>
		</g>
	</g>
	<g>
		<g>
			<path class="st0" d="M1252.7,156c2.6-0.7,5.1-0.5,7.6,0.5c1.8,0.7,2.6-2.2,0.8-2.9c-3-1.2-6.1-1.3-9.2-0.5
				C1250.1,153.6,1250.9,156.5,1252.7,156L1252.7,156z"/>
		</g>
	</g>
	<g>
		<g>
			<path class="st0" d="M1260.2,143.9c-0.8,14.9-0.9,29.7-0.5,44.6c0.1,1.9,3.1,1.9,3,0c-0.4-14.9-0.3-29.8,0.5-44.6
				C1263.3,142,1260.3,142,1260.2,143.9L1260.2,143.9z"/>
		</g>
	</g>
	<g>
		<g>
			<path class="st0" d="M1209.4,155.5c1.6-0.9,3.4-0.9,5,0c1.7,1,3.2-1.6,1.5-2.6c-2.5-1.4-5.5-1.5-8,0
				C1206.2,153.8,1207.7,156.4,1209.4,155.5L1209.4,155.5z"/>
		</g>
	</g>
	<g>
		<g>
			<path class="st0" d="M1227.4,155.3c1.7-1.3,4-1.4,5.7-0.1c1.5,1.2,3.6-0.9,2.1-2.1c-2.7-2.2-6.5-2.5-9.3-0.4
				C1224.4,153.9,1225.9,156.5,1227.4,155.3L1227.4,155.3z"/>
		</g>
	</g>
	<g>
		<g>
			<path class="st0" d="M1246,155.2c1.5-0.9,3.4-0.7,4.8,0.5c1.4,1.3,3.5-0.8,2.1-2.1c-2.3-2.1-5.7-2.6-8.4-1
				C1242.8,153.6,1244.3,156.2,1246,155.2L1246,155.2z"/>
		</g>
	</g>
	<g>
		<g>
			<path class="st0" d="M1310.9,142.7c0,8,1.8,17.7-3.1,24.5c-4.7,6.5-9.2,12.9-13.2,19.9c-0.9,1.7,1.6,3.2,2.6,1.5
				c2.4-4.3,5-8.6,7.9-12.7c2.3-3.3,5.2-6.4,7.1-9.9c3.6-6.6,1.7-16.2,1.7-23.4C1313.9,140.8,1310.9,140.8,1310.9,142.7
				L1310.9,142.7z"/>
		</g>
	</g>
	<g>
		<g>
			<path class="st0" d="M1313.2,143.9c3.4-1.2,6.9-1.1,10.2,0.2c1.8,0.7,2.6-2.2,0.8-2.9c-3.8-1.5-8-1.5-11.8-0.2
				C1310.6,141.6,1311.3,144.5,1313.2,143.9L1313.2,143.9z"/>
		</g>
	</g>
	<g>
		<g>
			<path class="st0" d="M1321.8,143.2c0,6.8,0,13.6,0,20.3c0,1.9,3,1.9,3,0c0-6.8,0-13.6,0-20.3
				C1324.8,141.3,1321.8,141.3,1321.8,143.2L1321.8,143.2z"/>
		</g>
	</g>
	<g>
		<g>
			<path class="st0" d="M1322.5,164.8c6.5,7.2,10.5,15.6,12.2,25.1c0.3,1.9,3.2,1.1,2.9-0.8c-1.7-10-6.2-18.9-13-26.5
				C1323.3,161.3,1321.2,163.4,1322.5,164.8L1322.5,164.8z"/>
		</g>
	</g>
	<g>
		<g>
			<path class="st0" d="M1295.4,190.7c12.7,1.3,25.8,1.4,38.4-0.7c1.9-0.3,1.1-3.2-0.8-2.9c-12.4,2-25.2,1.9-37.6,0.6
				C1293.4,187.5,1293.5,190.5,1295.4,190.7L1295.4,190.7z"/>
		</g>
	</g>
	<g>
		<g>
			<path class="st0" d="M1313.3,186.4c1.6-0.5,3.2-0.6,4.8-0.1c1.9,0.5,2.7-2.4,0.8-2.9c-2.1-0.6-4.3-0.6-6.4,0.1
				C1310.7,184.1,1311.5,187,1313.3,186.4L1313.3,186.4z"/>
		</g>
	</g>
	<g>
		<g>
			<path class="st0" d="M1314.7,180.7c1.3-0.2,2.7-0.1,4,0.3c1.9,0.5,2.7-2.4,0.8-2.9c-1.8-0.5-3.7-0.6-5.6-0.3
				c-0.8,0.1-1.2,1.1-1,1.8C1313.1,180.5,1313.9,180.8,1314.7,180.7L1314.7,180.7z"/>
		</g>
	</g>
	<g>
		<g>
			<path class="st0" d="M1315.3,174.9c0.9,0.2,1.9,0.3,2.8,0.5c0.8,0.1,1.6-0.2,1.8-1c0.2-0.7-0.2-1.7-1-1.8
				c-0.9-0.2-1.9-0.3-2.8-0.5c-0.8-0.1-1.6,0.2-1.8,1C1314.1,173.7,1314.5,174.7,1315.3,174.9L1315.3,174.9z"/>
		</g>
	</g>
	<g>
		<g>
			<path class="st0" d="M1317.5,170.9c-0.1,0.2-0.3,0.3-0.5,0.4c-0.2,0-0.3,0-0.1,0c-0.1,0-0.2,0-0.4-0.1c-0.3-0.4-0.4-0.5-0.3-0.2
				c0.4,0.7,1.4,0.9,2.1,0.5c0.7-0.4,0.9-1.3,0.5-2.1c-0.8-1.6-3.1-1.5-3.9-0.1c-0.4,0.7-0.2,1.6,0.5,2.1
				C1316.1,171.9,1317,171.6,1317.5,170.9L1317.5,170.9z"/>
		</g>
	</g>
	<g>
		<g>
			<path class="st0" d="M1178.5,251.7c53.9,0,107.9,0,161.8,0c1.9,0,1.9-3,0-3c-53.9,0-107.9,0-161.8,0
				C1176.6,248.7,1176.6,251.7,1178.5,251.7L1178.5,251.7z"/>
		</g>
	</g>
	<g>
		<g>
			<path class="st0" d="M1179,259.1c53.8,0,107.5,0,161.3,0c1.9,0,1.9-3,0-3c-53.8,0-107.5,0-161.3,0
				C1177.1,256.1,1177.1,259.1,1179,259.1L1179,259.1z"/>
		</g>
	</g>
	<g>
		<g>
			<path class="st0" d="M1254.7,258.1c0,26.2,0,52.4,0,78.7c0,1.9,3,1.9,3,0c0-26.2,0-52.4,0-78.7
				C1257.7,256.1,1254.7,256.1,1254.7,258.1L1254.7,258.1z"/>
		</g>
	</g>
	<g>
		<g>
			<path class="st0" d="M1264.7,300.9c-0.9-1.4-1.3-2.9-1-4.6c0.4-2.1,2.8-4.3,3.8-1.2c0.4,1.3,0.3,3.1,0.1,4.5
				c-0.1,0.6-0.2,1.2-0.4,1.8c-0.2,0.4-2,1.9-2,0.5c0.1-1.9-2.9-1.9-3,0c-0.2,3.1,3.8,4.5,6.1,2.9c2.8-2,3-7.4,2.1-10.4
				c-0.9-3.3-4.9-5.3-7.6-2.6c-2.8,2.8-2.8,7.5-0.7,10.7C1263.2,304,1265.8,302.5,1264.7,300.9L1264.7,300.9z"/>
		</g>
	</g>
	<g>
		<g>
			<path class="st0" d="M1277.1,249.9c0-1,0-2-0.1-3c0-2-0.4-2.3,0.9-3.3c1.8-1.3,6.6-1,8.7-1.2c5.8-0.6,11.6-1,17.5-1.2
				c11.7-0.4,23.4,0,35,1c1.9,0.2,1.9-2.8,0-3c-14.5-1.3-29.2-1.5-43.7-0.5c-3.6,0.2-7.1,0.5-10.7,0.9c-2.7,0.3-6.2,0.1-8.7,1.2
				c-3.3,1.4-2,6.1-1.9,9.1C1274.1,251.8,1277.1,251.9,1277.1,249.9L1277.1,249.9z"/>
		</g>
	</g>
	<g>
		<g>
			<path class="st0" d="M1289.9,238.7c-1-5.9,6.6-4.5,10.4-4.6c4-0.1,8-0.1,12-0.2c8-0.1,16-0.2,24-0.3c1.9,0,1.9-3,0-3
				c-12,0.2-24,0.3-35.9,0.5c-7.3,0.1-14.9-1.2-13.3,8.4C1287.3,241.4,1290.2,240.6,1289.9,238.7L1289.9,238.7z"/>
		</g>
	</g>
	<g>
		<g>
			<path class="st0" d="M1275,222.5c0,3-1.1,7.8,2.6,9c4.4,1.4,10,1,14.6,0.7c1.9-0.1,1.9-3.1,0-3c-3.3,0.2-6.5,0.2-9.8-0.1
				c-1.7-0.2-3.9,0.1-4.4-1.7c-0.4-1.4,0-3.5,0-4.9C1278,220.6,1275,220.6,1275,222.5L1275,222.5z"/>
		</g>
	</g>
	<g>
		<g>
			<path class="st0" d="M1276.5,223.9c20.2-1,40.5-1.1,60.7-0.2c1.9,0.1,1.9-2.9,0-3c-20.2-0.9-40.5-0.8-60.7,0.2
				C1274.6,221,1274.6,224,1276.5,223.9L1276.5,223.9z"/>
		</g>
	</g>
	<g>
		<g>
			<path class="st0" d="M437.2,471c55.1,0,110.2,0,165.3,0c1.9,0,1.9-3,0-3c-55.1,0-110.2,0-165.3,0C435.3,468,435.3,471,437.2,471
				L437.2,471z"/>
		</g>
	</g>
	<g>
		<g>
			<path class="st0" d="M482.2,470.8c0,19.1,0,38.3,0,57.4c0,1.9,3,1.9,3,0c0-19.1,0-38.3,0-57.4
				C485.2,468.9,482.2,468.9,482.2,470.8L482.2,470.8z"/>
		</g>
	</g>
	<g>
		<g>
			<path class="st0" d="M561.4,472.2c0,17.3,0,34.6,0,51.9c0,1.9,3,1.9,3,0c0-17.3,0-34.6,0-51.9
				C564.4,470.3,561.4,470.3,561.4,472.2L561.4,472.2z"/>
		</g>
	</g>
	<g>
		<g>
			<path class="st0" d="M522.1,466.7c0-13.7,0-27.3,0-41c0-1.9-3-1.9-3,0c0,13.7,0,27.3,0,41C519.1,468.7,522.1,468.7,522.1,466.7
				L522.1,466.7z"/>
		</g>
	</g>
	<g>
		<g>
			<path class="st0" d="M500.1,419.1c26,0,51.9,0,77.9,0c1.9,0,1.9-3,0-3c-26,0-51.9,0-77.9,0C498.1,416.1,498.1,419.1,500.1,419.1
				L500.1,419.1z"/>
		</g>
	</g>
	<g>
		<g>
			<path class="st0" d="M721.2,176.5c0,27,0,54,0,81c0,1.9,3,1.9,3,0c0-27,0-54,0-81C724.2,174.6,721.2,174.6,721.2,176.5
				L721.2,176.5z"/>
		</g>
	</g>
	<g>
		<g>
			<path class="st0" d="M723.8,176.9c31.1,0,62.1,0,93.2,0c1.9,0,1.9-3,0-3c-31.1,0-62.1,0-93.2,0
				C721.9,173.9,721.9,176.9,723.8,176.9L723.8,176.9z"/>
		</g>
	</g>
	<g>
		<g>
			<path class="st0" d="M726.1,260.1c29.6,0,59.2,0,88.8,0c1.9,0,1.9-3,0-3c-29.6,0-59.2,0-88.8,0
				C724.1,257.1,724.1,260.1,726.1,260.1L726.1,260.1z"/>
		</g>
	</g>
	<g>
		<g>
			<path class="st0" d="M817.8,175.4c0,26.6,0,53.3,0,79.9c0,1.9,3,1.9,3,0c0-26.6,0-53.3,0-79.9
				C820.8,173.5,817.8,173.5,817.8,175.4L817.8,175.4z"/>
		</g>
	</g>
	<g>
		<g>
			<path class="st0" d="M732.1,187.1c-1.1,20.7-1.3,41.4-0.8,62.1c0,1.9,3,1.9,3,0c-0.5-20.7-0.2-41.4,0.8-62.1
				C735.2,185.1,732.2,185.1,732.1,187.1L732.1,187.1z"/>
		</g>
	</g>
	<g>
		<g>
			<path class="st0" d="M735.8,189c25-0.1,50.1-0.7,75.1-1.7c1.9-0.1,1.9-3.1,0-3c-25,1-50,1.6-75.1,1.7
				C733.9,186,733.9,189,735.8,189L735.8,189z"/>
		</g>
	</g>
	<g>
		<g>
			<path class="st0" d="M809.2,187.1c0.8,20.5,0.5,40.9-0.7,61.4c-0.1,1.9,2.9,1.9,3,0c1.3-20.4,1.5-40.9,0.7-61.4
				C812.1,185.1,809.1,185.1,809.2,187.1L809.2,187.1z"/>
		</g>
	</g>
	<g>
		<g>
			<path class="st0" d="M735.2,252.4c12.8-1.4,25.7-3.1,38.5-4c6.3-0.4,12.7-0.6,19-0.2c6.3,0.5,12.5,1.7,18.8,0.9
				c1.9-0.2,1.9-3.2,0-3c-6,0.8-11.9-0.4-17.9-0.9c-6.6-0.5-13.3-0.4-20,0.1c-12.9,0.9-25.7,2.6-38.5,4
				C733.3,249.6,733.3,252.6,735.2,252.4L735.2,252.4z"/>
		</g>
	</g>
	<g>
		<g>
			<path class="st0" d="M732.8,231.3c6.1-0.1,12.2-0.1,18.2-0.4c6-0.3,11.8-2.9,17.8-2.6c6,0.3,11.8,1.4,17.8,1.3
				c6.6,0,13.2-0.6,19.8-1.2c1.9-0.2,1.9-3.2,0-3c-6.3,0.5-12.5,1.1-18.8,1.2c-6.3,0.1-12.5-1-18.8-1.3c-5.8-0.3-11.2,2.1-17,2.5
				c-6.3,0.4-12.7,0.3-19.1,0.4C730.9,228.3,730.9,231.3,732.8,231.3L732.8,231.3z"/>
		</g>
	</g>
	<g>
		<g>
			<path class="st0" d="M763.8,208.4c-1.5-1.5-1.6-2.7-0.2-3.8c0.5-0.5,1.1-1,1.7-1.4c1-0.6,2.2-1,3.3-1c2.5,0,4.9,1.7,5.4,4.2
				c0.5,2.5-1.4,4.8-3.8,5.5c-2.6,0.8-5.3-0.5-7.2-2.2c-1.4-1.3-3.6,0.8-2.1,2.1c3.7,3.4,9.5,4.8,13.6,1.1c3.6-3.3,3.3-8.7-0.4-11.8
				c-4-3.3-10-1.9-13.1,2c-1.3,1.6-2.2,3.9-1.4,5.9c0.8,2.1,3.1,3.1,5.1,2.3C766.4,210.5,765.6,207.6,763.8,208.4L763.8,208.4z"/>
		</g>
	</g>
	<g>
		<g>
			<path class="st0" d="M768.8,173.7c-0.4-3.2-0.3-8.8,2.2-11.3c1.9-1.9,2.2,1.9,2.4,3.3c0.3,2.1,0.3,4.1,0.1,6.2
				c-0.2,1.9,2.8,1.9,3,0c0.3-3,0.4-15.6-5.5-13.5c-2.5,0.9-3.8,4.5-4.5,6.8c-0.9,3.1-1,6.2-0.6,9.3
				C766.2,176.4,769.1,175.6,768.8,173.7L768.8,173.7z"/>
		</g>
	</g>
	<g>
		<g>
			<path class="st0" d="M632.9,1007.5c73.8,0,147.7,0,221.5,0c74.2,0,148.4,0,222.5,0c41.6,0,83.2,0,124.7,0c1.9,0,1.9-3,0-3
				c-73.8,0-147.7,0-221.5,0c-74.2,0-148.4,0-222.5,0c-41.6,0-83.2,0-124.7,0C630.9,1004.5,630.9,1007.5,632.9,1007.5L632.9,1007.5z
				"/>
		</g>
	</g>
	<g>
		<g>
			<path class="st0" d="M1310.3,1006c75.5,0,151,0,226.6,0c1.9,0,1.9-3,0-3c-2.6,0-5.3,0-7.9,0c-1.9,0-1.9,3,0,3c2.6,0,5.3,0,7.9,0
				c1.9,0,1.9-3,0-3c-75.5,0-151,0-226.6,0C1308.4,1003,1308.4,1006,1310.3,1006L1310.3,1006z"/>
		</g>
	</g>
	<g>
		<g>
			<path class="st0" d="M1084.5,1086.1c70.5,0,141.1,0,211.6,0c20,0,39.9,0,59.9,0c1.9,0,1.9-3,0-3c-70.5,0-141.1,0-211.6,0
				c-20,0-39.9,0-59.9,0C1082.6,1083.1,1082.6,1086.1,1084.5,1086.1L1084.5,1086.1z"/>
		</g>
	</g>
	<g>
		<g>
			<path class="st0" d="M1210.3,1130.4c78.1,0,156.3,0,234.4,0c1.9,0,1.9-3,0-3c-78.1,0-156.3,0-234.4,0
				C1208.3,1127.4,1208.3,1130.4,1210.3,1130.4L1210.3,1130.4z"/>
		</g>
	</g>
	<g>
		<g>
			<path class="st0" d="M647.2,1051.8c72.3,0,144.7,0,217,0c20.6,0,41.1,0,61.7,0c1.9,0,1.9-3,0-3c-72.3,0-144.7,0-217,0
				c-20.6,0-41.1,0-61.7,0C645.2,1048.8,645.2,1051.8,647.2,1051.8L647.2,1051.8z"/>
		</g>
	</g>
	<g>
		<g>
			<path class="st0" d="M708.6,1118.9c80.5,0,161,0,241.5,0c1.9,0,1.9-3,0-3c-80.5,0-161,0-241.5,0
				C706.7,1115.9,706.7,1118.9,708.6,1118.9L708.6,1118.9z"/>
		</g>
	</g>
	<g>
		<g>
			<path class="st0" d="M855.6,1030.6c32.8,40.1,65.4,80.4,97.6,120.9c1.2,1.5,3.3-0.6,2.1-2.1c-32.2-40.6-64.7-80.9-97.6-120.9
				C856.5,1027,854.4,1029.1,855.6,1030.6L855.6,1030.6z"/>
		</g>
	</g>
	<g>
		<g>
			<path class="st0" d="M1190.9,1043.8c40.9,48.8,100.9,75.7,144.2,121.9c1.3,1.4,3.4-0.7,2.1-2.1
				c-43.3-46.2-103.3-73.2-144.2-121.9C1191.8,1040.2,1189.7,1042.3,1190.9,1043.8L1190.9,1043.8z"/>
		</g>
	</g>
	<g>
		<g>
			<path class="st1" d="M321.8,759.4c69.6,0,139.3,0,208.9,0c19.7,0,39.3,0,59,0c1.9,0,1.9-3,0-3c-69.6,0-139.3,0-208.9,0
				c-19.7,0-39.3,0-59,0C319.9,756.4,319.9,759.4,321.8,759.4L321.8,759.4z"/>
		</g>
	</g>
	<g>
		<g>
			<path class="st1" d="M324.8,787.6c0,9.9,0,19.8,0,29.8c0,1.9,3,1.9,3,0c0-9.9,0-19.8,0-29.8C327.8,785.7,324.8,785.7,324.8,787.6
				L324.8,787.6z"/>
		</g>
	</g>
	<g>
		<g>
			<path class="st1" d="M327.4,788c14.7,0,29.4,0,44.1,0c1.9,0,1.9-3,0-3c-14.7,0-29.4,0-44.1,0C325.4,785,325.4,788,327.4,788
				L327.4,788z"/>
		</g>
	</g>
	<g>
		<g>
			<path class="st1" d="M379.2,788c5.9,0,11.8,0,17.6,0c1.9,0,1.9-3,0-3c-5.9,0-11.8,0-17.6,0C377.2,785,377.2,788,379.2,788
				L379.2,788z"/>
		</g>
	</g>
	<g>
		<g>
			<path class="st1" d="M405.6,788c54.7,0,109.5,0,164.2,0c1.9,0,1.9-3,0-3c-54.7,0-109.5,0-164.2,0C403.7,785,403.7,788,405.6,788
				L405.6,788z"/>
		</g>
	</g>
	<g>
		<g>
			<path class="st1" d="M331.8,832.1c70.5,0,141.1,0,211.6,0c1.9,0,1.9-3,0-3c-70.5,0-141.1,0-211.6,0
				C329.8,829.1,329.8,832.1,331.8,832.1L331.8,832.1z"/>
		</g>
	</g>
	<g>
		<g>
			<path class="st1" d="M569.5,793.1c0,8.1,0,16.2,0,24.3c0,1.9,3,1.9,3,0c0-8.1,0-16.2,0-24.3C572.5,791.2,569.5,791.2,569.5,793.1
				L569.5,793.1z"/>
		</g>
	</g>
	<g>
		<g>
			<path class="st1" d="M443.6,813c-6.9-1.5-6.6-12.9,1.3-11.7c2.9,0.4,5.8,2.8,5.1,6c-0.7,3.5-5.1,6-8.3,4.3
				c-1.7-0.9-3.2,1.7-1.5,2.6c4.6,2.4,10.4-0.2,12.4-5c2-4.8-1.5-9.6-6.3-10.7c-4.8-1.1-9.8,1.4-10.5,6.5c-0.7,4.8,2.3,9.9,7.2,10.9
				C444.7,816.3,445.5,813.4,443.6,813L443.6,813z"/>
		</g>
	</g>
	<g>
		<g>
			<path class="st1" d="M338,874.7c0,48.5,0,97,0,145.5c0,1.9,3,1.9,3,0c0-48.5,0-97,0-145.5C341,872.8,338,872.8,338,874.7
				L338,874.7z"/>
		</g>
	</g>
	<g>
		<g>
			<path class="st1" d="M343.9,875.1c54.7,0,109.5,0,164.2,0c1.9,0,1.9-3,0-3c-54.7,0-109.5,0-164.2,0
				C342,872.1,342,875.1,343.9,875.1L343.9,875.1z"/>
		</g>
	</g>
	<g>
		<g>
			<path class="st1" d="M521.4,874c9.6,0,19.1,0,28.7,0c1.9,0,1.9-3,0-3c-9.6,0-19.1,0-28.7,0C519.4,871,519.4,874,521.4,874
				L521.4,874z"/>
		</g>
	</g>
	<g>
		<g>
			<path class="st1" d="M346.1,1028.3c72,0,144,0,216,0c1.9,0,1.9-3,0-3c-72,0-144,0-216,0C344.2,1025.3,344.2,1028.3,346.1,1028.3
				L346.1,1028.3z"/>
		</g>
	</g>
	<g>
		<g>
			<path class="st1" d="M560.6,880.2c0,45.9,0,91.9,0,137.8c0,1.9,3,1.9,3,0c0-45.9,0-91.9,0-137.8
				C563.6,878.3,560.6,878.3,560.6,880.2L560.6,880.2z"/>
		</g>
	</g>
	<g>
		<g>
			<path class="st1" d="M538.8,945.7c-4.3-2.3-1.4-9.6,3.5-7.1c5.6,2.8,0.8,9.9-4.3,7.8c-1.8-0.7-2.6,2.2-0.8,2.9
				c3.7,1.5,8.3-0.4,10.1-4c1.8-3.7-0.3-7.9-3.9-9.5c-3.5-1.6-7.5-0.3-9,3.3c-1.4,3.3-0.3,7.5,3,9.3
				C539,949.2,540.5,946.6,538.8,945.7L538.8,945.7z"/>
		</g>
	</g>
	<g>
		<g>
			<path class="st0" d="M296.1,762.3c0,80.6,0,161.2,0,241.8c0,22.6,0,45.3,0,67.9c0,1.9,3,1.9,3,0c0-80.6,0-161.2,0-241.8
				c0-22.6,0-45.3,0-67.9C299.1,760.3,296.1,760.3,296.1,762.3L296.1,762.3z"/>
		</g>
	</g>
	<g>
		<g>
			<path class="st0" d="M299.8,1077.9c79.2,0,158.3,0,237.5,0c22.6,0,45.2,0,67.9,0c1.9,0,1.9-3,0-3c-79.2,0-158.3,0-237.5,0
				c-22.6,0-45.2,0-67.9,0C297.9,1074.9,297.9,1077.9,299.8,1077.9L299.8,1077.9z"/>
		</g>
	</g>
	<g>
		<g>
			<path class="st0" d="M608.8,1072c0-83.6,0-167.3,0-250.9c0-23.7,0-47.3,0-71c0-1.9-3-1.9-3,0c0,83.6,0,167.3,0,250.9
				c0,23.7,0,47.3,0,71C605.8,1074,608.8,1074,608.8,1072L608.8,1072z"/>
		</g>
	</g>
	<g>
		<g>
			<path class="st0" d="M300.7,749.5c14.9-7.8,30.1-14.9,45.7-21.3c1.8-0.7,1-3.6-0.8-2.9c-15.8,6.4-31.3,13.6-46.4,21.6
				C297.5,747.8,299,750.4,300.7,749.5L300.7,749.5z"/>
		</g>
	</g>
	<g>
		<g>
			<path class="st0" d="M565.8,717.3c13.5,7.6,25.9,16.7,37.2,27.3c1.4,1.3,3.5-0.8,2.1-2.1c-11.5-10.7-24.1-20-37.8-27.8
				C565.6,713.7,564.1,716.3,565.8,717.3L565.8,717.3z"/>
		</g>
	</g>
	<g>
		<g>
			<path class="st1" d="M544.4,715.9c0-34,0-68,0-102c0-1.9-3-1.9-3,0c0,34,0,68,0,102C541.4,717.8,544.4,717.8,544.4,715.9
				L544.4,715.9z"/>
		</g>
	</g>
	<g>
		<g>
			<path class="st1" d="M544.2,694.6c4.7-3.6,7.6,20.4,7.7,22.3c0.1,1.9,3.1,1.9,3,0c-0.2-4.1-2.9-31.9-12.2-24.9
				C541.2,693.2,542.7,695.8,544.2,694.6L544.2,694.6z"/>
		</g>
	</g>
	<g>
		<g>
			<path class="st1" d="M513.8,658c8.8,0.2,17.6,0.5,26.4,0.7c1.9,0.1,1.9-2.9,0-3c-8.8-0.2-17.6-0.5-26.4-0.7
				C511.8,654.9,511.8,657.9,513.8,658L513.8,658z"/>
		</g>
	</g>
	<g>
		<g>
			<path class="st1" d="M544.9,607c0-2.4,0-4.8,0-7.1c0-1.9-3-1.9-3,0c0,2.4,0,4.8,0,7.1C541.9,609,544.9,609,544.9,607L544.9,607z"
				/>
		</g>
	</g>
	<g>
		<g>
			<path class="st1" d="M475.2,661c5.6,4.9,14.1,4.6,19.3-0.7c1.3-1.4-0.8-3.5-2.1-2.1c-4,4.1-10.6,4.5-15,0.7
				C475.9,657.6,473.7,659.7,475.2,661L475.2,661z"/>
		</g>
	</g>
	<g>
		<g>
			<path class="st1" d="M494.5,659.6c15.6,0,31.1,0,46.7,0c1.9,0,1.9-3,0-3c-15.6,0-31.1,0-46.7,0
				C492.6,656.6,492.6,659.6,494.5,659.6L494.5,659.6z"/>
		</g>
	</g>
	<g>
		<g>
			<path class="st1" d="M343.1,736c-2.2-3-1.9-4.2,0.8-3.8c0.6,0,1.3-0.1,1.9-0.1c1.9-0.1,3.8-0.2,5.7-0.3c3.3-0.2,8.4-1.2,11.6-0.2
				c2.3,0,2.3,1.6-0.1,4.8c-1.1,0.3-2.3,0.4-3.5,0.3c-1.8,0.1-3.6-0.1-5.4-0.1c-1,0-12.5,0-12.5-0.5c0-1.9-3-1.9-3,0
				c-0.1,3.1,2.9,3.3,5.4,3.3c5.8,0.1,12.1,0.9,17.8,0.2c4.9-0.6,10.3-7.1,4.1-10.4c-3.5-1.9-8.9-0.7-12.6-0.6
				c-4.2,0.2-10.7-0.7-14.5,1.2c-2.3,1.2-3.4,3.8-2.2,6.2c1.3,2.9,4.4,3.3,7.2,2.7C345.8,738.5,345,735.6,343.1,736L343.1,736z"/>
		</g>
	</g>
	<g>
		<g>
			<path class="st1" d="M339.6,733.4c1,1.3,2,2.6,3,3.9c0.7,0.9,2.5,1.1,2.7-0.4c0.1-0.7,0.2-1.2,0-1.9c-0.1-0.3-0.1-0.5-0.3-0.8
				c-0.6,1.1-0.3,2,0.8,2.7c0.6-0.7,1.1-1.5,1.7-2.2c0.3,0.6,0.6,1.1,0.9,1.7c0.9-0.4,1.7-0.7,2.6-1.1c0,0-0.1,0-0.1-0.1
				c0.8-0.2,1.7-0.4,2.5-0.7c0.2,0,0.4,0,0.6,0c0.9,0.1,1.8,0.2,2.7,0.4c-0.1,0.1-0.3,0.2-0.4,0.3c0.9,0,1.7,0,2.6,0
				c0-0.5-0.1-0.9-0.1-1.4c0.8,0.2,1.7,0.4,2.5,0.7c-0.3,0-0.5,0-0.8-0.1c0.7,0,1.4,0,2.1,0c-0.6-0.6-1.5,2.9-1.6,3.3
				c0.5-0.5,1-1,1.5-1.5c-0.4-0.6-0.7-1.2-1.1-1.9c1.1-1.6-1.5-3.1-2.6-1.5c-2.2,3.1-0.2,6.8,3.7,6.4c0.9-0.1,1.4-0.6,1.5-1.5
				c0.2-1.8,1.9-2.8,1.1-4.8c-0.5-1.1-1.7-1.9-2.9-1.9c-3.2,0-3.6,3.7-1.8,5.6c0.5,0.5,1.6,0.6,2.1,0c1.6-2,2.8-6.5-1.2-6.8
				c-3.1-0.2-3.4,3.3-3,5.5c0.2,1.1,1.8,1.5,2.5,0.7c1.9-2.4,1.9-4.7,0-7.1c-0.3-0.4-1-0.5-1.5-0.4c-3.6,1.2-5.1,4.9-3.2,8.3
				c0.5,0.9,2.1,1,2.6,0c1.1-2.3,2-6.9-2-7.1c-3.3-0.2-3.5,3.8-3.1,6.1c0.2,1.2,2.2,1.5,2.7,0.4c1.2-2.5-0.1-6.4-3.6-5.8
				c-3.2,0.6-3.4,4.4-1.7,6.4c0.7,0.8,2.3,0.4,2.5-0.7c0.5-2.4-1.2-5.6-4.2-4.5c-2.6,0.9-2.5,4.3-0.8,5.9c1,0.9,2.5,0.3,2.6-1.1
				c0.2-3-2.5-6.6-5.7-4.3c-2.4,1.7-1.4,4.6,1,5.6c1.2,0.5,2.5-1.2,1.7-2.2c-1.1-1.4-3.2-5.6-5.7-4.3c-2.5,1.3,0,3.3-0.3,5
				c0.9-0.1,1.8-0.2,2.7-0.4c-1-1.3-2-2.6-3-3.9C341.1,730.4,338.4,731.9,339.6,733.4L339.6,733.4z"/>
		</g>
	</g>
	<g>
		<g>
			<path class="st1" d="M352.5,736.4c1.4,1,3.4,0.7,4.6-0.4c0.6-0.5,0.6-1.6,0-2.1c-0.6-0.6-1.5-0.6-2.1,0c-0.1,0.1-0.3,0.1-0.4,0.1
				c-0.1,0-0.2,0-0.2,0c0.1,0,0.1,0,0,0c-0.2-0.1-0.2-0.1-0.1,0c-0.1,0-0.2-0.1-0.3-0.2c-0.7-0.5-1.7-0.1-2.1,0.5
				C351.6,735.1,351.9,735.9,352.5,736.4L352.5,736.4z"/>
		</g>
	</g>
	<g>
		<g>
			<path class="st0" d="M471.1,643.7c1.1,4.9,2.1,9.9,3.2,14.8c0.4,1.9,3.3,1.1,2.9-0.8c-1.1-4.9-2.1-9.9-3.2-14.8
				C473.6,641,470.7,641.8,471.1,643.7L471.1,643.7z"/>
		</g>
	</g>
	<g>
		<g>
			<path class="st0" d="M473.1,644.5c6.4,2.3,13.2,2.2,19.6-0.4c1.8-0.7,1-3.6-0.8-2.9c-5.9,2.4-12,2.6-18,0.4
				C472.1,641,471.3,643.9,473.1,644.5L473.1,644.5z"/>
		</g>
	</g>
	<g>
		<g>
			<path class="st0" d="M492.4,642.9c-0.8,4.6-1.7,9.2-2.5,13.8c-0.3,1.9,2.6,2.7,2.9,0.8c0.8-4.6,1.7-9.2,2.5-13.8
				C495.6,641.8,492.8,641,492.4,642.9L492.4,642.9z"/>
		</g>
	</g>
	<g>
		<g>
			<path class="st0" d="M470.9,666.5c-5.1,15.9-9.6,32-13.4,48.3c-0.4,1.9,2.5,2.7,2.9,0.8c3.8-16.3,8.3-32.4,13.4-48.3
				C474.4,665.4,471.5,664.6,470.9,666.5L470.9,666.5z"/>
		</g>
	</g>
	<g>
		<g>
			<path class="st0" d="M459.1,717.2c6.2,3.5,14.2,3.2,21.1,3c8.4-0.3,16.6-1.6,24.7-3.7c1.9-0.5,1.1-3.4-0.8-2.9
				c-7.2,1.9-14.6,3.1-22.1,3.5c-6.9,0.3-15.3,1-21.4-2.5C458.9,713.6,457.4,716.2,459.1,717.2L459.1,717.2z"/>
		</g>
	</g>
	<g>
		<g>
			<path class="st0" d="M492.8,666c3.5,7.2,6.4,14.6,8.8,22.2c1,3.2,9,23.5,3.5,24.8c-1.9,0.4-1.1,3.3,0.8,2.9
				c9-2,2.7-15.1,1.1-20.4c-3.1-10.6-6.8-21-11.6-31C494.5,662.7,491.9,664.3,492.8,666L492.8,666z"/>
		</g>
	</g>
	<g>
		<g>
			<path class="st0" d="M468.4,710.8c8.2,1.8,16.3,1.7,24.4-0.3c1.9-0.5,1.1-3.4-0.8-2.9c-7.6,1.9-15.2,2-22.9,0.3
				C467.3,707.5,466.5,710.4,468.4,710.8L468.4,710.8z"/>
		</g>
	</g>
	<g>
		<g>
			<path class="st0" d="M474.4,704.5c4.6,1.4,9.3,1.6,14,0.6c1.9-0.4,1.1-3.3-0.8-2.9c-4.2,0.9-8.3,0.7-12.4-0.6
				C473.3,701.1,472.5,704,474.4,704.5L474.4,704.5z"/>
		</g>
	</g>
	<g>
		<g>
			<path class="st0" d="M474.2,698.1c3.1,0,6.2,0,9.3,0c1.9,0,1.9-3,0-3c-3.1,0-6.2,0-9.3,0C472.3,695.1,472.3,698.1,474.2,698.1
				L474.2,698.1z"/>
		</g>
	</g>
	<g>
		<g>
			<path class="st0" d="M473.2,689.5c4,0.7,8,0.5,11.8-0.7c1.8-0.6,1-3.5-0.8-2.9c-3.4,1.1-6.8,1.4-10.3,0.7
				C472.1,686.2,471.3,689.1,473.2,689.5L473.2,689.5z"/>
		</g>
	</g>
	<ellipse class="st2" cx="357.1" cy="653.9" rx="46.8" ry="45"/>
	<g>
		<g>
			<path class="st0" d="M343.5,698.4c1.1,9.3,2.9,18.7,0.5,27.9c-0.5,1.9,2.4,2.7,2.9,0.8c2.5-9.5,0.8-19.1-0.4-28.7
				C346.3,696.5,343.3,696.4,343.5,698.4L343.5,698.4z"/>
		</g>
	</g>
	<g>
		<g>
			<path class="st0" d="M363.6,698.6c-1.3,5-2.1,10.1-2.6,15.2c-0.5,4.7-1.3,9.3,0.2,13.9c0.6,1.8,3.5,1.1,2.9-0.8
				c-1.3-4.2-0.5-8.7-0.1-13.1c0.5-4.9,1.3-9.7,2.5-14.5C367,697.5,364.1,696.7,363.6,698.6L363.6,698.6z"/>
		</g>
	</g>
	<g>
		<g>
			<path class="st0" d="M349.9,608.5c0.8-10.6,1-21.3,0.8-31.9c-0.5,0.5-1,1-1.5,1.5c4-0.4,7.1-2.3,9.6-5.4c4-5,4-11.9,7.6-16.8
				c2.6-3.5,8.1-3.6,12-4.1c3.7-0.5,7.4-0.7,11.1-0.9c7.3-0.3,14.6-0.3,21.9-0.3c14.6-0.1,29.2-0.3,43.9-0.4c3.3,0,6.6-0.1,10-0.1
				c0.8,0,5.4-0.5,6-0.1c1.2,0.9,0.8,4.2,0.8,5.5c0,2.5-0.8,6.4,0.2,8.8c1.1,2.8,4,4,2.4,7.9c-0.7,1.8,2.2,2.6,2.9,0.8
				c0.8-2,1.1-4,0.2-6.1c-0.4-0.9-0.9-1.4-1.3-2.2c-1.3-2.5-1.5-4.6-1.4-7.3c0.1-4.7,1.6-9.5-3.8-10.4c-3.8-0.6-8.1,0.1-12,0.1
				c-4,0-8,0.1-12,0.1c-8.3,0.1-16.6,0.2-24.9,0.2c-15.3,0.1-31-0.6-46.2,1.6c-5.9,0.9-10.5,1.1-13.1,6.9
				c-3.1,6.9-4.5,18.1-13.9,19.2c-0.8,0.1-1.5,0.6-1.5,1.5c0.3,10.7,0,21.3-0.8,31.9C346.7,610.4,349.7,610.4,349.9,608.5
				L349.9,608.5z"/>
		</g>
	</g>
	<g>
		<g>
			<path class="st0" d="M369,608.5c-0.2-4.5-0.3-8.9-0.2-13.4c0.1-3.4-0.1-7.1,1.9-10.1c0.7-1.1,1.8-1.9,2.6-3
				c3.5-4.9,4.5-10.9,3.3-16.8c-0.5,0.6-1,1.3-1.4,1.9c30-2,60-4.1,90.1-6.1c-0.5-0.4-1-0.7-1.4-1.1c0.5,2.3-0.8,4.6-0.5,7
				c0.3,2.8,2.8,5.5,1.2,8.6c-0.9,1.7,1.7,3.2,2.6,1.5c1.4-2.5,1.1-4.5,0.3-7.1c-1.3-3.8,0.2-7-0.6-10.7c-0.1-0.6-0.8-1.1-1.4-1.1
				c-30,2-60,4.1-90.1,6.1c-1,0.1-1.7,0.9-1.4,1.9c0.9,4.3,0.4,8.8-1.8,12.7c-1.4,2.4-4.2,4.1-5.3,6.6c-1.2,2.7-0.7,6.9-0.8,9.8
				c-0.1,4.5,0,8.9,0.2,13.4C366.1,610.4,369.1,610.4,369,608.5L369,608.5z"/>
		</g>
	</g>
	<g>
		<g>
			<path class="st0" d="M475.8,574.6c1.2,0.4,3.5-0.1,4.2,1c0.4,0.6,0.4,1.6,0.5,2.3c0.2,1.2,0.4,2.3,0.5,3.5c0.2,1.9,3.2,1.9,3,0
				c-0.2-2.4-0.3-5.6-1.7-7.7c-1.4-2.1-3.7-1.3-5.7-2C474.8,571.1,474,574,475.8,574.6L475.8,574.6z"/>
		</g>
	</g>
	<g>
		<g>
			<path class="st0" d="M464.5,575.1c-2.1,2.2-0.8,5.3,1.9,6.2c2.3,0.7,4.9-0.5,5.6,2.7c0.4,1.8-0.9,4.2,0.4,5.9
				c1.6,2.1,7.2,1.5,9.3,0.6c3.4-1.5,2.9-7.1,2.3-10c-0.3-1.9-3.2-1.1-2.9,0.8c0.3,1.4,0.7,4.1-0.1,5.4c-0.8,1.3-2.4,1.3-3.9,1.3
				c-2.3,0.1-2.1-0.6-2.2-2.8c-0.1-0.9,0.2-1.9,0-2.8c-0.2-1.3-0.9-2.4-2.1-3c-0.6-0.3-1.2-0.5-1.9-0.6c-0.4-0.1-5.4-0.5-4.4-1.5
				C468,575.9,465.9,573.7,464.5,575.1L464.5,575.1z"/>
		</g>
	</g>
	<g>
		<g>
			<path class="st0" d="M477.4,604.5c0-0.7,0.4-5.3,1.7-4.4c0.7,0.5,0.3,2,0.1,2.6c0,0.1-0.7,1.9-1.1,1.3c-1-1.6-3.6-0.1-2.6,1.5
				c1.2,1.9,3.8,2,5.3,0.4c1.6-1.6,2.1-4.8,1.2-6.8c-0.9-2-3.5-3-5.3-1.5c-1.9,1.5-2.4,4.6-2.3,6.9
				C474.5,606.4,477.5,606.4,477.4,604.5L477.4,604.5z"/>
		</g>
	</g>
	<g>
		<g>
			<path class="st0" d="M480.7,629.7c-0.5-0.7-0.3-1.3,0.1-2c0.2-0.3,0.5-0.6,0.7-1c0.3-0.2,0.3-0.3,0-0.3c-0.3-0.1-0.3,0,0,0.2
				c0,0.3,0.4,0.8,0.5,1.1c0.1,0.4,0.2,0.9,0.1,1.3c-0.1,0.6-0.6,1.3-1.3,1.1c-1.9-0.5-2.7,2.4-0.8,2.9c2,0.5,3.9-0.6,4.7-2.4
				c0.8-1.9,0.3-4.7-1.2-6.3c-1.6-1.7-3.6-0.7-4.8,0.9c-1.3,1.7-2,4-0.7,5.8C479.2,632.8,481.8,631.3,480.7,629.7L480.7,629.7z"/>
		</g>
	</g>
	<g>
		<g>
			<path class="st0" d="M474,644c5.3-0.1,10.6-0.3,15.9-0.6c1.9-0.1,1.9-3.1,0-3c-5.3,0.2-10.6,0.4-15.9,0.6
				C472.1,641,472.1,644,474,644L474,644z"/>
		</g>
	</g>
	<g>
		<g>
			<path class="st0" d="M316,672.1c4.4-10.5,15.9,0.6,21.1,3.9c5,3.3,11,4.5,16.8,2.7c3.1-1,5.8-2.8,8.7-4.3
				c4.1-2.1,8.2-2.9,12.8-2.5c7.4,0.6,14.3,4.7,21.9,3c1.9-0.4,1.1-3.3-0.8-2.9c-5.3,1.2-10.2-1.1-15.3-2.2
				c-3.6-0.8-7.4-1.2-11.1-0.9c-8.7,0.9-15,8.6-24,7.3c-8.1-1.2-12.7-9-20.4-11c-4.8-1.2-10.1,0.4-12.1,5.2
				C312.7,672.4,315.3,673.9,316,672.1L316,672.1z"/>
		</g>
	</g>
	<g>
		<g>
			<path class="st0" d="M335.5,674.7c13.2,2.8,20.7-10.7,32.4-13.3c10.7-2.4,24.8,9.4,33.5-1.5c1.2-1.5-0.9-3.6-2.1-2.1
				c-7.7,9.6-22.2-1.6-32.2,0.7c-10.7,2.5-19,15.9-30.8,13.3C334.4,671.4,333.6,674.3,335.5,674.7L335.5,674.7z"/>
		</g>
	</g>
	<g>
		<g>
			<path class="st0" d="M336.6,659.4c-0.9-0.8-1.3-2.2-0.5-3.2c0.7-1,2.3-1.3,3.3-0.6c1,0.7,1.2,2.2,0.6,3.2
				C339.3,659.8,337.8,660,336.6,659.4c-1.6-0.9-3.1,1.6-1.5,2.6c2.4,1.4,5.7,0.8,7.3-1.6c1.5-2.3,0.9-5.6-1.3-7.2
				c-2.2-1.6-5.5-1.2-7.3,0.9c-1.8,2.2-1.5,5.6,0.6,7.4C336,662.8,338.1,660.7,336.6,659.4L336.6,659.4z"/>
		</g>
	</g>
	<g>
		<g>
			<path class="st0" d="M353.8,636.7c-0.4-1.1,0-2.4,1.2-2.8c1.3-0.5,2.6,0.6,3,1.8c1,3.2-4.1,4.7-4,1.4c0-1.9-3-1.9-3,0
				c0,3,2.8,5.5,5.8,4.9c2.9-0.6,4.9-3.7,4.3-6.6c-0.6-2.8-3.5-5.1-6.4-4.4c-2.8,0.7-4.8,3.9-3.7,6.6
				C351.6,639.3,354.5,638.5,353.8,636.7L353.8,636.7z"/>
		</g>
	</g>
	<g>
		<g>
			<path class="st0" d="M375.1,715.3c18.3,0,36.5,0,54.8,0c1.9,0,1.9-3,0-3c-18.3,0-36.5,0-54.8,0
				C373.2,712.3,373.2,715.3,375.1,715.3L375.1,715.3z"/>
		</g>
	</g>
	<g>
		<g>
			<path class="st0" d="M516.2,710.1c3.8,0,7.5,0,11.3,0c1.9,0,1.9-3,0-3c-3.8,0-7.5,0-11.3,0C514.2,707.1,514.2,710.1,516.2,710.1
				L516.2,710.1z"/>
		</g>
	</g>
	<g>
		<g>
			<path class="st1" d="M267,1080.9c80.4,0,160.8,0,241.2,0c1.9,0,1.9-3,0-3c-80.4,0-160.8,0-241.2,0
				C265,1077.9,265,1080.9,267,1080.9L267,1080.9z"/>
		</g>
	</g>
	<g>
		<g>
			<path class="st1" d="M445.6,1095.7c60.7,0,121.3,0,182,0c1.9,0,1.9-3,0-3c-60.7,0-121.3,0-182,0
				C443.6,1092.7,443.6,1095.7,445.6,1095.7L445.6,1095.7z"/>
		</g>
	</g>
	<g>
		<g>
			<path class="st1" d="M401.2,1119.5c14.8,0,29.6,0,44.4,0c1.9,0,1.9-3,0-3c-14.8,0-29.6,0-44.4,0
				C399.3,1116.5,399.3,1119.5,401.2,1119.5L401.2,1119.5z"/>
		</g>
	</g>
	<g>
		<g>
			<path class="st1" d="M598,1157.1c64.5,0,128.9,0,193.4,0c1.9,0,1.9-3,0-3c-64.5,0-128.9,0-193.4,0
				C596.1,1154.1,596.1,1157.1,598,1157.1L598,1157.1z"/>
		</g>
	</g>
	<g>
		<g>
			<path class="st1" d="M888.1,1140c55.4,0,110.7,0,166.1,0c1.9,0,1.9-3,0-3c-55.4,0-110.7,0-166.1,0
				C886.1,1137,886.1,1140,888.1,1140L888.1,1140z"/>
		</g>
	</g>
	<g>
		<g>
			<path class="st1" d="M1017.7,1149.1c32.6,0,65.2,0,97.8,0c1.9,0,1.9-3,0-3c-32.6,0-65.2,0-97.8,0
				C1015.8,1146.1,1015.8,1149.1,1017.7,1149.1L1017.7,1149.1z"/>
		</g>
	</g>
	<g>
		<g>
			<path class="st1" d="M784.6,1106.2c43.3,0,86.7,0,130,0c1.9,0,1.9-3,0-3c-43.3,0-86.7,0-130,0
				C782.7,1103.2,782.7,1106.2,784.6,1106.2L784.6,1106.2z"/>
		</g>
	</g>
	<path class="st3" d="M705.6,1154.5c1.3,17.2,85.2,24.9,129.1,26.8c123.8,5.2,268.3-21.6,267.7-45.7c-0.6-24.3-149.3-49.2-285-23.6
		C774.6,1120,704.5,1138.5,705.6,1154.5z"/>
</g>
<g id="leg_r">
	<path class="st4" d="M832.8,1053.8c-2.5,21.6-4.9,43.2-7.4,64.9c-41.8,26.7-77.3,34.8-98.8,37.6c-20.2,2.7-22.9,0-23.6-1.5
		c-4.9-9.8,39.4-41.7,78.9-67.8c5.4-17.2,10.8-34.4,16.2-51.6C809.7,1041.5,821.3,1047.6,832.8,1053.8z"/>
	<path class="st5" d="M825.3,622.2c-13.6,65.7-25.9,137.2-35.3,214c-9.4,75.9-14.9,147.5-17.7,214c5.3,4.1,16.7,11.7,33.2,14.5
		c17.2,2.9,31-0.9,37.4-3.1c2.5-27.8,5.9-56.6,10.4-86.2c13.8-91.6,35.2-173.6,59.2-245.2c9.1-8,22.1-21.6,32.2-41.6
		c2.9-5.6,27.2-53.9,11.4-76.9C940.8,589.3,886,589.4,825.3,622.2z"/>
	<path class="st6" d="M868.4,668.4c-5.2,40.5-10.3,81-15.3,121.5c-11.4,92-22.5,184-33.1,276.1c-4.8,0.8-15.2,1.9-27.2-2.5
		c-10.4-3.9-17.1-10.1-20.4-13.6c2-54.3,6.2-112.5,13.6-174.1c9.9-82.8,24-158.7,39.9-226.8C840.1,655.4,854.3,661.9,868.4,668.4z"
		/>
	<path class="st6" d="M802.2,858.7c19.5,10.8,40.9,1.5,44.2,0c-1.4-65.1-2.8-130.2-4.2-195.4c-6.2-4.8-12.5-9.6-18.7-14.4
		c-9,30.3-17.4,65-23.8,103.6c-5.7,34.4-8.7,66.3-10.2,95.1C792.2,851.2,796.3,855.4,802.2,858.7z"/>
</g>
<g id="leg_l">
	<path class="st4" d="M1005.3,1060.4c0.2,9.8,0.5,19.7,0.7,29.5c-11.2,9.7-26.6,24.4-42.8,44.2c-12.6,15.4-21.1,25.9-18.4,29.5
		c4,5.4,31.2-8,78.9-31.7c13.4-6.7,24.4-12.4,31.7-16.2c-5.7-27-11.3-54.1-17-81.1C1027.5,1043.2,1016.4,1051.8,1005.3,1060.4z"/>
	<path class="st5" d="M990.5,628.4c2.8,23.4,7,60.4,11.4,106c8.6,88.1,9.1,116.2,15.6,166.2c4.6,35.2,12.9,87.2,29.1,150.6
		c-3.7,3.7-12,11-24.9,14.5c-15.5,4.3-28.4,0.6-33.2-1c-14.5-43.3-28.6-89.4-41.6-138.2c-18.7-69.9-32.8-136.4-43.6-198.4
		c-8-8-15.9-15.9-23.9-23.9"/>
	<path class="st7" d="M875.4,674.7c10.4,5.2,23.5,10.7,39.2,14.8c10.8,2.8,20.8,4.5,29.5,5.4c4,26.1,10,67.2,15.6,118.1
		c7.1,64.9,7.4,88.5,14.8,129.4c5.4,29.7,15.4,73.1,35.5,125c4.2-0.2,11-1,18.5-4.4c8.5-3.9,14.1-9.3,17-12.6
		c-8-31.7-17.3-73.6-24.4-123.5c-8-55.8-8-85-15.5-157.5c-3.5-33.6-8.6-76.8-16.3-127.2C951.3,653,913.4,663.8,875.4,674.7z"/>
	<path class="st8" d="M936.8,858c7.6,2.8,30.8,10.1,55.5,0c8.2-3.4,14.6-7.8,19.2-11.8c-3.9-22.7-7.9-45.4-11.8-68
		c-14.1-38.7-28.1-77.4-42.2-116.1C950.6,727.4,943.7,792.7,936.8,858z"/>
</g>
<g id="torso">
	<path class="st9" d="M864.3,339.3c-12.5,40.9-24.5,84.6-35.2,131.2c-14.5,62.4-24.9,121.5-32.3,176.2c18.9,9.3,53.7,23.5,99.5,24.7
		c41,1.1,73.4-8.6,92.4-15.9c7.6-55.7,13-118.4,13.7-187c0.5-48.6-1.5-94.2-4.9-136.1c-19-3.4-44.1-6.1-73.4-3.9
		C900.5,330.2,880.3,334.6,864.3,339.3z"/>
	<path class="st10" d="M939.2,345.5c-19.3,108.1-38.5,216.1-57.8,324.2c14.3,1.8,34,2.7,57-0.8c20.4-3.2,37.1-8.9,49.4-14.2
		c3.7-23.8,6.8-48.6,9.2-74.6c6.9-75.5,5.9-144.8,0.8-206.1c-7.5-15.1-15.1-30.2-22.6-45.2c-9.5-0.3-19-0.6-28.5-0.8
		c0.2,0.2,4.1,4.6,2.5,10.1C948.1,342.2,944,345.3,939.2,345.5z"/>
	<path class="st11" d="M956,356.4c-2.3,40.8-5.6,83-10.1,126.5c-6.7,65.1-15.3,126.9-25.1,185.1c7.9-0.1,16.6-0.5,26-1.7
		c16.1-2,30.2-5.5,41.9-9.2c11.5-58.3,19.1-145.3-10.1-241.3C972,394.2,964.3,374.4,956,356.4z"/>
</g>
<g id="gown">
	<path class="st5" d="M950.1,328c4.1,56.9,6.1,104.6,7.1,139.5c2.1,69.8,4.7,167.4-5.3,291.4c-3.3,40.1-7,73.1-9.8,95.1
		c15.1-2.1,39.5-7.3,65.7-22.2c28-15.9,45.6-35.6,55.1-48c-5.6-34.9-12.4-80.5-18.7-134.2c-5.1-44.1-12.4-107.3-16-190.1
		c-1.6-37.4-2.8-85.4-1.8-141.3c-9.2,1.8-18.4,3.6-27.5,5.3c-6-1.6-15.7-3.3-27.5-1.8C962.3,323,955,325.7,950.1,328z"/>
	<path class="st5" d="M893.2,341.4c-7,30.5-16.1,73.1-24.9,124.4c-19.5,113.9-26,203.6-28.4,246.1c-2.1,36.1-3.9,83.8-3.6,140.4
		c-20.3-9.7-36.9-17.2-48-22.2c-30.8-13.8-44.1-19-47.1-31.1c-2-8.3,1.7-16.5,5.3-22.2c3-22.9,8.1-56.5,16.9-96.8
		c15.6-72.2,22.5-71.7,36.4-134.2c18-80.7,12.9-109.8,39.1-174.1c7.7-18.8,15.2-33.8,20.4-43.5c30.5-2.4,46.2-1.5,47.1,2.7
		C907.1,333.1,902.6,336.7,893.2,341.4z"/>
	<g>
		<g>
			<path class="st1" d="M776.4,659.7c6.5,10.7,15.8,19.1,27.2,24.3c1.7,0.8,3.3-1.8,1.5-2.6c-11-5-19.9-12.9-26.2-23.2
				C778,656.5,775.4,658,776.4,659.7L776.4,659.7z"/>
		</g>
	</g>
	<g>
		<g>
			<path class="st1" d="M765,702.3c3.2,10.3,7.2,21.1,16.2,27.7c8.1,6,17.4,5.2,23.8-2.7c1.2-1.5-0.9-3.6-2.1-2.1
				c-7.1,8.7-16.8,6.4-23.8-1.1c-5.8-6.3-8.7-14.5-11.2-22.6C767.3,699.7,764.4,700.4,765,702.3L765,702.3z"/>
		</g>
	</g>
	<g>
		<g>
			<path class="st1" d="M982.7,682.9c9.4-0.4,17.2-5.6,25-10.4c7.9-5,15.6-10.3,21.6-17.5c1.2-1.5-0.9-3.6-2.1-2.1
				c-5.5,6.6-12.4,11.6-19.6,16.1c-7.6,4.8-15.6,10.5-24.9,10.9C980.8,680,980.8,683,982.7,682.9L982.7,682.9z"/>
		</g>
	</g>
	<g>
		<g>
			<path class="st1" d="M990,722.3c19.4,10.8,38.9-4.1,47.5-21.3c0.9-1.7-1.7-3.2-2.6-1.5c-7.8,15.7-25.4,30.3-43.3,20.3
				C989.9,718.8,988.4,721.4,990,722.3L990,722.3z"/>
		</g>
	</g>
	<g>
		<g>
			<path class="st1" d="M961.7,804.8c-0.9-1.2-1.8-2.9-1.1-4.5c0.5-1.2,2-1.9,3.1-1.1c1.1,0.8,1.7,2.9,1.7,4.1c0,1-1.2,2.9-2.3,1.8
				c-1.4-1.4-3.5,0.7-2.1,2.1c1.9,2,5.2,1.3,6.7-0.9c1.7-2.6,0.6-6.6-1.4-8.8c-1.9-2.1-5.1-2-7.1,0c-2.5,2.4-1.8,6.3,0.1,8.8
				C960.3,807.9,962.9,806.4,961.7,804.8L961.7,804.8z"/>
		</g>
	</g>
	<g>
		<g>
			<path class="st1" d="M964.5,723.7c-1.6-1.8-1.2-5.8,1.5-6.4c3.5-0.8,2.9,7.9-0.4,5.8c-1.6-1.1-3.1,1.5-1.5,2.6
				c2.7,1.8,6,0,6.9-2.8c0.9-2.8,0-6.7-2.7-8.2c-2.7-1.4-5.8,0.6-7,3.1c-1.3,2.7-0.8,5.8,1.1,8C963.6,727.2,965.7,725.1,964.5,723.7
				L964.5,723.7z"/>
		</g>
	</g>
	<g>
		<g>
			<path class="st1" d="M966.9,629.1c-2.5-1.4-1.1-9,1.7-9.7c4.4-1.1,5.2,11.3-1.5,8.9c-1.8-0.6-2.6,2.3-0.8,2.9
				c8.7,3,12.3-12.1,4.2-14.6c-7.1-2.3-10.8,11.9-5.1,15.1C967.1,632.6,968.6,630,966.9,629.1L966.9,629.1z"/>
		</g>
	</g>
	<g>
		<g>
			<path class="st1" d="M967.6,548.4c-0.9-0.8-1.6-1.9-1.9-3.1c-0.2-1.2,0-3.3,1.5-3.6c1.2-0.3,1.9,1,2.3,1.9c0.2,0.5,0.3,1,0.4,1.6
				c0,0.2,0,2.4-0.5,2c-1.5-1.2-3.6,0.9-2.1,2.1c2.3,1.9,5.2,0.3,5.6-2.5c0.4-2.7-0.8-6.2-3.3-7.6c-2.6-1.4-5.4,0.2-6.4,2.7
				c-1.2,3-0.1,6.6,2.3,8.7C966.9,551.8,969,549.7,967.6,548.4L967.6,548.4z"/>
		</g>
	</g>
	<g>
		<g>
			<path class="st1" d="M966.1,474.1c-0.6-1.5-1.3-3.4-0.7-5.1c0.6-1.5,2.4-2.5,3.5-0.9c0.7,1.1,0.8,2.7,0.8,3.9c0,1-1,4.1-2.4,2.5
				c-1.3-1.5-3.4,0.7-2.1,2.1c1.8,2,5.1,1.4,6.5-0.7c1.7-2.5,1.3-6.8-0.2-9.3c-1.5-2.5-4.7-3-7-1.2c-3,2.4-2.5,6.3-1.3,9.5
				C963.8,476.7,966.7,475.9,966.1,474.1L966.1,474.1z"/>
		</g>
	</g>
	<g>
		<g>
			<path class="st1" d="M963.8,406.8c-0.1-1.2-0.4-3,0.5-4c1.2-1.2,2.2,0.6,2.7,1.5c0.5,1.1,0.9,2.4,0.4,3.5c-0.5,1-2.5,1.8-2.5,0
				c0.1-1.9-2.9-1.9-3,0c-0.1,2.7,2.7,4.7,5.3,3.9c2.9-0.9,3.9-4.2,3.2-6.9c-0.6-2.5-2.7-6-5.7-5.5c-3.6,0.6-4.1,4.4-3.8,7.4
				C960.9,408.7,963.9,408.7,963.8,406.8L963.8,406.8z"/>
		</g>
	</g>
	<g>
		<g>
			<path class="st1" d="M998.9,325.3c3.4,0.6,6.5,1.9,9.2,4.1c1.5,1.2,3.6-0.9,2.1-2.1c-3.1-2.5-6.6-4.2-10.5-4.9
				C997.8,322.1,997,325,998.9,325.3L998.9,325.3z"/>
		</g>
	</g>
	<g>
		<g>
			<path class="st1" d="M771.6,673.5c5,10.8,14.1,18.7,25.4,22.3c1.8,0.6,2.6-2.3,0.8-2.9c-10.6-3.4-18.9-10.9-23.6-21
				C773.3,670.2,770.8,671.7,771.6,673.5L771.6,673.5z"/>
		</g>
	</g>
	<g>
		<g>
			<path class="st1" d="M984.4,692.6c17.4,2.8,36-9.2,46.8-22.1c1.2-1.5-0.9-3.6-2.1-2.1c-10,11.9-27.6,23.9-43.8,21.3
				C983.3,689.4,982.5,692.3,984.4,692.6L984.4,692.6z"/>
		</g>
	</g>
	<g>
		<g>
			<path class="st1" d="M981.8,689.4c1.3,7.3,2.8,14.6,4.7,21.8c1,3.8,1.6,11.3,5.9,13.1c1.8,0.7,3.3-1.8,1.5-2.6
				c-2.5-1.1-3.1-6.4-3.7-8.6c-0.8-2.7-1.5-5.4-2.1-8.1c-1.3-5.4-2.4-10.9-3.4-16.4C984.4,686.7,981.5,687.5,981.8,689.4
				L981.8,689.4z"/>
		</g>
	</g>
	<g>
		<g>
			<path class="st1" d="M796.8,695.2c3,9.9,4.7,19.9,4.9,30.3c0,1.9,3,1.9,3,0c-0.2-10.6-1.9-20.9-5-31.1
				C799.1,692.6,796.2,693.4,796.8,695.2L796.8,695.2z"/>
		</g>
	</g>
	<path class="st12" d="M1002.9,409.5c5.7,43,9.9,89.7,11.3,139.7c3.1,110.5-7.9,208.3-23.3,289.2c10-3.9,22.4-9.8,35.5-18.9
		c16.7-11.6,28.5-24.2,36.2-34c-5.3-42-14.5-115.1-24.2-197.8c-2.6-22.5-6.3-54.2-9.1-96.6c-1.8-27-2.6-49.5-3-64.9
		C1018.5,420.6,1010.7,415,1002.9,409.5z"/>
	<path class="st3" d="M845.1,434.4c-8.1,35-13.6,64.5-17.4,86.1c-18,104.4-30.1,167-22.7,244.6c3.1,32.3,8.5,58.6,12.8,76.3
		c-13.7-4.8-28.8-11-44.5-18.9c-10.4-5.2-20-10.5-28.7-15.9c-1.1-1.4-4.5-5.7-4.5-12.1c-0.1-9.6,7.5-15.3,8.3-15.9
		c3.7-46,10.9-82.3,16.6-106.5c13.9-59,28.7-86.8,40.8-150.2c5.9-31.3,8.6-57.1,9.8-73.2C825.4,444,835.3,439.2,845.1,434.4z"/>
	<path class="st8" d="M1047.4,701.7c-2.4,0.1-1.8,19.8-6,46.1c-5.1,32-14.8,57.4-22.7,74.7c6.7-3.7,14.9-9,23.4-16.6
		c8.3-7.5,14.5-15,18.9-21.1C1053.4,716.7,1049.5,701.6,1047.4,701.7z"/>
	<path class="st13" d="M781.7,617.1c0.9,0.2-25.8,63.2-14.3,133.6c5.7,35,19.4,62.6,31,81.5c-15.4-6.5-27.2-11.3-34.7-14.3
		c-10.9-4.3-17.6-6.9-20.4-13.6c-2.3-5.6-1.3-12.4-0.8-15.9c0.8-5.2,2.5-9.4,3.8-12.1c4.3-24.8,10.9-59.9,20.4-101.9
		C777.3,626.8,781.3,617.1,781.7,617.1z"/>
</g>
<g id="hand_r">
	<path class="st5" d="M656,185.5c-1.8,14.5-3.6,28.9-5.4,43.4c-14.9,34.1-29.7,68.2-44.6,102.3c8.3,4.2,24,10.8,44.6,11.3
		c24.8,0.6,43.3-7.9,51.7-12.5c-9.3-32.9-18.6-65.8-27.9-98.7c-0.2-15.3-0.4-30.5-0.6-45.8C667.9,185.5,662,185.5,656,185.5z"/>
	<g>
		<g>
			<path class="st1" d="M656.8,194.3c5.6,1.9,11.5,1.4,16.6-1.6c1.7-1,0.2-3.5-1.5-2.6c-4.5,2.6-9.5,3-14.3,1.3
				C655.7,190.7,655,193.6,656.8,194.3L656.8,194.3z"/>
		</g>
	</g>
	<g>
		<g>
			<path class="st1" d="M639.7,328.3c8.1,3.2,16.5,4,25.1,2.6c1.9-0.3,1.1-3.2-0.8-2.9c-8.1,1.3-15.9,0.4-23.5-2.6
				C638.7,324.7,637.9,327.6,639.7,328.3L639.7,328.3z"/>
		</g>
	</g>
	<g>
		<g>
			<path class="st1" d="M643.1,320.2c7.6,2.3,15.3,2.2,22.8,0c1.8-0.6,1.1-3.5-0.8-2.9c-7.1,2.1-14.1,2.1-21.2,0
				C642.1,316.7,641.3,319.6,643.1,320.2L643.1,320.2z"/>
		</g>
	</g>
	<g>
		<g>
			<path class="st1" d="M644.9,310.7c6.9,1.7,13.7,1.5,20.5-0.5c1.8-0.5,1.1-3.4-0.8-2.9c-6.3,1.9-12.5,2-18.9,0.5
				C643.8,307.3,643,310.2,644.9,310.7L644.9,310.7z"/>
		</g>
	</g>
	<g>
		<g>
			<path class="st1" d="M647.9,300.4c6.6,1.6,13.2,1.5,19.8-0.5c1.8-0.5,1.1-3.4-0.8-2.9c-6,1.8-12.1,2-18.2,0.5
				C646.9,297,646.1,299.9,647.9,300.4L647.9,300.4z"/>
		</g>
	</g>
	<g>
		<g>
			<path class="st1" d="M653.9,291.5c4.8,1,9.6,1,14.5,0.2c1.9-0.3,1.1-3.2-0.8-2.9c-4.3,0.8-8.6,0.7-12.9-0.2
				C652.8,288.2,652,291.1,653.9,291.5L653.9,291.5z"/>
		</g>
	</g>
	<g>
		<g>
			<path class="st1" d="M655.1,281.3c4.9,0.9,9.7,0.8,14.5-0.3c1.9-0.5,1.1-3.3-0.8-2.9c-4.3,1-8.5,1.2-12.9,0.3
				C654,278.1,653.2,281,655.1,281.3L655.1,281.3z"/>
		</g>
	</g>
	<g>
		<g>
			<path class="st1" d="M654.5,267.8c4.6,1.5,9.2,1.6,13.9,0.6c1.9-0.4,1.1-3.3-0.8-2.9c-4.2,0.9-8.2,0.7-12.3-0.6
				C653.4,264.3,652.6,267.2,654.5,267.8L654.5,267.8z"/>
		</g>
	</g>
	<g>
		<g>
			<path class="st1" d="M656.8,256.7c3.3,0.8,6.6,1.2,10,1c1.9-0.1,1.9-3.1,0-3c-3.1,0.1-6.1-0.2-9.2-0.9
				C655.7,253.4,654.9,256.3,656.8,256.7L656.8,256.7z"/>
		</g>
	</g>
	<path class="st5" d="M680.8,268.5c-0.6-0.5-13-10.4-10.9-14.4c1.5-2.9,10.1-1.6,15.2,0c11.9,3.8,18.3,13.6,20.3,16.8
		c6.2,9.8,6.6,19.2,6.6,21.4c0.2,8.5-2.3,15-3.9,18.3c3.4,13.4,6.8,26.8,10.1,40.1c-9.2,4.8-18.4,9.6-27.7,14.4
		c-4-8.6-8.1-17.1-12.1-25.7"/>
	<g>
		<g>
			<path class="st1" d="M684.8,282.5c-1.7,8.4-1.4,16.7,0.7,25c0.5,1.9,3.4,1.1,2.9-0.8c-2-7.8-2.3-15.5-0.7-23.4
				C688,281.4,685.1,280.6,684.8,282.5L684.8,282.5z"/>
		</g>
	</g>
	<g>
		<g>
			<path class="st1" d="M684.6,304.1c2.9,8.9,5.7,17.7,8.6,26.6c0.6,1.8,3.5,1,2.9-0.8c-2.9-8.9-5.7-17.7-8.6-26.6
				C686.9,301.5,684,302.3,684.6,304.1L684.6,304.1z"/>
		</g>
	</g>
	<g>
		<g>
			<path class="st1" d="M676.5,341.7c7.4-1.4,14-4.9,19.4-10.1c1.4-1.3-0.7-3.5-2.1-2.1c-5.1,4.9-11.1,8-18,9.3
				C673.8,339.2,674.6,342.1,676.5,341.7L676.5,341.7z"/>
		</g>
	</g>
	<g>
		<g>
			<path class="st1" d="M679.1,268.3c1.9,6.8,5.4,12.8,10.3,17.9c1.3,1.4,3.5-0.7,2.1-2.1c-4.5-4.7-7.7-10.3-9.5-16.6
				C681.4,265.7,678.5,266.4,679.1,268.3L679.1,268.3z"/>
		</g>
	</g>
	<path class="st5" d="M624.3,265.7c-2.2-0.8-8.2,5.6-7.5,12c0.4,4.3,3.6,7,5.2,8.4c3,2.6,8.1,5.2,9.5,3.9c1-1,0.5-4.2-6.1-14.3
		C626.2,268.1,625.3,266.1,624.3,265.7z"/>
	<path class="st5" d="M623.9,257.7c-3.4,2.7-2.9,8.2-2.7,10c0.1,1.5,0.7,7,5.2,10.9c3.7,3.1,9.4,4.6,10.7,2.9c0.7-0.9,0-2.4-1.1-5
		c-1.6-3.7-3.6-6.3-5-7.9c0-6.8-1.7-11.6-4.1-12C625.7,256.3,624.5,257.2,623.9,257.7z"/>
	<path class="st5" d="M625.5,256c-2.3,9.6,12,19.8,15.4,17.9c2-1.1,1.3-7.2,0.2-10.7c-0.7-2.2-1.7-3.9-2.5-5
		c2-4.6,3.8-10.1,1.8-11.8C637.7,244.2,627.2,248.8,625.5,256z"/>
	<path class="st5" d="M622.5,293.4c-5.9-0.3-15.8-0.4-16.6,2.5c-0.6,2.3,4.6,6.2,5.7,7c1.9,1.5,3.8,2.4,5.2,2.9
		C618.7,301.7,620.6,297.6,622.5,293.4z"/>
	<path class="st12" d="M671.9,253.8c-1.6,3.8,23,10.5,28.1,29.5c2,7.3-0.8,9.9-1.5,27c-0.5,11.5,0.3,21,1.1,27.4
		c4.4-2.7,8.8-5.3,13.1-8c-1.7-6.6-3.4-13.1-5.1-19.7c1.9-4.4,5.1-13.4,3.3-24.4c-0.4-2.5-3.7-20.5-19.7-28.8
		C683.1,252.5,672.9,251.4,671.9,253.8z"/>
	<path class="st10" d="M658.4,189.2c3.2,2.1,6.3,4.1,9.5,6.2c1.4,16.6,1.6,41.5-5.8,70.4c-8.7,33.9-24,58.5-34.7,73
		c9.3,2.9,28.4,7.4,50,0.7c6.8-2.1,12.5-4.9,17.1-7.7c-3-5.6-7-14.7-8.4-26.6c-1.1-9.2-0.3-17.1,0.7-22.6c-2-3.3-3.3-6.1-4-8
		c-1.6-4.3-1.5-5.8-3.3-8c-2.1-2.6-3.3-2-5.8-4.7c-0.6-0.6-4.5-5-3.3-7.7c1.3-2.9,7.1-0.9,9.5-3.6c1.8-2.1,1.6-7-5.5-18.6
		c-0.5-14.7-1-29.4-1.5-44.1C668.1,188.3,663.3,188.7,658.4,189.2z"/>
	<path class="st14" d="M678.1,266.9c1.4,7.4,3.4,23.4-2.9,41.9c-5.5,16.2-14.8,26.9-20.1,32.1c4.2,0.7,13,1.7,23-1.8
		c7.3-2.6,12.4-6.5,15.3-9.1c-2.3-5.4-4.7-12.4-6.2-20.8c-1.9-11-1.6-20.5-0.7-27.4c-1.3-1.8-2.7-3.9-4-6.2
		C680.7,272.6,679.2,269.6,678.1,266.9z"/>
	<path class="st3" d="M640.8,246.2c-1.2-0.5-8.6,7.6-6.8,15.9c1.2,5.7,6.6,10.1,7.9,9.3c0.8-0.5,0.6-3.4-3.7-13.6
		C641.2,248.8,641.3,246.5,640.8,246.2z"/>
	<path class="st15" d="M624.1,258.4c-1.1,0.4-0.1,9.3,5.4,16.1c2.9,3.7,7,6.5,7.6,5.9c0.5-0.4-0.7-2.3-5.7-10.5
		C624.9,259.1,624.4,258.3,624.1,258.4z"/>
	<path class="st16" d="M620.3,300.1c-4.3,10.2-8.6,20.4-13,30.6c3.4,1.6,8,3.5,13.7,5.4c16.7,5.3,30.3,5.4,34.4,5.4
		c10.6-0.1,20.5-0.4,30.8-6.5c3.1-1.9,5.5-3.8,7-5.1c-3.3-10.8-6.5-19.4-9-25.6c-1.2-3-2.3-5.5-4.5-6.1c-5.3-1.4-8.8,10.1-16.9,10.9
		c-8,0.7-11.6-9.8-19.2-8.3c-5.6,1.1-7.3,7.9-10.9,7c-3.2-0.8-3.3-6.6-7.7-8C623.2,299.2,621.4,299.6,620.3,300.1z"/>
	<path class="st17" d="M625.4,296.7c2.4-0.9,4.7-0.7,5.9-0.6c3.7,0.5,6.4,1.9,7,2.3c9.1,5,32.4-10.9,42.6-3.7c3.4,2.4,5,7,4.4,10.6
		c-1.9,9.8-22.6,13.9-37,13.3c-12.8-0.6-29.4-5.4-30.1-12.3C617.9,302.8,621.4,298.2,625.4,296.7z"/>
	<g class="st18">
		<g>
			<path class="st9" d="M647.7,277.8c0,0.3-0.1,0.6-0.4,0.8c-0.2,0.1-0.3,0.1-0.1,0.1c-0.1,0-0.1,0-0.2,0c0.3,0-0.3-0.1,0,0
				c-0.3-0.1-0.5-0.3-0.6-0.6c-0.1-0.4,0-0.7,0.2-0.9c-0.1,0.1,0.4-0.2,0.3-0.2c-0.1,0-0.1,0,0.2,0c-0.1,0-0.1,0,0,0
				c0.1,0,0.2,0,0.3,0.1c0.3,0.4,0.4,0.5,0.3,0.3c-0.4-0.7-1.4-0.9-2.1-0.5c-0.7,0.4-0.9,1.3-0.5,2.1c1.2,2.2,5,0.8,4.2-1.7
				c-0.3-1-1.3-1.6-2.3-1.6c-1.2,0.1-2,0.9-2.2,2.1c-0.1,0.8,0.8,1.5,1.5,1.5C647.1,279.3,647.6,278.7,647.7,277.8L647.7,277.8z"/>
		</g>
	</g>
	<g class="st18">
		<g>
			<path class="st9" d="M654.7,252.2c0-0.1,0-0.2,0-0.2c0,0.4-0.3,0.7-0.7,0.8c-0.3,0-0.5,0-0.8,0c-0.1,0-0.2-0.1-0.2-0.1
				c-0.2-0.2-0.4-0.4-0.5-0.5c0.1,0.1,0.1,0.1,0-0.2c-0.1-0.2-0.1-0.4,0-0.6c0.1-0.2,0.3-0.4,0.4-0.7c0,0,0,0,0,0
				c0.2-0.1,0.4-0.3,0.7-0.4c0,0,0,0,0,0c0.3,0,0.5,0,0.8,0c0,0,0,0-0.1,0c-0.7-0.2-1.7,0.3-1.8,1c-0.2,0.8,0.3,1.6,1,1.8
				c0.8,0.3,1.8-0.3,2-1.1c0.2-0.7-0.1-1.4-0.6-1.9c-0.7-0.5-1.6-0.5-2.2,0.1c-0.5,0.5-0.7,1.2-0.6,1.8c0.1,0.8,0.6,1.5,1.5,1.5
				C654,253.7,654.8,253,654.7,252.2L654.7,252.2z"/>
		</g>
	</g>
	<g class="st18">
		<g>
			<path class="st9" d="M663.7,235.4c0,0.1,0,0.2,0,0.2c1-0.1,2-0.3,2.9-0.4c-0.1-0.3-0.1-0.1,0,0.4c0,0.1-0.1,0.2-0.2,0.3
				c-0.2,0.1-0.2,0.1,0,0c0,0-0.1,0-0.1,0.1c-0.5,0-0.8,0-1-0.5c0,0.2,0,0.1,0-0.1c0,0.1,0,0.1,0,0c0-0.1,0-0.1,0,0
				c0-0.1,0.1-0.2,0.2-0.3c0.2-0.2,0.3-0.1,0.5-0.2c0.1,0,0.1,0,0,0c0.1,0,0.2,0.1,0.2,0.2c-0.1-0.1-0.1-0.1,0,0
				c0.1,0.2,0.1,0.2,0,0c-0.1,0.4-0.1,0.8-0.2,1.2c-0.1,0.3-0.7,0.4-0.9,0.3c-0.5-0.2-0.8-0.7-0.6-1.2c0.8-0.1,1.6-0.2,2.4-0.3
				c-0.2-0.2-0.5-0.4-0.7-0.6c-0.6-0.5-1.5-0.6-2.1,0c-0.6,0.6-0.6,1.6,0,2.1c0.2,0.2,0.5,0.4,0.7,0.6c0.7,0.6,1.9,0.6,2.4-0.3
				c0.5-1,0.3-2.3-0.7-2.9c-0.9-0.6-2.1-0.4-2.8,0.4c-0.8,0.9-0.5,2.1,0.3,2.8c0.7,0.6,1.7,0.9,2.6,0.6c1.7-0.5,2.2-3,0.9-4.2
				c-0.8-0.7-1.9-0.7-2.8-0.1c-0.8,0.6-1.3,1.6-0.9,2.6c0.3,0.7,0.9,1.2,1.6,1.1c0.7-0.1,1.4-0.7,1.3-1.5c0-0.1,0-0.2,0-0.2
				c-0.1-0.8-0.6-1.5-1.5-1.5C664.5,233.9,663.7,234.6,663.7,235.4L663.7,235.4z"/>
		</g>
	</g>
	<g class="st18">
		<g>
			<path class="st9" d="M661.9,212.6c-0.2-0.3,0.1,0.3,0,0.4c0,0.1-0.2,0.3,0,0.1c-0.2,0.2-0.5,0.4-0.8,0.3c-0.3-0.3-0.7-0.7-1-1
				c0.1,0.2,0,0,0-0.1c0-0.2,0.1-0.3,0.3-0.5c0.5,0,1,0,1.5,0c0.3,0.2,0.4,0.4,0.4,0.7c0-0.2,0-0.1,0,0.1c0-0.1,0-0.1,0,0
				c-0.1,0.1,0,0.1,0,0c0,0.1-0.1,0.2-0.2,0.2c-0.1,0.1-0.6,0.2-0.4,0.2c-0.4-0.2-0.9-0.5-1.3-0.7c0.1,0.2,0-0.1,0-0.2
				c0,0.1,0,0.2,0,0c0-0.1,0-0.1,0,0c0,0,0-0.1,0.1-0.1c-0.1,0.1-0.1,0.1,0,0c0.2-0.2,0,0-0.1,0c0.7,0.2,1.4,0.4,2.1,0.5
				c-0.4-0.5-0.7-1-1.1-1.5c-0.5-0.6-1.3-1-2.1-0.5c-0.6,0.4-1,1.4-0.5,2.1c0.4,0.5,0.7,1,1.1,1.5c0.5,0.7,1.2,0.9,2.1,0.5
				c0.9-0.4,1.4-1.4,1.5-2.3c0.1-1.3-0.7-2.5-2.1-2.3c-0.9,0.1-1.7,0.8-1.9,1.8c-0.3,1,0.1,2,1,2.6c0.4,0.3,1.1,0.3,1.5,0
				c0.7-0.5,1.2-1.3,1.2-2.2c-0.1-1.1-0.9-1.9-2.1-1.8c-1.6,0.2-2.7,2.2-1.7,3.6c0.5,0.7,1.3,1,2.1,0.5
				C662,214.3,662.4,213.3,661.9,212.6L661.9,212.6z"/>
		</g>
	</g>
	<g class="st18">
		<g>
			<path class="st9" d="M662.9,167.7c-0.3,0.6-1.2,0.4-1.5,0c-0.1-0.4-0.1-0.8-0.2-1.2c0,0.1,0,0.2-0.1,0.3c0,0,0,0.1,0,0.1
				c0-0.1,0-0.1,0,0c0,0-0.2,0.3-0.1,0.2c0.1-0.1-0.2,0.2-0.2,0.2c0.7,0,1.4,0,2.1,0c0.1,0.2,0,0,0,0c0,0,0,0.1,0,0.1
				c0-0.2,0-0.2,0-0.1c0,0.2,0-0.2,0,0c0,0.2,0.1-0.2,0.1-0.2c-0.5,0.4-1,0.7-1.4,1.1c-0.7-0.1-0.9-0.5-0.7-1.3
				c0.2-0.3,0.6-0.5,0.9-0.4c-0.8-0.2-1.7,0.2-1.8,1c-0.2,0.7,0.2,1.7,1,1.8c1.2,0.2,2.4-0.4,2.7-1.6c0.3-1.4-0.8-2.6-2.1-2.6
				c-0.7,0-1.2,0.5-1.4,1.1c-0.4,1.1-0.1,2.3,0.7,3.2c0.5,0.6,1.6,0.5,2.1,0c0.9-0.9,1.8-2.6,0.7-3.7c-0.9-0.9-2.7-0.8-3.3,0.5
				c-0.3,0.7-0.2,1.6,0.5,2.1C661.5,168.6,662.6,168.5,662.9,167.7L662.9,167.7z"/>
		</g>
	</g>
	<g class="st18">
		<g>
			<path class="st9" d="M643.8,163.3C643.7,163.3,643.7,163.3,643.8,163.3c0.1-0.1,0.2-0.4,0.4-0.6c0,0,0,0-0.1,0.1
				c0.2-0.1,0.4-0.3,0.7-0.4c0.3,0,0.5,0.1,0.8,0.1c0.2,0.2,0.4,0.4,0.5,0.5c0,0.3,0,0.5,0.1,0.8c-0.3,0.2-0.6,0.5-0.9,0.7
				c0.3-0.1,0,0-0.2-0.1c-0.2-0.2-0.4-0.4-0.5-0.5c-0.5-0.7,1-1.4,1.3-0.5c-0.2-0.8-1.1-1.3-1.8-1c-0.8,0.2-1.3,1.1-1,1.8
				c0.4,1.3,1.9,2.1,3.2,1.6c1.3-0.6,1.9-2.4,0.9-3.5c-0.5-0.6-1.5-0.8-2.3-0.6c-0.9,0.2-1.5,1.1-1.5,2c0.1,2,2.9,2.5,3.5,0.6
				c0.2-0.8-0.3-1.7-1-1.8C644.8,162,644,162.5,643.8,163.3L643.8,163.3z"/>
		</g>
	</g>
	<g class="st18">
		<g>
			<path class="st9" d="M663.1,138.6c0.1,0,0.1,0.1,0.2,0.1c0.1,0.2,0.3,0.4,0.4,0.7c-0.2-0.4-0.2-0.1-0.3,1
				c-0.2,0.1-0.4,0.3-0.7,0.4c-0.5-0.5-0.9-0.9-1.4-1.4c0.1-0.2,0.3-0.4,0.4-0.7c0,0,0,0-0.1,0.1c-0.5,0.6-0.6,1.5,0,2.1
				c0.5,0.5,1.6,0.6,2.1,0c0.5-0.6,0.7-1.4,0.3-2.2c-0.4-0.7-1.1-1.1-1.8-1c-1.7,0.2-2,2.6-0.6,3.4c0.7,0.4,1.6,0.2,2.1-0.5
				C664,139.9,663.8,139,663.1,138.6L663.1,138.6z"/>
		</g>
	</g>
	<g class="st18">
		<g>
			<path class="st9" d="M678.4,165.6c-0.1,0.7-0.3,1.5-0.4,2.2c-0.2,0.9,1.3,1.3,1.4,0.4c0.1-0.7,0.3-1.5,0.4-2.2
				C680,165.1,678.6,164.7,678.4,165.6L678.4,165.6z"/>
		</g>
	</g>
	<g class="st18">
		<g>
			<path class="st9" d="M681.2,166c0.5,0.5,1,1,1.5,1.5c0.7,0.7,1.8-0.4,1.1-1.1c-0.5-0.5-1-1-1.5-1.5
				C681.6,164.2,680.5,165.3,681.2,166L681.2,166z"/>
		</g>
	</g>
	<g class="st18">
		<g>
			<path class="st9" d="M676.8,164.1c-0.6,0.1-1.2,0.3-1.8,0.4c-0.9,0.2-0.5,1.6,0.4,1.4c0.6-0.1,1.2-0.3,1.8-0.4
				C678.1,165.3,677.7,163.8,676.8,164.1L676.8,164.1z"/>
		</g>
	</g>
	<g class="st18">
		<g>
			<path class="st9" d="M678,161.4c-0.2-0.4-0.5-0.7-0.7-1.1c-0.5-0.8-1.8,0-1.3,0.8c0.2,0.4,0.5,0.7,0.7,1.1
				C677.2,163,678.5,162.3,678,161.4L678,161.4z"/>
		</g>
	</g>
	<g class="st18">
		<g>
			<path class="st9" d="M681.9,160.3c0.4-0.6,0.8-1.2,1.1-1.8c0.5-0.8-0.8-1.6-1.3-0.8c-0.4,0.6-0.8,1.2-1.1,1.8
				C680.1,160.4,681.4,161.1,681.9,160.3L681.9,160.3z"/>
		</g>
	</g>
	<g class="st18">
		<g>
			<path class="st9" d="M684.8,161.4c0.6-0.1,1.2-0.3,1.8-0.4c0.9-0.2,0.5-1.6-0.4-1.4c-0.6,0.1-1.2,0.3-1.8,0.4
				C683.5,160.2,683.9,161.6,684.8,161.4L684.8,161.4z"/>
		</g>
	</g>
	<g class="st18">
		<g>
			<path class="st9" d="M642.3,138.4c-0.3,0.6-0.6,0.9-1.2,1.2c-0.4,0.2-0.5,0.7-0.3,1c0.2,0.4,0.7,0.4,1,0.3c0.8-0.3,1.4-1,1.7-1.7
				c0.2-0.4,0.1-0.8-0.3-1C643,137.9,642.4,138,642.3,138.4L642.3,138.4z"/>
		</g>
	</g>
	<g class="st18">
		<g>
			<path class="st9" d="M644.1,139.9c0.5,0.7,0.8,1.5,1,2.4c0.2,1,1.6,0.5,1.4-0.4c-0.2-1-0.6-1.9-1.1-2.8
				C644.8,138.3,643.5,139.1,644.1,139.9L644.1,139.9z"/>
		</g>
	</g>
	<g class="st18">
		<g>
			<path class="st9" d="M639.5,137.9c0.5-0.6,1.1-0.9,1.8-1c0.4-0.1,0.6-0.6,0.5-0.9c-0.1-0.4-0.5-0.6-0.9-0.5
				c-1,0.1-1.8,0.6-2.5,1.3C637.7,137.5,638.8,138.6,639.5,137.9L639.5,137.9z"/>
		</g>
	</g>
	<g class="st18">
		<g>
			<path class="st9" d="M640.6,132.3c0.4,0.4,0.7,0.7,1.1,1.1c0.7,0.7,1.7-0.4,1.1-1.1c-0.4-0.4-0.7-0.7-1.1-1.1
				C640.9,130.6,639.9,131.7,640.6,132.3L640.6,132.3z"/>
		</g>
	</g>
	<g class="st18">
		<g>
			<path class="st9" d="M645.8,133.7c0.4-0.6,0.7-1.2,1.1-1.8c0.5-0.8-0.8-1.6-1.3-0.8c-0.4,0.6-0.7,1.2-1.1,1.8
				C644,133.7,645.3,134.5,645.8,133.7L645.8,133.7z"/>
		</g>
	</g>
	<g class="st18">
		<g>
			<path class="st9" d="M647.3,135.9c0.7,0,1.5,0,2.2,0c1,0,1-1.5,0-1.5c-0.7,0-1.5,0-2.2,0C646.3,134.4,646.3,135.9,647.3,135.9
				L647.3,135.9z"/>
		</g>
	</g>
	<g class="st18">
		<g>
			<path class="st9" d="M647.7,137.9c0.2,0.6,0.5,1.2,0.7,1.8c0.1,0.4,0.5,0.6,0.9,0.5c0.4-0.1,0.7-0.5,0.5-0.9
				c-0.2-0.6-0.5-1.2-0.7-1.8c-0.1-0.4-0.5-0.6-0.9-0.5C647.9,137,647.5,137.5,647.7,137.9L647.7,137.9z"/>
		</g>
	</g>
</g>
<g id="arm_r">
	<path class="st5" d="M860.4,328.5c-9.1,3-19,6.9-29.4,11.9c-26.1,12.7-45.7,28.4-59.7,41.8c-2.1-4-5.2-5.6-6.6-4.9
		c-1.2,0.6-1.6,2.9-1.2,5.4c-7.5-4.6-17-11.5-26.5-21.4c-10.9-11.5-17.8-23-22.1-31.5c-12.6,7.4-25.2,14.7-37.8,22.1
		c1.2,6.6,9.8,51.2,49.2,72.5c32.2,17.4,66.8,9.5,81.1,6.2c11.5-2.6,20.8-6.3,27.2-9.3"/>
	<g>
		<g>
			<path class="st1" d="M762.4,382.7c1.2,3.1,2.1,6.3,2.9,9.6c0.5,1.9,3.3,1.1,2.9-0.8c-0.8-3.3-1.8-6.4-2.9-9.6
				C764.7,380.1,761.8,380.8,762.4,382.7L762.4,382.7z"/>
		</g>
	</g>
	<path class="st13" d="M699.5,341c2.7,23.5,12.1,37.4,17.5,44c31.6,38.9,93.6,33.4,102,32.5c12-1.2,20.6-3.8,21-2.5
		c0.8,2.5-27.4,20.1-62,20.5c-10.3,0.1-53.4-0.9-80.5-35.5c-14.7-18.7-18-38.8-19-48.5C685.5,348,692.5,344.5,699.5,341z"/>
	<path class="st19" d="M701.5,382c13,13.7,26,27.3,39,41"/>
	<path class="st3" d="M739.5,429.5C730.2,426,710,416.8,695,395c-12.3-17.8-15.2-35.4-16-44c5.3,11.9,15.5,30.4,34.5,47
		c33.5,29.4,71.6,33.3,85,34C790.4,434.2,766.7,439.7,739.5,429.5z"/>
</g>
<g id="head">
	<path class="st20" d="M843.9,184.6c-9-5.3-16.6-15.4-14.1-20.5c2.5-5.3,13.7-1.1,18-7.7c3-4.7-1.3-8.8-0.6-18.6
		c0.2-2.6,1.2-17.4,10.9-21.8c6.8-3.1,15.9-0.3,23.1,6.4c3.3-0.5,7.7-1.7,9.6-5.1c3.9-6.8-5.1-16.5-1.9-19.9
		c3.3-3.5,16.1,3.4,19.2,5.1c7.2,3.9,12.3,8.4,15.4,11.5c0.7-2.5,5.1-17.2,17.3-21.2c11.9-3.9,23.4,4.8,31.4,10.9
		c9.4,7.1,11.2,11.9,27.6,35.9c19.5,28.6,24.7,33.1,23.7,43c-0.6,6.4-2.9,6.3-8.3,24.4c-3.8,12.6-3.1,14.1-5.8,23.1
		c-1.8,6.1-6.6,21.4-18,35.9c-5.1,6.5-20.4,24.4-26.3,21.2c-8.8-4.9,19.2-42.4,4.5-66.1c-16.8-27-86.6-31.7-105.2-31.4
		C862.3,189.8,853,190,843.9,184.6z"/>
	<path class="st5" d="M898,301.6c-2,6.5,7.4,12.4,10.7,28.1c2,9.3,0.9,17.6-0.6,23.6c5.7-0.8,13-2.4,21-5.5
		c7.3-2.8,13.2-6.2,17.7-9.2c-3.2-15.6-6.4-31.3-9.5-46.9C908.2,291.6,899.6,296.4,898,301.6z"/>
	<g>
		<g>
			<path class="st1" d="M909.3,328.4c11.6-3.6,23.7-10.1,32.5-18.6c1.4-1.3-0.7-3.5-2.1-2.1c-8.3,8.1-20.2,14.4-31.2,17.8
				C906.7,326.1,907.5,329,909.3,328.4L909.3,328.4z"/>
		</g>
	</g>
	<g>
		<g>
			<path class="st1" d="M905.4,320.6c1.2,3.4,1.7,7,6,5.7c6.5-2.1,12.8-5.7,18.9-8.7c1.7-0.8,0.2-3.4-1.5-2.6
				c-3.6,1.7-7.2,3.4-10.9,5.1c-1.5,0.7-3.1,1.6-4.7,2.1c-3.1,1-3.9,0.5-4.9-2.4C907.7,318,904.8,318.8,905.4,320.6L905.4,320.6z"/>
		</g>
	</g>
	<g>
		<g>
			<path class="st1" d="M907.5,322.8c7.4,0,14.4-1.8,21-5.3c1.7-0.9,0.2-3.5-1.5-2.6c-6.1,3.2-12.5,4.9-19.4,4.9
				C905.5,319.9,905.5,322.9,907.5,322.8L907.5,322.8z"/>
		</g>
	</g>
	<path class="st5" d="M860.4,212.6c-1.3,5.9-5.1,24.8-0.5,48.3c1.6,8.2,3.3,17.3,9.2,27.7c8.2,14.4,19.4,22.7,26.1,26.9
		c4.4,0.5,36.8,3.8,59.9-19.9c11.9-12.2,15.9-26,17.4-33.1c2.1,0.5,9.3,2.1,16.1-1.8c9.8-5.7,12.3-19.1,8.5-28.2
		c-0.3-0.7-5-11.3-12.5-10.7c-4.3,0.3-7.2,4.1-8.1,5.4c3-7.1,12.1-31.3,0.9-50.1c-17.9-30-75.9-28.8-100.2-3.6
		C866.7,184.4,863.5,198.8,860.4,212.6z"/>
	<g>
		<g>
			<path class="st1" d="M874.5,235.2c-1.7-1.6-0.5-6.5,0.1-8.4c0.1-0.6,0.3-1.2,0.7-1.8c0.1,0.6,0.3,1.3,0.3,1.9
				c0.2,1.3,0.2,2.7,0.1,4c-0.1,1.2-0.6,2.6-0.6,3.8c-0.6,0.7-0.5,1.1,0.2,1.3c0-0.8,0.1-1.5,0.1-2.3c0.2-2.9,0.7-5.7,1.4-8.6
				c-1-0.1-2-0.3-2.9-0.4c-0.3,4.1-0.6,8.1-0.8,12.2c0.8-0.4,1.5-0.9,2.3-1.3c0,0.1,0,0.3,0,0.4c0.4-1.9-2.5-2.7-2.9-0.8
				c-0.3,1.3,0,2.4,1.3,3c1.1,0.5,2.2-0.1,2.3-1.3c0.3-4.1,0.6-8.1,0.8-12.2c0.1-1.7-2.5-2-2.9-0.4c-0.8,3.3-1.4,6.6-1.6,9.9
				c-0.1,1.7-0.3,4.5,1.9,5.1c4.7,1.4,4.6-9.2,4.4-11.7c-0.1-1.8-0.2-4.5-1.8-5.8c-1.3-1.1-3.1-0.5-4,0.8
				c-2.2,3.2-3.6,11.7-0.5,14.6C873.8,238.6,875.9,236.5,874.5,235.2L874.5,235.2z"/>
		</g>
	</g>
	<g>
		<g>
			<path class="st1" d="M932.3,235.9c-0.4-1.9-0.6-3.9-0.4-5.8c0.1-1.3,0.9-5.7,2.1-2.6c1.3,3.4-0.5,8.2-2.2,11
				c0.7-0.2,1.4-0.4,2.1-0.5c-1.6-0.8-0.9-4.3-0.7-5.6c0.1-1.2,0.1-5.1,1.3-5.8c-0.7-0.3-1.5-0.6-2.2-0.9c0.8,3.8,0.7,7.6-0.1,11.4
				c0.9-0.1,1.8-0.2,2.7-0.4c-1.2-2.9-1.2-5.8-0.2-8.7c-1,0-1.9,0-2.9,0c0.3,1.5,0.3,2.6-0.1,4.1c-0.5,1.9,2.4,2.7,2.9,0.8
				c0.5-2,0.5-3.7,0.1-5.7c-0.4-1.5-2.5-1.3-2.9,0c-1.3,3.8-1,7.4,0.6,11.1c0.5,1.2,2.5,0.8,2.7-0.4c0.9-4.4,0.9-8.7,0.1-13
				c-0.2-0.9-1.4-1.4-2.2-0.9c-2.7,1.7-2.6,6.1-2.9,9c-0.3,2.7-0.6,6.2,2.2,7.7c0.7,0.4,1.6,0.2,2.1-0.5c1.9-3,3-6.5,2.9-10
				c0-2.4-0.3-6.2-2.8-7.4c-6.3-3-5.6,11.4-5,14.2C929.8,238.6,932.7,237.8,932.3,235.9L932.3,235.9z"/>
		</g>
	</g>
	<g>
		<g>
			<path class="st1" d="M896.7,240c-4.1,6.7-9.1,15.6-9.8,23.5c-0.6,5.8,7.8,7.8,12.3,7.3c1.9-0.2,1.9-3.2,0-3
				c-2,0.2-5.8,0.3-7.3-1.4c-2.7-3-0.8-7,0.3-10.2c1.9-5.2,4.3-10.1,7.2-14.8C900.3,239.9,897.7,238.4,896.7,240L896.7,240z"/>
		</g>
	</g>
	<g>
		<g>
			<path class="st1" d="M890.9,251.8c-0.4,0.7-0.8,1.4-1.2,2.1c-0.4,0.7-0.2,1.6,0.5,2.1c0.7,0.4,1.7,0.2,2.1-0.5
				c0.4-0.7,0.8-1.4,1.2-2.1c0.4-0.7,0.2-1.6-0.5-2.1C892.2,250.9,891.3,251.1,890.9,251.8L890.9,251.8z"/>
		</g>
	</g>
	<g>
		<g>
			<path class="st1" d="M871.1,214c4.1,1.5,7.5,4.3,9.7,8.1c0.7,1.2,2.7,0.1,1.9-1.1c-2.6-4.3-6.4-7.4-11.1-9.1
				C870.3,211.4,869.7,213.5,871.1,214L871.1,214z"/>
		</g>
	</g>
	<g>
		<g>
			<path class="st1" d="M923.7,225.1c2.5-4.7,6.6-8.1,11.7-9.6c1.4-0.4,0.8-2.6-0.6-2.2c-5.6,1.7-10.3,5.5-13.1,10.7
				C921.1,225.3,923.1,226.4,923.7,225.1L923.7,225.1z"/>
		</g>
	</g>
	<g>
		<g>
			<path class="st1" d="M906.6,318.2c-0.1,0-0.1,0.1-0.2,0.1c0.6,0.1,1.2,0.2,1.8,0.2c-0.1-0.1-0.1-0.1-0.2-0.2c0,0.7,0,1.4,0,2.1
				c0.8-0.2,1.5-0.3,2.3-0.5c1.6-0.1,2.2-2.7,0.4-2.9c-0.8-0.3-1.6-0.6-2.5-0.9c0,0.9,0,1.7,0,2.6c0.3,0,0.7,0,1,0.1
				c0-1,0-1.9,0-2.9c-0.9,0-1.8-0.1-2.7-0.1c-1.9-0.6-2.5,2.2-0.8,2.9c3.6,1.5,8,0.1,11.6-0.7c4.9-1,9.6-2.6,14-5
				c-0.6-0.8-1.2-1.6-1.8-2.4c-3,3-7.3,3.9-11.2,5.3c-3.8,1.3-7.7,2.7-11.5,4c-1.8,0.6-1.1,3.4,0.8,2.9c9.1-2.2,22.2-3,28.6-10.7
				c1.2-1.5-0.9-3.6-2.1-2.1c-3.1,3.7-7.5,5.1-12,6.2c-5.1,1.3-10.2,2.5-15.3,3.7c0.3,1,0.5,1.9,0.8,2.9c5-1.8,10-3.5,15-5.3
				c3.3-1.2,6.4-2.3,9-4.8c1.2-1.2-0.3-3.2-1.8-2.4c-3.7,2-7.5,3.4-11.6,4.3c-3.4,0.8-8.4,2.4-11.7,1.1c-0.3,1-0.5,1.9-0.8,2.9
				c1.6,0.5,2.7,0.5,4.3,0.1c1.5-0.4,1.3-2.4,0-2.9c-1.5-0.6-1.8-0.5-3.3,0.2c-1.1,0.5-0.9,2,0,2.6c1.6,1,1.3,0.9,3.2,1.2
				c0.1-1,0.3-2,0.4-2.9c-1.6,0.1-3.2,0.2-4.4,1.4c-0.6,0.6-0.5,1.5,0,2.1c0.1,0.1,0.1,0.1,0.2,0.2c0.4,0.5,1.3,0.5,1.8,0.2
				c0.1,0,0.1-0.1,0.2-0.1C909.8,320,908.3,317.4,906.6,318.2L906.6,318.2z"/>
		</g>
	</g>
	<g>
		<g>
			<path class="st1" d="M938.8,307.8c-2.7,0.9-5.2,2.2-7.4,4c-1.5,1.2,0.6,3.3,2.1,2.1c1.8-1.5,3.8-2.6,6-3.3
				C941.4,310.1,940.6,307.2,938.8,307.8L938.8,307.8z"/>
		</g>
	</g>
	<g>
		<g>
			<path class="st1" d="M894.3,287.3c10.3,0.8,20.6-7.9,26.3-15.8c0.8-1.2-1.1-2.3-1.9-1.1c-5.2,7.2-14.9,15.4-24.3,14.6
				C892.9,284.9,892.9,287.2,894.3,287.3L894.3,287.3z"/>
		</g>
	</g>
	<path class="st21" d="M926.2,190.7c1.9,2.6,27.2,37.6,12.2,78.1c-11.5,31-38.6,43.6-43.9,45.9c4.8,0.6,31.7,3.3,54.5-15.7
		c16.3-13.6,21.5-30.9,23.1-37.3c8.4,1.9,17-0.8,22-7.1c5.2-6.5,4.3-14.1,3.9-16.5c-0.8-4.6-4-15.2-11.8-15.7
		c-5.3-0.3-10.9,4.1-13.3,11c3.9-8.6,3.1-14.7,2.4-17.7C971.6,200.9,951.8,189.4,926.2,190.7z"/>
	<path class="st15" d="M896.3,240c-1.2-0.8-20.1,15.4-14.2,25.3c2.6,4.4,9.2,6.3,16.3,5.8c-3.9,0-8-0.8-10.1-3.7
		C882.4,259.2,897.5,240.8,896.3,240z"/>
	<path class="st22" d="M973,256.3c-1.4-0.6-6.3,10.4-18.4,25.8c-10.6,13.6-18.2,19.6-20.4,21.3c-6.6,5.2-12.8,8.6-17.1,10.7
		c2.6,1.7,6.8,4.9,10,10.3c5.5,9.4,4.4,18.8,3.9,21.6c5.1-2.5,10.1-5,15.2-7.4c-1.9-10.6-3.9-21.1-5.8-31.7c6-3.8,10.6-7.6,14.2-11
		c2.5-2.3,4.2-3.9,6.1-6.5c2.4-3.1,4.4-6.8,7.8-16.5C971.7,263.7,974.1,256.8,973,256.3z"/>
</g>
<g id="glasses">
	<path class="st23" d="M846.6,210.5c0.1,5,6,12.9,12.7,14c7.3,1.2,11.6-6,24.7-14.3c11.4-7.2,19.4-12.3,28.6-12
		c18.5,0.5,21.6,20,43.9,24.1c1.1,0.2,22,3.7,34.1-9.1c10.9-11.5,11.5-32.5,0.7-51.4C871.4,184,846.3,199.9,846.6,210.5z"/>
	<path class="st23" d="M1010.1,227.5c-5.9-8.6-11.8-17.1-17.7-25.7c1.7-5.1,3.5-10.2,5.2-15.3c6.3,5.6,12.6,11.2,18.9,16.9
		C1014.4,211.4,1012.2,219.5,1010.1,227.5z"/>
	<path class="st5" d="M853.9,164.2c-12.1,13.2-15.8,29.1-9.9,40.2c0.8,1.5,4.7,8.8,12.7,11c18.2,5,29.5-24.2,54.5-23.1
		c10.2,0.5,20.7,5.9,24.2,7.7c10.5,5.5,15,11.1,25,12c0.3,0,7.9,0.6,14.3-2.2c13-5.7,20.3-25.3,17.5-48.3c-16.5-6-45.2-13.9-81-11
		C887,152.4,867.5,158.6,853.9,164.2z"/>
	<g>
		<g>
			<path class="st1" d="M876,199.7c10.8-15.5,22.9-30,36.2-43.5c1.4-1.4-0.8-3.5-2.1-2.1c-13.5,13.6-25.7,28.4-36.7,44.1
				C872.3,199.8,874.9,201.3,876,199.7L876,199.7z"/>
		</g>
	</g>
	<g>
		<g>
			<path class="st1" d="M905.6,190.1c5.1-6.6,10.2-13.1,15.4-19.7c1.2-1.5-0.9-3.6-2.1-2.1c-5.1,6.6-10.2,13.1-15.4,19.7
				C902.3,189.5,904.4,191.7,905.6,190.1L905.6,190.1z"/>
		</g>
	</g>
	<path class="st22" d="M883.7,156.1c20.3,3.9,40.6,7.8,60.9,11.7c8.6,10.3,15.3,21.2,11.7,28.2c-3.1,6.1-12.2,6-12.1,8.5
		c0.2,4,23.9,12.3,35.9,2c11.9-10.2,7.8-34.8-4-46.8c-10.3-10.4-25.3-10-50.4-9.3C908.1,150.9,893.7,153.6,883.7,156.1z"/>
</g>
<g id="hand_l">
	<path class="st5" d="M955.9,214.8c-0.4,1.4,4.7,4.3,9.8,5.9c6.1,1.9,10.7,1.4,16.5,1.2c5-0.2,12.1-0.2,20.9,0.7
		c5.4,3.4,13.3,9,21.7,17.1c15.9,15.3,17.6,24.1,28.4,27c13.3,3.6,30-4.6,30.4-11.5c0.2-3.5-3.7-6.3-5.6-7.7
		c-10-7.4-24.4-20.4-46.4-44.7c-2.3-9.4-4.6-16.9-6.4-22c-2.5-7.1-3.5-8.9-5.2-15c-2.8-10-1.7-11.3-3.9-17
		c-3.7-9.3-10.9-16.5-12.2-15.7c-0.8,0.4-0.3,3.7,5.4,16.2c-0.4,9.4-1.5,12.2-2.8,12.4c-4,0.6-6.5-25.7-20.1-29.5
		c-8.1-2.3-18.3,4.1-17.9,6.7c0.4,2.3,9.2,2.7,16.5,2.8c0.7,3.5,1.3,7,2,10.5c-0.9-0.5-2.1-1.1-3.5-1.7c-15.4-6.5-33-3.2-33.2-0.4
		c-0.1,1.4,4.1,3.6,20,7.1c1.5,0.7,4.2,2.1,6.4,5c3.7,4.9,3.4,10.3,3.3,11.8c-20.7-4.2-31.4-5.2-32.1-3.2c-0.5,1.6,5.2,5.2,17,10.6
		c5.3,4,10.5,8.1,15.8,12.1c0.8,3.7,1.6,7.4,2.3,11.1c-2.1,2.4-5.4,5.5-10.1,7.4C964.2,215.4,956.3,213,955.9,214.8z"/>
	<g>
		<g>
			<path class="st1" d="M983.2,151.4c5,1.1,8.7,6.7,11.6,10.6c0.6,0.8,1.9,0,1.3-0.8c-3.2-4.3-6.9-10-12.5-11.2
				C982.7,149.7,982.3,151.2,983.2,151.4L983.2,151.4z"/>
		</g>
	</g>
	<path class="st5" d="M972.5,321.1c12.3-2.2,26.8-4,43.2-4.4c15.9-0.3,30.1,0.7,42.1,2.4c-4.4-2.6-5.4-7.2-3.8-9.3
		c1.1-1.5,3.9-1.9,6.6-1.1c-4-12.1-8.1-24.3-12.6-36.6c-1.6-4.3-3.1-8.6-4.7-12.9c15.8-4.6,31.6-9.3,47.4-13.9
		c7.7,19,16,45.7,19,78.4c2.1,23,1.1,43.2-0.9,59.5c-9.6,6-25,13.8-45.4,17.5c-12.8,2.3-24.1,2.3-32.8,1.6
		c-1.2,10.4-2.4,20.8-3.6,31.2"/>
	<path class="st13" d="M994.3,159.2c-0.8,0.6-5-7-13.8-10.6c-7.2-2.9-15.5-2.5-16-0.6c-0.5,2.1,9.4,6,14.7,8.7
		c23.6,11.8,24.3,32.2,51.6,70.7c7.5,10.6,14,18.9,19.6,25.7c14.1,16.9,16.8,16.6,23.2,26.3c11.1,16.7,13.9,33.3,15.2,41.3
		c1.9,11.7,4.1,25.3-0.4,38.6c-10.7,32-52.7,41.4-57.4,42.4c9.9,1,25.7,1.4,44-3.9c14.6-4.2,25.7-10.4,33.2-15.4
		c3.5-21.2,5.9-52.8-1.9-89.5c-4-18.6-9.7-34.4-15.5-47.3c-4.1,1-8.2,2-12.3,3c-2-1.6-4.9-4-8.3-7c-8.7-7.6-10.7-10.2-21.9-21.1
		c-12.2-11.8-13.5-12.3-15.9-16.6c-2.1-3.8-1.7-4.6-5.5-17.9c-4.8-16.7-5-13.9-7.6-23.9c-2.9-11.2-3.1-16-7.8-22.2
		c-3.3-4.3-7.3-7.1-8.1-6.5c-0.9,0.8,4.4,6.3,5.3,15.1c0.6,5.7-0.7,12.5-2.8,12.8c-4.2,0.6-5.9-25.4-19.1-29.2
		c-8-2.3-18.1,4.1-17.6,6.5c0.4,2.1,8.8,2.4,16.1,2.3C993.4,154.9,994.9,158.8,994.3,159.2z"/>
	<path class="st24" d="M1089.6,274.7c2.1,19.7,5.5,33.8,6.2,37c3.4,15.8,0.8,41.6-26.2,85.2c5.1-0.5,11.8-1.6,19.3-4.2
		c8-2.9,14.2-6.6,18.5-9.6c1.6-9.5,3.1-22.6,3.1-38.2c0-53.8-18.6-99.8-22-99.1C1086.6,246.2,1088.2,261.5,1089.6,274.7z"/>
	<path class="st25" d="M1063.4,248.5c6.5-2.4,12.1-1.3,14.3-0.8c-8.1,2.6-16.2,5.1-24.3,7.7C1054.9,253.7,1058.1,250.4,1063.4,248.5
		z"/>
</g>
</svg>
