<?xml version="1.0" encoding="utf-8"?>
<!-- Generator: Adobe Illustrator 19.0.0, SVG Export Plug-In . SVG Version: 6.00 Build 0)  -->
<svg version="1.1" xmlns="http://www.w3.org/2000/svg" xmlns:xlink="http://www.w3.org/1999/xlink" x="0px" y="0px"
	 viewBox="0 0 1600 1200" style="enable-background:new 0 0 1600 1200;" xml:space="preserve">
<style type="text/css">
	.st0{fill:#161616;}
	.st1{fill:#E8E8E8;}
	.st2{fill:#FFFFFF;}
	.st3{fill:#EC615B;}
	.st4{opacity:0.14;fill:#6D6C6C;}
	.st5{opacity:0.12;fill:#6D6C6C;}
	.st6{opacity:0.19;fill:#6D6C6C;}
	.st7{fill:#FFFFFF;stroke:#161616;stroke-width:2;stroke-miterlimit:10;}
	.st8{opacity:0.17;fill:#6D6C6C;}
	.st9{opacity:0.2;fill:#6D6C6C;}
	.st10{opacity:0.13;fill:#6D6C6C;}
	.st11{opacity:0.15;fill:#6D6C6C;}
	.st12{fill:#5222D0;}
	.st13{opacity:0.23;fill:#6D6C6C;}
	.st14{opacity:0.25;fill:#6D6C6C;}
</style>
<g id="ground">
	<g>
		<g>
			<path class="st0" d="M340.5,946.2c1.9-1.1,3.9-2.2,5.8-3.3c1.7-0.9,0.2-3.5-1.5-2.6c-1.9,1.1-3.9,2.2-5.8,3.3
				C337.3,944.6,338.8,947.2,340.5,946.2L340.5,946.2z"/>
		</g>
	</g>
	<g>
		<g>
			<path class="st0" d="M313.7,959.1c18.3-7.8,36.6-15.6,54.9-23.4c18.3-7.8,35.4-15.5,55.9-13.4c18.7,1.9,37.1,9,54.6,15.6
				c18.3,6.9,36.2,14.7,53.6,23.5c3.4,1.7,6.5-3.5,3-5.2c-27.6-13.8-56.5-26-86.1-34.7c-14.3-4.2-29.3-7-44.2-4.9
				c-14.9,2.1-28.9,9.2-42.6,15.1c-17.4,7.4-34.8,14.8-52.1,22.3C307.1,955.4,310.2,960.6,313.7,959.1L313.7,959.1z"/>
		</g>
	</g>
	<g>
		<g>
			<path class="st0" d="M483.3,1002.9c83.7,0,167.3,0,251,0c23.9,0,47.8,0,71.7,0c3.9,0,3.9-6,0-6c-83.7,0-167.3,0-251,0
				c-23.9,0-47.8,0-71.7,0C479.4,996.9,479.4,1002.9,483.3,1002.9L483.3,1002.9z"/>
		</g>
	</g>
	<g>
		<g>
			<path class="st0" d="M752,1022.5c104.9,0,209.8,0,314.7,0c29.9,0,59.7,0,89.6,0c3.9,0,3.9-6,0-6c-104.9,0-209.8,0-314.7,0
				c-29.9,0-59.7,0-89.6,0C748.2,1016.5,748.2,1022.5,752,1022.5L752,1022.5z"/>
		</g>
	</g>
	<g>
		<g>
			<path class="st0" d="M900.2,1000.6c117.2,0,234.3,0,351.5,0c33.3,0,66.6,0,99.9,0c3.9,0,3.9-6,0-6c-117.2,0-234.3,0-351.5,0
				c-33.3,0-66.6,0-99.9,0C896.3,994.6,896.3,1000.6,900.2,1000.6L900.2,1000.6z"/>
		</g>
	</g>
	<g>
		<g>
			<path class="st0" d="M545.4,969c17.8,6.3,35.5,13,53,20.1c3.6,1.5,5.1-4.3,1.6-5.8c-17.5-7.1-35.2-13.8-53-20.1
				C543.4,961.9,541.8,967.7,545.4,969L545.4,969z"/>
		</g>
	</g>
	<g>
		<g>
			<path class="st0" d="M323.4,1017.5c46,0,92.1,0,138.1,0c3.9,0,3.9-6,0-6c-46,0-92.1,0-138.1,0
				C319.6,1011.5,319.6,1017.5,323.4,1017.5L323.4,1017.5z"/>
		</g>
	</g>
	<g>
		<g>
			<path class="st0" d="M734,1082.4c58.6,0,117.2,0,175.8,0c3.9,0,3.9-6,0-6c-58.6,0-117.2,0-175.8,0
				C730.1,1076.4,730.1,1082.4,734,1082.4L734,1082.4z"/>
		</g>
	</g>
</g>
<g id="background">
	<g>
		<g>
			<path class="st1" d="M238.7,1017.9c-15.9-10.5-27.8-25.7-36.3-42.6c-4.8-9.4-8.5-19.2-11.6-29.2c-1.4-4.3-3.7-9.5-4-14
				c-0.1-2-0.8-1.7,1.3-1.8c1.1,0,2.7,0.8,3.7,1.1c2.8,0.8,5.5,1.7,8.3,2.5c1.9,0.6,2.6-2.3,0.8-2.9c-3.4-1-6.8-2.1-10.2-3.1
				c-1.5-0.5-3.8-1.6-5.5-1c-2.8,0.9-1.9,3.8-1.4,6c3.1,12.2,7.1,24.2,12.1,35.7c9,20.6,22.4,39.3,41.3,51.9
				C238.8,1021.6,240.3,1019,238.7,1017.9L238.7,1017.9z"/>
		</g>
	</g>
	<g>
		<g>
			<path class="st1" d="M198.4,930.5c-14.9-36.4-15.5-76.1-16-114.9c-0.9,0.4-1.7,0.7-2.6,1.1c2.8,2.8,5.7,5.7,8.5,8.5
				c1.4,1.4,3.5-0.8,2.1-2.1c-2.8-2.8-5.7-5.7-8.5-8.5c-0.9-0.9-2.6-0.2-2.6,1.1c0.4,39,1.1,79,16.1,115.7
				C196.2,933.1,199.1,932.3,198.4,930.5L198.4,930.5z"/>
		</g>
	</g>
	<g>
		<g>
			<path class="st1" d="M191,822.3c0.2-24.7,2.9-49.3,8.3-73.4c-0.7,0.3-1.5,0.6-2.2,0.9c28.6,20.3,39.8,56.4,50.2,88.2
				c12.2,37.4,21.9,75.9,26.1,115.1c1.2,10.9,1.9,21.8,2.2,32.8c0.3,11.4,0.9,23.3-2.2,34.4c-0.5,1.9,2.4,2.7,2.9,0.8
				c2.6-9.6,2.5-19.7,2.4-29.5c-0.1-10-0.6-20-1.5-30c-1.8-20.1-5-40.1-9.3-59.8c-4.5-20.6-10.1-40.9-16.6-60.9
				c-5.5-17.1-11.2-34.4-18.9-50.7c-8-16.7-18.6-32.1-33.8-42.9c-0.8-0.5-2,0-2.2,0.9c-5.4,24.4-8.2,49.2-8.4,74.2
				C188,824.3,191,824.3,191,822.3L191,822.3z"/>
		</g>
	</g>
	<g>
		<g>
			<path class="st1" d="M259.5,872.1c14.7-43.4,46.5-78.1,64.7-119.8c-0.9-0.3-1.9-0.5-2.8-0.8c1.8,19.5,3.3,39.1,4.7,58.7
				c0.7,9.8,1.2,19.6,1.8,29.4c0.2,4.6,0.5,9.1,0.7,13.7c0.2,3.5,0.4,4.4-2.3,6.7c-1.9,1.6-4.5,2.8-6.7,4.2c-1.6,1-0.1,3.6,1.5,2.6
				c3.3-2.1,6.7-4.2,10-6.3c0.4-0.3,0.8-0.8,0.7-1.3c-1.7-35.9-4.1-71.9-7.4-107.7c-0.1-1.3-2.1-2.3-2.8-0.8
				c-18.4,42-50.2,76.9-65,120.5C256,873.2,258.9,873.9,259.5,872.1L259.5,872.1z"/>
		</g>
	</g>
	<g>
		<g>
			<path class="st1" d="M319.5,866.7c14-0.8,4.8,29.4,3.2,36.8c-2.6,12.2-5.7,24.3-9.3,36.2c-7.3,24.1-16.8,47.4-28.2,69.8
				c-0.9,1.7,1.7,3.2,2.6,1.5c13.2-25.9,23.8-53,31.6-81c3.9-14.1,7.1-28.4,9.5-42.8c1.3-8,3.6-24.3-9.3-23.5
				C317.6,863.8,317.6,866.8,319.5,866.7L319.5,866.7z"/>
		</g>
	</g>
	<g>
		<g>
			<path class="st1" d="M320.3,755.8c-7.5,61-34.1,117.1-50.1,175.9c-0.5,1.9,2.4,2.7,2.9,0.8c16.1-59.1,42.6-115.5,50.2-176.7
				C323.5,753.8,320.5,753.9,320.3,755.8L320.3,755.8z"/>
		</g>
	</g>
	<g>
		<g>
			<path class="st1" d="M196,749.4c23.3,69.6,42.1,140.7,56.2,212.7c4,20.4,7.6,41,10.9,61.5c0.3,1.9,3.2,1.1,2.9-0.8
				c-11.4-72.5-27.5-144.3-48.3-214.7c-5.9-20-12.2-39.9-18.8-59.6C198.3,746.8,195.4,747.6,196,749.4L196,749.4z"/>
		</g>
	</g>
	<g>
		<g>
			<path class="st1" d="M181.4,841c26.3,16.1,47.2,39.7,60.1,67.7c0.8,1.8,3.4,0.2,2.6-1.5c-13.1-28.4-34.5-52.4-61.2-68.8
				C181.3,837.4,179.7,840,181.4,841L181.4,841z"/>
		</g>
	</g>
	<g>
		<g>
			<path class="st1" d="M188.9,948.1c26.1,9.2,54.6,19.8,68.8,45.3c0.9,1.7,3.5,0.2,2.6-1.5c-14.7-26.2-43.8-37.2-70.6-46.7
				C187.9,944.5,187.1,947.4,188.9,948.1L188.9,948.1z"/>
		</g>
	</g>
	<g>
		<g>
			<path class="st1" d="M225.2,783.2c-2.4,15.3-3.8,30.6-4,46.1c0,1.9,3,1.9,3,0c0.2-15.2,1.5-30.3,3.9-45.3
				C228.4,782.1,225.5,781.3,225.2,783.2L225.2,783.2z"/>
		</g>
	</g>
	<g>
		<g>
			<path class="st1" d="M277.8,829c2.6,18,5.1,36,7.7,54.1c0.3,1.9,3.2,1.1,2.9-0.8c-2.6-18-5.1-36-7.7-54.1
				C280.4,826.2,277.5,827.1,277.8,829L277.8,829z"/>
		</g>
	</g>
	<g>
		<g>
			<path class="st1" d="M303.7,840.4c9.6-8.6,17.8-18.5,24.3-29.7c1-1.7-1.6-3.2-2.6-1.5c-6.4,10.9-14.4,20.7-23.8,29.1
				C300.1,839.6,302.3,841.7,303.7,840.4L303.7,840.4z"/>
		</g>
	</g>
	<g>
		<g>
			<path class="st1" d="M1202.9,992.7c-9.2-27.1-14.4-55.2-15.6-83.8c-0.8,0.4-1.5,0.9-2.3,1.3c5,2.9,9.9,5.9,14.9,8.8
				c1.1,0.6,2.6-0.4,2.2-1.7c-4.5-12.7-5.3-26.3-1.9-39.4c3.5-13.2,11.2-25.2,17.7-37.1c13.5-24.9,27.1-49.8,40.6-74.7
				c-0.9-0.1-1.8-0.2-2.7-0.4c3.2,19.7,6.4,39.5,9.6,59.2c1.6,9.7,3.2,19.4,4.7,29.1c0.8,4.8,3,10.9,0.1,15.3
				c-2.4,3.6-6.8,5.6-10.7,7.3c-1.3,0.6-0.7,2.3,0.4,2.7c4.3,1.8,9.5,4.1,11.6,8.5c2.3,5-0.5,12.2-1.8,17.4
				c-2.5,10.2-5.5,20.3-9,30.3c-7.1,20.1-16.2,39.3-27.1,57.6c-1,1.7,1.6,3.2,2.6,1.5c12.5-21.1,22.7-43.5,30.2-66.9
				c1.8-5.7,3.5-11.5,5-17.3c1.4-5.5,3.3-11.4,3.8-17.1c0.8-9.3-7.2-13.7-14.6-16.8c0.1,0.9,0.2,1.8,0.4,2.7
				c5.9-2.6,12.8-6.3,13.5-13.5c0.4-4.7-1.1-9.9-1.8-14.4c-0.9-5.8-1.9-11.6-2.8-17.5c-3.7-23-7.5-45.9-11.2-68.9
				c-0.2-1.3-2.2-1.4-2.7-0.4c-14.5,26.6-29,53.2-43.5,79.9c-6.4,11.8-13.5,23.5-16.1,36.9c-2.4,12.3-1.3,24.9,2.9,36.7
				c0.7-0.6,1.5-1.1,2.2-1.7c-5-2.9-9.9-5.9-14.9-8.8c-1-0.6-2.3,0.1-2.3,1.3c1.1,28.8,6.4,57.3,15.7,84.6
				C1200.6,995.3,1203.5,994.5,1202.9,992.7L1202.9,992.7z"/>
		</g>
	</g>
	<g>
		<g>
			<path class="st1" d="M1271.6,832.9c20.8-21.8,41.5-43.8,61.9-66c-0.8-0.5-1.7-1-2.5-1.5c-3.2,15.8-4.6,32-3.8,48.1
				c0.4,8.3,1.6,16.4,2.6,24.6c0.5,3.7,0.9,7.5,1,11.2c0.1,2,0.4,5.1-1.8,6.4c-1.8,1-6.3,0.8-8.5,1c-1.1,0.1-2.2,1.7-1.1,2.6
				c11.7,9.3,1.6,26.3-3.3,36.7c-5.3,11.3-11,22.3-17.2,33.1c-12.6,22-27.1,42.9-43.2,62.5c-1.2,1.5,0.9,3.6,2.1,2.1
				c17.8-21.6,33.6-44.8,47.2-69.2c6.9-12.4,13.3-25.2,18.9-38.2c4-9.4,7-21.6-2.3-29c-0.4,0.9-0.7,1.7-1.1,2.6
				c5.6-0.6,12.6,0.3,13.3-6.6c0.8-9.2-1.7-19-2.7-28.1c-2.2-19.6-1.2-39.4,2.8-58.8c0.3-1.4-1.4-2.6-2.5-1.5
				c-20.5,22.2-41.1,44.2-61.9,66C1268.1,832.2,1270.2,834.3,1271.6,832.9L1271.6,832.9z"/>
		</g>
	</g>
	<g>
		<g>
			<path class="st1" d="M1319.4,784.2c-14.7,30.1-17.3,64.7-27.6,96.3c-10.9,33.6-26.3,65.5-42.8,96.6c-0.9,1.7,1.7,3.2,2.6,1.5
				c16-30.3,31-61.3,41.9-93.8c5.4-16.2,9.4-32.6,13.1-49.3c3.7-17,7.7-34.1,15.4-49.8C1322.8,784,1320.3,782.5,1319.4,784.2
				L1319.4,784.2z"/>
		</g>
	</g>
	<g>
		<g>
			<path class="st1" d="M1252.4,784c-2.8,64.6-28.5,125.3-34,189.5c-0.2,1.9,2.8,1.9,3,0c5.5-64.2,31.2-124.9,34-189.5
				C1255.4,782.1,1252.4,782.1,1252.4,784L1252.4,784z"/>
		</g>
	</g>
	<g>
		<g>
			<path class="st1" d="M1202.1,865.6c6.3,17.6,14.1,34.5,23.4,50.7c1,1.7,3.6,0.2,2.6-1.5c-9.2-16-16.9-32.7-23.1-50
				C1204.4,863,1201.5,863.8,1202.1,865.6L1202.1,865.6z"/>
		</g>
	</g>
	<g>
		<g>
			<path class="st1" d="M1232.3,809.8c3.6,13.6,7.1,27.2,10.7,40.8c0.5,1.9,3.4,1.1,2.9-0.8c-3.6-13.6-7.1-27.2-10.7-40.8
				C1234.7,807.1,1231.8,807.9,1232.3,809.8L1232.3,809.8z"/>
		</g>
	</g>
	<g>
		<g>
			<path class="st1" d="M1261.6,802.2c-4.5,8.3-8.9,16.7-13.4,25c-0.9,1.7,1.7,3.2,2.6,1.5c4.5-8.3,8.9-16.7,13.4-25
				C1265.1,802,1262.5,800.5,1261.6,802.2L1261.6,802.2z"/>
		</g>
	</g>
	<g>
		<g>
			<path class="st1" d="M1283,816.3c1.5,22,3.7,44,6.7,65.9c0.3,1.9,3.1,1.1,2.9-0.8c-2.9-21.6-5.1-43.3-6.6-65.1
				C1285.9,814.4,1282.9,814.4,1283,816.3L1283,816.3z"/>
		</g>
	</g>
	<g>
		<g>
			<path class="st1" d="M1305.4,838.4c1-5.8,6.5-10.3,10.3-14.6c3.9-4.4,7.9-8.8,11.8-13.2c1.3-1.4-0.8-3.6-2.1-2.1
				c-4.8,5.3-9.5,10.6-14.3,15.9c-3.5,3.9-7.6,7.7-8.6,13.1C1302.2,839.5,1305.1,840.3,1305.4,838.4L1305.4,838.4z"/>
		</g>
	</g>
	<g>
		<g>
			<path class="st1" d="M186.1,729.5c26.6-1.2,51.4-10.9,77.2-16.4c28.6-6.1,57-3.1,85.2,3.5c27.6,6.5,54.8,14.9,82.2,22.1
				c27.5,7.3,55,14.2,82.6,20.8c111.1,26.6,223.6,48,336.7,64.1c63.4,9,127.1,16.3,190.9,21.9c1.9,0.2,1.9-2.8,0-3
				c-114.4-10.1-228.2-25.6-341.1-46.5c-56.5-10.5-112.8-22.2-168.7-35.4c-55.3-13-110.1-27.9-164.9-42.7
				c-29.7-8-60.5-14.5-91.3-10.1c-30,4.3-58.2,17.2-88.7,18.5C184.2,726.5,184.2,729.5,186.1,729.5L186.1,729.5z"/>
		</g>
	</g>
	<g>
		<g>
			<path class="st1" d="M667,795.1c90-8.7,179.2-24.5,266.7-47.4c44-11.5,87.2-25.5,130.5-39.4c20.9-6.7,42.1-13,63.7-17
				c23.3-4.4,46.8-5.4,70.5-3.9c26.3,1.7,52.6,5.1,78.8,8c26.3,2.9,52.7,5.7,79,8.6c1.9,0.2,1.9-2.8,0-3c-47-5.1-94-10.8-141.1-15.3
				c-23-2.2-46.1-3.1-69-0.2c-21.6,2.6-42.9,7.9-63.7,14.1c-43.5,12.9-86.3,28.1-130.1,40.1c-43.7,12-87.8,22.2-132.3,30.6
				c-50.6,9.6-101.7,16.9-153,21.8C665.1,792.3,665.1,795.3,667,795.1L667,795.1z"/>
		</g>
	</g>
	<g>
		<g>
			<path class="st1" d="M686.4,941.1c77-0.5,136.7-56.6,204.4-84.9c19.7-8.2,40.4-14.2,61.7-15.8c1.9-0.1,1.9-3.1,0-3
				c-76.2,5.7-134,62-203,88c-20.2,7.6-41.4,12.5-63.1,12.7C684.4,938.1,684.4,941.1,686.4,941.1L686.4,941.1z"/>
		</g>
	</g>
	<g>
		<g>
			<path class="st1" d="M962.1,835.7c83.9-18.1,146.5-82,222.4-117.6c21.9-10.3,45.1-18,69.2-21.2c1.9-0.3,1.9-3.3,0-3
				c-85.9,11.4-150.6,75.4-224.9,113.8c-21.4,11.1-43.9,20.1-67.5,25.2C959.4,833.2,960.2,836.1,962.1,835.7L962.1,835.7z"/>
		</g>
	</g>
	<g>
		<g>
			<path class="st1" d="M883.3,413.9c37.1-17.1,79,16.5,115.4-4.8c1.7-1,0.2-3.6-1.5-2.6c-36,21.1-78.2-12.3-115.4,4.8
				C880,412.1,881.5,414.7,883.3,413.9L883.3,413.9z"/>
		</g>
	</g>
	<g>
		<g>
			<path class="st1" d="M707.7,227.4c40.5-8.6,80.9,4.1,119.8,14.8c38.8,10.7,77.9,17.3,118.2,16.5c22.7-0.5,45.3-3.1,67.5-7.6
				c1.9-0.4,1.1-3.3-0.8-2.9c-41.1,8.4-83.6,9.9-125.2,4.1c-39.9-5.6-77.5-20.3-117-27.4c-21-3.8-42.4-4.8-63.3-0.3
				C705.1,224.9,705.9,227.8,707.7,227.4L707.7,227.4z"/>
		</g>
	</g>
	<g>
		<g>
			<path class="st1" d="M240.6,345.1c36.4-20.5,78.7-22.2,117.5-7.7c19.6,7.3,38.3,16.3,58.5,21.9c19.3,5.4,39.2,8.6,59.2,9.7
				c23,1.2,46.1-0.6,68.8-5.1c1.9-0.4,1.1-3.3-0.8-2.9c-42.1,8.5-85.9,6.9-127.2-4.8c-20.5-5.8-39.5-15-59.4-22.3
				c-18.7-6.8-38.1-10.3-58-9.1c-21.1,1.3-41.6,7.3-60,17.7C237.4,343.4,238.9,346,240.6,345.1L240.6,345.1z"/>
		</g>
	</g>
	<g>
		<g>
			<path class="st1" d="M1204.8,333.2c-18.1-19.7-24.8-48.1-19.3-74.1c2.8-13.1,8.6-25.7,17.6-35.8c6-6.8,12.8-10.5,21.7-12.2
				c8.9-1.7,18-2.8,27.1-2.9c31.7-0.2,62.5,18.7,70.8,50.5c4.2,16.2,1.1,32.2-6.7,46.7c-7.6,13.9-17.9,27.3-31.7,35.4
				c-26.2,15.3-62,10.9-83.5-10.5c-1.4-1.4-3.5,0.8-2.1,2.1c20.3,20.1,52.4,25.9,78.7,15.1c14.7-6,26-17.3,34.8-30.3
				c9.7-14.3,16.7-30.4,15.3-48c-2.6-32.7-29.3-57.7-60.9-62.9c-9.3-1.5-18.8-1.3-28.1-0.2c-8.4,0.9-17.8,1.7-25.5,5.5
				c-12.9,6.3-21.7,21.2-26.6,34.1c-11.4,30-5.4,65.9,16.4,89.6C1204,336.7,1206.1,334.6,1204.8,333.2L1204.8,333.2z"/>
		</g>
	</g>
	<g>
		<g>
			<path class="st1" d="M345.1,643.7c45.1-6.2,88.4,11.9,130.6,25.2c20.8,6.6,42,12.4,63.8,14c23,1.7,45-2.6,66.7-10
				c23.1-7.9,45.4-17.7,69.4-22.5c22.4-4.5,45.3-5.4,68.1-4.3c46.4,2.3,91.8,12.6,137.5,20c49,7.8,99.6,12.3,148.1-1.1
				c1.9-0.5,1.1-3.4-0.8-2.9c-90.1,24.9-181.8-10.9-271.8-18.1c-22.1-1.8-44.5-1.9-66.6,1c-23.6,3.1-45.7,10.6-67.9,18.9
				c-22.7,8.5-45.7,16.3-70.3,16.5c-22.6,0.1-44.7-5-66.2-11.5c-45.9-13.7-92.3-34.8-141.4-28C342.4,641.1,343.3,644,345.1,643.7
				L345.1,643.7z"/>
		</g>
	</g>
	<g>
		<g>
			<path class="st1" d="M694.1,601.8c18.2-9.6,37.6-18.1,58.2-20.6c20.6-2.5,40.3,2.7,59.6,9.3c19.2,6.5,38.1,13.1,58,17.1
				c19.4,3.9,39.1,6,58.9,6.3c40.6,0.6,80.5-6.8,118.6-20.8c38.3-14.1,74.5-33.3,112.1-49c42.7-17.9,88.7-31.4,135.4-26.4
				c1.9,0.2,1.9-2.8,0-3c-84.4-9-158.7,39.6-233.7,69.9c-38.9,15.7-79.4,25.5-121.4,26.3c-20.7,0.4-41.5-1.2-61.9-4.8
				c-20.3-3.6-39.7-9.6-59.1-16.4c-20.9-7.3-42.3-13.9-64.7-11.6c-21.8,2.2-42.2,11.1-61.5,21.2
				C690.9,600.1,692.4,602.7,694.1,601.8L694.1,601.8z"/>
		</g>
	</g>
	<g>
		<g>
			<path class="st1" d="M482.5,407.2c33.5-20.1,72.9-5.4,106.9,5.2c35.2,11,71.9,16.2,108.9,14.4c20.8-1,41.4-4.2,61.5-9.3
				c1.9-0.5,1.1-3.4-0.8-2.9c-37.2,9.5-76,12-114.1,7.1c-19.5-2.5-38.5-7.1-57.3-13.1c-17.3-5.5-34.6-11.5-52.8-13.7
				c-18.4-2.2-37.6-0.1-53.7,9.6C479.4,405.6,480.9,408.2,482.5,407.2L482.5,407.2z"/>
		</g>
	</g>
</g>
<g id="cat">
	<g id="back_leg_right">
		<path class="st0" d="M945.5,1007.8c0,7.7,7.2,13.3,15.5,19.9c7.8,6.1,20.3,13.9,38,17.2c2.9,10,8.9,29.3,12.9,28.3
			c3.3-0.8,4.8-16.3,2.9-28.9c-0.7-4.7-1.4-9.1-3.9-13.6c-5.9-10.3-13.6-6.9-21.9-15c-10.4-10.2-6.4-23.6-14.4-28.4
			C964.3,981.1,945.5,995.2,945.5,1007.8z"/>
	</g>
	<g id="back_leg_left">
		<path class="st0" d="M945.6,1022.8c-0.9,7.5,5.7,14.4,13.3,22.5c12.6,13.4,25.6,20.1,34.9,23.5c2,14.1,5.6,34.6,9.6,34.5
			c3.7-0.1,7.6-17.1,6.8-31.9c-0.3-5.5-0.5-9.6-2.4-14.1c-4.9-11.7-13.6-8.9-20.1-18.8c-7.3-11.3-1.1-22.4-7.2-29.3
			C971.7,999.2,947.2,1009.5,945.6,1022.8z"/>
	</g>
	<g id="front_paw_right">
		<path class="st0" d="M847.8,994.9c-3.7-0.4-5.4,7.3-12.1,19.4c-3.7,6.8-12.9,23.5-26.9,33c-11,7.4-20.6,7.5-20.5,11
			c0.1,2.6,5.5,4.3,8.4,4.7c7.1,1,12.4-3.7,14.1-5.2c11.3-7.2,20.2-14.6,26.5-20.4c15.6-14.3,17.4-20.5,17.7-25.1
			C855.5,1004.2,851.7,995.3,847.8,994.9z"/>
	</g>
	<g id="body">
		<path class="st0" d="M848.1,984.4c5.4,2.9,13.3,6.6,23.1,9.4c6.2,1.7,25.3,6.4,54.5,1.3c32.3-5.7,40.5-17.1,49.3-8.7
			c9.2,8.8,11,32.2,4.1,46.2c-4.2,8.5-12.8,11.8-29.9,18.5c-13.4,5.2-23.4,9.1-37.8,9.4c-16.9,0.4-29.3-4.5-36.6-7.3
			c-15.2-6.1-28.5-11.4-33.7-26.7c-2.2-6.4-2.3-12.6-2-16.7C842.2,1001.3,845.2,992.8,848.1,984.4z"/>
	</g>
	<g id="tail">
		<path class="st0" d="M949.9,997.7c0.8-5.8,7.5-7.3,13.3-11c15.3-9.9,13.2-28.8,23.7-31.4c8.9-2.2,12.7,10.9,21.7,8.4
			c10.6-3,13.6-23.4,17.3-22c2.7,1,4.3,13.6,0,21.5c-4.4,8-13.6,8.9-24.1,9.9c-10.5,1-11.3-1.4-15.7,1c-8.1,4.6-6.6,13.5-16.5,23
			c-5.6,5.4-14.4,10.7-18.1,6.8C950.2,1002.5,949.6,999.9,949.9,997.7z"/>
	</g>
	<g id="front_paw_left">
		<path class="st0" d="M852.4,1006.6c-3.7-0.4-5.4,7.3-12.1,19.4c-3.7,6.8-12.9,23.5-26.9,33c-11,7.4-20.6,7.5-20.5,11
			c0.1,2.6,5.5,4.3,8.4,4.7c7.1,1,12.4-3.7,14.1-5.2c11.3-7.2,20.2-14.6,26.5-20.4c15.6-14.3,17.4-20.5,17.7-25.1
			C860.1,1015.9,856.3,1007,852.4,1006.6z"/>
	</g>
	<g id="head_1_">
		<path class="st0" d="M800.9,991.9c2.4,15,0.2,18.1,3.9,23c5.6,7.5,16.1,8.5,17.9,8.7c7.8,0.8,9-2.4,17.4-1.5
			c9.4,1,10.9,5.1,15.6,3.6c6.9-2.2,8.9-13.1,9.5-16.5c0.1-0.3,0.1-0.6,0.1-0.8c0.8-6.7-0.8-12.7-3-17.4
			c-13-5.6-20.7-12.6-25.4-17.9c-5-5.7-8.1-11.5-10.8-10.8c-3,0.8-3.4,9.1-3.3,15.6c-3.6,1-7.2,2-10.8,3
			c-9.3-9.4-12.5-10.1-13.8-9.3C796.1,972.8,798.8,978.4,800.9,991.9z"/>
		<g>
			<g>
				<path class="st2" d="M817.9,1005.3c0.8,3.2,3.8,5.3,7.1,5.1c0.5,0,0.5-0.8,0-0.8c-2.9,0.3-5.6-1.6-6.3-4.5
					C818.5,1004.7,817.8,1004.9,817.9,1005.3L817.9,1005.3z"/>
			</g>
		</g>
		<g>
			<g>
				<path class="st2" d="M817.6,1005.1c0,1.2,0,2.5-0.3,3.7c-0.1,0.6-0.3,1.1-0.6,1.6c0,0-1.4,2-1.6,1.7c-0.2-0.4-0.9,0-0.6,0.4
					c0.6,1.1,2.1-0.6,2.5-1.1c1.3-1.8,1.4-4.2,1.4-6.3C818.3,1004.6,817.6,1004.6,817.6,1005.1L817.6,1005.1z"/>
			</g>
		</g>
		<g>
			<g>
				<path class="st2" d="M817.8,1004.7c-0.2,0.3,0.3,0.1,0.2,0.2c-0.3,0.2-0.3-0.2,0-0.3c0.3,0,0.3,0.4,0.2,0.5
					c-0.1,0.1-0.1,0.1-0.2,0.1c-0.1,0-0.2,0-0.2-0.1c0,0,0-0.1,0-0.1c-0.1,0-0.2,0-0.2-0.1c-0.4-0.3-0.8,0.4-0.4,0.6
					c0.5,0.3,1.4,0.3,1.4-0.5c0-0.6-0.8-1-1.3-0.5c-0.5,0.5-0.2,1.3,0.4,1.4c0.7,0.2,1.3-0.3,1.3-1c0-0.6-0.4-1.2-1.1-1.1
					c-0.6,0.1-1.1,0.8-0.8,1.4c0.3,0.5,1,0.5,1.4,0.2c0.4-0.3,0.4-1-0.1-1.3c-0.5-0.3-1.3,0-1.3,0.6c0,0.7,1.1,0.8,1.4,0.2
					C818.7,1004.6,818,1004.2,817.8,1004.7L817.8,1004.7z"/>
			</g>
		</g>
		<g>
			<g>
				<path class="st2" d="M808.1,999.4c1.2-1.8,3.9-2.2,5.5-0.7c0.4,0.3,0.9-0.2,0.5-0.5c-2-1.8-5.2-1.3-6.7,0.9
					C807.2,999.4,807.9,999.8,808.1,999.4L808.1,999.4z"/>
			</g>
		</g>
		<g>
			<g>
				<path class="st2" d="M822.5,996.4c1.5-2,4.2-2.6,6.5-1.6c0.4,0.2,0.8-0.4,0.4-0.6c-2.7-1.2-5.7-0.4-7.5,1.9
					C821.6,996.4,822.2,996.7,822.5,996.4L822.5,996.4z"/>
			</g>
		</g>
		<g>
			<g>
				<path class="st2" d="M828.5,968c1.3,2.5,2.2,5.2,2.6,8c0.1,0.5,0.8,0.3,0.7-0.2c-0.5-2.9-1.4-5.6-2.7-8.2
					C829,967.2,828.3,967.6,828.5,968L828.5,968z"/>
			</g>
		</g>
		<g>
			<g>
				<path class="st2" d="M825.3,975.9c0.3,0.8,0.8,1.6,1.4,2.2c0.3,0.3,0.8-0.1,0.6-0.5c-0.4-0.8-0.6-1.7-0.6-2.6
					c-0.1,0.1-0.3,0.3-0.4,0.4c0.6,0,1.2-0.1,1.7-0.1c0.2,0,0.4-0.2,0.4-0.5c-0.2-0.6-0.3-1.3-0.5-1.9c-0.1,0.2-0.2,0.3-0.4,0.5
					c0.7,0,1.3,0,2,0c0.5,0,0.5-0.8,0-0.8c-0.7,0-1.3,0-2,0c-0.2,0-0.4,0.2-0.4,0.5c0.2,0.6,0.3,1.3,0.5,1.9
					c0.1-0.2,0.2-0.3,0.4-0.5c-0.6,0-1.2,0.1-1.7,0.1c-0.2,0-0.4,0.2-0.4,0.4c0,1.1,0.2,2,0.7,3c0.2-0.2,0.4-0.3,0.6-0.5
					c-0.5-0.6-1-1.3-1.3-2.1C825.7,975.1,825.1,975.5,825.3,975.9L825.3,975.9z"/>
			</g>
		</g>
		<g>
			<g>
				<path class="st2" d="M813.7,1007c-2-0.8-4-1.8-5.8-3c-0.4-0.3-0.8,0.4-0.4,0.6c1.9,1.2,3.9,2.2,6,3.1
					C814,1007.9,814.2,1007.2,813.7,1007L813.7,1007z"/>
			</g>
		</g>
		<g>
			<g>
				<path class="st2" d="M812.1,1008.5c-1.1,0.2-2.1,0.5-3,1c-0.4,0.2-0.1,0.9,0.4,0.6c0.9-0.5,1.8-0.8,2.8-0.9
					C812.7,1009.1,812.5,1008.4,812.1,1008.5L812.1,1008.5z"/>
			</g>
		</g>
		<g>
			<g>
				<path class="st2" d="M823.4,1004.6c2-1.6,4.1-3,6.3-4.4c0.4-0.2,0-0.9-0.4-0.6c-2.3,1.4-4.4,2.9-6.5,4.5
					C822.5,1004.4,823,1004.9,823.4,1004.6L823.4,1004.6z"/>
			</g>
		</g>
		<g>
			<g>
				<path class="st2" d="M825.1,1006.3c2.3-0.6,4.6-1.2,6.8-1.7c0.5-0.1,0.3-0.8-0.2-0.7c-2.3,0.6-4.6,1.2-6.8,1.7
					C824.4,1005.7,824.6,1006.5,825.1,1006.3L825.1,1006.3z"/>
			</g>
		</g>
		<g>
			<g>
				<path class="st2" d="M814,1013c3.4-1.2,4.2-4.8,4.3-8c0-0.5-0.7-0.5-0.8,0c-0.2,2.8-0.8,6.1-3.8,7.2
					C813.3,1012.4,813.5,1013.2,814,1013L814,1013z"/>
			</g>
		</g>
		<g>
			<g>
				<path class="st2" d="M814,1013c1.9-0.7,3.3-2.3,3.7-4.3c0.1-0.5-0.6-0.7-0.7-0.2c-0.3,1.8-1.4,3.2-3.1,3.8
					C813.4,1012.5,813.6,1013.2,814,1013L814,1013z"/>
			</g>
		</g>
		<g>
			<g>
				<path class="st2" d="M800.2,976.8c2.3,2.5,4,5.3,5.2,8.5c0.2,0.4,0.9,0.3,0.7-0.2c-1.2-3.3-3-6.2-5.4-8.8
					C800.4,976,799.9,976.5,800.2,976.8L800.2,976.8z"/>
			</g>
		</g>
		<g>
			<g>
				<path class="st2" d="M804.2,982.3c-0.6,0.1-1.2,0.1-1.8,0.2c-0.3,0-0.5,0.4-0.3,0.6c0.4,0.3,0.7,0.9,0.5,1.4
					c-0.1,0.4-0.5,0.6-0.5,1c0,0.2,0.1,0.5,0.3,0.6c0.2,0.2,0.6,0.3,0.6,0.5c0,0.5,0.8,0.5,0.8,0c0-0.4-0.2-0.5-0.4-0.8
					c-0.1-0.1-0.4-0.2-0.4-0.3c-0.1-0.3,0.2-0.5,0.3-0.7c0.3-0.8,0.1-1.8-0.6-2.3c-0.1,0.2-0.2,0.4-0.3,0.6c0.6-0.1,1.2-0.1,1.8-0.2
					C804.7,983,804.7,982.2,804.2,982.3L804.2,982.3z"/>
			</g>
		</g>
	</g>
</g>
<g id="girl_running">
	<g id="leg_right">
		<path class="st0" d="M915.3,892.4c22.8,6.4,45.6,12.9,68.4,19.3c6.5,6.3,16.6,14.9,30.7,21.9c24.3,12.1,53.7,16.2,56.1,10.5
			c1.1-2.5-5.1-8.1-17.5-19.3c-10.6-9.5-15.3-12.4-22.8-19.3c-5.5-5.1-13.1-12.8-21-23.7c-9.1-0.1-20.1-1-32.3-3.6
			c-19.7-4.3-35.3-11.5-46.1-17.7C925.6,871.2,920.4,881.8,915.3,892.4z"/>
		<path class="st3" d="M695.3,639.7c-15.3,23.7-4.1,53.2,8.3,85.6c17.7,46.6,44.9,77.4,58.8,91.8c62.2,64.6,138.6,92.2,182.6,104.2
			c4.5-20.6,8.9-41.3,13.4-61.9c-30.4-16.5-52.8-34.5-68.1-48.5c-25.7-23.5-68.7-62.8-86.7-123.8c-11.1-37.8-4.1-54.9-20.6-67.1
			C760,603.2,713.1,612,695.3,639.7z"/>
		<path class="st4" d="M795.8,650.9c-8.4,13.6-19,35.7-15.9,61.2c3.6,29.5,23.6,48.2,71.2,90.2c41.8,36.8,76.5,66.7,100.8,87.4
			c2.1-10.1,4.1-20.1,6.2-30.2c-15.8-8.9-36.3-21.9-58.4-40.1c-12.2-10.1-30-24.9-49.1-48.3c-13.2-16.2-30.9-38.2-43.2-71.7
			C800.3,680,797.3,662.9,795.8,650.9z"/>
		<path class="st4" d="M823.2,734.4c2.7,9.3,7.5,22.7,16.2,37.4c7.6,12.8,18.3,26.8,55.7,58.6c14.9,12.6,34.7,28.7,59.2,46.4
			c1.4-5.7,2.7-11.4,4.1-17.1c-13.8-7.6-24.9-14.8-32.8-20.3c-24.5-17-41.3-33.1-51.4-42.9c-6.2-6-13-12.7-21.5-22.3
			C839.5,758.9,829.9,744.9,823.2,734.4z"/>
	</g>
	<g id="leg_left">
		<path class="st0" d="M604.1,866.9c12.7,11.4,25.4,22.8,38.1,34.2c-13.9,50.4-18.1,76.6-12.5,78.9c6.7,2.7,27.5-29.5,62.5-96.6
			c-22.6-15.8-45.1-31.6-67.7-47.3C617.6,846.3,610.8,856.6,604.1,866.9z"/>
		<path class="st3" d="M694.2,617c-44.6,31.8-77.5,55.4-93.9,67.1c-60.1,43-90.2,65-92.9,86.7c-5.2,42.3,42.7,86.1,55.7,98
			c12.2,11.2,23.8,18.9,32,23.7c6.6-1.4,24.9-6,40.2-22.7c13.4-14.5,17.3-30.4,18.6-37.1c-16.9-15.8-33.9-31.7-50.8-47.5
			c33.4-16.4,60.8-29,79.6-37.4c26.5-11.9,35.8-15.4,50.1-25.5c18.1-12.7,42.2-30,49-59.8c1.7-7.5,6.3-27.3-4.1-41.3
			C764.7,603.6,730.7,600.7,694.2,617z"/>
		<path class="st5" d="M745,639.1c3.4,2.4,33.3,24.2,28.3,45.1c-0.6,2.3-2.1,7.1-16.1,19.3c-18.7,16.4-36.3,25.8-45.1,30.3
			c-18.8,9.7-32.4,15.5-45.7,21.3c-15.5,6.7-37.8,16.7-65,29.6c17.2,15.9,34.3,31.8,51.5,47.7c-0.6,4.6-1.9,10.4-4.5,16.7
			c-4,9.8-9.5,16.9-13.5,21.3c-5.7-10.9-13.6-23.7-24.5-36.7c-18.4-22.1-38.1-36.3-52.8-45.1c36-15.4,84.7-41.7,132-86.3
			C712.6,680.5,730.8,658.7,745,639.1z"/>
		<path class="st6" d="M770.6,679.9c-5-5.4-37.1,16.4-52.7,26.8c-29.4,19.7-72.5,47.2-130.7,80.5c22.5,15.5,45,31.1,67.5,46.6
			c-17.2-16.4-34.5-32.8-51.7-49.2c5.5-2.7,14.8-7.2,26.4-12.7c19.5-9.3,40.5-19,68.7-32.2c4.9-2.3,19.3-9.1,37.5-19.3
			c11.9-6.7,23.6-13.7,31.2-27.4C769,689.1,772.8,682.3,770.6,679.9z"/>
	</g>
	<g id="hand_right">
		<path class="st7" d="M729.8,425.5c-5-5.4-15.4-3.2-20.6-2.1c-17.9,3.7-28,14.4-44.7,29.1c-9,7.9-22.1,18.8-39,31.2
			c-5-22.5-9.9-44.9-14.9-67.4c2-2.5,5.3-7.4,6.4-14.2c0.6-3.6,2.1-16.3-6.6-24.3c-9.6-8.9-27-7.6-35,1.6
			c-8.1,9.3-3.9,23.5-1.9,30.3c1.9,6.4,4.8,11.3,7.1,14.5c-0.7,7.1-1.4,17.4-0.7,29.8c0.7,13.3,1.5,26.9,7.8,41.9
			c5.1,12.1,11.2,26.6,24.1,31.9c14,5.8,28.5-2.5,56.8-19.2c44.4-26.2,55-47.9,57.5-53.2C728.8,449.7,736.5,432.8,729.8,425.5z"/>
		<g>
			<g>
				<path class="st0" d="M607.5,406.5c-3.4-2.9-7-6.2-8.2-10.7c-0.5-2-0.9-4.8,2.8-4.3c0.9,0.1,2.2,1.2,2.9,1.7c2.1,1.4,4,3.2,5.7,5
					c0.7,0.7,1.7-0.4,1.1-1.1c-2.2-2.4-11.1-11.6-13.8-5.7c-2.7,6,4.6,12.8,8.5,16C607.2,408.2,608.2,407.1,607.5,406.5L607.5,406.5
					z"/>
			</g>
		</g>
		<g>
			<g>
				<path class="st0" d="M574.1,381.3c0.5,7.3,2.8,18.4,12.6,16.8c1-0.2,0.5-1.6-0.4-1.4c-8.7,1.4-10.3-9.2-10.7-15.4
					C575.5,380.4,574,380.4,574.1,381.3L574.1,381.3z"/>
			</g>
		</g>
		<g>
			<g>
				<path class="st0" d="M584.1,375.1c4.3,6,5.3,13.2,2.9,20.2c-0.3,0.9,1.1,1.3,1.4,0.4c2.5-7.3,1.4-15.1-3.1-21.4
					C584.8,373.5,583.5,374.3,584.1,375.1L584.1,375.1z"/>
			</g>
		</g>
		<g>
			<g>
				<path class="st0" d="M595.3,372.6c3.8,7,2.9,15.3-2.3,21.4c-0.6,0.7,0.4,1.8,1.1,1.1c5.6-6.5,6.7-15.6,2.5-23.2
					C596.2,371,594.9,371.8,595.3,372.6L595.3,372.6z"/>
			</g>
		</g>
		<g>
			<g>
				<path class="st0" d="M607.7,377.7c1.7,3.8,0.8,8.1-2.2,10.9c-0.7,0.7,0.4,1.7,1.1,1.1c3.5-3.3,4.5-8.4,2.5-12.8
					C608.6,376,607.3,376.8,607.7,377.7L607.7,377.7z"/>
			</g>
		</g>
		<path class="st8" d="M583.8,373.5c1.7-0.5,3.8-1.1,5.8-0.3c5.4,2.2,7.8,13.3,3,19.1c-1.9,2.4-4.6,3.3-6.3,3.8
			c0.1,1.7,0.2,4.5,0.4,8c0,0,0.5,9.3,1.1,17.2c1.6,21.2,3.2,41.4,11.8,62.4c2.7,6.7,7.3,16.1,15.1,26.7c4-0.8,12.1-2.8,21.6-6.8
			c54.5-23.1,81.9-84.5,91.6-79.5c1.8,0.9,3.3,4.4,3.5,5c1.8,4.4,0.9,8.7-0.5,13.3c-3.6,11.6-9.1,20.1-10.7,22.5
			c-5.9,8.8-11.5,14.5-13,16c-6.6,6.6-12.5,10.6-23.4,17.6c-20.4,13-30.6,19.5-37.5,22.3c-14,5.7-25.9,10.6-36.9,5.4
			c-6.6-3.1-9.9-8.4-14.7-16.4c-10.2-17.2-12.1-34-13.6-49.6c-0.9-8.9-1.5-21.1-0.5-35.7c-5.6-9-7.8-17.1-8.8-22.2
			c-1.3-6.7-2.3-12.3,0.5-18.4C573.1,382.7,576.5,375.6,583.8,373.5z"/>
		<path class="st9" d="M731.6,434.1c-1.1-0.5-4.5,4.7-8.1,10.1c-5.2,7.9-7.8,11.9-12.1,20.9c-12.1,25.4-52.4,45.9-57.6,48.6
			c-8.2,4.1-20,9.2-35.2,12.8c-7-6.4-19.9-19.7-27.2-38.5c-4-10.3-5.5-20.5-5.8-22.2c-1.1-7.1-1.2-12.6-1.3-18.9
			c-0.1-8.7,0.2-16.3,0.8-22.4c-2.2-4.1-4.3-8.8-6.3-13.8c-3.4-8.7-5.6-16.8-7-23.9c-0.4,5.6-0.3,13.9,2.5,23.4
			c1.8,6,4.1,10.9,6.3,14.6c-1.9,16.2-1.2,29.7,0,39.3c0,0,2.7,22.2,14.3,46.8c1.9,4,4.6,9.1,10.1,13.1c7.1,5.1,14.7,5.5,17.1,5.5
			c4,0.1,8.6-0.5,26.9-10.1c15.9-8.3,26.9-15.4,31-18.1c7.7-5,11.5-7.6,15.6-10.8c8.4-6.7,22.1-17.7,30.5-35.7
			C730.4,445.4,733,434.8,731.6,434.1z"/>
	</g>
	<g id="torso">
		<path class="st7" d="M738.8,401.9c-19.4,13.3-42.8,34.3-52.6,65.7c-7.2,23.1-2.5,38.6-3.5,75.9c-0.6,21.3-2.8,52.2-10.6,90
			c4.6,4.9,32,32.8,74.2,31.8c26.2-0.6,45-12.1,53-17.7c-6-37.6-4.4-67.6-1.8-88.3c4.7-36.7,16.9-58,16.8-99.8
			c0-20.4-2.8-37.1-5.2-48.2c-5.3-4-15.4-10.5-29.6-13.3C760.5,394.5,745.2,399.4,738.8,401.9z"/>
		<path class="st10" d="M768.5,398.2c0.2,9.8,0.2,24.2-1.4,41.4c-1.8,20.5-6,48.7-23.7,103.8c-9.4,29.3-23.1,67.4-42.7,111.2
			c10.9,5.9,20.6,8.4,27.1,9.5c24.1,4.1,43.6-3.2,52.9-6.8c8.2-3.2,14.6-6.8,19-9.5c-1.7-10.3-3.5-24.4-4.1-41.4
			c-0.3-8-0.8-34.1,5.4-70.5c5.7-33.6,10.2-35.4,12.9-57.7c3.3-27.9-0.6-51.6-4.7-67.8c-5-3.3-12.8-7.7-23.1-10.2
			C779.3,398.6,773.2,398.2,768.5,398.2z"/>
		<path class="st11" d="M785.4,400.9c1,18.7,1.4,43-0.7,71.2c-1,13.8-3.2,41.3-10.2,71.9c-6.3,27.8-19.4,70-48.8,118
			c7.3,1.7,17.9,3.3,30.5,2c20.4-2.1,35.2-10.5,42.7-15.6c-6-42.6-3.2-76,0.7-99c3.7-21.8,8-32.6,10.9-56.3
			c4.1-34.3,1.2-62.9-2-82.1c-2.3-2.1-6.1-5.2-11.5-7.5C792.4,401.8,788.3,401.2,785.4,400.9z"/>
	</g>
	<g id="hand_left">
		<path class="st7" d="M794.8,414.1c14.4,0,33.2,1.5,54.5,7.1c27.2,7.2,48.1,18.4,62,27.4c4.6,12.4,13,40.4,5.2,74
			c-3.9,17-10.7,30.1-16.5,39.1c-0.4,10.2,1.9,16.9,4.2,21.2c2.6,5.1,6.6,9.7,5,14c-0.8,2.2-2.8,3.5-4.3,4.3c-0.1,0.3-1.3,2.6-4,3.3
			c-3.1,0.7-5.3-1.3-5.5-1.5c-0.6,0.5-3.2,3-7.3,3c-4.5,0.1-7.3-2.8-7.8-3.3c-0.9,0.4-3.1,1-5.8,0.5c-3.7-0.7-5.7-3.3-6.3-4
			c-2.1-1.7-7.5-6.8-8-14.3c-0.2-2.8,0.4-5.4,2-9.3c2-4.8,6.1-12.7,14.8-21c2.7-12.6,4.7-28.9,3.6-47.8c-0.6-9.7-1.9-18.4-3.5-26.1
			c-15.2-5.6-34-10.9-55.9-13.6c-8.8-1.1-17.2-1.6-25-1.7c-13.3-7.3-19.9-21.4-16.8-33.6C782.6,420.5,792.9,415.1,794.8,414.1z"/>
		<g>
			<g>
				<path class="st0" d="M865.1,577c-1.7,7.8-1.9,15.8,3,22.5c0.6,0.8,1.9,0,1.3-0.8c-4.7-6.4-4.5-13.9-2.9-21.3
					C866.7,576.5,865.3,576,865.1,577L865.1,577z"/>
			</g>
		</g>
		<g>
			<g>
				<path class="st0" d="M873.9,580.5c0.1,7.5,1.3,16.4,6.3,22.3c0.6,0.7,1.7-0.3,1.1-1.1c-4.7-5.5-5.8-14.2-5.9-21.2
					C875.4,579.5,873.9,579.5,873.9,580.5L873.9,580.5z"/>
			</g>
		</g>
		<g>
			<g>
				<path class="st0" d="M884.5,581.8c0.7,7.5,3.6,17.2,10.3,21.5c0.8,0.5,1.6-0.8,0.8-1.3c-6.2-4-8.9-13.3-9.6-20.2
					C885.9,580.8,884.4,580.8,884.5,581.8L884.5,581.8z"/>
			</g>
		</g>
		<g>
			<g>
				<path class="st0" d="M893.3,582.7c1.2,7.5,5,14.1,10.8,19c0.7,0.6,1.8-0.4,1.1-1.1c-5.7-4.7-9.2-11.1-10.4-18.3
					C894.6,581.3,893.2,581.7,893.3,582.7L893.3,582.7z"/>
			</g>
		</g>
		<path class="st8" d="M781.4,428.6c17-1.4,46.1-1.4,78.8,11.1c19.2,7.4,34.1,16.9,44.6,25c6.1,57.5-2.5,82-12.2,93.5
			c-2.1,2.4-10.4,11.6-11.4,24.8c-0.8,10,2.7,22.2,7.6,22.9c2,0.3,3.9-1.4,5.4-3.1c2.9,2.1,5.1,2,5.9,1.8c0.7-0.1,1.7-0.4,5.5-3.3
			c3-2.3,4.5-3.5,4.8-4.1c1.9-3.7-3.3-8.7-6.7-15.2c-2.2-4.2-4.4-10.6-4.1-20c6.9-11,19.9-35.4,20-68.4c0.1-19.2-4.3-34.8-8.1-45.1
			c-8.9-5.9-16.8-9.9-22.6-12.6c-1.5-0.7-1.7-0.9-26.3-10c-10.3-3.8-12.4-4.6-16.3-5.5c-5.4-1.3-5.7-0.9-18.1-3
			c-6.4-1.1-12.8-1.9-19.2-3c-1.7-0.3-8.1-1.3-13.7,0.4c-0.8,0.3-2.7,0.8-4.8,2.2c-0.5,0.4-2,1.4-4.1,3.7
			C785.1,422.5,783.2,425,781.4,428.6z"/>
		<path class="st4" d="M910.5,449.9c1.9,17.7,2.1,32.7,1.9,43.9c-0.3,14.1-0.5,22.2-3.1,33.2c-3.4,14.5-9.3,27.3-9.9,28.6
			c-3.1,6.5-3.6,6.5-5.3,11.1c-2.4,6.5-7.2,19.2-1.5,29c0.7,1.3,4.7,8.2,10.3,7.6c5.2-0.5,7.9-7.3,8-7.6c-2.4-4.1-5-9.4-7.2-15.6
			c-1.9-5.5-3.1-10.6-3.8-14.9c5.8-9.3,12.9-23,16.8-40.8C924,490.3,915.2,462.3,910.5,449.9z"/>
	</g>
	<g id="head">
		<path class="st12" d="M715.4,333.6c-22,3.5-28.6,34.5-29.3,37.6c-1.5,7-5.4,25.3,6.7,38.9c11.9,13.4,30.3,11.9,32.6,11.7
			c4.6-0.4,15.5-2.3,23.8-10.9c14.6-14.9,13-41.3,1.3-58.1C749.1,350.9,734.5,330.6,715.4,333.6z"/>
		<path class="st7" d="M727.4,373.1c-0.5,4.3,1.6,6.5,7.2,18.2c4.4,9.2,7.3,16.9,9.1,21.8c3.6,0.8,13.1,2.5,23.7-2
			c7.2-3,11.8-7.6,14.2-10.4c-3.2-5.2-7.5-12.9-11-22.8c-5.5-15.2-4.2-21.1-9.2-24.1C751.4,348.1,728.8,360.2,727.4,373.1z"/>
		<path class="st7" d="M708.6,262.4c-7.8,5.4-10.6,13.5-16,29.2c-6.1,17.8-10.1,33.3-11.1,44.3c-0.2,1.6,0.8,3.2,2.4,3.8
			c2.1,0.8,5.6,0.8,7.6,1.1c0.2,4.9,1.1,11.7,4.2,19.1c6.1,14.7,16.9,22.9,21.9,26.1c6.2,0.6,21.8,1.3,37.2-8.1
			c10.2-6.3,15.5-14.1,16.7-16c7.8-11.9,8.5-23.8,8.5-28.9c2.4-0.2,6.2-0.8,9.9-3.3c7.6-5.1,13.3-16.9,8.5-23.4
			c-3.6-4.7-12.6-6-21.1-1.8c-0.2-3.7-0.9-8.8-2.8-14.7c-0.5-1.4-4-12.2-10.5-19.5C751.4,256.3,724.4,251.3,708.6,262.4z"/>
		<g>
			<g>
				<path class="st0" d="M733.7,389c9.9-0.9,18.8-5,25.9-12c1.4-1.4-0.8-3.5-2.1-2.1c-6.5,6.5-14.6,10.3-23.8,11.2
					C731.8,386.1,731.7,389.1,733.7,389L733.7,389z"/>
			</g>
		</g>
		<g>
			<g>
				<path class="st0" d="M735.2,391.5c10.3-2.9,19.4-8.3,26.8-16.1c1.3-1.4-0.8-3.5-2.1-2.1c-7,7.4-15.6,12.6-25.4,15.3
					C732.5,389.1,733.3,392,735.2,391.5L735.2,391.5z"/>
			</g>
		</g>
		<path class="st12" d="M688.1,303.8c-1.4-1.3-12.3-12-10.7-27.7c1.8-16.7,16.3-24.7,18.7-26c12.8-7,25.4-4.1,28.3-3.3
			c4.5-2.8,12.6-7,23.3-8.3c15.9-2,28.3,3.2,33.3,5.7c6.6,2,16,5.9,23.8,14.3c10.9,11.7,8.4,21.4,19.6,41.1
			c4.4,7.8,4.2,5.3,20.9,27.7c15,20.1,22.5,30.3,23.7,37.7c2.5,16.2-6.2,33-17,42.9c-21,19.2-58.4,20-76.2,0.7
			c-14.7-15.9-11.4-40.3-10.4-48.1c1.8-13.3,6.8-23.4,10.4-29.3c1.7,0.3,4.3,0.7,7.2,0c5.5-1.2,12.1-5.7,13.3-12.9
			c0.1-0.5,1.5-10.3-5.5-14c-4.4-2.3-10.2-1.3-14.2,2.6c-5-1.7-13.3-5-21.5-12c-8.2-7-12.9-14.5-15.3-19.2
			c-3.6-1.6-10.7-3.9-19.4-2.8c-17.1,2.2-26.3,16.1-27.7,18.3C691.2,295.3,689.6,299.5,688.1,303.8z"/>
		<g>
			<g>
				<path class="st0" d="M710.4,313.1c-0.3-1-0.5-1.9-0.5-2.9c0-0.6,0-1.2,0.1-1.8c0.1-0.6,0.4-0.9-0.1-1.3
					c-0.7-0.5-0.3,0.5-0.2,0.9c0,0.5,0,1,0,1.6c0,0.5,0,2.8-0.5,3.1c0.4-0.1,0.8-0.1,1.2-0.2c0.3,0.4,0.4,0.4,0.3,0
					c0-0.3-0.1-0.5-0.1-0.8c-0.1-0.6-0.2-1.1-0.2-1.7c0-1.1,0.1-2.2,0.7-3.1c1-1.7-1.6-3.2-2.6-1.5c-0.8,1.4-1.1,3-1.1,4.7
					c0,1.4,0.1,3.5,1,4.6c0.8,1.1,2.3,1,3.2,0c1.1-1.2,1.2-3.5,1.3-5.1c0.1-1.4,0.2-3.3-0.7-4.5c-0.8-1.1-2.2-1.3-3.3-0.5
					c-2.5,1.9-2,6.8-1.2,9.4C708,315.7,710.9,314.9,710.4,313.1L710.4,313.1z"/>
			</g>
		</g>
		<g>
			<g>
				<path class="st0" d="M703.4,300.3c4.6-3.6,11.5-2.6,14.8,2.1c0.8,1.2,2.8,0,1.9-1.1c-4.3-6-12.6-7.1-18.4-2.6
					C700.7,299.6,702.3,301.2,703.4,300.3L703.4,300.3z"/>
			</g>
		</g>
		<g>
			<g>
				<path class="st0" d="M694.4,353.4c6.4-2,11.9-5.6,16.2-10.6c0.9-1.1-0.6-2.7-1.6-1.6c-4.1,4.8-9.2,8.2-15.2,10.1
					C692.4,351.6,693,353.8,694.4,353.4L694.4,353.4z"/>
			</g>
		</g>
		<g>
			<g>
				<path class="st0" d="M710.3,322.8c0-0.3-0.1-0.2-0.3,0.4c-0.2,0.1-0.4,0.1-0.6,0.2c0,0,0,0,0.1,0c-0.2-0.1-0.4-0.1-0.6-0.2
					c0,0-0.1-0.1-0.1-0.1c-0.1-0.2-0.2-0.3-0.3-0.5c0,0.1,0,0.1,0-0.1c0.1-0.2,0.1-0.4,0.2-0.6c0,0,0,0,0,0c0.1-0.1,0.3-0.3,0.4-0.4
					c0,0,0,0,0,0c0.3,0,0.6-0.1,0.9-0.1c0,0,0,0-0.1,0c-1.4-0.3-2,1.8-0.6,2.2c1.3,0.3,2-1.3,1.1-2.2c-0.4-0.4-1.1-0.4-1.6-0.2
					c-0.5,0.3-0.7,0.9-0.7,1.5C708,324.3,710.3,324.3,710.3,322.8L710.3,322.8z"/>
			</g>
		</g>
		<g>
			<g>
				<path class="st0" d="M720.2,314.5c0,0,0.1,0,0.1-0.1c0.2,0,0.4,0,0.6,0c0.5,0.1,0.7,0.7,0.4,1.1c-0.1,0.1-0.3,0.3-0.4,0.4
					c-0.1,0-0.2,0.1-0.4,0.1c-0.2-0.1-0.4-0.1-0.6-0.2c0,0-0.1-0.1-0.1-0.1c-0.1-0.2-0.2-0.3-0.3-0.5c0-0.3,0-0.5,0.2-0.7
					c0.2-0.1,0.3-0.2,0.5-0.3c0.1,0,0.1,0,0.2,0c-0.6-0.1-1.1,0.6-1.1,1.1c0,0.7,0.5,1,1.1,1.1c0.8,0.1,1.4-0.7,1.4-1.5
					c0-0.9-1-1.5-1.8-1.2c-1.7,0.7-0.2,3.6,1.3,2.5c0.5-0.3,0.7-1,0.4-1.5C721.5,314.4,720.7,314.2,720.2,314.5L720.2,314.5z"/>
			</g>
		</g>
		<g>
			<g>
				<path class="st0" d="M720,325.3c0.4,0.2,0.4,0.8,0,1c-0.6-0.3-1.1-0.6-1.7-1c0,0.3,0,0.6,0,0.9c0.5-0.4,0.9-0.7,1.4-1.1
					c0.1,0.2,0.1,0.3,0.2,0.4c-0.1-0.6-0.5-1.1-1.1-1.1c-0.6,0-1.2,0.5-1.1,1.1c0.1,0.8,0.6,1.6,1.4,1.7c0.7,0.1,1.4-0.3,1.4-1.1
					c0-0.3,0-0.6,0-0.9c0-0.9-1-1.4-1.7-1c-1.1,0.6-1.1,2.2,0,2.9C720.2,327.9,721.3,326,720,325.3L720,325.3z"/>
			</g>
		</g>
		<path class="st11" d="M739.1,275.4c1.7,5.4,3.8,13.2,5.5,22.7c3.6,19.9,7.1,37.9,0,55.9c-6.1,15.6-17.1,26-25.8,32.2
			c7-0.3,15.5-1.3,24.9-4c4.5-1.3,8.6-2.8,12.3-4.3c1.4,5.2,2.8,12.2,2.8,20.6c0,5.9-0.7,11.1-1.5,15.3c1.9,0.1,5.5,0.1,9.5-1.5
			c3.6-1.5,6-3.6,7.4-4.9c2.1,2.2,5.4,5,9.8,7.7c15.9,9.4,32.5,6.9,37.1,6.1c4-0.7,24.5-4.5,37.8-23c3.7-5.1,11-15.4,9.8-29.8
			c-1.1-13.5-9.2-22.3-12-25.2c-1.5,3.7-5.6,12.1-14.7,18.4c-1.7,1.2-15.8,10.6-32.5,6.1c-15.5-4.1-27.3-18.7-29.5-36.5
			c1.5,0,4-0.1,6.8-1.2c1.4-0.6,6.3-2.9,8.6-8.6c0.4-1.1,2.3-5.9,0-11.1c-0.4-0.9-2.9-6.5-8.9-7.4c-5.4-0.8-9.4,2.9-9.8,3.4
			c-5.9-1.9-16.2-6-25.8-15.3C745.1,285.5,741.4,279.8,739.1,275.4z"/>
		<path class="st13" d="M786.7,329.7c-3.8-0.9-7.6-1.8-11.4-2.8c-1.5,2.1-3.6,5.2-5.8,9.2c-5.4,9.7-6.5,15.7-9.5,22.4
			c-2.4,5.4-6.7,12.7-14.7,20.3c4.6-1.6,9.2-3.3,13.8-4.9c2.2,4.5,5.8,13.4,4.9,24.9c-0.4,5.5-1.7,10.1-3.1,13.5
			c4.5-1.5,9-3.1,13.5-4.6c-2.2-2.9-5.2-7.4-7.4-13.5c-3.1-8.7-2.9-15.9-2.8-22.4c0.1-2.9,0.5-12,4-23.3c2.2-6.9,4.8-12.5,7.1-16.6
			c1.5,0.2,3.8,0.3,6.4-0.3C783.8,331.1,785.5,330.4,786.7,329.7z"/>
		<path class="st14" d="M691.2,356.1c-0.9,2.3-5.3,14.3,0.9,26.2c4.7,9.1,16,18.9,27.6,15.9c7.8-2,12-8.8,13.4-11.1
			c3.8,9.1,7.6,18.2,11.4,27.3c-1,0.8-2.6,2-4.6,3.1c-14.3,8.2-30.1,3-31.3,2.6c-3.1-1.1-12.8-4.6-19.1-14.5
			c-5.9-9.4-5.3-18.9-4.8-26.2C685.3,368.9,688.7,360.9,691.2,356.1z"/>
	</g>
</g>
<g id="speed_lines">
	<g>
		<g>
			<path class="st0" d="M183.7,601.9c33.7-1.7,65.6,10.2,95.8,23.8c30.6,13.8,60.4,28.8,92.8,38c19.1,5.5,38.7,9.2,58.5,11.5
				c1.9,0.2,1.9-2.8,0-3c-36-4.1-71-13.7-104.2-28.2c-29.7-13-58.4-28.7-89.6-38c-17.3-5.2-35.2-8-53.3-7.1
				C181.7,598.9,181.7,601.9,183.7,601.9L183.7,601.9z"/>
		</g>
	</g>
	<g>
		<g>
			<path class="st0" d="M378.5,619.1c59.3,26.5,125.9,23.2,188.5,12.2c19.6-3.4,39.1-7.5,58.5-11.7c1.9-0.4,1.1-3.3-0.8-2.9
				c-63.5,13.5-129.2,27.2-194,15.3c-17.4-3.2-34.5-8.3-50.6-15.5C378.3,615.8,376.8,618.4,378.5,619.1L378.5,619.1z"/>
		</g>
	</g>
	<g>
		<g>
			<path class="st0" d="M841.7,835.5c42.7,16.6,88.6,2.9,129-13.6c21.8-8.9,43.3-18.7,65.8-26c22.8-7.3,46.3-12.5,70.1-15.3
				c26.4-3.1,53.1-3.3,79.6-0.8c1.9,0.2,1.9-2.8,0-3c-45.7-4.4-92.1-0.4-136.3,11.9C1005,801.3,964.3,826,918.7,836
				c-25.2,5.5-51.8,6-76.2-3.4C840.7,831.9,839.9,834.8,841.7,835.5L841.7,835.5z"/>
		</g>
	</g>
	<g>
		<g>
			<path class="st0" d="M1121.4,734.4c57.5-16.9,119.5-15.4,176.1,4.3c1.8,0.6,2.6-2.3,0.8-2.9c-57.1-19.8-119.7-21.3-177.7-4.3
				C1118.8,732,1119.6,734.9,1121.4,734.4L1121.4,734.4z"/>
		</g>
	</g>
	<g>
		<g>
			<path class="st0" d="M760.6,275.1c21.5-4.4,43-8.9,64.9-10.8c22-1.9,43.6-0.5,65.2,3.6c41.4,8,81.7,21,123.9,25.2
				c23.1,2.3,46.4,1.9,69.2-2.7c1.9-0.4,1.1-3.3-0.8-2.9c-42.5,8.6-85.8,1.8-127.5-7.7c-41.5-9.4-82.1-22-125.2-19
				c-23.8,1.7-47.2,6.5-70.5,11.3C757.9,272.6,758.7,275.5,760.6,275.1L760.6,275.1z"/>
		</g>
	</g>
	<g>
		<g>
			<path class="st0" d="M897.3,292.9c66.5,21.8,136.3,40.8,207,33c18.9-2.1,37.6-6.2,55.6-12.4c1.8-0.6,1-3.5-0.8-2.9
				c-66.3,23.1-137.8,14.6-204.2-3.3c-19.1-5.1-38-11.1-56.7-17.2C896.3,289.4,895.5,292.3,897.3,292.9L897.3,292.9z"/>
		</g>
	</g>
</g>
</svg>
