<?xml version="1.0" encoding="utf-8"?>
<!-- Generator: Adobe Illustrator 23.0.3, SVG Export Plug-In . SVG Version: 6.00 Build 0)  -->
<svg version="1.1" id="Layer_1" xmlns="http://www.w3.org/2000/svg" xmlns:xlink="http://www.w3.org/1999/xlink" x="0px" y="0px"
	 viewBox="0 0 600 600" style="enable-background:new 0 0 600 600;" xml:space="preserve">
<style type="text/css">
	.st0{fill:#202124;}
	.st1{fill:#FFFFFF;stroke:#202124;stroke-miterlimit:10;}
	.st2{fill:#5492ED;}
	.st3{opacity:0.77;fill:#EAEAEA;enable-background:new    ;}
	.st4{opacity:0.68;fill:#F2F2F2;enable-background:new    ;}
	.st5{fill:none;stroke:#202124;stroke-width:0.75;stroke-miterlimit:10;}
	.st6{opacity:0.46;fill:none;stroke:#202124;stroke-width:0.75;stroke-miterlimit:10;enable-background:new    ;}
	.st7{opacity:0.55;fill:none;stroke:#202124;stroke-width:0.75;stroke-miterlimit:10;enable-background:new    ;}
	.st8{opacity:0.61;fill:none;stroke:#202124;stroke-width:0.75;stroke-miterlimit:10;enable-background:new    ;}
	.st9{opacity:0.83;fill:#EAEAEA;enable-background:new    ;}
	.st10{opacity:0.83;fill:none;stroke:#202124;stroke-width:0.75;stroke-miterlimit:10;enable-background:new    ;}
	.st11{opacity:0.83;}
	.st12{fill:#EB506E;}
	.st13{fill:#FFFFFF;}
	.st14{fill:#B1CEFC;}
	.st15{fill:none;}
	.st16{fill:#F7CD5B;}
	.st17{fill:#040844;}
	.st18{fill:#D6D6D6;}
	.st19{fill:#F7F7F7;}
	.st20{fill:#FFFFFF;stroke:#202124;stroke-width:0.75;stroke-miterlimit:10;}
	.st21{opacity:0.71;fill:#E5E5E5;enable-background:new    ;}
	.st22{opacity:0.38;}
</style>
<g id="background">
	<g id="ground">
		<g>
			<g>
				<path class="st0" d="M37.7,497.6c69.7-19.2,139.4-38.5,209.1-57.7c0.5-0.1,0.3-0.9-0.2-0.7c-69.7,19.2-139.4,38.5-209.1,57.7
					C37,497,37.2,497.7,37.7,497.6L37.7,497.6z"/>
			</g>
		</g>
		<g>
			<g>
				<path class="st0" d="M275.4,441.8c70.5,13.4,140.1,31,209.5,49.6c19.5,5.2,39.1,10.5,58.6,15.8c0.5,0.1,0.7-0.6,0.2-0.7
					c-69.3-18.8-138.6-37.7-208.6-53.2c-19.7-4.4-39.5-8.5-59.4-12.3C275.2,441,275,441.7,275.4,441.8L275.4,441.8z"/>
			</g>
		</g>
	</g>
	<g id="plant">
		<polygon class="st0" points="167.8,546.7 130.6,546.7 118.8,470.1 181.7,470.1 		"/>
		<ellipse class="st1" cx="150.3" cy="469.8" rx="31.4" ry="10.1"/>
		<g>
			<g>
				<path class="st2" d="M151.6,389.6c-11.7,8.4-14.2,28.2-5.1,39.3c5.9,7.2,13,12.2,10.1,22.6c-2.2,7.8-6.9,14.7-6.7,23.1
					c0.9-0.3,1.9-0.5,2.8-0.8c-0.3-0.8-0.7-1.5-1-2.3c-0.8-1.8-3.3-0.2-2.6,1.5c0.3,0.8,0.7,1.5,1,2.3c0.6,1.4,2.8,0.6,2.8-0.8
					c-0.2-13.3,13.3-25.5,4.2-38.4c-4.4-6.3-11.1-10.2-12.7-18.4c-1.7-8.9,1.1-20.3,8.7-25.8C154.7,391.1,153.2,388.5,151.6,389.6
					L151.6,389.6z"/>
			</g>
		</g>
		<g>
			<g>
				<path class="st2" d="M130.1,418.6c-2.7,7.8-2.4,17,2.5,24c2.3,3.3,5.6,5.2,8.8,7.6c5,3.6,8.7,8.3,11.3,13.9
					c0.8,1.7,3.4,0.2,2.6-1.5c-3.5-7.6-8.9-12.3-15.5-17.1c-8.4-6.1-10.1-16.6-6.8-26C133.6,417.6,130.7,416.8,130.1,418.6
					L130.1,418.6z"/>
			</g>
		</g>
		<g>
			<g>
				<path class="st2" d="M152.5,430.8c4.6-5,8.8-10.1,9.8-17c0.6-4.2,0.4-8.6,1-12.8c0.7-4.7,2.2-9.1,4.3-13.4
					c0.8-1.7-1.8-3.3-2.6-1.5c-3,6.3-4.7,12.9-5.2,19.9c-0.3,4.5-0.2,8.9-2.2,13c-1.8,3.6-4.6,6.7-7.3,9.6
					C149.1,430.1,151.2,432.3,152.5,430.8L152.5,430.8z"/>
			</g>
		</g>
		<g>
			<g>
				<path class="st2" d="M145.1,368.1c-9.9,10-11.3,26.1-3.2,37.6c1.1,1.6,3.7,0.1,2.6-1.5c-7.3-10.4-6.3-24.9,2.7-34
					C148.6,368.9,146.4,366.7,145.1,368.1L145.1,368.1z"/>
			</g>
		</g>
		<path class="st2" d="M131.4,434.8c-1.3-0.9-9.4-6.6-10.9-17.5c-1.4-9.9,3.7-17.1,4.8-18.5c2.1,3.5,4.7,8.7,6.1,15.6
			C133.1,423.1,132.3,430.5,131.4,434.8z"/>
		<path class="st2" d="M141.4,375.4c-0.9-2.1-2.4-6.4-1.6-11.6c1.7-11.1,12.2-16.2,13.2-16.7c0.4,2.3,0.6,5.1,0.3,8.2
			C152,366.4,144,373.3,141.4,375.4z"/>
		<path class="st2" d="M147.7,397.6c-0.6-2.1-2.3-8.6,0.6-16.1c3.5-9,11-12.7,12.7-13.5c0.2,3.2,0.1,9.9-3.4,17.2
			C154.4,391.6,150.1,395.6,147.7,397.6z"/>
		<path class="st2" d="M169.5,413.2c-3.4,3.1-7.5,3.6-9.3,3.7c0.8-3,2.2-6.9,4.7-11.1c2.9-5.1,6.3-8.7,8.9-11
			C175.9,401.8,174.2,409,169.5,413.2z"/>
		<path class="st2" d="M164.8,390.5c-0.2-2.6-0.1-6.7,1.6-11.3c2.9-8,8.7-12.3,11.1-13.9c0.2,2.6,0.3,9.5-4,16.5
			C170.6,386.4,167,389.1,164.8,390.5z"/>
		<path class="st2" d="M140.4,447.7c-1.2-1.7-3.3-5-3.9-9.7c-1-7.7,2.8-13.4,3.9-14.9c1.2,2.1,3.6,7.2,3.2,13.9
			C143.2,441.9,141.5,445.6,140.4,447.7z"/>
	</g>
	<g id="tab_2_">
		<polygon class="st3" points="54.8,82.7 61.8,222.4 172.7,240.8 172.7,93.4 		"/>
		<path class="st4" d="M12.7,146.2c0,0-2.7,157.1,0,157.6s96.5,20.2,96.5,20.2l7.5-159.9L12.7,146.2z"/>
		<line class="st5" x1="67.3" y1="101.7" x2="140" y2="109.9"/>
		<line class="st5" x1="64.1" y1="115.9" x2="139.6" y2="124.1"/>
		<line class="st5" x1="66.2" y1="140" x2="137.9" y2="148.4"/>
		<line class="st5" x1="70" y1="127.7" x2="126.8" y2="133.9"/>
		<g>
			<g>
				<path class="st2" d="M150.6,111.4c1.5,1.4,4.5,5.4,6.5,2.5c1.2-1.8,2-4.1,3.1-6c1.2-2.2,2.6-4.3,4-6.3c1.1-1.6-1.5-3.1-2.6-1.5
					c-1.8,2.6-3.5,5.2-4.9,8c-0.6,1.1-1.7,2.6-1.9,3.8c-0.4,0.7-0.2,0.6,0.4-0.2c-0.2-0.2-0.4-0.4-0.6-0.6c-0.3-0.6-1.3-1.2-1.8-1.7
					C151.3,108,149.1,110.1,150.6,111.4L150.6,111.4z"/>
			</g>
		</g>
		<g>
			<g>
				<path class="st2" d="M150.4,128.2c1.3,2.4,3,7.1,6.1,3.8c2.7-2.9,5.1-6.3,7.2-9.7c1-1.6-1.6-3.2-2.6-1.5c-1.1,1.7-2.2,3.4-3.4,5
					c-0.7,0.9-1.4,1.8-2.1,2.7c-0.4,0.4-1.1,1.7-1.7,1.8c0.4,0.1,0.8,0.1,1.2,0.2c-0.9-0.5-1.7-2.9-2.1-3.8
					C152.1,125,149.5,126.5,150.4,128.2L150.4,128.2z"/>
			</g>
		</g>
		<g>
			<g>
				<path class="st2" d="M150.5,147.2c1.6,1.6,2.3,8.5,5.8,7.1c1.6-0.6,2.2-2.9,2.9-4.3c1.2-2.4,2.3-4.9,3.5-7.3
					c0.8-1.7-1.8-3.3-2.6-1.5c-0.9,1.8-1.7,3.6-2.6,5.4c-0.4,0.8-0.7,1.5-1.1,2.3c-0.2,0.5-0.8,2.5-1.4,2.6c0.4,0.1,0.8,0.1,1.2,0.2
					c-0.9-0.5-1.2-2.7-1.6-3.5c-0.5-1.2-1.1-2.1-1.9-3.1C151.3,143.6,149.1,145.8,150.5,147.2L150.5,147.2z"/>
			</g>
		</g>
		<line class="st6" x1="18.8" y1="160.2" x2="98.4" y2="174"/>
		<line class="st7" x1="19.1" y1="174.4" x2="91.6" y2="187.4"/>
		<line class="st8" x1="19.1" y1="187.4" x2="89" y2="199.8"/>
		<line class="st8" x1="18.4" y1="204.4" x2="86.5" y2="216.4"/>
		<line class="st8" x1="20.2" y1="224.9" x2="84.8" y2="235.2"/>
		<line class="st8" x1="18.8" y1="246.8" x2="90.1" y2="259.5"/>
		<line class="st8" x1="20.9" y1="263" x2="72.1" y2="273"/>
		<line class="st8" x1="24.8" y1="278.5" x2="98.4" y2="294"/>
		<g>
			<g>
				<path class="st2" d="M95.8,185.9c1,1.8,1.8,3.7,2.9,5.3c0.7,1,1.4,1.5,2.6,1.6c0.7,0,1.2-0.5,1.4-1.1c1.3-3.6,3-7,5.1-10.3
					c1.1-1.6-1.5-3.1-2.6-1.5c-2.2,3.4-4,7.1-5.4,11c0.5-0.4,1-0.7,1.4-1.1c-0.5,0-2.6-4.8-2.9-5.4
					C97.4,182.7,94.9,184.2,95.8,185.9L95.8,185.9z"/>
			</g>
		</g>
		<g>
			<g>
				<path class="st2" d="M92.1,215.6c0.9,1.7,4.3,10.2,7.3,6.1c1.1-1.5,1.3-3.7,2.2-5.3c1.2-2.2,2.8-4,4.6-5.7
					c1.5-1.3-0.7-3.4-2.1-2.1c-2.3,2-4.3,4.5-5.6,7.2c-0.3,0.6-1.2,3.8-1.4,3.8c0.6-0.1-2.2-5.2-2.4-5.5
					C93.8,212.3,91.2,213.9,92.1,215.6L92.1,215.6z"/>
			</g>
		</g>
		<g>
			<g>
				<path class="st2" d="M91.3,252.5c1.1,3.4,2.5,6.7,4.3,9.8c0.7,1.2,2.3,0.8,2.7-0.4c2-4.9,4.1-9.8,7-14.2
					c1.1-1.6-1.5-3.1-2.6-1.5c-3.1,4.7-5.2,9.8-7.3,14.9c0.9-0.1,1.8-0.2,2.7-0.4c-1.6-2.9-3-5.9-4-9.1
					C93.6,249.8,90.7,250.6,91.3,252.5L91.3,252.5z"/>
			</g>
		</g>
	</g>
	<g id="tab_1_">
		<polygon class="st9" points="412.5,127.7 405.8,211.6 496.3,229 508.7,142.2 		"/>
		<line class="st10" x1="415.9" y1="137.4" x2="476.2" y2="146.2"/>
		<line class="st10" x1="415.9" y1="146.2" x2="476.2" y2="155.4"/>
		<line class="st10" x1="414.6" y1="158.9" x2="477.3" y2="169.1"/>
		<line class="st10" x1="412.5" y1="171.1" x2="465.2" y2="180.9"/>
		<line class="st10" x1="414.3" y1="179.6" x2="460.8" y2="187.5"/>
		<line class="st10" x1="414" y1="192.5" x2="461.1" y2="201.8"/>
		<g class="st11">
			<g>
				<path class="st2" d="M479.8,152.2c1,1.4,3.8,7,5.9,3.6c1-1.6,1.4-3.6,2.3-5.2c1.1-1.9,2.3-3.7,3.8-5.3c1.3-1.4-0.8-3.6-2.1-2.1
					c-1.4,1.7-2.8,3.4-3.9,5.3c-0.6,0.9-1.1,1.9-1.5,2.9c-0.2,0.4-1.1,2.6-0.8,2.5c0.5,0.1,1,0.3,1.5,0.4c-1-1-1.8-2.4-2.6-3.6
					C481.3,149.1,478.7,150.6,479.8,152.2L479.8,152.2z"/>
			</g>
		</g>
	</g>
</g>
<g id="character">
	<g id="leg_left">
		<path class="st12" d="M228.5,521.1c-0.7,6.5-1.3,13.1-2,19.6c10.9,5,46,20.8,49.3,15.4c3.2-5.3-25.1-28.1-34.9-35.8
			C236.8,520.6,232.6,520.9,228.5,521.1z"/>
		<g>
			<g>
				<path class="st13" d="M244,525.8c-3-2.4-8.4,6.8-5.2,7.6c2.3,0.6,4.5-4.3,5.2-5.7c0.7-1.6,1-3.2,1.5-4.8
					c0.3-1.8,1.4-2.1,3.4-0.8c-0.4,0.4-0.8,0.9-1.3,1.3c-1.1,1-2.2,1.9-3.4,2.8c-0.4,0.3,0,0.9,0.4,0.6c1.5-1.1,2.9-2.3,4.2-3.6
					c0.6-0.6,1.8-1.6,1.5-2.6c-0.3-1.5-2.2-1.6-3.3-1c-2.4,1.2-2.6,4.8-3.4,7c-0.3,0.7-3.9,8.1-5,4.8c-0.5-1.4,3.6-6.1,4.9-5.1
					C243.8,526.6,244.4,526.1,244,525.8L244,525.8z"/>
			</g>
		</g>
		<g>
			<g>
				<path class="st13" d="M246.7,531.7c0.9-1.5,2.2-2.6,3.9-3.2c0.5-0.2,0.3-0.9-0.2-0.7c-1.9,0.6-3.4,1.8-4.4,3.5
					C245.8,531.8,246.5,532.1,246.7,531.7L246.7,531.7z"/>
			</g>
		</g>
		<g>
			<g>
				<path class="st13" d="M249.8,533.3c0.7-1.5,2.3-2,3.8-2.4c0.5-0.1,0.3-0.8-0.2-0.7c-1.7,0.4-3.4,1-4.2,2.7
					C249,533.4,249.6,533.8,249.8,533.3L249.8,533.3z"/>
			</g>
		</g>
		<g>
			<g>
				<path class="st13" d="M252.1,535.8c1.3-1.4,2.9-2.1,4.8-2c0.5,0,0.5-0.7,0-0.8c-2-0.1-4,0.7-5.3,2.2
					C251.2,535.7,251.8,536.2,252.1,535.8L252.1,535.8z"/>
			</g>
		</g>
		<g>
			<g>
				<path class="st13" d="M226.9,537.6c8.2,4.6,16.9,7.7,25.7,10.8c0.5,0.2,0.7-0.6,0.2-0.7c-8.8-3-17.4-6.1-25.5-10.7
					C226.8,536.7,226.4,537.4,226.9,537.6L226.9,537.6z"/>
			</g>
		</g>
		<path class="st14" d="M273.6,323c-0.9,3.5-2.7,11-5.1,20.4c-21,84.4-28.2,110.2-35.9,152.7c-0.9,5.1-2.5,13.9-4.2,25
			c0.8,0.7,3.4,3,7.5,3.2c4.6,0.3,7.7-2.1,8.4-2.7c2.4-6.2,6.4-16.2,11.5-28.6c11.6-28,17-39.1,44.4-100.6
			c9.2-20.6,10.3-23.3,16.6-37.2c6.9-15.3,10.1-22.2,15.2-33.9c5.7-13.1,10.1-23.8,13-30.7c-5.4-1.1-10.3-1.4-14.5-1.2
			C299.7,290.6,279.1,315.9,273.6,323z"/>
		<g>
			<path class="st15" d="M344.4,294c-33.4,74.1-66.3,148.4-98.9,222.9"/>
		</g>
		<g>
			<path class="st15" d="M270.7,335.4c-16.3,60.3-30.4,121.2-42.4,182.5"/>
		</g>
		<g>
			<path class="st15" d="M228.8,522.2c4.6,3.1,11.2,2.9,15.6-0.5"/>
		</g>
	</g>
	<g id="leg_right">
		<path class="st12" d="M239.9,546.7c-0.7,6.5-1.3,13.1-2,19.6c10.9,5,46,20.8,49.3,15.4c3.2-5.3-25.1-28.1-34.9-35.8
			C248.2,546.2,244.1,546.5,239.9,546.7z"/>
		<path class="st14" d="M238,315.2c-0.1,4.7-0.3,12-0.4,21c-0.3,18.7-0.8,58.3,1.1,141.6c0.4,17.5,1,41.5,2,70.2
			c0.5,0.4,3,2.2,6.5,1.8c2.5-0.3,4.2-1.7,4.8-2.2c4.6-21.3,8.6-38.9,11.4-51.1c14.3-63.1,21.4-94.6,28.2-115.1
			c2.7-8.2,4.8-15.7,9.1-30.7c10.6-37.4,10-41.7,8.1-44.5C298.5,291.5,246.3,311.9,238,315.2z"/>
		<g>
			<path class="st15" d="M237.6,313.3c-0.1,77.8,0.7,155.7,2.3,233.5"/>
		</g>
		<g>
			<g>
				<path class="st13" d="M299.5,351.6c-18.1,63.9-33.7,128.5-46.7,193.6c-0.1,0.5,0.6,0.7,0.7,0.2c13.1-65.1,28.7-129.7,46.7-193.6
					C300.3,351.3,299.6,351.1,299.5,351.6L299.5,351.6z"/>
			</g>
		</g>
		<g>
			<path class="st15" d="M240.6,548.1c3.2,2.7,8.4,2.5,11.3-0.4"/>
		</g>
		<g>
			<g>
				<path class="st13" d="M255.4,551.4c-3-2.4-8.4,6.8-5.2,7.6c2.3,0.6,4.5-4.3,5.2-5.7c0.7-1.6,1-3.2,1.5-4.8
					c0.3-1.8,1.4-2.1,3.4-0.8c-0.4,0.4-0.8,0.9-1.3,1.3c-1.1,1-2.2,1.9-3.4,2.8c-0.4,0.3,0,0.9,0.4,0.6c1.5-1.1,2.9-2.3,4.2-3.6
					c0.6-0.6,1.8-1.6,1.5-2.6c-0.3-1.5-2.2-1.6-3.3-1c-2.4,1.2-2.6,4.8-3.4,7c-0.3,0.7-3.9,8.1-5,4.8c-0.5-1.4,3.6-6.1,4.9-5.1
					C255.3,552.2,255.8,551.7,255.4,551.4L255.4,551.4z"/>
			</g>
		</g>
		<g>
			<g>
				<path class="st13" d="M258.2,557.3c0.9-1.5,2.2-2.6,3.9-3.2c0.5-0.2,0.3-0.9-0.2-0.7c-1.9,0.6-3.4,1.8-4.4,3.5
					C257.3,557.3,257.9,557.7,258.2,557.3L258.2,557.3z"/>
			</g>
		</g>
		<g>
			<g>
				<path class="st13" d="M261.3,558.9c0.7-1.5,2.3-2,3.8-2.4c0.5-0.1,0.3-0.8-0.2-0.7c-1.7,0.4-3.4,1-4.2,2.7
					C260.4,559,261.1,559.4,261.3,558.9L261.3,558.9z"/>
			</g>
		</g>
		<g>
			<g>
				<path class="st13" d="M263.5,561.4c1.3-1.4,2.9-2.1,4.8-2c0.5,0,0.5-0.7,0-0.8c-2-0.1-4,0.7-5.3,2.2
					C262.7,561.3,263.2,561.8,263.5,561.4L263.5,561.4z"/>
			</g>
		</g>
		<g>
			<g>
				<path class="st13" d="M238.3,563.2c8.2,4.6,16.9,7.7,25.7,10.8c0.5,0.2,0.7-0.6,0.2-0.7c-8.8-3-17.4-6.1-25.5-10.7
					C238.3,562.3,237.9,563,238.3,563.2L238.3,563.2z"/>
			</g>
		</g>
	</g>
	<g id="hand_left">
		<path class="st16" d="M430.6,231.3c1.1-1.2,2.3-2.5,3.4-3.7c-0.4-1.6-0.9-4-1.4-7c-1-6.5-1.5-9.8-0.1-13c0.4-0.9,2.2-4.9,6.1-5.7
			c2.1-0.4,4.7,0,6.4,1.8c1.4,1.5,1.5,3.3,1.6,6.8c0.2,5.6,0.3,8.9,0.4,12.3c1.5-6.1,2.3-7.4,2.8-7.4c0.9,0.1,1.7,5,0.4,9.7
			c-0.7,2.6-1.8,4.4-2.7,5.7c-1.7,2.5-2.9,3.5-7.3,7.6c-5.9,5.6-6.6,6.6-7.5,6.3C430.3,244,430.3,236.3,430.6,231.3z"/>
		<path class="st17" d="M339.1,135.9c3.7-0.8,8.6,3,10,4.2c2.7,2.1,4.3,4,6.3,8c6.9,13.7,8.8,23,8.8,23c2.6,13.3,7.1,34.8,12.1,62.3
			c7.7-0.3,15.4-0.5,23.1-0.8c10.8-0.4,21.6-0.8,32.4-1.2c0.9,0.3,2.6,1.2,3.9,3c2.6,3.7,0.9,8.2,0.8,8.6c-2.3,1.2-5.7,2.8-9.8,4.8
			c-11.6,5.6-21.8,10.5-35.1,15.6c-16.2,6.2-11.8,3-24.4,7.7c-1.5,0.6-5.3,2-10.3,1.9c-2.4,0-7.2-0.2-11.1-3.4
			c-2.6-2.2-3.7-4.8-4.3-6.4c-5.2-13.6-7.1-23-7.1-23c-2.8-13.5-4.1-20.2-4.9-27.2c-0.6-5.4-1-11.5-1.1-18.4
			C328.2,186.6,327.5,138.4,339.1,135.9z"/>
		<g>
			<path class="st15" d="M340.8,137c3.8,0,7.3,1.9,10,4.6c2.6,2.7,4.5,6,6.1,9.4c7.7,16.2,10.9,34.1,14,51.8
				c1.8,10.2,3.6,20.4,5.4,30.5"/>
		</g>
		<g>
			<path class="st15" d="M376.8,233.3c3.6,0.1,7.3-0.1,10.9-0.3c14.7-0.7,29.5-1.4,44.2-2.1"/>
		</g>
		<g>
			<path class="st15" d="M431.7,231.3c3.5,1.3,5.9,5.1,5.5,8.8"/>
		</g>
		<g>
			<path class="st15" d="M328.4,206.1c2.6,18.2,5.3,36.6,11.7,53.8c1.6,4.4,3.8,9.1,7.9,11.4c4.4,2.5,9.9,1.8,14.9,0.7
				c25.8-5.6,49.8-17.4,73.5-29.1"/>
		</g>
		<g>
			<path class="st15" d="M437.3,240.8c3.1-2.5,6.3-5.1,8.9-8.2c2.5-3.1,4.4-6.9,4.6-11"/>
		</g>
		<g>
			<path class="st15" d="M431.4,230.4c0.8-0.9,1.7-1.8,2.5-2.8"/>
		</g>
		<g>
			<path class="st15" d="M433.8,226.1c-0.9-3.5-1.8-7.1-2-10.7c-0.3-3.6,0.1-7.4,1.7-10.6"/>
		</g>
		<g>
			<g>
				<path class="st0" d="M436,213.2c-0.3-4,0.7-7.7,2.9-11c0.3-0.4-0.4-0.8-0.6-0.4c-2.3,3.4-3.4,7.3-3,11.4
					C435.3,213.7,436,213.7,436,213.2L436,213.2z"/>
			</g>
		</g>
		<g>
			<g>
				<path class="st0" d="M440.5,213.4c-0.4-3.8,0.5-7.4,2.9-10.4c0.3-0.4-0.2-0.9-0.5-0.5c-2.5,3.2-3.5,6.9-3.1,10.9
					C439.8,213.8,440.5,213.8,440.5,213.4L440.5,213.4z"/>
			</g>
		</g>
		<g>
			<g>
				<path class="st0" d="M444,212.7c0.1-2.9,1.1-5.6,2.9-7.9c0.3-0.4-0.4-0.8-0.6-0.4c-1.9,2.4-2.9,5.2-3,8.3
					C443.2,213.2,444,213.2,444,212.7L444,212.7z"/>
			</g>
		</g>
		<g>
			<g>
				<path class="st0" d="M447.4,222.9c0.4-1.9,1-3.7,2-5.4c0.2-0.4-0.4-0.8-0.6-0.4c-1,1.7-1.7,3.6-2,5.5
					C446.5,223.2,447.3,223.4,447.4,222.9L447.4,222.9z"/>
			</g>
		</g>
	</g>
	<g id="torso">
		<path class="st17" d="M239.2,158c2.3-1.1,4.6-2.1,6.9-3.1c31.6-13.5,63.4-18.6,93-19c1.5,2.6,3.5,6.6,5.1,11.6
			c2,6.6,2.2,11.9,2.4,15.6c1.1,24,1.4,7.3,1.7,27.9c0.5,29.7,0.7,46.1-1.1,70.1c-0.6,7.7-1.6,18.3-3.2,30.8
			c-3.1,3.9-7.6,8.9-13.6,13.8c-2.8,2.3-9.5,7.5-19.4,12.2c-3.3,1.6-11.7,5.3-23.2,7.6c-5,1-13.3,2.2-23.5,1.7
			c-9.8-0.5-13.8-2.2-15.2-2.9c-5.6-2.6-9.1-6.4-11.1-9c-2.7-14.6-4.6-27.1-6-36.9c-2.1-15.3-3.3-29.8-5.7-58.7
			c-1.4-17-1.6-21-0.7-27.2C227.8,177.1,234.2,165.4,239.2,158z"/>
		<g>
			<path class="st15" d="M242.2,156.5C272,144,304,135,336.4,136.1"/>
		</g>
		<g>
			<g>
				<path class="st13" d="M345.7,157c4,42.6,3.6,85.5-1,128c-0.1,0.5,0.7,0.5,0.8,0c4.6-42.5,5-85.4,1-128
					C346.4,156.5,345.7,156.5,345.7,157L345.7,157z"/>
			</g>
		</g>
		<g>
			<g>
				<path class="st0" d="M225,197.8c1.2,39.5,5.4,78.8,12.7,117.6c0.1,0.5,0.8,0.3,0.7-0.2c-7.2-38.7-11.5-78-12.7-117.4
					C225.7,197.3,224.9,197.3,225,197.8L225,197.8z"/>
			</g>
		</g>
		<g>
			<path class="st15" d="M239.2,317.2c4.2,5.7,11.7,7.9,18.7,8.9c32.6,4.9,67.3-9.2,87.2-35.5"/>
		</g>
	</g>
	<g id="hand_right">
		<path class="st16" d="M193.8,174.4c0-1.3-0.1-3.1-0.5-5.3c-0.4-2.3-1.2-5.1-4-10.5c-2.7-5.3-5.2-9-8.1-13.3
			c-1.2-1.7-2.6-3.6-5.5-7.5c-4.4-5.8-5.5-7.1-7.1-7c-0.5,0-1.5,0.2-5.6,4.8c-2.1,2.4-3.7,4.4-4.8,6c0.7,1.3,1.9,3.1,3.7,4.8
			c2,1.9,4,3.1,5.4,3.8c0.6,2.4,1.5,5,2.9,7.8c1.6,3.5,3.4,6.1,4.8,7.9c1.3,1.7,2.5,3,3.5,4.1c-0.6,1.4-1.1,2.8-1.7,4.2
			c1.2,3.4,4.1,5.8,7.6,6.2C188.3,180.6,192.2,178.2,193.8,174.4z"/>
		<path class="st17" d="M239.2,158c-1.6,1.2-3.8,3-6.2,5.3c-1.3,1.3-5.3,5.2-9.9,11.7c-4.8,6.9-13.1,20.9-22.7,39.8
			c-0.9-3.6-1.7-7.4-2.5-11.3c-2-10.3-3.3-20-4.1-29.1c-2,0.3-4.5,0.6-7.5,0.4c-4-0.3-7.2-1.4-9.3-2.3c-0.6,3.3-1.4,8.3-2.4,14.3
			c-1.6,10.3-4.7,29.6-6.4,53.2c-0.6,8.3-0.9,15.7,1.5,24.7c2.2,7.8,5.1,11.8,6.2,13.2c1.8,2.2,6.9,8.8,15.9,10.5
			c1.1,0.2,5.1,0.9,10.2-0.4c7.5-1.8,12-6.7,18.6-13.9c7.3-8,11.5-15.5,14.6-21c1.6-2.8,3.9-7.2,6.3-12.5
			c7.9-17.9,15.7-35.4,12.1-54.4C252.4,180.3,249.4,169.6,239.2,158z"/>
		<g>
			<path class="st15" d="M200.7,214.7c4.7-8.5,9.4-17,14-25.5c5.9-10.7,12.1-21.7,22-28.9"/>
		</g>
		<g>
			<path class="st15" d="M193.8,174.4c1.1,13.6,3.3,27.2,6.6,40.4"/>
		</g>
		<g>
			<path class="st15" d="M177.9,172.9c4.8,1.7,10,2.4,15.1,1.8"/>
		</g>
		<g>
			<g>
				<path class="st13" d="M176.5,173.9c-3,16.1-5.5,32.3-7.2,48.7c-1.6,15-4.1,31.5,1.2,46.1c3.9,10.6,13,20.1,24.9,20.5
					c12.9,0.4,22.5-10.8,29.6-20.2c9.8-12.8,17.2-27.2,22.1-42.6c0.1-0.5-0.6-0.7-0.7-0.2c-5.2,16.3-13.3,31.6-24,44.9
					c-5.2,6.5-11.3,13.3-19.4,16.1c-8.9,3-18.4-0.3-24.7-7c-12.8-13.5-10.6-34.1-9-51c1.7-18.5,4.4-36.9,7.8-55.2
					C177.3,173.6,176.6,173.4,176.5,173.9L176.5,173.9z"/>
			</g>
		</g>
		<g>
			<g>
				<path class="st0" d="M184.7,170c-3.8-2.9-5.9-7.2-6-12c0-0.5-0.8-0.5-0.8,0c0.1,5,2.3,9.5,6.2,12.5
					C184.5,170.8,185.1,170.3,184.7,170L184.7,170z"/>
			</g>
		</g>
		<g>
			<g>
				<path class="st0" d="M177.5,155.2c-1.1-1.1-4.5-5.1-2.3-6.5c0.4-0.3,0-0.9-0.4-0.6c-2.9,1.9,0.6,6.1,2.1,7.7
					C177.3,156.1,177.8,155.6,177.5,155.2L177.5,155.2z"/>
			</g>
		</g>
		<g>
			<path class="st15" d="M168.8,130.7c2.7,1.3,4.6,3.7,6.4,6.1c7.6,10.2,15.4,20.7,18.4,33.1"/>
		</g>
		<g>
			<path class="st15" d="M169,153.7c1.3,6.2,5.3,11.5,9.5,16.1"/>
		</g>
		<g>
			<path class="st15" d="M158.4,141.5c1.9,3.5,4.9,6.4,8.4,8.2"/>
		</g>
		<g>
			<g>
				<path class="st0" d="M166.4,132.3c1.3,4.6,4.9,7.7,8.6,10.5c0.4,0.3,0.8-0.4,0.4-0.6c-3.6-2.6-7-5.6-8.2-10
					C167,131.7,166.3,131.9,166.4,132.3L166.4,132.3z"/>
			</g>
		</g>
		<g>
			<g>
				<path class="st0" d="M162.8,135.7c1.1,1.9,2.3,3.7,3.7,5.4c0.6,0.8,1.3,1.6,2,2.2c0.7,0.6,1.6,0.9,2.4,1.4
					c0.4,0.3,0.8-0.4,0.4-0.6c-0.7-0.5-1.6-0.8-2.3-1.3c-0.8-0.6-1.4-1.4-2-2.2c-1.3-1.7-2.5-3.4-3.6-5.3
					C163.2,134.9,162.6,135.3,162.8,135.7L162.8,135.7z"/>
			</g>
		</g>
		<g>
			<g>
				<path class="st0" d="M160.2,138.4c1.9,3.5,4.1,7.1,7.8,8.9c0.4,0.2,0.8-0.4,0.4-0.6c-3.6-1.7-5.7-5.2-7.5-8.6
					C160.7,137.6,160,138,160.2,138.4L160.2,138.4z"/>
			</g>
		</g>
	</g>
	<g id="head">
		<path class="st0" d="M312.8,131.5c-0.2-7.5-2.2-10.3-4.2-11.4c-2.2-1.2-3.7,0-14.8,2.2c-1.5,0.3-4.8,0.8-11.5,1.7
			c-3.8,0.5-5.8,0.8-8.2-0.1c-0.9-0.3-4.1-1.5-5.6-4.6c-2.1-4.3,0.8-9.1,1.4-10.1c3.3-5.5,9.4-7,11.9-7.6c6.8-1.7,12.6,0.2,15.1,1.2
			c1.9-5.2,4.1-6.6,5.7-7c1.9-0.4,2.4,0.8,5.9,1.1c2.8,0.2,5-0.4,8.3-1.2c2.8-0.7,3.5-1.2,4.9-1.6c7.2-2,14.8,3.4,16.1,4.3
			c5.4,3.8,7.9,8.9,9.1,12c0.5,1.5,2.2,6.7,1.1,13.3c-1.3,7.1-5.1,11.6-7.2,14c-3.1,3.5-8.3,9.6-17,10.4c-8.6,0.8-15-4.1-16.7-5.5
			C309,138.9,310.9,135.2,312.8,131.5z"/>
		<path class="st16" d="M282.3,124.1c-0.5,1.6-1.1,4-1.2,6.9c-0.1,1.8-0.1,4.3,0.9,7.2c1.9,5.1,5.8,7.8,6.8,8.4c3.2,2,6.3,2.5,8,2.6
			c0.3,1.4,0.7,2.8,1,4.2c-1.5-0.7-3.1-0.3-3.9,0.7c-0.9,1.2-0.4,2.9,0.4,3.8c1.6,1.8,5.3,0.7,6.8,0.3c4.2-1.3,6.9-4.2,8.4-6.3
			c-1-1.9-1.9-3.9-2.9-5.8c1-0.7,2.3-1.8,3.6-3.5c0.6-0.8,1.8-2.6,2.8-5.6c1.3-4.1,2.6-8,0.9-12.3c-1.6-4.1-5.4-7.5-10-8.4
			c-3.9-0.8-7.1,0.5-8.2,0.9c-2.2,1-2.7,1.9-5.1,3.5C288.9,121.8,286.2,123.2,282.3,124.1z"/>
		<g>
			<path class="st15" d="M282.3,124.1c-1.5,4.9-1.9,10.4,0.1,15.2c2.9,6.8,10.9,11.1,18.1,9.6c7.3-1.5,13-8.5,13-15.9"/>
		</g>
		<g>
			<g>
				<path class="st0" d="M283.9,122.9c-3.3,0.8-7.1,1.8-10.4,0.6c-5.3-1.9-6.4-7.7-4.2-12.2c3.1-6.5,11.4-9,18.1-9.1
					c13-0.2,27.8,9.4,27.1,23.6c0,0.5,0.7,0.5,0.8,0c1-18.3-21.7-28.3-37-22.7c-5.9,2.2-11.7,7.3-10.6,14.2
					c1.3,8.4,10.2,7.9,16.6,6.4C284.6,123.5,284.4,122.8,283.9,122.9L283.9,122.9z"/>
			</g>
		</g>
		<g>
			<g>
				<path class="st0" d="M285,123.5c4.5-0.9,7.3-4.6,11.5-6.2c7.4-2.8,15,1.1,17.5,8.5c0.2,0.5,0.9,0.3,0.7-0.2
					c-1.7-5-5.5-9-10.9-9.9c-8.1-1.4-11.8,5.6-19,7C284.3,122.9,284.5,123.6,285,123.5L285,123.5z"/>
			</g>
		</g>
		<g>
			<g>
				<path class="st0" d="M297.3,103c0.5-1.4,1.5-4.4,2.9-5.2c1.8-1.1,5.4-0.3,7.1,0.2c1.1,0.3,1.8,0.8,3,0.8c3.5,0,6.6-2.8,10-3.5
					c10.9-2.2,22,4.1,25.9,14.4c8.3,21.4-15.6,45.6-36.6,33.7c-0.4-0.2-0.8,0.4-0.4,0.6c22,12.5,47.2-13.6,37.2-35.8
					c-4.3-9.5-14.4-15.2-24.8-13.8c-2.6,0.3-4.6,1.3-6.9,2.1c-2.7,0.9-5.3,1.2-7.9,0.2c-0.9-0.3-1.2-0.9-2.2-1.1
					c-4.4-0.8-6.7,4-7.9,7.3C296.4,103.2,297.2,103.4,297.3,103L297.3,103z"/>
			</g>
		</g>
		<g>
			<g>
				<path class="st0" d="M296.5,149.3c0.3,1.4,0.7,2.8,1,4.2c0.1,0.5,0.8,0.3,0.7-0.2c-0.3-1.4-0.7-2.8-1-4.2
					C297.1,148.6,296.3,148.8,296.5,149.3L296.5,149.3z"/>
			</g>
		</g>
		<g>
			<path class="st15" d="M294.2,153.4c-0.6,1.2-1,2.6-0.4,3.8c0.4,0.9,1.3,1.4,2.3,1.6s1.9,0.1,2.8-0.1c4.2-0.8,8.1-3.3,10.6-6.8"/>
		</g>
		<g>
			<g>
				<path class="st0" d="M294.1,124.5c-2.2,5-4.2,10.7-0.4,15.4c0.3,0.4,0.8-0.2,0.5-0.5c-3.6-4.4-1.5-9.9,0.5-14.5
					C295,124.5,294.3,124.1,294.1,124.5L294.1,124.5z"/>
			</g>
		</g>
		<circle class="st0" cx="289.3" cy="127.7" r="1.2"/>
		<circle class="st0" cx="300.6" cy="127.7" r="1.2"/>
	</g>
</g>
<g id="rocket">
	<path class="st18" d="M543,302.4l-38.3-1.4c-6.3-0.2-10.4-8.9-7.7-16.4l5.9-16.4c1.5-4.1,4.6-6.7,8-6.6l28,0.5
		c3.7,0.1,7,3.2,8.2,7.8l4.4,17.3C553.5,294.8,549.1,302.7,543,302.4z"/>
	<path class="st12" d="M554.5,140.1c3.8,4.3,7.7,9.1,11.5,14.3c14.9,20.7,23,41.4,27.7,58.2c-12.9-0.3-25.8-0.6-38.6-1"/>
	<path class="st19" d="M570.6,186.7c2.5,26,1.4,48.2-0.3,64.7c-0.6,5.9-3.4,11.4-7.8,15.3c-7.2,6.5-19.7,14.8-36.9,15.2
		c-19.6,0.5-33.7-9.4-41.4-16.8c-4.3-4.1-6.9-9.7-7.4-15.7c-1.1-16.3-1.1-38,3.7-62.8c8.8-45.3,34.2-105.2,55-103.1
		C560.4,86.3,569.7,176.7,570.6,186.7z"/>
	<ellipse class="st20" cx="544.6" cy="180.9" rx="17.3" ry="30.7"/>
	<path class="st12" d="M496.9,144.7c-3.8,4.3-7.7,9.1-11.5,14.3c-14.9,20.7-23,41.4-27.7,58.2c12.9-0.3,25.8-0.6,38.6-1"/>
</g>
<g id="tab">
	<path class="st21" d="M407.4,273c-0.6,2.1-14.6,104.8-14.6,104.8l115.1-19.6l16.2-85.3L407.4,273z"/>
	<g class="st22">
		<g>
			<path class="st0" d="M415.9,285.6c27.2-0.2,54.5-0.5,81.7-0.7c1.9,0,1.9-3,0-3c-27.2,0.2-54.5,0.5-81.7,0.7
				C414,282.6,414,285.6,415.9,285.6L415.9,285.6z"/>
		</g>
	</g>
	<g class="st22">
		<g>
			<path class="st0" d="M412.5,299.7c25.2-0.7,50.3-1.4,75.5-2c1.9-0.1,1.9-3.1,0-3c-25.2,0.7-50.3,1.4-75.5,2
				C410.6,296.7,410.6,299.7,412.5,299.7L412.5,299.7z"/>
		</g>
	</g>
	<g class="st22">
		<g>
			<path class="st0" d="M411.3,313.3c24-0.4,48.1-1.1,72.1-2.2c1.9-0.1,1.9-3.1,0-3c-24,1-48,1.8-72.1,2.2
				C409.4,310.3,409.4,313.3,411.3,313.3L411.3,313.3z"/>
		</g>
	</g>
	<g class="st22">
		<g>
			<path class="st0" d="M408.8,331.7c24.7-0.7,49.3-2.1,73.9-4c1.9-0.2,1.9-3.2,0-3c-24.6,2-49.3,3.3-73.9,4
				C406.9,328.7,406.9,331.7,408.8,331.7L408.8,331.7z"/>
		</g>
	</g>
	<g class="st22">
		<g>
			<path class="st0" d="M405.8,349.8c27.4-2.2,54.7-4.8,82-7.8c1.9-0.2,1.9-3.2,0-3c-27.3,3-54.6,5.6-82,7.8
				C403.9,347,403.9,350,405.8,349.8L405.8,349.8z"/>
		</g>
	</g>
</g>
</svg>
